<svg xmlns="http://www.w3.org/2000/svg" width="788.559" height="857.884" viewBox="0 0 788.559 857.884"><defs><style>.a,.c,.d,.e,.f,.h{fill:none;}.a,.d,.e,.f{stroke:#55efc4;}.a,.c,.d,.e,.f{stroke-miterlimit:10;}.a{stroke-width:20px;}.b{fill:#f7931e;}.c{stroke:#f7931e;}.d{stroke-width:6.997px;}.e{stroke-width:5.248px;}.f{stroke-width:8px;}.g{stroke:none;}</style></defs><g transform="translate(-995.803 -3349.138)"><g class="a" transform="translate(1046 3600.486)"><rect class="g" width="536" height="357"/><rect class="h" x="10" y="10" width="516" height="337"/></g><g transform="translate(1520 3467.486)"><g transform="translate(0 0)"><g transform="translate(257.361 0)"><circle class="b" cx="1.319" cy="1.319" r="1.319"/></g><g transform="translate(244.451 0)"><circle class="b" cx="1.319" cy="1.319" r="1.319"/></g><g transform="translate(231.634 0)"><circle class="b" cx="1.319" cy="1.319" r="1.319"/></g><g transform="translate(218.724 0)"><circle class="b" cx="1.319" cy="1.319" r="1.319"/></g><g transform="translate(205.908 0)"><circle class="b" cx="1.319" cy="1.319" r="1.319"/></g><g transform="translate(192.997 0)"><circle class="b" cx="1.319" cy="1.319" r="1.319"/></g><g transform="translate(180.181 0)"><circle class="b" cx="1.319" cy="1.319" r="1.319"/></g><g transform="translate(167.271 0)"><circle class="b" cx="1.319" cy="1.319" r="1.319"/></g><g transform="translate(154.454 0)"><circle class="b" cx="1.319" cy="1.319" r="1.319"/></g><g transform="translate(141.544 0)"><circle class="b" cx="1.319" cy="1.319" r="1.319"/></g><g transform="translate(128.633 0)"><circle class="b" cx="1.319" cy="1.319" r="1.319"/></g><g transform="translate(115.817 0)"><circle class="b" cx="1.319" cy="1.319" r="1.319"/></g><g transform="translate(102.907 0)"><circle class="b" cx="1.319" cy="1.319" r="1.319"/></g><g transform="translate(90.091 0)"><circle class="b" cx="1.319" cy="1.319" r="1.319"/></g><g transform="translate(77.18 0)"><circle class="b" cx="1.319" cy="1.319" r="1.319"/></g><g transform="translate(64.364 0)"><circle class="b" cx="1.319" cy="1.319" r="1.319"/></g><g transform="translate(51.453 0)"><circle class="b" cx="1.319" cy="1.319" r="1.319"/></g><g transform="translate(38.637 0)"><circle class="b" cx="1.319" cy="1.319" r="1.319"/></g><g transform="translate(25.727 0)"><circle class="b" cx="1.319" cy="1.319" r="1.319"/></g><g transform="translate(12.911 0)"><circle class="b" cx="1.319" cy="1.319" r="1.319"/></g><g transform="translate(0 0)"><circle class="b" cx="1.319" cy="1.319" r="1.319"/></g></g><g transform="translate(0 12.816)"><g transform="translate(257.361 0)"><circle class="b" cx="1.319" cy="1.319" r="1.319"/></g><g transform="translate(244.451 0)"><circle class="b" cx="1.319" cy="1.319" r="1.319"/></g><g transform="translate(231.634 0)"><circle class="b" cx="1.319" cy="1.319" r="1.319"/></g><g transform="translate(218.724 0)"><circle class="b" cx="1.319" cy="1.319" r="1.319"/></g><g transform="translate(205.908 0)"><circle class="b" cx="1.319" cy="1.319" r="1.319"/></g><g transform="translate(192.997 0)"><circle class="b" cx="1.319" cy="1.319" r="1.319"/></g><g transform="translate(180.181 0)"><circle class="b" cx="1.319" cy="1.319" r="1.319"/></g><g transform="translate(167.271 0)"><circle class="b" cx="1.319" cy="1.319" r="1.319"/></g><g transform="translate(154.454 0)"><circle class="b" cx="1.319" cy="1.319" r="1.319"/></g><g transform="translate(141.544 0)"><circle class="b" cx="1.319" cy="1.319" r="1.319"/></g><g transform="translate(128.633 0)"><circle class="b" cx="1.319" cy="1.319" r="1.319"/></g><g transform="translate(115.817 0)"><circle class="b" cx="1.319" cy="1.319" r="1.319"/></g><g transform="translate(102.907 0)"><circle class="b" cx="1.319" cy="1.319" r="1.319"/></g><g transform="translate(90.091 0)"><circle class="b" cx="1.319" cy="1.319" r="1.319"/></g><g transform="translate(77.18 0)"><circle class="b" cx="1.319" cy="1.319" r="1.319"/></g><g transform="translate(64.364 0)"><circle class="b" cx="1.319" cy="1.319" r="1.319"/></g><g transform="translate(51.453 0)"><circle class="b" cx="1.319" cy="1.319" r="1.319"/></g><g transform="translate(38.637 0)"><circle class="b" cx="1.319" cy="1.319" r="1.319"/></g><g transform="translate(25.727 0)"><circle class="b" cx="1.319" cy="1.319" r="1.319"/></g><g transform="translate(12.911 0)"><circle class="b" cx="1.319" cy="1.319" r="1.319"/></g><g transform="translate(0 0)"><circle class="b" cx="1.319" cy="1.319" r="1.319"/></g></g><g transform="translate(0 25.727)"><g transform="translate(257.361 0)"><circle class="b" cx="1.319" cy="1.319" r="1.319"/></g><g transform="translate(244.451 0)"><circle class="b" cx="1.319" cy="1.319" r="1.319"/></g><g transform="translate(231.634 0)"><circle class="b" cx="1.319" cy="1.319" r="1.319"/></g><g transform="translate(218.724 0)"><circle class="b" cx="1.319" cy="1.319" r="1.319"/></g><g transform="translate(205.908 0)"><circle class="b" cx="1.319" cy="1.319" r="1.319"/></g><g transform="translate(192.997 0)"><circle class="b" cx="1.319" cy="1.319" r="1.319"/></g><g transform="translate(180.181 0)"><circle class="b" cx="1.319" cy="1.319" r="1.319"/></g><g transform="translate(167.271 0)"><circle class="b" cx="1.319" cy="1.319" r="1.319"/></g><g transform="translate(154.454 0)"><circle class="b" cx="1.319" cy="1.319" r="1.319"/></g><g transform="translate(141.544 0)"><circle class="b" cx="1.319" cy="1.319" r="1.319"/></g><g transform="translate(128.633 0)"><circle class="b" cx="1.319" cy="1.319" r="1.319"/></g><g transform="translate(115.817 0)"><circle class="b" cx="1.319" cy="1.319" r="1.319"/></g><g transform="translate(102.907 0)"><circle class="b" cx="1.319" cy="1.319" r="1.319"/></g><g transform="translate(90.091 0)"><circle class="b" cx="1.319" cy="1.319" r="1.319"/></g><g transform="translate(77.18 0)"><circle class="b" cx="1.319" cy="1.319" r="1.319"/></g><g transform="translate(64.364 0)"><circle class="b" cx="1.319" cy="1.319" r="1.319"/></g><g transform="translate(51.453 0)"><circle class="b" cx="1.319" cy="1.319" r="1.319"/></g><g transform="translate(38.637 0)"><circle class="b" cx="1.319" cy="1.319" r="1.319"/></g><g transform="translate(25.727 0)"><circle class="b" cx="1.319" cy="1.319" r="1.319"/></g><g transform="translate(12.911 0)"><circle class="b" cx="1.319" cy="1.319" r="1.319"/></g><g transform="translate(0 0)"><circle class="b" cx="1.319" cy="1.319" r="1.319"/></g></g><g transform="translate(0 38.543)"><g transform="translate(257.361 0)"><circle class="b" cx="1.319" cy="1.319" r="1.319"/></g><g transform="translate(244.451 0)"><circle class="b" cx="1.319" cy="1.319" r="1.319"/></g><g transform="translate(231.634 0)"><circle class="b" cx="1.319" cy="1.319" r="1.319"/></g><g transform="translate(218.724 0)"><circle class="b" cx="1.319" cy="1.319" r="1.319"/></g><g transform="translate(205.908 0)"><circle class="b" cx="1.319" cy="1.319" r="1.319"/></g><g transform="translate(192.997 0)"><circle class="b" cx="1.319" cy="1.319" r="1.319"/></g><g transform="translate(180.181 0)"><circle class="b" cx="1.319" cy="1.319" r="1.319"/></g><g transform="translate(167.271 0)"><circle class="b" cx="1.319" cy="1.319" r="1.319"/></g><g transform="translate(154.454 0)"><circle class="b" cx="1.319" cy="1.319" r="1.319"/></g><g transform="translate(141.544 0)"><circle class="b" cx="1.319" cy="1.319" r="1.319"/></g><g transform="translate(128.633 0)"><circle class="b" cx="1.319" cy="1.319" r="1.319"/></g><g transform="translate(115.817 0)"><circle class="b" cx="1.319" cy="1.319" r="1.319"/></g><g transform="translate(102.907 0)"><circle class="b" cx="1.319" cy="1.319" r="1.319"/></g><g transform="translate(90.091 0)"><circle class="b" cx="1.319" cy="1.319" r="1.319"/></g><g transform="translate(77.18 0)"><circle class="b" cx="1.319" cy="1.319" r="1.319"/></g><g transform="translate(64.364 0)"><circle class="b" cx="1.319" cy="1.319" r="1.319"/></g><g transform="translate(51.453 0)"><circle class="b" cx="1.319" cy="1.319" r="1.319"/></g><g transform="translate(38.637 0)"><circle class="b" cx="1.319" cy="1.319" r="1.319"/></g><g transform="translate(25.727 0)"><circle class="b" cx="1.319" cy="1.319" r="1.319"/></g><g transform="translate(12.911 0)"><circle class="b" cx="1.319" cy="1.319" r="1.319"/></g><g transform="translate(0 0)"><circle class="b" cx="1.319" cy="1.319" r="1.319"/></g></g><g transform="translate(0 51.453)"><g transform="translate(257.361 0)"><circle class="b" cx="1.319" cy="1.319" r="1.319"/></g><g transform="translate(244.451 0)"><circle class="b" cx="1.319" cy="1.319" r="1.319"/></g><g transform="translate(231.634 0)"><circle class="b" cx="1.319" cy="1.319" r="1.319"/></g><g transform="translate(218.724 0)"><circle class="b" cx="1.319" cy="1.319" r="1.319"/></g><g transform="translate(205.908 0)"><circle class="b" cx="1.319" cy="1.319" r="1.319"/></g><g transform="translate(192.997 0)"><circle class="b" cx="1.319" cy="1.319" r="1.319"/></g><g transform="translate(180.181 0)"><circle class="b" cx="1.319" cy="1.319" r="1.319"/></g><g transform="translate(167.271 0)"><circle class="b" cx="1.319" cy="1.319" r="1.319"/></g><g transform="translate(154.454 0)"><circle class="b" cx="1.319" cy="1.319" r="1.319"/></g><g transform="translate(141.544 0)"><circle class="b" cx="1.319" cy="1.319" r="1.319"/></g><g transform="translate(128.633 0)"><circle class="b" cx="1.319" cy="1.319" r="1.319"/></g><g transform="translate(115.817 0)"><circle class="b" cx="1.319" cy="1.319" r="1.319"/></g><g transform="translate(102.907 0)"><circle class="b" cx="1.319" cy="1.319" r="1.319"/></g><g transform="translate(90.091 0)"><circle class="b" cx="1.319" cy="1.319" r="1.319"/></g><g transform="translate(77.18 0)"><circle class="b" cx="1.319" cy="1.319" r="1.319"/></g><g transform="translate(64.364 0)"><circle class="b" cx="1.319" cy="1.319" r="1.319"/></g><g transform="translate(51.453 0)"><circle class="b" cx="1.319" cy="1.319" r="1.319"/></g><g transform="translate(38.637 0)"><circle class="b" cx="1.319" cy="1.319" r="1.319"/></g><g transform="translate(25.727 0)"><circle class="b" cx="1.319" cy="1.319" r="1.319"/></g><g transform="translate(12.911 0)"><circle class="b" cx="1.319" cy="1.319" r="1.319"/></g><g transform="translate(0 0)"><circle class="b" cx="1.319" cy="1.319" r="1.319"/></g></g><g transform="translate(0 64.269)"><g transform="translate(257.361 0)"><circle class="b" cx="1.319" cy="1.319" r="1.319"/></g><g transform="translate(244.451 0)"><circle class="b" cx="1.319" cy="1.319" r="1.319"/></g><g transform="translate(231.634 0)"><circle class="b" cx="1.319" cy="1.319" r="1.319"/></g><g transform="translate(218.724 0)"><circle class="b" cx="1.319" cy="1.319" r="1.319"/></g><g transform="translate(205.908 0)"><circle class="b" cx="1.319" cy="1.319" r="1.319"/></g><g transform="translate(192.997 0)"><circle class="b" cx="1.319" cy="1.319" r="1.319"/></g><g transform="translate(180.181 0)"><circle class="b" cx="1.319" cy="1.319" r="1.319"/></g><g transform="translate(167.271 0)"><circle class="b" cx="1.319" cy="1.319" r="1.319"/></g><g transform="translate(154.454 0)"><circle class="b" cx="1.319" cy="1.319" r="1.319"/></g><g transform="translate(141.544 0)"><circle class="b" cx="1.319" cy="1.319" r="1.319"/></g><g transform="translate(128.633 0)"><circle class="b" cx="1.319" cy="1.319" r="1.319"/></g><g transform="translate(115.817 0)"><circle class="b" cx="1.319" cy="1.319" r="1.319"/></g><g transform="translate(102.907 0)"><circle class="b" cx="1.319" cy="1.319" r="1.319"/></g><g transform="translate(90.091 0)"><circle class="b" cx="1.319" cy="1.319" r="1.319"/></g><g transform="translate(77.18 0)"><circle class="b" cx="1.319" cy="1.319" r="1.319"/></g><g transform="translate(64.364 0)"><circle class="b" cx="1.319" cy="1.319" r="1.319"/></g><g transform="translate(51.453 0)"><circle class="b" cx="1.319" cy="1.319" r="1.319"/></g><g transform="translate(38.637 0)"><circle class="b" cx="1.319" cy="1.319" r="1.319"/></g><g transform="translate(25.727 0)"><circle class="b" cx="1.319" cy="1.319" r="1.319"/></g><g transform="translate(12.911 0)"><circle class="b" cx="1.319" cy="1.319" r="1.319"/></g><g transform="translate(0 0)"><circle class="b" cx="1.319" cy="1.319" r="1.319"/></g></g><g transform="translate(0 77.18)"><g transform="translate(257.361 0)"><circle class="b" cx="1.319" cy="1.319" r="1.319"/></g><g transform="translate(244.451 0)"><circle class="b" cx="1.319" cy="1.319" r="1.319"/></g><g transform="translate(231.634 0)"><circle class="b" cx="1.319" cy="1.319" r="1.319"/></g><g transform="translate(218.724 0)"><circle class="b" cx="1.319" cy="1.319" r="1.319"/></g><g transform="translate(205.908 0)"><circle class="b" cx="1.319" cy="1.319" r="1.319"/></g><g transform="translate(192.997 0)"><circle class="b" cx="1.319" cy="1.319" r="1.319"/></g><g transform="translate(180.181 0)"><circle class="b" cx="1.319" cy="1.319" r="1.319"/></g><g transform="translate(167.271 0)"><circle class="b" cx="1.319" cy="1.319" r="1.319"/></g><g transform="translate(154.454 0)"><circle class="b" cx="1.319" cy="1.319" r="1.319"/></g><g transform="translate(141.544 0)"><circle class="b" cx="1.319" cy="1.319" r="1.319"/></g><g transform="translate(128.633 0)"><circle class="b" cx="1.319" cy="1.319" r="1.319"/></g><g transform="translate(115.817 0)"><circle class="b" cx="1.319" cy="1.319" r="1.319"/></g><g transform="translate(102.907 0)"><circle class="b" cx="1.319" cy="1.319" r="1.319"/></g><g transform="translate(90.091 0)"><circle class="b" cx="1.319" cy="1.319" r="1.319"/></g><g transform="translate(77.18 0)"><circle class="b" cx="1.319" cy="1.319" r="1.319"/></g><g transform="translate(64.364 0)"><circle class="b" cx="1.319" cy="1.319" r="1.319"/></g><g transform="translate(51.453 0)"><circle class="b" cx="1.319" cy="1.319" r="1.319"/></g><g transform="translate(38.637 0)"><circle class="b" cx="1.319" cy="1.319" r="1.319"/></g><g transform="translate(25.727 0)"><circle class="b" cx="1.319" cy="1.319" r="1.319"/></g><g transform="translate(12.911 0)"><circle class="b" cx="1.319" cy="1.319" r="1.319"/></g><g transform="translate(0 0)"><circle class="b" cx="1.319" cy="1.319" r="1.319"/></g></g><g transform="translate(0 89.996)"><g transform="translate(257.361 0)"><circle class="b" cx="1.319" cy="1.319" r="1.319"/></g><g transform="translate(244.451 0)"><circle class="b" cx="1.319" cy="1.319" r="1.319"/></g><g transform="translate(231.634 0)"><circle class="b" cx="1.319" cy="1.319" r="1.319"/></g><g transform="translate(218.724 0)"><circle class="b" cx="1.319" cy="1.319" r="1.319"/></g><g transform="translate(205.908 0)"><circle class="b" cx="1.319" cy="1.319" r="1.319"/></g><g transform="translate(192.997 0)"><circle class="b" cx="1.319" cy="1.319" r="1.319"/></g><g transform="translate(180.181 0)"><circle class="b" cx="1.319" cy="1.319" r="1.319"/></g><g transform="translate(167.271 0)"><circle class="b" cx="1.319" cy="1.319" r="1.319"/></g><g transform="translate(154.454 0)"><circle class="b" cx="1.319" cy="1.319" r="1.319"/></g><g transform="translate(141.544 0)"><circle class="b" cx="1.319" cy="1.319" r="1.319"/></g><g transform="translate(128.633 0)"><circle class="b" cx="1.319" cy="1.319" r="1.319"/></g><g transform="translate(115.817 0)"><circle class="b" cx="1.319" cy="1.319" r="1.319"/></g><g transform="translate(102.907 0)"><circle class="b" cx="1.319" cy="1.319" r="1.319"/></g><g transform="translate(90.091 0)"><circle class="b" cx="1.319" cy="1.319" r="1.319"/></g><g transform="translate(77.18 0)"><circle class="b" cx="1.319" cy="1.319" r="1.319"/></g><g transform="translate(64.364 0)"><circle class="b" cx="1.319" cy="1.319" r="1.319"/></g><g transform="translate(51.453 0)"><circle class="b" cx="1.319" cy="1.319" r="1.319"/></g><g transform="translate(38.637 0)"><circle class="b" cx="1.319" cy="1.319" r="1.319"/></g><g transform="translate(25.727 0)"><circle class="b" cx="1.319" cy="1.319" r="1.319"/></g><g transform="translate(12.911 0)"><circle class="b" cx="1.319" cy="1.319" r="1.319"/></g><g transform="translate(0 0)"><circle class="b" cx="1.319" cy="1.319" r="1.319"/></g></g></g><g transform="translate(996.16 4164.857)"><g transform="translate(12.749 0)"><g transform="translate(64.028 0)"><line class="c" x1="4.312" y2="4.219"/><line class="c" x1="4.312" y1="4.219"/></g><g transform="translate(51.279 0)"><line class="c" x1="4.219" y2="4.219"/><line class="c" x1="4.219" y1="4.219"/></g><g transform="translate(38.436 0)"><line class="c" x1="4.312" y2="4.219"/><line class="c" x1="4.312" y1="4.219"/></g><g transform="translate(25.593 0)"><line class="c" x1="4.312" y2="4.219"/><line class="c" x1="4.312" y1="4.219"/></g><g transform="translate(12.843 0)"><line class="c" x1="4.219" y2="4.219"/><line class="c" x1="4.219" y1="4.219"/></g><g transform="translate(0 0)"><line class="c" x1="4.312" y2="4.219"/><line class="c" x1="4.312" y1="4.219"/></g></g><g transform="translate(12.749 12.468)"><g transform="translate(64.028 0)"><line class="c" x1="4.312" y2="4.312"/><line class="c" x1="4.312" y1="4.312"/></g><g transform="translate(51.279 0)"><line class="c" x1="4.219" y2="4.312"/><line class="c" x1="4.219" y1="4.312"/></g><g transform="translate(38.436 0)"><line class="c" x1="4.312" y2="4.312"/><line class="c" x1="4.312" y1="4.312"/></g><g transform="translate(25.593 0)"><line class="c" x1="4.312" y2="4.312"/><line class="c" x1="4.312" y1="4.312"/></g><g transform="translate(12.843 0)"><line class="c" x1="4.219" y2="4.312"/><line class="c" x1="4.219" y1="4.312"/></g><g transform="translate(0 0)"><line class="c" x1="4.312" y2="4.312"/><line class="c" x1="4.312" y1="4.312"/></g></g><g transform="translate(25.593 25.03)"><g transform="translate(64.028 0)"><line class="c" x1="4.219" y2="4.219"/><line class="c" x1="4.219" y1="4.219"/></g><g transform="translate(51.185 0)"><line class="c" x1="4.312" y2="4.219"/><line class="c" x1="4.312" y1="4.219"/></g><g transform="translate(38.436 0)"><line class="c" x1="4.219" y2="4.219"/><line class="c" x1="4.219" y1="4.219"/></g><g transform="translate(25.593 0)"><line class="c" x1="4.312" y2="4.219"/><line class="c" x1="4.312" y1="4.219"/></g><g transform="translate(12.749 0)"><line class="c" x1="4.312" y2="4.219"/><line class="c" x1="4.312" y1="4.219"/></g><g transform="translate(0 0)"><line class="c" x1="4.219" y2="4.219"/><line class="c" x1="4.219" y1="4.219"/></g></g><g transform="translate(0 37.499)"><g transform="translate(64.028 0)"><line class="c" x1="4.219" y2="4.312"/><line class="c" x1="4.219" y1="4.312"/></g><g transform="translate(51.185 0)"><line class="c" x1="4.312" y2="4.312"/><line class="c" x1="4.312" y1="4.312"/></g><g transform="translate(38.342 0)"><line class="c" x1="4.312" y2="4.312"/><line class="c" x1="4.312" y1="4.312"/></g><g transform="translate(25.593 0)"><line class="c" x1="4.219" y2="4.312"/><line class="c" x1="4.219" y1="4.312"/></g><g transform="translate(12.749 0)"><line class="c" x1="4.312" y2="4.312"/><line class="c" x1="4.312" y1="4.312"/></g><g transform="translate(0 0)"><line class="c" x1="4.219" y2="4.312"/><line class="c" x1="4.219" y1="4.312"/></g></g></g><line class="d" x2="65.297" transform="translate(1024.702 3523.299)"/><path class="e" d="M1423.555,808.3,1413.2,798.02l10.355-10.355L1413.2,777.388l10.355-10.278L1413.2,756.832l10.355-10.355L1413.2,736.2" transform="translate(-333.555 2614.8)"/><line class="d" x2="64.911" transform="translate(1719.451 4017.835)"/><path class="e" d="M1423.555,808.3,1413.2,798.02l10.355-10.355L1413.2,777.388l10.355-10.278L1413.2,756.832l10.355-10.355L1413.2,736.2" transform="translate(244.801 3377.8)"/><circle class="d" cx="14.064" cy="14.064" r="14.064" transform="translate(1688.872 3631.48)"/><g transform="translate(-520.605 2553.184)"><g transform="translate(1723.164 1523.875)"><line class="f" x1="25.441" y2="25.441" transform="translate(0)"/><line class="f" x1="25.441" y1="25.441" transform="translate(0)"/></g></g></g></svg>