<svg xmlns="http://www.w3.org/2000/svg" width="67.85" height="81.925" viewBox="0 0 67.85 81.925"><defs><style>.a{fill:#55efc4;}.b{fill:#333;}</style></defs><g transform="translate(-511.087 -4758.175)"><g transform="translate(0 1081)"><circle class="a" cx="23" cy="23" r="23" transform="translate(522 3688)"/><path class="b" d="M663.7,3650.9a34.981,34.981,0,0,0,0-17.6,33.115,33.115,0,0,0-8.8-15.2,34.154,34.154,0,0,0-15.2-8.8,34.98,34.98,0,0,0-17.6,0,33.114,33.114,0,0,0-15.2,8.8,34.152,34.152,0,0,0-8.8,15.2,34.981,34.981,0,0,0,0,17.6,33.115,33.115,0,0,0,8.8,15.2l24,24,24-24A33.625,33.625,0,0,0,663.7,3650.9Zm-44.8,3.2a16.971,16.971,0,1,1,24,0A17.02,17.02,0,0,1,618.9,3654.1Z" transform="translate(-85.888 69)"/></g></g></svg>