<svg xmlns="http://www.w3.org/2000/svg" width="190" height="190" viewBox="0 0 190 190"><defs><style>.a,.b{fill:#fff;}.a{opacity:0;}.c{fill:#efb703;}.d{fill:#232323;}</style></defs><g transform="translate(-1475 -270)"><rect class="a" width="190" height="190" transform="translate(1475 270)"/><g transform="translate(1165.799 120.926)"><g transform="translate(344.201 207.074)"><path class="b" d="M364.789,224.8a16.166,16.166,0,0,0-3.927-17.192l-.53-.53h32.793l27.062,74.289H398.325l-5.306-14.539H373.6a3.192,3.192,0,0,0-2.971,2.122l-4.563,12.417H344.2Zm22.923,27.7c-2.122-5.731-3.4-9.658-5.518-15.389-2.123,5.731-3.5,9.658-5.518,15.389Z" transform="translate(-344.201 -207.074)"/></g><path class="c" d="M455.254,207.074l4.208,11.551H518.69V207.074Z" transform="translate(-54.489 0)"/><path class="c" d="M500.125,330.248l4.207,11.551h36.374V330.248Z" transform="translate(-76.505 -60.436)"/><path class="c" d="M484.824,288.25l4.208,11.551H533.2V288.25Z" transform="translate(-68.998 -39.83)"/><path class="d" d="M432.725,267.513h1.085c-.175-.481-.354-.967-.541-1.474C433.082,266.545,432.9,267.032,432.725,267.513Z" transform="translate(-43.435 -28.932)"/><path class="c" d="M469.525,246.254l4.208,11.551h51.959V246.254Z" transform="translate(-61.491 -19.224)"/></g></g></svg>