<svg xmlns="http://www.w3.org/2000/svg" width="190" height="190" viewBox="0 0 190 190"><defs><style>.a,.b{fill:#fff;}.a{opacity:0;}.c{fill:#6da9dc;}</style></defs><g transform="translate(-1125 -270)"><rect class="a" width="190" height="190" transform="translate(1125 270)"/><g transform="translate(-45 4)"><g transform="translate(1190 338)"><path class="b" d="M291.863,224.742H303.82V268.8H291.863Z" transform="translate(-291.863 -224.17)"/><path class="b" d="M336.572,245.907c0-13.56,9.154-22.6,22.943-22.6,12.073,0,20.657,6.98,21.457,17.508H369.357c-.458-4.921-4.348-8.182-9.842-8.182-6.35,0-10.585,5.321-10.585,13.274s4.235,13.274,10.585,13.274c5.493,0,9.384-3.2,9.842-8.01h11.615c-.8,10.413-9.384,17.336-21.457,17.336C345.726,268.508,336.572,259.468,336.572,245.907Z" transform="translate(-318.749 -223.307)"/><path class="b" d="M570.682,253.059h11.787c.343,3.662,3.547,6.122,8.068,6.122,4.12,0,6.866-1.773,6.866-4.405,0-3.375-4.177-4.005-9.1-4.692-7.267-.974-16.363-2.746-16.363-12.588,0-8.525,7.323-14.189,18.308-14.189,9.956,0,17.165,5.893,18.023,14.761H596.487c-.114-3.261-2.861-5.435-6.923-5.435-3.32,0-5.493,1.545-5.493,3.834,0,2.8,3.891,3.547,8.639,4.177,7.439,1.03,16.822,2.975,16.822,12.759,0,9.04-7.724,15.105-19.282,15.105C579.379,268.508,571.54,262.328,570.682,253.059Z" transform="translate(-459.532 -223.307)"/><g transform="translate(92.643 17.66)"><path class="c" d="M541.666,269.217a14.847,14.847,0,0,1-.646-1.61,63.682,63.682,0,0,0-16.764,26.969h5.387A66.391,66.391,0,0,1,541.666,269.217Z" transform="translate(-524.257 -267.607)"/><path class="c" d="M544.339,300.6h5.578a58.759,58.759,0,0,1,6.5-21.273c-.478-.578-.9-1.141-1.289-1.7A63.677,63.677,0,0,0,544.339,300.6Z" transform="translate(-536.333 -273.634)"/></g><path class="b" d="M490.612,252.757l-1.421-2.726c4.92-2.46,7.9-6.751,7.9-12.188,0-7.838-7.323-13.1-18.252-13.1H460.183V268.8h11.957V252.148H477.8l6.105,12.874A106.591,106.591,0,0,1,490.612,252.757Zm-18.472-9.134v-9.784h7.209c3.205,0,5.379,1.945,5.379,4.863,0,2.975-2.174,4.92-5.379,4.92Z" transform="translate(-393.083 -224.17)"/></g></g></g></svg>