<svg xmlns="http://www.w3.org/2000/svg" width="190" height="190" viewBox="0 0 190 190"><defs><style>.a{fill:#fff;opacity:0;}.b{fill:#55efc4;}</style></defs><g transform="translate(-1475 -620)"><rect class="a" width="190" height="190" transform="translate(1475 620)"/><g transform="translate(1335 625)"><rect class="b" width="31.25" height="4.687" transform="translate(298.75 97.906)"/><path class="b" d="M69.663,10V35H61.069V32.344a7.613,7.613,0,0,1-3.2,2.344,10.442,10.442,0,0,1-4.062.781,10.5,10.5,0,0,1-7.813-2.891c-1.953-1.953-2.891-4.844-2.891-8.75V10h8.594V22.422a6.089,6.089,0,0,0,1.25,4.141,3.953,3.953,0,0,0,3.2,1.328,4.441,4.441,0,0,0,3.516-1.484,6.819,6.819,0,0,0,1.406-4.531V10Z" transform="translate(124.4 66.813)"/><path class="b" d="M105.85,11.891c1.953,1.875,2.813,4.687,2.813,8.516V34.781h-8.594V21.812c0-3.437-1.484-5.234-4.219-5.234a4.831,4.831,0,0,0-3.75,1.484,6.426,6.426,0,0,0-1.406,4.531V34.781H82.1v-25h7.813V12.2a20.687,20.687,0,0,1,3.75-2.344A12.308,12.308,0,0,1,98.194,9,11.031,11.031,0,0,1,105.85,11.891Z" transform="translate(115.869 67.031)"/><path class="b" d="M147.941,9.759V30.228c0,4.688-1.328,8.281-3.906,10.625s-6.25,3.516-11.094,3.516a28.89,28.89,0,0,1-7.031-.859,16.872,16.872,0,0,1-5.625-2.5l3.2-6.25a12.261,12.261,0,0,0,3.906,2.031,16.24,16.24,0,0,0,4.688.7,6.964,6.964,0,0,0,5-1.563c1.094-1.016,1.484-2.578,1.484-4.609v-.859c-1.563,2.031-4.062,2.969-7.422,2.969a12.863,12.863,0,0,1-6.172-1.484,11.945,11.945,0,0,1-4.531-4.3,12.5,12.5,0,0,1-1.641-6.484,11.746,11.746,0,0,1,1.719-6.406,11.412,11.412,0,0,1,4.531-4.3A13.009,13.009,0,0,1,131.3,8.9c3.594,0,6.406,1.172,7.969,3.516V9.759ZM137.394,24.994a4.886,4.886,0,0,0,1.563-3.75,5.006,5.006,0,0,0-1.562-3.75,6.348,6.348,0,0,0-7.969,0,4.886,4.886,0,0,0-1.563,3.75,4.886,4.886,0,0,0,1.563,3.75,5.976,5.976,0,0,0,3.984,1.484A5.362,5.362,0,0,0,137.394,24.994Z" transform="translate(107.841 67.053)"/><path class="b" d="M165.131,33.631a12.47,12.47,0,0,1-5.156-4.687,12.71,12.71,0,0,1-1.875-6.8,12.253,12.253,0,0,1,1.875-6.719,13.337,13.337,0,0,1,5.078-4.688A16.215,16.215,0,0,1,172.475,9.1a16.447,16.447,0,0,1,7.422,1.641,12.13,12.13,0,0,1,5.078,4.609,12.287,12.287,0,0,1,1.8,6.8,13.383,13.383,0,0,1-1.8,6.8,12.265,12.265,0,0,1-5.078,4.687,16.715,16.715,0,0,1-14.766,0Zm11.25-7.031a6.269,6.269,0,0,0,1.484-4.453,5.946,5.946,0,0,0-1.484-4.375,4.9,4.9,0,0,0-3.828-1.562,5.181,5.181,0,0,0-3.828,1.562,6.069,6.069,0,0,0-1.484,4.375,6.269,6.269,0,0,0,1.484,4.453,4.965,4.965,0,0,0,3.828,1.641A5.082,5.082,0,0,0,176.381,26.6Z" transform="translate(99.244 67.009)"/><path class="b" d="M22.9,0V21.406A5.482,5.482,0,0,1,21.806,25a4.108,4.108,0,0,1-3.125,1.25c-2.031,0-3.906-1.172-5.7-3.437L7.9,28.828a12.508,12.508,0,0,0,4.844,3.594,16.12,16.12,0,0,0,6.562,1.25c4.141,0,7.5-1.094,9.609-3.2s3.359-5.312,3.359-9.531V0Z" transform="translate(132.1 69)"/></g></g></svg>