<svg xmlns="http://www.w3.org/2000/svg" width="190" height="190" viewBox="0 0 190 190"><defs><style>.a,.b{fill:#fff;}.a{opacity:0;}</style></defs><g transform="translate(-1125 -620)"><rect class="a" width="190" height="190" transform="translate(1125 620)"/><g transform="translate(958.954 463.352)"><path class="b" d="M428.835,363.463c.381,2.1,2.766,3.333,5.428,3.333h1.183v.53H419.259v-.5h1.159c1.6,0,3.048-1.124,2.9-2.27l-3.375-26.764-15.652,24.852a22.185,22.185,0,0,0-2.555,5.432h-.7l-19.047-29.512-3.269,25.993c-.142,1.146,1.3,2.268,2.9,2.27h1.161v.5H368.364V366.8h1.183c2.662,0,5.046-1.229,5.43-3.333l5.6-34.112h.69l20.784,32.094,20.318-32.078h.681Z" transform="translate(-139.754 -117.357)"/><path class="b" d="M423.047,590.451h-.682l-20.318-32.078-20.784,32.094h-.69l-5.6-34.112c-.383-2.1-2.765-3.333-5.428-3.333h-1.186v-.533h14.425v.5h-1.161c-1.6,0-3.048,1.124-2.9,2.27l3.267,25.993,19.047-29.513h.7a22.215,22.215,0,0,0,2.553,5.432l15.652,24.851,3.377-26.764c.142-1.146-1.3-2.268-2.9-2.27h-1.161v-.5h16.189v.53h-1.183c-2.665,0-5.046,1.229-5.428,3.333Z" transform="translate(-139.748 -297.723)"/><path class="b" d="M802.746,631.694a1.083,1.083,0,0,0-1.293.653l-.09.219-.14-.057,1.733-4.177.132.053-.09.219a.615.615,0,0,0,.368.789l5.268,1.538-3.423-4.472a4.315,4.315,0,0,0-1.315-1.175l.052-.132,7.494-1.087-4.777-2.623a.614.614,0,0,0-.82.3l-.09.217-.131-.055,1.207-2.91.14.057-.092.221a1.072,1.072,0,0,0,.449,1.378l8.441,4.852-.055.129L806.833,627l5.373,7.078-.052.127Z" transform="translate(-490.811 -352.262)"/><path class="b" d="M757.394,713.312l3.793,1.212-1.876-3.541Zm-4.31,1.2a1.491,1.491,0,0,0-1.49.438l-.081.1-.114-.1,3.046-3.7.116.094-.085.1a.642.642,0,0,0,.361,1.05l1.906.609,2.246-2.728-.947-1.777a.632.632,0,0,0-1.1-.156l-.086.1-.116-.1,2.051-2.494.118.1-.088.1a1.482,1.482,0,0,0-.149,1.519l3.865,7.689a10.558,10.558,0,0,0,1.054,1.825l-.085.105Z" transform="translate(-450.403 -422.792)"/><path class="b" d="M698.625,779.066c-1.481,1.067-3.342,1.49-4.567-.215a2.735,2.735,0,0,1,.329-3.762,3.225,3.225,0,0,1-2.027-.186c-.079-.033-1.65-.668-2.524-.909a2.211,2.211,0,0,0-2.181.16l-.088-.12,1.19-.857c1.339-.964,2.52-1.374,3.784-.8.671.3,2.093,1.118,2.527,1.361a1.526,1.526,0,0,0,1.42.228l.083.116-.373.27a1.889,1.889,0,0,0-.528,2.524,3.206,3.206,0,0,0,.381.625c.89,1.135,1.858,1.233,2.673.675.335-.219.776-.556.931-.664l-5.134-7.133a.963.963,0,0,0-1.337-.2l-.154.11-.09-.121,3.719-2.676.086.123-.156.114a.964.964,0,0,0-.232,1.326l4.882,6.782a.961.961,0,0,0,1.332.206l.158-.112.09.121Z" transform="translate(-398.635 -472.695)"/><path class="b" d="M603.688,832.506a2.644,2.644,0,0,1-1.948-2.067c-.416-1.919.716-3.416,3.046-4.036a4.769,4.769,0,0,1,3.294.072,3.619,3.619,0,0,1,.313,2.564l-.129.033a2.62,2.62,0,0,0-3.473-2.014c-1.26.361-1.821,1.26-1.578,2.172.156.591.644.883,1.565,1.194l2.985,1.01a2.819,2.819,0,0,1,2.086,2.242,2.862,2.862,0,0,1-2.388,3.364,19.306,19.306,0,0,1-2.02.377l-.916.243-.377-2.191.14-.037a1.845,1.845,0,0,0,2.5,1.131c1.146-.3,1.7-1.115,1.532-1.906-.116-.583-.657-.848-1.372-1.082Z" transform="translate(-328.958 -520.277)"/><path class="b" d="M518.291,848.678l0-.149.245-.006a.766.766,0,0,0,.778-.73l-.136-5.862c-.057-2.474,1.529-4.063,4.238-4.126,3.226-.075,4.941,1.429,5,3.885l.136,5.853a.764.764,0,0,0,.813.728l.245,0,0,.149-4.336.1,0-.149.247-.007a.766.766,0,0,0,.776-.741l-.134-5.748c-.05-2.139-1.2-3.445-3-3.4-1.839.042-2.956,1.326-2.914,3.348l.138,5.939a.765.765,0,0,0,.813.7l.243,0,0,.151Z" transform="translate(-261.344 -529.722)"/><path class="b" d="M442.168,840.925c-2.509-.585-3.315-2.047-2.993-3.659a3.065,3.065,0,0,1,5.312-1.47l-.031.138a2.254,2.254,0,0,0-2.667,1.142,3.191,3.191,0,0,0-.3.864,1.916,1.916,0,0,0,1.407,2.5l.98.23,2-8.583a.966.966,0,0,0-.725-1.142l-.186-.044.033-.145,4.457,1.036-.035.147-.186-.044a.966.966,0,0,0-1.155.7l-1.911,8.211a.916.916,0,0,0,.738,1.063l.184.042-.031.147Z" transform="translate(-197.128 -524.011)"/><path class="b" d="M370.85,817.423c-2.316-1.129-2.779-2.733-2.1-4.233a3.065,3.065,0,0,1,5.5-.254l-.061.13a2.259,2.259,0,0,0-2.853.521,3.215,3.215,0,0,0-.48.774,1.919,1.919,0,0,0,.813,2.757l.905.44,3.857-7.921a.967.967,0,0,0-.451-1.276l-.173-.083.066-.136,4.113,2-.068.134-.171-.083a.966.966,0,0,0-1.282.427l-3.69,7.58a.916.916,0,0,0,.484,1.2l.169.081-.061.138Z" transform="translate(-139.833 -505.666)"/><path class="b" d="M321.045,761.615l6.1,4.856-.1.116-.149-.118a.962.962,0,0,0-1.343.14l-5.2,6.53a.964.964,0,0,0,.167,1.341l.149.118-.094.12L317,771.868l.1-.114.149.118a.969.969,0,0,0,1.345-.14l5.481-6.885-1.547-1.231a3.019,3.019,0,0,0-3.82.066l-.118-.094Z" transform="translate(-98.096 -467.933)"/><path class="b" d="M270.716,725.209l2.976,3.475-.116.1-.123-.144a.964.964,0,0,0-1.348-.116l-6.348,5.432a.963.963,0,0,0-.086,1.343l.123.145-.112.1-2.976-3.475.116-.1.123.145a.967.967,0,0,0,1.341.123l6.348-5.434a.965.965,0,0,0,.092-1.35l-.123-.142Z" transform="translate(-54.063 -438.407)"/><path class="b" d="M230.181,669.994l3.837,6.788-.131.07-.094-.164a.963.963,0,0,0-1.3-.373l-7.31,4.131a.966.966,0,0,0-.307,1.28l.092.167-.129.077L222,676.943a6.562,6.562,0,0,0-1.124-1.431l2.292-1.3.074.134-.156.088a1.439,1.439,0,0,0-.614,2.036l1.247,2.207,3.815-2.158-.982-1.738a1.259,1.259,0,0,0-1.753-.475l-.112.063-.074-.127,3.028-1.711.072.127-.114.064a1.258,1.258,0,0,0-.5,1.731l.993,1.755,3.688-2.086-.973-1.72a3.021,3.021,0,0,0-3.565-1.372l-.074-.129Z" transform="translate(-20.137 -393.626)"/><path class="b" d="M201.165,614.636a2.643,2.643,0,0,1,2-2.02c1.9-.484,3.44.594,4.141,2.9a4.765,4.765,0,0,1,.046,3.3,3.632,3.632,0,0,1-2.549.4l-.039-.127a2.618,2.618,0,0,0,1.887-3.543c-.4-1.247-1.323-1.775-2.226-1.5-.583.178-.859.673-1.137,1.606l-.9,3.017a2.816,2.816,0,0,1-2.167,2.165,2.862,2.862,0,0,1-3.447-2.266,19.615,19.615,0,0,1-.447-2.005l-.276-.9,2.174-.458.044.14a1.846,1.846,0,0,0-1.041,2.535c.346,1.135,1.175,1.665,1.961,1.464.576-.138.824-.688,1.032-1.411Z" transform="translate(0 -346.998)"/><path class="b" d="M199.876,525.663a.761.761,0,0,1-.009.526c-.394,1.111-.5,1.212-1.624,1.563a.749.749,0,0,1-.526-.011c-1.111-.392-1.209-.5-1.562-1.622a.75.75,0,0,1,.011-.526c.392-1.111.5-1.21,1.621-1.56a.8.8,0,0,1,.559.02C199.427,524.436,199.528,524.547,199.876,525.663Z" transform="translate(-0.054 -275.214)"/><path class="b" d="M213.3,387.307a1.085,1.085,0,0,0,1.284-.668l.088-.223.14.055-1.678,4.2-.132-.053.086-.219a.609.609,0,0,0-.379-.782l-5.288-1.472,3.484,4.429a4.283,4.283,0,0,0,1.33,1.157l-.053.132-7.479,1.188,4.812,2.559a.611.611,0,0,0,.815-.307l.088-.217.132.053-1.168,2.925-.14-.055.087-.221a1.072,1.072,0,0,0-.467-1.374l-8.5-4.74.05-.129,8.868-1.49-5.469-7.008.053-.127Z" transform="translate(-3.501 -162.426)"/><path class="b" d="M267.456,321.718l-3.808-1.164,1.922,3.517Zm4.295-1.258a1.489,1.489,0,0,0,1.486-.456l.079-.1.118.094-3,3.745-.116-.094.083-.1a.641.641,0,0,0-.375-1.045l-1.915-.585-2.211,2.759.971,1.764a.634.634,0,0,0,1.1.142l.083-.105.116.094-2.018,2.52-.118-.092.086-.107a1.478,1.478,0,0,0,.129-1.519l-3.966-7.641a10.487,10.487,0,0,0-1.076-1.812l.085-.108Z" transform="translate(-52.843 -108)"/><path class="b" d="M312.443,250c1.468-1.087,3.324-1.532,4.569.153a2.739,2.739,0,0,1-.28,3.769,3.245,3.245,0,0,1,2.029.158c.081.033,1.659.649,2.535.879a2.2,2.2,0,0,0,2.178-.188l.09.121-1.179.872c-1.326.979-2.5,1.4-3.773.848-.673-.3-2.108-1.091-2.544-1.328a1.525,1.525,0,0,0-1.422-.213l-.085-.114.37-.272a1.89,1.89,0,0,0,.493-2.533,3.231,3.231,0,0,0-.388-.62c-.9-1.122-1.874-1.207-2.682-.64-.331.226-.767.567-.922.677l5.224,7.065a.965.965,0,0,0,1.341.186l.149-.112.094.121-3.684,2.721-.088-.123.153-.112a.963.963,0,0,0,.215-1.328l-4.968-6.723a.964.964,0,0,0-1.337-.186l-.153.112-.092-.118Z" transform="translate(-91.029 -52.222)"/><path class="b" d="M436.758,199.372a2.649,2.649,0,0,1,1.977,2.04c.44,1.915-.673,3.425-2.993,4.076a4.782,4.782,0,0,1-3.294-.026,3.618,3.618,0,0,1-.346-2.559l.127-.035a2.618,2.618,0,0,0,3.5,1.966c1.256-.377,1.8-1.284,1.549-2.191-.164-.589-.655-.874-1.58-1.174l-3-.971a2.808,2.808,0,0,1-2.115-2.213,2.857,2.857,0,0,1,2.343-3.392,19.141,19.141,0,0,1,2.016-.406l.91-.254.407,2.185-.138.04a1.85,1.85,0,0,0-2.513-1.1c-1.142.32-1.692,1.14-1.508,1.926.125.583.67.841,1.387,1.065Z" transform="translate(-190.167 -7.772)"/><path class="b" d="M508.6,184.648l0,.151-.246.009a.767.767,0,0,0-.769.739l.21,5.859c.09,2.474-1.477,4.082-4.185,4.179-3.223.116-4.961-1.365-5.049-3.822l-.21-5.851a.766.766,0,0,0-.822-.716l-.245.009,0-.151,4.336-.156,0,.151-.246.009a.763.763,0,0,0-.767.752l.206,5.743c.077,2.141,1.245,3.431,3.046,3.366,1.836-.066,2.939-1.363,2.871-3.383l-.213-5.936a.765.765,0,0,0-.822-.695l-.245.007,0-.149Z" transform="translate(-244.312 0)"/><path class="b" d="M589.6,190.06c2.516.552,3.342,2,3.039,3.62a3.065,3.065,0,0,1-5.292,1.536l.031-.138a2.255,2.255,0,0,0,2.649-1.175,3.327,3.327,0,0,0,.287-.866,1.922,1.922,0,0,0-1.44-2.489l-.982-.213-1.889,8.6a.966.966,0,0,0,.738,1.133l.186.039-.029.149-4.47-.982.035-.147.186.042a.967.967,0,0,0,1.146-.719l1.806-8.231a.917.917,0,0,0-.752-1.054l-.184-.039.029-.147Z" transform="translate(-313.367 -3.515)"/><path class="b" d="M656.01,211.764c2.332,1.1,2.814,2.7,2.158,4.207a3.066,3.066,0,0,1-5.5.324l.059-.129a2.261,2.261,0,0,0,2.849-.561,3.163,3.163,0,0,0,.469-.778,1.919,1.919,0,0,0-.848-2.746l-.912-.429-3.754,7.972a.965.965,0,0,0,.467,1.269l.175.081-.064.138-4.141-1.952.068-.134.173.081a.965.965,0,0,0,1.275-.447l3.591-7.624a.916.916,0,0,0-.5-1.2l-.171-.081.061-.136Z" transform="translate(-365.707 -20.255)"/><path class="b" d="M712.334,259.828l-6.16-4.779.094-.118.151.116a.963.963,0,0,0,1.341-.156l5.117-6.6a.965.965,0,0,0-.182-1.339l-.151-.116.092-.121,3.614,2.805-.094.116-.151-.116a.964.964,0,0,0-1.343.158l-5.393,6.951,1.562,1.212a3.017,3.017,0,0,0,3.817-.112l.118.092Z" transform="translate(-413.725 -50.342)"/><path class="b" d="M759.6,307.437,756.582,304l.114-.1.127.142a.963.963,0,0,0,1.348.1l6.274-5.513a.965.965,0,0,0,.072-1.346l-.127-.145.112-.1,3.02,3.436-.116.1-.125-.145a.963.963,0,0,0-1.339-.105l-6.278,5.518a.964.964,0,0,0-.074,1.35l.125.142Z" transform="translate(-454.607 -91.153)"/><path class="b" d="M791.37,355.143l-3.922-6.738.134-.075.094.164a.964.964,0,0,0,1.3.357l7.258-4.223a.965.965,0,0,0,.292-1.282l-.1-.166.129-.077,2.9,4.99a6.5,6.5,0,0,0,1.14,1.416l-2.275,1.323-.075-.131.151-.09a1.437,1.437,0,0,0,.589-2.044l-1.275-2.189-3.787,2.2,1.006,1.724a1.255,1.255,0,0,0,1.757.454l.112-.066.077.127-3.009,1.751-.072-.129.114-.066a1.257,1.257,0,0,0,.482-1.736l-1.014-1.742-3.664,2.132.995,1.709a3.026,3.026,0,0,0,3.583,1.326l.074.129Z" transform="translate(-479.64 -128.511)"/><path class="b" d="M827.964,425.442A2.644,2.644,0,0,1,826,427.489c-1.9.508-3.447-.55-4.179-2.844a4.782,4.782,0,0,1-.09-3.294,3.621,3.621,0,0,1,2.544-.436l.039.125a2.62,2.62,0,0,0-1.841,3.567c.421,1.24,1.348,1.755,2.246,1.468.583-.184.85-.684,1.115-1.619l.864-3.028a2.821,2.821,0,0,1,2.139-2.193,2.862,2.862,0,0,1,3.473,2.22,20.153,20.153,0,0,1,.473,2l.287.9-2.167.484-.044-.138a1.846,1.846,0,0,0,1.006-2.548c-.359-1.131-1.2-1.65-1.979-1.44-.574.145-.815.7-1.015,1.424Z" transform="translate(-507.238 -190.187)"/><path class="b" d="M863.867,533.96c.381-1.115.484-1.216,1.6-1.58a.749.749,0,0,1,.526,0c1.115.379,1.216.482,1.58,1.6a.762.762,0,0,1,0,.526c-.381,1.115-.482,1.216-1.6,1.58a.806.806,0,0,1-.559-.015c-1.085-.37-1.188-.482-1.549-1.593a.75.75,0,0,1,0-.526" transform="translate(-541.577 -281.982)"/></g></g></svg>