<svg xmlns="http://www.w3.org/2000/svg" width="190" height="190" viewBox="0 0 190 190"><defs><style>.a,.b{fill:#fff;}.a{opacity:0;}.c{fill:#f05b27;}</style></defs><g transform="translate(-775 -620)"><rect class="a" width="190" height="190" transform="translate(775 620)"/><g transform="translate(496.855 478.962)"><g transform="translate(278.145 221.635)"><path class="b" d="M308.692,252.787a8.1,8.1,0,0,0-4.914-2.122,27.679,27.679,0,0,0-4.935-.2,23.425,23.425,0,0,0-5.44.777,15.5,15.5,0,0,0-4.992,2.458c-3.4,2.578-5.611,6.651-7.211,10.54-.338.821-.644,1.655-.933,2.495-.365,1.065-.7,2.135-1,3.2-.928,3.21-2.192,8.032.527,10.748A8.092,8.092,0,0,0,284.7,282.8a27.637,27.637,0,0,0,4.935.205,23.447,23.447,0,0,0,5.44-.777,15.5,15.5,0,0,0,4.992-2.458c3.4-2.578,5.611-6.651,7.211-10.54.338-.821.644-1.655.933-2.495.365-1.065.7-2.135,1-3.2C310.146,260.325,311.411,255.5,308.692,252.787Zm-12.629,18.055a6.96,6.96,0,0,1-2.591,3.311,3.978,3.978,0,0,1-2.786.441,1.489,1.489,0,0,1-1.386-1.962,39.5,39.5,0,0,1,3.118-9.809,9.146,9.146,0,0,1,1.9-3.053,4.29,4.29,0,0,1,3.354-1,1.706,1.706,0,0,1,1.524,1.063,2.28,2.28,0,0,1-.009,1.021,39.286,39.286,0,0,1-2.125,7.464C296.756,269.1,296.446,269.986,296.062,270.841Z" transform="translate(-278.145 -250.426)"/><path class="b" d="M409.747,251.3l-18.488,31.134h10.8l2.515-4.844h6.4l-1.072,4.844h10.76l3.808-31.134Zm2.478,19.228h-3.883l5.842-10.723Z" transform="translate(-338.024 -250.891)"/><path class="b" d="M455.605,282.438l11.13-31.134h9.836l2.81,14.2,4.7-14.2h10.095l-11.056,31.134H473.28l-2.773-14.051-4.659,14.051Z" transform="translate(-372.086 -250.891)"/><path class="b" d="M559.966,251.3H544.472s-8.837-.629-14.532,11.13-3.106,15.9-3.106,15.9,1.294,5.177,10.871,4.733,12.313-2.33,12.313-2.33l6.323-17.638H542.476l-2.884,7.469h3.515l-1.592,4.77s-7.1.7-3.106-8.69l1.109-2.477a8.064,8.064,0,0,1,7.4-4.844h9.836Z" transform="translate(-409.482 -250.884)"/><path class="b" d="M591.778,251.291h23.85l-3,8.252H599.321l-1.146,2.958h11.98l-2.884,8.172H595.217L594,274.26h13.349l-2.847,8.172H580.685Z" transform="translate(-438.299 -250.884)"/><path class="b" d="M361.23,251.291H345.725l-11.192,31.14h10.206l3.8-10.8h2.071v10.8H362.29l-1.06-12.374a12.033,12.033,0,0,0,3.882-2.89S369,262.612,369,257.09C369,251.3,361.23,251.291,361.23,251.291Zm-5.423,12.9h-4.659l1.8-4.807h4.314c.8,0,1.681.274,1.747,1.186A3.3,3.3,0,0,1,355.807,264.19Z" transform="translate(-307.995 -250.884)"/></g><path class="c" d="M487.88,208.924a13.832,13.832,0,0,1-1.092-1.446,23.773,23.773,0,0,0-3.709-3.441c-5.1-3.873-11.355-6.024-17.618-7.082-10.782-1.821-22.152-.663-32.856,1.162-9.24,1.575-18.728,4.009-26.851,8.851a30.426,30.426,0,0,0-3.881,2.695c-5.251,4.363-.74,6.434-.74,6.434s4.618,2.78,26.179,3.331a260.881,260.881,0,0,0,37.415-1.771c11.02-1.308,27.888-3.075,41.567-3.483,22.334-.666,19.08,10.107,15.086,16.072,0,0,9.318-.258,10.8-8.091s-11.389-10.5-11.389-10.5-8.209-2.662-28.25-.813-32.613,4.289-56.87,3.55c0,0-12.5-.074-12.572-5.694-.05-3.8,6.723-5.509,9.427-6.287a84.12,84.12,0,0,1,26.192-3.089c8.819.313,17.49,2.957,24.311,8.709.214.18,1.414,1.258,1.414,1.258Z" transform="translate(-64.151 0)"/><g transform="translate(356.478 261.2)"><path class="b" d="M453.222,345.3s-5.571,1.528-5.226-1.578,1.972-7.987,7.938-6.163l1.233-2.662s-7.543-2.317-10.748,4.092-2.761,10.3,5.818,9.17Z" transform="translate(-444.585 -334.492)"/><path class="b" d="M490.549,344.29l-3.344,8.875h2.95l2.317-6.311s.937-.838,3.3-.518l.789-2.253s-3.648-.088-4.24.848l.222-.715Z" transform="translate(-467.146 -339.568)"/><path class="b" d="M513.836,344.29l-3.344,8.875h2.95l2.317-6.311s.937-.838,3.3-.518l.789-2.253s-3.648-.088-4.24.848l.222-.715Z" transform="translate(-479.474 -339.568)"/><path class="b" d="M537.362,345.622s-.3-2.268-5.2-1.38-4.857,6.681-4.857,6.681-.419,4.018,7.223,1.849l.764-2.12s-3.969.888-4.783.272a.855.855,0,0,1-.2-1.306,11.408,11.408,0,0,0,5.275-.789A3.152,3.152,0,0,0,537.362,345.622Zm-4.511,2.244H531.1c.3-1.9,3.18-2.564,3.131-1.233A1.251,1.251,0,0,1,532.851,347.865Z" transform="translate(-488.371 -339.544)"/><path class="b" d="M549.919,344.2l-3.125,8.764h2.976l2.311-6.249s2.422-1.239,2.736-.037-2.126,6.4-2.126,6.4h3.088l2.385-6.674s1.479-4.345-6.156-1.479v-.7Z" transform="translate(-498.691 -339.494)"/><path class="b" d="M574.231,344.033l-1.775,4.371s-1.01,2.355,2.354,2.355h2l.962-2.151h-1.427a.609.609,0,0,1-.568-.826l1.384-3.611h2.311l.98-2.33h-2.5l1.054-2.422-3.328.6-.764,1.9h-1.7l-.789,2.145Z" transform="translate(-512.2 -337.1)"/><path class="b" d="M613.7,335.215l-3.952,11.121a1.646,1.646,0,0,0,1.55,2.2h1.478l.912-2.391h-.359a.434.434,0,0,1-.406-.587l3.9-10.34Z" transform="translate(-531.963 -334.875)"/><path class="b" d="M475.409,344.292l-.493.641s-1.849-1.651-5.128-.345-3.5,6.409-3.5,6.409.272,4.215,5.966,1.356l-.074.814h2.44l3.156-8.875Zm-3.377,6.483s-3.526,1.282-2.49-1.726,2.219-2.934,4.092-2.44Z" transform="translate(-456.074 -339.57)"/><path class="b" d="M596.343,344.292l-.493.641s-1.849-1.651-5.128-.345-3.5,6.409-3.5,6.409.272,4.215,5.966,1.356l-.074.814h2.44l3.156-8.875Zm-3.377,6.483s-3.525,1.282-2.49-1.726,2.219-2.934,4.092-2.44Z" transform="translate(-520.092 -339.57)"/></g></g></g></svg>