<svg xmlns="http://www.w3.org/2000/svg" width="190" height="190" viewBox="0 0 190 190"><defs><style>.a,.b{fill:#fff;}.a{opacity:0;}.c{fill:#cc0f00;}</style></defs><g transform="translate(-775 -270)"><rect class="a" width="190" height="190" transform="translate(775 270)"/><g transform="translate(775 349)"><path class="b" d="M36.872,3.731q-3.2-2.638-8.973-2.638H14.763L12.054,15.208H0v8.479H10.426L8.906,31.61h9.872l1.465-7.673H22.67l4.142,7.673H37.06l-4.894-8.893A12.305,12.305,0,0,0,38,18.2a12.25,12.25,0,0,0,2.071-7.085A9.044,9.044,0,0,0,36.872,3.731ZM28.945,15.11a4.443,4.443,0,0,1-3.179,1.068H21.708l1.381-7.15h3.3q3.68,0,3.681,3.095A3.914,3.914,0,0,1,28.945,15.11Z" transform="translate(0 -0.424)"/><path class="b" d="M94.385,1.719A17.04,17.04,0,0,0,86.541,0a19.469,19.469,0,0,0-9.518,2.306A16.6,16.6,0,0,0,70.456,8.77a18.806,18.806,0,0,0-2.364,9.465,13.705,13.705,0,0,0,1.82,7.094,12.4,12.4,0,0,0,5.188,4.81,17.021,17.021,0,0,0,7.843,1.718,19.458,19.458,0,0,0,9.518-2.306,16.6,16.6,0,0,0,6.568-6.462,18.813,18.813,0,0,0,2.364-9.466,13.708,13.708,0,0,0-1.82-7.093A12.415,12.415,0,0,0,94.385,1.719Zm-3.87,17.17a8.023,8.023,0,0,1-2.656,3.395,6.754,6.754,0,0,1-4.079,1.262,5.515,5.515,0,0,1-4.2-1.611,6,6,0,0,1-1.527-4.308,11.617,11.617,0,0,1,.921-4.657,8.03,8.03,0,0,1,2.656-3.395A6.753,6.753,0,0,1,85.7,8.312a5.518,5.518,0,0,1,4.2,1.611,6,6,0,0,1,1.527,4.308A11.639,11.639,0,0,1,90.515,18.889Z" transform="translate(-24.334 0)"/><path class="b" d="M144.476,17.689a10.94,10.94,0,0,1-1.882,4.835,4.194,4.194,0,0,1-3.388,1.437,3.972,3.972,0,0,1-2.929-1,4.141,4.141,0,0,1-1-3.048,11.1,11.1,0,0,1,.251-2.221l3.179-16.6H128.83l-3.221,16.77a18.136,18.136,0,0,0-.335,3.224,11.226,11.226,0,0,0,1.527,5.923,10.055,10.055,0,0,0,4.393,3.9,15.583,15.583,0,0,0,6.8,1.372q6.693,0,10.709-3.528T154.056,18.3l3.3-17.205h-9.706Z" transform="translate(-44.799 -0.424)"/><path class="b" d="M208.207,1.093H181.182l-1.548,7.978h8.576L183.9,31.61h9.873l4.309-22.539h8.576Z" transform="translate(-64.362 -0.424)"/><path class="b" d="M220.891,31.61h24.347l1.507-7.759H232.061l.752-4.011h12.425l1.423-7.412H234.278l.67-3.576h14.1l1.505-7.76h-23.8Z" transform="translate(-78.247 -0.424)"/><path class="c" d="M273.895,1.093v7.76h5.02V31.61h9.873V1.093Z" transform="translate(-98.788 -0.424)"/></g></g></svg>