<svg xmlns="http://www.w3.org/2000/svg" width="190" height="190" viewBox="0 0 190 190"><defs><style>.a{fill:#cfa5a5;opacity:0;}.b{fill:#31649e;}</style></defs><g transform="translate(-1475 -270)"><rect class="a" width="190" height="190" transform="translate(1475 270)"/><g transform="translate(5.5 -310.011)"><g transform="translate(1514 615)"><path class="b" d="M658.8,365.261c-.132-.518.337-.455.59-.585-.114-.593-.114-.593.336-1.1a2,2,0,0,0-.029-1.544c-.306.275-.61.551-.919.823-.083.073-.215.208-.264.185a1.327,1.327,0,0,0-1.126-.064,2.468,2.468,0,0,1-.514.124,2.343,2.343,0,0,1-.319.018,1.759,1.759,0,0,0,.1-.283c.026-.151.032-.307.048-.461l-.124-.019.391-.609.21.685c.2-.282.364-.492.5-.721.151-.259-.085-.588-.436-.61-.22-.014-.441,0-.771,0a6.7,6.7,0,0,0,.753-1.356,5.364,5.364,0,0,0,.061-1.486c0-.06-.193-.144-.309-.173-.441-.111-.9-.172-1.327-.313-.24-.078-.431-.174-.662.012-.071.058-.208.031-.315.043l-.094-.119.719-.839c-.211-.125.054-.663-.458-.7l.011.012-.784-2.028c.1-.025.132-.044.154-.036.187.07.4.293.552,0,.124-.241-.089-.347-.27-.494-.161-.131-.207-.4-.344-.7l-.5.6c-.25-.2-.283-.415-.028-.623a1.148,1.148,0,0,0,.432-.839c.029-.235.263-.447.414-.683a3.446,3.446,0,0,1-1.1-.4,3.991,3.991,0,0,1-.648-1.1l.615.133c.032-.279.032-.279-.807-.778l.777-1.793.781,1,.169-.061.118-.946a.662.662,0,0,1,.454.783c-.4.3-.561.722-.383,1.015.434-.228.416-.623.371-1.027a2.559,2.559,0,0,1,.353-.159.608.608,0,0,1,.791.253,13.3,13.3,0,0,0,1.465,1.466l-.1.554.424-.074c.333.243,1.077.114.98.981.375-.24.7-.319.921.024a2.8,2.8,0,0,1,.195.63c.053.16.122.313.186.47.121-.129.243-.258.363-.388.019-.02.035-.044.1-.131.324.307.636.621.969.912.195.171.5.257.62.46.237.4.886.5.8,1.14-.047.327.16.46.479.455a1.889,1.889,0,0,1,1.385.647,1.921,1.921,0,0,1,.269.679c.02.054.018.132.056.161a6.846,6.846,0,0,0,1.036.755c.448.223.527.294.362.743a.37.37,0,0,0-.01.136,1.576,1.576,0,0,1,.64.022c.114.058.125.321.183.492l-.51.046-.038.153.462.259.074-.47c.513.047.438.072.429.524-.007.273.318.57.532.826a8.622,8.622,0,0,0,.717.676l-.508.209.376,1.051.518-.779a3.117,3.117,0,0,0,.2.754c.216.39-.255.419-.3.7.322.318.645-.024,1-.05a1.754,1.754,0,0,1-.016.258c-.034.148-.079.293-.12.438a4.534,4.534,0,0,0,.585.016c.086-.007.167-.1.322-.192.115.213.228.4.321.593s.171.408.24.579l-.779.861a2.088,2.088,0,0,0,.441.121.463.463,0,0,1,.492.318.819.819,0,0,0,1.117.3.777.777,0,0,1,1.081.292c.022.037.037.089.071.107a14.6,14.6,0,0,0,1.637.861c.271.106.434.15.494.471a.915.915,0,0,0,.393.6,1.051,1.051,0,0,1,.607.73.487.487,0,0,0,.542.435c.392-.014.6.148.627.581a.872.872,0,0,0,.36.521,10.974,10.974,0,0,1,.913.645c.232.268.473.526.711.789a5.2,5.2,0,0,0,.721.773,10.8,10.8,0,0,0,1,.5,1.172,1.172,0,0,1,.425.407,2,2,0,0,0,1.6,1.016c.37.036.644.02.385.5a4.569,4.569,0,0,0,.829.318c.374.066.472.27.454.6-.008.143.014.288,0,.431a.86.86,0,0,0,.635.957,2.065,2.065,0,0,1,.2.089c.448.221.47.367.11.878.241.121.488.231.718.365a2.158,2.158,0,0,1,.554.4,1.278,1.278,0,0,0,1.871.1c.357-.341.625-.324.925.061.213.273.419.55.632.823a1.039,1.039,0,0,1,.071,1.333.983.983,0,0,0,.419,1.476.847.847,0,0,1,.4.513c.065.671.555.874,1.058,1.086a9.622,9.622,0,0,0,.908.357.4.4,0,0,0,.342-.085.766.766,0,0,1,1.117-.169.93.93,0,0,1,.543.928l.158.017a4.247,4.247,0,0,0,.305-.638c.124-.426.33-.508.667-.213a1.018,1.018,0,0,1,.315.349,1.077,1.077,0,0,0,.778.709c.195.052.4.076.592.118a2.6,2.6,0,0,1,.694.171c.138.076.2.292.3.444l-.5.082c-.008.02-.044.111-.085.2-.18.4-.491.454-.769.121-.226-.27-.4-.589-.638-.847a.624.624,0,0,0-.437-.12c-.205.365-.5.309-.823.24-.068-.014-.152.042-.287.084l.244.222c.267.239.54.464.429.9a.392.392,0,0,0,.158.311c.053.038.2-.028.294-.078a1.317,1.317,0,0,0,.262-.223c.4-.387.581-.376.92.059.423.544.634.544,1.026-.013a4.128,4.128,0,0,0,.229-.418l.253.139c-.023.214.023.476-.085.632a2.529,2.529,0,0,1-.748.749c-.372.219-.311.477-.2.767a6.63,6.63,0,0,0,.315.637c.6-.148.514-.821.889-1.181a.692.692,0,0,1,.112.157,1.443,1.443,0,0,0,.96,1.034.865.865,0,0,0,.4-.014,1.989,1.989,0,0,0,.484-.159c.116-.058.28-.154.3-.255.109-.614.6-.838,1.06-1.1.16-.091.328-.166.5-.251.6.244,1.154.64.962,1.348a6.654,6.654,0,0,0,.016,1.918.588.588,0,0,1,0,.172,4.788,4.788,0,0,1-.2.531c-.01.022-.186,0-.189-.017a1.839,1.839,0,0,1-.034-.564c.085-.444.012-.55-.419-.53a.727.727,0,0,1-.289-.048c-.41-.161-.711-.012-.752.424a7.155,7.155,0,0,0-.014,1.293c.013.15.215.283.33.424l.106-.07.261,1.033.614-.118a.414.414,0,0,1-.371.483,1.518,1.518,0,0,0-.4.249c.119.086.237.174.357.258.093.066.191.124.282.191a.6.6,0,0,0,.677.028c.249-.111.659-.211.815-.086.193.154.21.542.276.833a3.628,3.628,0,0,1,.007.458c.077.9.564,1.773.141,2.713-.137.3.31.813.648.845.126.012.317.066.348.149.038.1-.067.252-.1.384-.041.15-.155.363-.1.441a1.832,1.832,0,0,0,.5.343c.09-.159.19-.313.269-.478.215-.443.417-.892.635-1.333a2.428,2.428,0,0,1,.275-.423c.215-.275.453-.534.661-.814s.4-.6.609-.895c.192-.275.4-.543.59-.815.231-.325.156-.549-.216-.663a.491.491,0,0,1-.21-.866c.049-.049.124-.1.127-.159.064-.836.707-1.378,1.051-2.07a2.385,2.385,0,0,1,.46-.5l.108.056a1.058,1.058,0,0,1-.007.4c-.31.7-.665,1.39-.952,2.1a3.412,3.412,0,0,0-.11.9l.151.046c.226-.31.444-.623.679-.926a4.541,4.541,0,0,0,.381-.413,5.387,5.387,0,0,0,.288-.679,4.99,4.99,0,0,0,.821,1.038,2.143,2.143,0,0,1,.64,1.072,1.6,1.6,0,0,1-1.023,1.673.872.872,0,0,0-.534.4,8.07,8.07,0,0,0-.515,1.261.615.615,0,0,0,.013.466c.282.436.092.831-.011,1.26a.735.735,0,0,1-.585.612,2.224,2.224,0,0,1-1.983-.375,7.447,7.447,0,0,0-.939-.568l-.109.141c.452.372.154,1.148.777,1.429.355.161.363.436.222.76-.044.1-.077.277-.023.346.467.593.226,1.3.342,1.953a.337.337,0,0,1-.077.2c-.329.5-.33.5.151.9a.4.4,0,0,0,.121.058c-.354.521-.646,1-.982,1.438a13.557,13.557,0,0,1-1.187,1.405,8.432,8.432,0,0,1-1.062.785,4.616,4.616,0,0,1-.453.743c-.508.566-1.027,1.126-1.583,1.644-.778.723-1.6,1.4-2.391,2.109-.551.494-1.08,1.012-1.627,1.508-.123.112-.3.165-.428.268a18.867,18.867,0,0,0-1.977,1.606,21.476,21.476,0,0,1-2.094,1.672c-.3.245-.567.538-.878.77-.539.4-1.141.724-1.645,1.164a8.739,8.739,0,0,1-1.771,1.032c-.2.106-.381.245-.585.341-.355.168-.722.316-1.084.471a.341.341,0,0,1-.084.019c-.729.094-1.469.137-2.185.291a15.185,15.185,0,0,1-4.1.213,11.494,11.494,0,0,1-1.952-.443c-.056-.013-.113-.02-.169-.032a9.338,9.338,0,0,1-1.464-.306,4.2,4.2,0,0,1-.972-.66c-.536-.4-1.081-.8-1.584-1.236a5.606,5.606,0,0,1-.683-.854c-.246-.319-.485-.643-.8-1.065H678c-.166-.486-.245-.865-.8-.826a1.917,1.917,0,0,1-.853-.12,1.051,1.051,0,0,1-.542-.5,6.589,6.589,0,0,0-1.313-2.228,3.58,3.58,0,0,1-.422-.838c-.259-.491-.519-.982-.806-1.458-.148-.245-.346-.461-.62-.09-.13.175-.262.22-.441,0-.417-.514-.867-1-1.354-1.553a5.224,5.224,0,0,1,.5-.334c.354-.178.465-.4.219-.7a2.274,2.274,0,0,0-.8-.607.7.7,0,0,1-.455-.594,12.279,12.279,0,0,0-.458-1.671c-.2-.587-.447-1.159-.688-1.732a.645.645,0,0,0-.249-.275c-.38-.233-.772-.443-1.155-.671-.425-.253-.864-.491-1.263-.782a8.733,8.733,0,0,1-2.241-1.946c-.38-.549-.913-1-1.259-1.562-.465-.76-.787-1.608-1.225-2.386a10.125,10.125,0,0,0-1.048-1.49,7.724,7.724,0,0,1-1.631-2.524,10.015,10.015,0,0,0-.671-1.365,2.727,2.727,0,0,0-.4-.5c-.243-.3-.487-.59-.725-.89-.125-.156-.227-.331-.357-.485-.531-.632-1.1-1.238-1.591-1.9a2.176,2.176,0,0,1-.513-1.278,16.18,16.18,0,0,0-.289-2.246,1.918,1.918,0,0,0-.3-.543l-.134.018-.1.962a3.825,3.825,0,0,1-.967.227,2.869,2.869,0,0,1-.916-.287,7.953,7.953,0,0,1-.956-.459c-.316-.18-.608-.4-.91-.605-.083-.056-.164-.161-.247-.161-.625,0-1.065-.431-1.59-.663a13.125,13.125,0,0,0-2.361-.986,8.655,8.655,0,0,1-2.207-.88,6.036,6.036,0,0,1-2.375-1.678,10.5,10.5,0,0,0-.717-.83c-.42.629-.585.638-1.25.243-.318-.19-.679-.309-1-.488a1.664,1.664,0,0,1-.509-.447,1.686,1.686,0,0,0-.227-.49c-.161-.166-.343-.185-.46.1a.376.376,0,0,1-.326.151,12.152,12.152,0,0,1-1.547-.436c-.626-.24-1.351-.226-1.876-.747a3.239,3.239,0,0,0-.625-.33,9.332,9.332,0,0,1-1.237-.8c-.61-.524-1.182-1.094-1.743-1.671-.3-.311-.519-.707-.829-1.009a6.9,6.9,0,0,0-1.125-.884,6.352,6.352,0,0,1-1.617-1.414c-.671-.837-1.414-1.616-2.092-2.448-.558-.685-1.072-1.408-1.6-2.116-.811-1.085-1.638-2.157-2.419-3.263a12.15,12.15,0,0,1-.873-1.574,8.759,8.759,0,0,1-1-2.207,16.007,16.007,0,0,1-.048-3.131c0-.139.263-.275.411-.406.062-.055.191-.083.2-.141.082-.422.4-.407.7-.376.265.028.558-.09.783.219a1.689,1.689,0,0,0,.641.47,2.556,2.556,0,0,0,.662.113c-.18-.652-.33-1.187-.476-1.723-.089-.333-.155-.673-.258-1-.108-.345-.255-.679-.372-1.021a4.121,4.121,0,0,1-.035-2.8c.137-.381-.011-.572-.424-.536-.067.006-.136.008-.291.019.225-.623.41-1.2.643-1.758a1.085,1.085,0,0,0-.39-1.339A.62.62,0,0,1,620,346.2a1.7,1.7,0,0,1,.352-1.858c.647-.325.647-.325,1.446-.077-.052-.271-.1-.49-.132-.711a3.011,3.011,0,0,1-.071-.7c.038-.407.125-.811.2-1.214.061-.331.139-.661.2-.992a3.557,3.557,0,0,0,.023-.44c-.091,0-.128-.012-.145,0-.565.454-.565.454-1.017-.136a1.609,1.609,0,0,1-.452-1.129c.01-.121-.162-.255-.251-.382-.088.124-.252.251-.247.371a3.822,3.822,0,0,0,.174.77c.013.055.05.106.059.161.093.609.174,1.22.276,1.828.03.174.135.336.175.51a.514.514,0,0,1-.019.352.313.313,0,0,1-.3.056,4.778,4.778,0,0,1-1.529-1.362,4.347,4.347,0,0,1-.456-2.881,1.235,1.235,0,0,1,.827-.867c.273-.035.49.022.524.357a.391.391,0,0,0,.2.293c.016-.132.043-.264.047-.4.016-.532,0-1.068.043-1.6.062-.716.173-1.428.273-2.139.011-.071.137-.134.133-.2-.01-.157-.047-.442-.1-.449a3,3,0,0,1-1.579-.906c-.425-.365-.915-.661-1.321-1.045-.782-.739-1.565-1.482-2.271-2.29a3.505,3.505,0,0,1-.639-3.05,2.05,2.05,0,0,1,.261-.836,5.187,5.187,0,0,1,1.047-1.175,4.688,4.688,0,0,1,1.56-.814,6.587,6.587,0,0,1,1.638-.029l.026.114c-.114.047-.247.157-.336.129a2.387,2.387,0,0,0-2.3.689l1.633.477c-.334.16-.62.273-.88.429s-.54.34-.339.837a2.582,2.582,0,0,1,2.58-.452c-.462.036-.573.715-1.147.558-.3-.08-.53.346-.458.837.109-.1.2-.185.289-.265.231-.2.361-.109.5.131.216.378.474.733.71,1.1s.447.753.7,1.107a5.506,5.506,0,0,0,.543.556,2.723,2.723,0,0,0,.244.277c.237.184.565.546.711.486.285-.118.446,0,.657.071.4.131.468.434.455.8,0,.1.048.269.113.291.36.12.746.171,1.1.307a9.316,9.316,0,0,1,1.329.635c.3.174.4.037.381-.2a3.824,3.824,0,0,0-.208-.748,1.825,1.825,0,0,1-.117-.444c-.008-.979-.012-1.959.006-2.939a1.625,1.625,0,0,1,.18-.5c.118-.3.241-.592.358-.891A2.724,2.724,0,0,1,627.431,325c.024-.007.038-.04.131-.139-.207-.135-.4-.259-.6-.387-.151-.1-.306-.192-.447-.3-.454-.357-.879-.757-1.357-1.075-.669-.444-1.2-1.047-1.908-1.465-.758-.446-1.314-1.221-2.056-1.7-.793-.516-1.43-1.2-2.193-1.747a6.545,6.545,0,0,1-1.241-1.232,1.824,1.824,0,0,1-.336-.91,15.007,15.007,0,0,1-.02-1.6,1.8,1.8,0,0,1,.576-1.343,9.774,9.774,0,0,0,.871-1.125c.151-.2.351-.149.51.091a1.606,1.606,0,0,0,.372.365c.334.25.693.466.691.966,0,.121.089.327.175.351.494.132.474.378.246.643a10.6,10.6,0,0,0,.838.776,2.444,2.444,0,0,0,.668.287c.249.088.5.154.791.24-.383.588-.866.28-1.289.306.162.453.273.861.688,1.07a.25.25,0,0,1,.088.092c.277.466.534.578,1,.345.316-.159.381-.036.408.237.088.839.127.863.982.57l-.07.779c-.11.006-.245-.025-.324.026a1.226,1.226,0,0,0-.249.309c.077.052.163.156.228.144a.8.8,0,0,0,.382-.181c.044-.04,0-.184-.012-.281l1.663.865c-.191.321-.222.561.244.733.225.083.351.435.55.7l-.067.5,1.789-.444-.122.456,2.231,1.391-.2,1.016a1.93,1.93,0,0,1-1.727-.267.578.578,0,0,0-.306.82,3.057,3.057,0,0,1,1.931.724c.22.22.521.355.757.561a.7.7,0,0,1,.259.434.588.588,0,0,1-.261.422,3.69,3.69,0,0,1-2.389.169.584.584,0,0,0,.485.867,1.807,1.807,0,0,1,1.357.916c.073.141.246.228.371.344.153.141.2.255-.016.408a1.673,1.673,0,0,0-.312.424,2.134,2.134,0,0,0,.494.155,3.992,3.992,0,0,1,2.068,1.042l.273-.174a1.5,1.5,0,0,1,.09.122,1.656,1.656,0,0,0,.276.465.879.879,0,0,1,.342.79c-.018.312.037.6.4.709v-.465l.749.365c-.328.377-.359.658.044.854a.4.4,0,0,0,.282.048c.287-.138.5-.121.609.214.095.3.177.6-.227.755-.031.012-.047.062-.1.139l1.217.205.147-.543.11-.043c.1.166.222.325.312.5a2.631,2.631,0,0,0,.328.673c.292.287.359.526-.037.854.765.023.869.7,1.309,1.017-.519.382-.57.569-.378,1.111a3.237,3.237,0,0,1,.669-.393c.091-.03.279.157.385.279a4.029,4.029,0,0,1,.33.495l.13-.059a6.814,6.814,0,0,0-.219-.982,7.316,7.316,0,0,0-.485-.919l.117-.09c.346.275.693.549,1.035.829a.2.2,0,0,1,.076.149,3.964,3.964,0,0,0,.413,1.668,1.6,1.6,0,0,0,.124.27,2.186,2.186,0,0,1,.287,1.566,1.717,1.717,0,0,0-.137.981.162.162,0,0,1,.011.084.941.941,0,0,1-.259.387,2.292,2.292,0,0,0-.256-.389.274.274,0,0,0-.262-.041c-.061.041-.119.21-.085.253.241.315.1.5-.2.628.255.133.581.2.681.384.114.211.026.532.026.807a.806.806,0,0,1-.182-.01c-.16-.067-.318-.139-.478-.21a2.109,2.109,0,0,0-.133.552,1.4,1.4,0,0,0,.162.562c.127.257.3.1.465.025.035-.014.186.106.19.169a3.729,3.729,0,0,1-.024.94c-.023.108-.285.166-.436.247-.113.061-.226.124-.337.186a1.57,1.57,0,0,0,.259.281,8.972,8.972,0,0,1,.789.48,1.107,1.107,0,0,1,.233,1.145.488.488,0,0,0,.331.656l-.011-.011v1l.191,0a.988.988,0,0,1,.077-.384c.139-.195.351-.52.485-.5.262.042.655.107.621.567a3.906,3.906,0,0,0,.054.623c.109-.049.149-.054.159-.073.1-.189.107-.556.412-.412a1.1,1.1,0,0,1,.473.638,3.98,3.98,0,0,1,.067.94l.16.008.138-.661c.9.227.955.331.5.89l.7.653-.3,1.537h1.156l-.4-.508.322-.763c.361.365-.088,1.072.594,1.177-.145.172-.343.3-.383.473-.141.6.016.694.605.852a2.146,2.146,0,0,1,.945.668c.179.2-.017.394-.276.441q-.171-.261-.34-.524l-.124.067v.673l.473-.227.088.474c.552-.144.468-.615.587-.96a.748.748,0,0,1,.12.071c.144.169.286.34.428.509.058-.22.11-.442.172-.662.042-.155.094-.309.141-.462l.3.184c-.052.364-.073.644-.137.913-.035.148-.109.359-.221.4-.687.274-.693.262-.239.9l.246-.21.621.173,1.394.979,0,.1a2.265,2.265,0,0,1-.7-.1,1.058,1.058,0,0,0-1.239.1c-.1.082-.1.285-.143.432.149.044.351.173.44.119.346-.213.554-.2.742.2a1.168,1.168,0,0,0,.508.527.544.544,0,0,0,.483-.235c.135-.357.2-.712.711-.5.444-.411.751.068,1.2.165a1.191,1.191,0,0,0-.389.878c.15-.052.3-.1.452-.156a.82.82,0,0,0,.121-.07c.231.418-.049.574-.382.728.506.641-.15.841-.422,1.248-.162-.265-.178-.686-.636-.47.127.406.249.8.73.888a5.955,5.955,0,0,0,.77.089.658.658,0,0,0,.073-.279c.011-.246,0-.492,0-.739l.2-.024a2.205,2.205,0,0,0,.121.543,3.573,3.573,0,0,0,.44.549,2.993,2.993,0,0,1-.629.255c-.234.04-.389.065-.456.346-.037.161-.24.282-.4.453l.246.323a.875.875,0,0,1,.269-.142c.221-.024.524-.107.65,0a1.58,1.58,0,0,1,.339.713c.013.04-.184.2-.3.216a1.521,1.521,0,0,0-1.243,1.074.959.959,0,0,0,.986-.369c.262-.371.442-.385.729-.125a1.328,1.328,0,0,0,.294-1.561A1.355,1.355,0,0,1,656,363.9c.006-.1.177-.195.307-.255-.058.538-.058.538.473.554.1,0,.2.012.3.018l-.012-.012c.264.171.53.337.789.515.12.08.226.181.339.273l.013-.011-.9.032c.274.591.6.3.9.238l-.011-.012a.756.756,0,0,1-.319.745.564.564,0,0,0-.189.782c.268-.1.5-.118.552.262.01.073.156.151.253.185.21.072.43.117.734.195.067-.142.226-.33.21-.5-.01-.106-.279-.205-.446-.276-.231-.1-.461-.174-.387-.506.048-.22.081-.443.12-.665Zm-8.646-4.663v-.677l-.162.014c-.126.255-.145.488.173.652a1.6,1.6,0,0,0,.217.309.843.843,0,0,0,.282.107c.024-.076.092-.179.065-.222a.442.442,0,0,0-.24-.18A1.2,1.2,0,0,0,650.155,360.6Zm6.323-4.7.831-.365c-.619-.247-.793-.15-.819.376-.4.181-.28.464-.21.735l.147.022Zm16.428,30.961a2.951,2.951,0,0,0,.5-.18.432.432,0,0,0-.084-.319c-.156-.12-.3-.4-.568-.142-.244.237-.018.375.1.538a.8.8,0,0,1,.059.115,1.506,1.506,0,0,0-.322-.163.43.43,0,0,0-.31.025.366.366,0,0,0-.137.282c.026.245.41.43.677.353l-.443.453c.113-.376-.162-.521-.424-.605-.094-.03-.256.155-.444.279l.572.161-.086.281.241.011-.991,1.149c.325.347.63.686.95,1.009a2.211,2.211,0,0,0,2.325.432.332.332,0,0,0,.213-.18,2.013,2.013,0,0,0-.075-1.863,15.479,15.479,0,0,0-1.446-1.445l-.322.251ZM657.082,367.5l-.078-.581-.528.5.618.071c0,.1-.031.244.02.293a.7.7,0,0,0,.351.166,4.3,4.3,0,0,0,.334-.584,2.163,2.163,0,0,0-.413-.007A1.251,1.251,0,0,0,657.082,367.5Zm14.091,21.34.647-.5-.611-.489-.086.286-.363.163a2.713,2.713,0,0,0,.168.271c.078.1.171.19.257.283l-.273.089-.256-.556-.534.57c.263.163.464.37.68.387C670.911,389.353,671.048,389.02,671.173,388.842Zm-3.022,3.211-.237.03-.324-.522-.474.539.564.513.478-.42c.294.34.581.686.885,1.016a2.212,2.212,0,0,0,2.384.526c.089-.022.215-.09.233-.162a2.094,2.094,0,0,0-.121-1.979c-.4-.5-.881-.928-1.345-1.408L668.4,391.98l-.118-.252.525-.16-.6-.55-.52.51Zm-1.558-.435c.24-.018.431-.072.283-.38.554,0,.66-.536,1.026-.775-.341-.43-.417.155-.662.086-.128-.282.122-.713-.287-.936a4.32,4.32,0,0,0-.44.437,2.306,2.306,0,0,0-.208.44c.142-.053.282-.108.425-.157.022-.007.052.012.107.025,0,.136-.006.277,0,.419.008.157.03.313.046.47l-.706-.89-.4.394.716.776-.539.316-.621-.575-.347.267,1.02.972Zm-5.959-23.337a2.325,2.325,0,0,0-.632.046c-.2.068-.345.258-.576.061-.03-.025-.235.083-.286.171a.363.363,0,0,0,.022.328.4.4,0,0,0,.31.125c.133-.008.259-.114.4-.135a.9.9,0,0,0,.755-.608l.872-.4c-.208-.148-.4-.346-.459-.312a1.178,1.178,0,0,0-.382.426C660.607,368.06,660.638,368.182,660.634,368.282Zm7.777,19.017c.071.006.166.044.21.013.161-.114.453-.3.43-.371a1.162,1.162,0,0,0-.431-.58c-.1-.065-.4.031-.5.15-.244.281.007.492.195.693l-.587-.263a.951.951,0,0,0-.068.943c.273.353.393-.283.646-.113Zm-10.823-11.008c.538.024.838-.311.543-.652s-.341-.574.02-.869c-.424-.091-.521-.035-.539.328-.02.4-.01.8-.012,1.206-.4.255-.237.59-.193.908l.181.012Zm7.445-10.172c0-.245.006-.489,0-.733-.006-.267-.153-.381-.414-.381-.3,0-.354.185-.354.426,0,.45.277.692.779.675-.4.333.028,1.093-.693,1.3a4.115,4.115,0,0,0,1.058.043c.077-.008.209-.227.186-.315a6.075,6.075,0,0,0-.343-.916C665.227,366.163,665.108,366.15,665.034,366.119Zm-.5,24.482a1.759,1.759,0,0,0,.168.193.566.566,0,0,0,.86-.1.547.547,0,0,0-.113-.825.535.535,0,0,0-.806.184,1.735,1.735,0,0,0-.1.558c-.429-.378-.508.147-.717.3-.1.072-.127.245-.187.372h.474a1.767,1.767,0,0,0,.3.257c.074.044.193.014.292.017,0-.1.028-.227-.023-.287a2.77,2.77,0,0,0-.4-.334Zm.518-6.486-.172-.2-.156.41-.131-.01v-.533l-.372.138a1.2,1.2,0,0,0,.095-.269,1.22,1.22,0,0,0-.06-.31l-.769.813.354.492-.7-.22.245.677-.527-.317-.22.287,1.241.494-.275-.674.683.263-.47-1.069.119-.065.724.657c.107-.162.241-.369.375-.574.11-.1.255-.189.318-.315.052-.1,0-.249,0-.376l.406.1.508-.543-.246-.189.65-.19c-.217-.137-.458-.131-.569-.249-.435-.456-.566-.453-.892.092l.683.62-.082.124-1.072-.337ZM658.724,359.2a1.165,1.165,0,0,1-.229-.323c-.053-.2,0-.5-.317-.444-.19.03-.357.207-.616.37l.633.262a1.094,1.094,0,0,0-.488,1.343c.122.518.151.967.7,1.3l.127-.771.139.006q.025.387.049.776c.028.464.079.51.452.372-.036-.076-.1-.149-.1-.225-.008-.321-.121-.73.031-.945a1.167,1.167,0,0,1,1.259-.609l.39.52.431-.731-.834.223c-.151-.533-.5-.66-.909-.322-.193.16-.374.337-.528.478l-.709-.608c.143-.023.258-.046.375-.06.287-.035.461-.124.223-.434a.957.957,0,0,1-.089-.195,5.835,5.835,0,0,0,.679-.319c.068-.042.089-.2.085-.306a.22.22,0,0,0-.177-.128.474.474,0,0,0-.269.169A6.513,6.513,0,0,0,658.724,359.2Zm1.38,6.317-.09-.476-.471.265.019.124.554.074-.078.56-.973-.44c-.067.21-.187.365.208.459a.7.7,0,0,1,.59.728,6.319,6.319,0,0,1-.2.854c.3.151.342.129.461-.139.186-.414.216-.982.9-.957.05,0,.109-.211.163-.325-.106.011-.213.018-.318.035a.76.76,0,0,0-.142.048l-.094-.085c.085-.118.145-.282.261-.346.335-.184.691-.327,1.111-.52l.433.676.107-.008c.022-.169.124-.394.052-.5a7.534,7.534,0,0,0-.79-.82l1.026.117c.024-.214.166-.452-.166-.626-.195-.1-.363-.257-.557-.36a3.905,3.905,0,0,0-.518-.189q0,.294,0,.587c0,.04,0,.079.006.119l-.077-.085c-.351.243-.715.47-1.046.735A2.411,2.411,0,0,0,660.1,365.516Zm4.23,16.965c-.389.28-.661.014-.943-.183q-.549-.382-1.1-.761c-.243-.167-.489-.328-.734-.492l-.09.067.662,2.8-2.864-.544c.012.109,0,.144.019.163.39.534.785,1.066,1.174,1.6.223.307.577.584.145,1.1l.93-.784c-.423-.019-1.254-.866-1.477-1.514l2.47.461-.6-2.454a6.026,6.026,0,0,1,1.253.807,2.664,2.664,0,0,1,.383.549Zm-1.947,5.307c.477-.317.771.108,1.113.319.208.127.4.276.6.416l1.041.723.091-.071-.634-2.825,2.865.573a.942.942,0,0,0-.053-.183c-.406-.558-.8-1.123-1.224-1.671-.228-.294-.411-.576-.148-.967l-.132-.064-.879.826.112.113c.377-.013,1.208.831,1.488,1.525l-2.536-.531c.109.48.2.883.293,1.286s.179.8.289,1.3c-.458-.34-.847-.606-1.208-.909a2.976,2.976,0,0,1-.4-.512Zm-.578-18.244h.079c.124-.274.264-.542.363-.825a2.72,2.72,0,0,0,.076-.548c.014-.108.028-.215.041-.322.09.017.18.037.271.05.233.035.466.065.7.1l.043-.157c-.162-.109-.329-.213-.484-.33a.983.983,0,0,1-.262-.261,9.683,9.683,0,0,0-.492-.884c-.09-.122-.31-.15-.472-.22-.058.148-.175.3-.161.442a3.783,3.783,0,0,1,.112.832,9.5,9.5,0,0,0,.132,1.69C661.768,369.253,661.79,369.4,661.809,369.544Zm.674,17.349.467-.491-.252-.225.682-.168.024-.193c-.382.163-.615.08-.753-.267-.028-.071-.3-.1-.437-.055a1.476,1.476,0,0,0-.4.274l.782.7-.07.136-1.146-.369.381,1.08-.084.048-.877-.568.259.863-.88-.223.746,1.064.216-.256-.3-.219.078-.08.508.092-.18-.652.447.41a6.229,6.229,0,0,0,.356-.625c.037-.085-.012-.209-.023-.316Zm6.376-18.686c-.059-.114-.09-.172-.119-.232-.225-.483-.222-.478-.721-.233a1.518,1.518,0,0,1-.659.25c-.205-.011-.4-.21-.694-.383a5,5,0,0,0,.174.643.509.509,0,0,1-.131.685c-.339.282-.3.429.115.6l.494-1.033Zm-1.8,14.521-.126-.124-6.034,6.235.126.121Zm-7.408,4.9.131.115,6.017-6.219-.126-.121Zm6.675,8.7c.312.307.6.588.884.872.175.175.277.145.441-.053a9.277,9.277,0,0,1,1.044-1.083c.193-.169.226-.269.044-.44-.24-.226-.465-.472-.724-.675a.446.446,0,0,0-.4-.052A2.856,2.856,0,0,0,666.322,396.327Zm4.477-8.892c.321-.294.718-.521.549-.972a.893.893,0,0,0-.575-.488c-.419-.071-.628.293-.859.621Zm-6.587,4.917.872,1.153c.24-.4.544-.7.56-1.015.011-.191-.423-.572-.653-.569C664.7,391.924,664.409,392.231,664.212,392.352Zm6.564-4.737c-.287-.2-.515-.292-.625-.458-.231-.352-.383-.4-.71-.13-.166.137-.351.252-.632.45.483.351.813.593,1.153.823.012.008.122-.131.18-.195l-.156-.268Zm-.938-23.849c-.1-.043-.231-.151-.3-.12a1.856,1.856,0,0,0-.549.388c-.047.052.019.289.1.363a1.188,1.188,0,0,0,1.1-.309c.154-.448.371-.633.873-.3-.043-.189-.076-.342-.161-.379A.857.857,0,0,0,669.839,363.766ZM666.123,389.9l.7-.563-.655-.8-.174.014-.187.658c-.237-.154-.432-.055-.558.291.18.172.348.347.536.5a1.007,1.007,0,0,0,.286.113Zm3.644-1.483c-.331-.144-.665-.309-1.012-.436a.31.31,0,0,0-.4.4c.142.352.323.688.483,1.022Zm-14.485-18.49-.035.16a1.44,1.44,0,0,1,.173.331.709.709,0,0,0,.716.614c.109.008.213.08.323.1a1.534,1.534,0,0,0,.313-.011c-.071-.1-.12-.251-.217-.3a1.368,1.368,0,0,0-.4-.09c-.032-.316.014-.67-.091-.724A2.11,2.11,0,0,0,655.282,369.931ZM666.237,393.9c.025-.189.054-.364.068-.539a2.867,2.867,0,0,0,0-.323c-.107.065-.255.1-.312.2a1,1,0,0,0,1.378,1.295c.085-.058.118-.191.174-.289a1.862,1.862,0,0,0-.325-.022c-.179.017-.357.056-.506.081l.065-.559Zm1.4-4.524c.189.323-.067.739.372.993.228-.245.456-.479.668-.728.038-.044.01-.145.012-.22-.074,0-.166-.03-.221,0a3.919,3.919,0,0,0-.394.331c0-.327.008-.552,0-.777-.011-.2-.1-.374-.319-.2a4.365,4.365,0,0,0-.568.585.184.184,0,0,0,0,.18.257.257,0,0,0,.213.026A1.1,1.1,0,0,0,667.64,389.378Zm2.637-3.631c.594-.5.605-.514.443-.772l-.352.252a.331.331,0,0,1,.071-.211c.034-.056.06-.119.1-.2-.124-.042-.276-.05-.3-.107-.1-.289-.084-.283-.306-.109a5.128,5.128,0,0,1-.525.318Zm-5.916,6.073c-.286-.12-.552-.247-.831-.343a.339.339,0,0,0-.3.052.4.4,0,0,0-.091.33c.1.287.249.557.378.836Zm.956,2.4c-.207-.16-.255-.151-.385.1a1,1,0,0,0,.238,1.142.959.959,0,0,0,1.112.177c.094-.059.131-.208.195-.316a.992.992,0,0,0-.333,0,.633.633,0,0,1-.93-.44A2.288,2.288,0,0,1,665.317,394.217Zm-9.55-25.833a1.024,1.024,0,0,0,.151-.108,1.723,1.723,0,0,0,.25-.305c.014-.024-.106-.176-.144-.168a.64.64,0,0,0-.364.156,1.761,1.761,0,0,0-.325.584.506.506,0,0,0,.094.422c.08.083.269.062.409.089a3.021,3.021,0,0,0,.047-.437C655.882,368.542,655.812,368.47,655.767,368.384Zm11.663-2.733a1.321,1.321,0,0,0-.193-.483.507.507,0,0,0-.453-.115c-.184.079-.133,1.018.007,1.177Zm-12.746,7.558,1.159-.922-.014-.121c-.294.022-.735-.066-.848.089C654.812,372.48,654.464,372.77,654.684,373.208Zm14.154,24.621c.186-.257.447-.514.406-.576a1.85,1.85,0,0,0-.615-.548c-.037-.023-.384.306-.357.363A4.6,4.6,0,0,0,668.838,397.829Zm-15.33-33.919c-.125-.117-.24-.277-.292-.259a3.412,3.412,0,0,0-.734.361c-.05.035,0,.228.011.348,0,.011.022.03.029.028a6.433,6.433,0,0,0,.709-.2C653.328,364.154,653.393,364.032,653.508,363.91Zm9.412,2.115c.348.137.685.155.8-.136.09-.221-.055-.537-.1-.811a1.48,1.48,0,0,0-.39.45C663.144,365.673,663.053,365.816,662.92,366.025Zm-5,4.759a5.409,5.409,0,0,0-.04.772c.01.11.132.211.2.317.114-.09.293-.161.33-.276C658.523,371.252,658.369,371,657.918,370.785Zm10.713,15.347.163.1.175-.195.423.239-.3.275.09.15a1.527,1.527,0,0,0,.459-.28c.073-.092.083-.367.016-.416a1.773,1.773,0,0,0-.717-.322C668.862,385.674,668.735,385.976,668.63,386.132Zm-14.207-18.025c-.466-.172-.949.09-1.172.748a1.427,1.427,0,0,0,.512-.112A7.113,7.113,0,0,0,654.423,368.107Zm16.406-2.236-.132-.538a1.587,1.587,0,0,0-.513.185c-.112.092-.137.291-.221.488Zm-15.6,1.19c.347-.067.627-.114.9-.179a.581.581,0,0,0,.268-.147c.022-.022-.037-.16-.091-.213-.163-.161-1.08.145-1.112.371A.367.367,0,0,0,655.234,367.06ZM622.78,345.333c.441-.673.5-1.011.227-1.409C623.018,344.4,622.5,344.778,622.78,345.333Zm36.146,22.791c-.357-.187-.674-.461-.986.014C658.455,368.625,658.583,368.629,658.927,368.123Zm1.549-6.957c-.174-.144-.322-.321-.369-.3a3.789,3.789,0,0,0-.548.4c.133.116.287.346.393.324C660.118,361.564,660.251,361.363,660.476,361.166Zm2.617,2.027c.783.315,1.367.186,1.6-.316Zm3.735,25.033c.268.107.414.174.567.221a1.564,1.564,0,0,0,.293.031c-.02-.1-.007-.223-.065-.286-.186-.2-.4-.387-.6-.578l-.13.038Zm-5.845-17.816.358.539.084-.012v-1.157l-.08-.01Zm3.8-.413c-.847.265-1.041.572-.679.985Zm-2.092-1.391v1.266C663.059,369.612,663.052,369.225,662.69,368.606Zm12.64,22.517.47-.45a2.572,2.572,0,0,0-.353-.419.366.366,0,0,0-.323-.052c-.1.073-.13.228-.19.348l.285.047Zm-.544.546.482-.52c-.139-.107-.226-.185-.322-.244s-.268-.187-.322-.154a1.267,1.267,0,0,0-.28.359l.107.082.235-.113Zm-12.142-20.431.235-.094a4.221,4.221,0,0,0-.185-.562,2.037,2.037,0,0,0-.357.1Zm-5.522,2.689c-.646-.262-1.111-.1-1.06.288Zm49.769,27.531-.243-.065-.192.658a1.257,1.257,0,0,0,.261.038C706.789,401.885,706.838,401.671,706.892,401.458ZM669,391.068l.142.079a1.492,1.492,0,0,0,.214-.476c0-.064-.234-.148-.37-.226l.01-.214c-.334.2-.334.2.117.593Zm-5.875-23.95.256.06.189-.664-.3-.073Zm1.865,1.023-.2,0,.048.91.168-.006C665.33,368.742,664.979,368.444,664.985,368.141Zm-7.994,3.633-.073-.126c-.126.049-.336.072-.361.153a1.75,1.75,0,0,0,0,.549l.151.011Zm3.508-.576.13-.05-.363-.85C660.017,370.745,660.066,370.9,660.5,371.2Zm12,22.866a2.949,2.949,0,0,1-.341-.178c-.108-.079-.2-.177-.3-.267l-.3.406.111.084.241-.174.068.623ZM658.27,370.511c.518-.386.516-.478,0-.8Zm15.909,21.5.106.094c.113-.124.344-.321.321-.357a1.346,1.346,0,0,0-.458-.44c-.047-.025-.223.18-.353.289l.533.151ZM629.39,322.565c-.245.462,0,.591.192.724.035.024.148-.067.224-.106ZM658.354,369.3v-.13a3.878,3.878,0,0,0-.658.018c-.038.007-.036.245-.059.422Zm7.487-4.438-.139-.091-.36.533c.065.037.156.122.19.1C665.743,365.294,665.931,365.147,665.841,364.866ZM654.033,367.3c.449.305.575.03.725-.126.032-.035-.031-.162-.052-.247Zm-37.287-42.592v-.115h-.862v.115Zm35.6,36.467-.16-.031-.316.442.073.109c.135-.036.318-.034.389-.121S652.344,361.311,652.344,361.175Zm-4.147-2.632-.109,0v.777l.109,0Zm17.962,4.9.133.066c.416-.251.42-.264.2-.65Zm4.237,3.292.028.137a2.711,2.711,0,0,0,.563-.074c.052-.018.042-.216.076-.422Zm-54.383-37.474c.1-.16.2-.249.2-.324s-.127-.143-.2-.213c-.071.073-.187.139-.2.221S615.907,329.1,616.013,329.259Zm38.928,45.156-.017.138c.131.014.319.086.377.029.086-.088.08-.267.114-.407l-.114-.037Zm14.816,16.034.126-.082-.519-.594-.12.05-.062.422Zm5.779-.339a3.294,3.294,0,0,1,.351,0,3.21,3.21,0,0,1,.318.074,1.72,1.72,0,0,0-.179-.331,3.734,3.734,0,0,0-.406-.345Zm-2.61,3.6-.624-.764-.094.569Zm-3.269-3.924a1.861,1.861,0,0,1,.324,0,3.412,3.412,0,0,1,.354.106,2.786,2.786,0,0,0-.225-.364,3.007,3.007,0,0,0-.363-.306Zm-18.275-28.4.151-.029a1.231,1.231,0,0,0-.062-.441c-.04-.068-.223-.055-.467-.1Zm4.333,12.07.217.059.175-.486c-.078-.011-.214-.052-.225-.03A4.006,4.006,0,0,0,655.715,373.456ZM651.225,362c-.468.264-.522.422-.286.711Zm-32.312-33.532-.119.065c.041.1.054.253.131.3s.229.012.468.012Zm9.05-3.876v.1h.615v-.1Zm38.131,44.909-.124.006v.635h.124Zm3.177-2.353.149-.047a1.1,1.1,0,0,0-.079-.392c-.034-.055-.2-.029-.429-.053Zm-8.8-7.932-.053.129.307.394.113-.036a1.351,1.351,0,0,0-.017-.448C660.807,359.21,660.6,359.231,660.475,359.221Zm4.942,11.364v.113h.6v-.113Zm6.294,24.249.114-.1-.624-.637-.078.542Zm-34.1-58.609.049.123c.12-.025.306-.016.344-.085.055-.1,0-.262-.008-.526Zm26.212,33.569-.083-.121c-.1.043-.247.061-.287.137a.872.872,0,0,0-.012.36l.135.03Zm-3.106-7.266v.247c.139-.016.279-.029.417-.054a.389.389,0,0,0,0-.144C660.993,362.552,660.854,362.541,660.716,362.527Zm7.691.041,0,.195.443-.024-.006-.171Zm-1.421,1.542.241.007c-.011-.143-.019-.287-.04-.428a.421.421,0,0,0-.145-.006C667.017,363.824,667,363.967,666.986,364.11Zm-13.255,2.854-.235.014c.013.147.025.294.049.441a.749.749,0,0,0,.178-.017C653.735,367.256,653.731,367.11,653.731,366.963Zm3,7.451-.2.007.034.443.163-.01Zm-18.5-34.967-.151.085a.986.986,0,0,0,.132.321c.037.041.174-.01.364-.029Zm17.522,18.008.184-.006-.026-.593-.157.007Zm6.591,4.153.221-.018c-.011-.133-.018-.267-.041-.4a.683.683,0,0,0-.172,0C662.346,361.332,662.347,361.47,662.347,361.608Zm4.143,8.781.048.095c.106-.024.275-.017.3-.078.044-.09-.011-.228-.037-.468Z" transform="translate(-614.329 -303.972)"/><path class="b" d="M648.132,345.361c-.011.285-.215.311-.394.228a4.032,4.032,0,0,1-.895-.525c-.716-.6-1.411-1.22-2.1-1.849-.44-.4-.841-.848-1.277-1.256-.211-.2-.293-.377-.059-.587-.737-.459-1.775-.527-1.89-1.653a2.331,2.331,0,0,1-1.477-1.04c-.019-.07.029-.16.05-.24a11.5,11.5,0,0,1,.317-1.126,3.489,3.489,0,0,1,.512-.85c-.013-.177-.275-.38.145-.57-.682-.228-.526.335-.678.531a2.508,2.508,0,0,1-.922-.168c-.222-.143-.317-.485-.468-.74l-.158,0-.079.651.121.037-.478.287-.207-.657-.359.482-.939-1.487.107-.089.369.08a1.154,1.154,0,0,0,.052-.406.6.6,0,0,0-.234-.354c-.661-.382-1.352-.715-1.992-1.126-.125-.079-.07-.438-.106-.735a1.01,1.01,0,0,1-.38-.144c-.287-.238-.543-.514-.806-.779a2.256,2.256,0,0,1-.251-.312c-.319-.473-.632-.95-.949-1.423a2.322,2.322,0,0,0-.157-.2c-.579-.71-1.2-1.387-1.719-2.139a9.862,9.862,0,0,0-1.11-1.259.477.477,0,0,1-.06-.718,3.9,3.9,0,0,0,.332-.743,3.444,3.444,0,0,1,1.464.073.643.643,0,0,0,.43.017.587.587,0,0,1,.775.126,1.591,1.591,0,0,0,.461.2l.1-.095.071.686-.472-.077a1.461,1.461,0,0,0-.031.408.361.361,0,0,0,.2.229.269.269,0,0,0,.235-.127c.16-.441.407-.412.73-.179a.885.885,0,0,0,.324.067c-.118-.728.5-.746.831-1.035l.615,1c-.313.094-.622.165-.911.283-.149.061-.338.189-.374.323a.545.545,0,0,0,.138.485c.1.066.331-.036.488-.1.1-.043.161-.16.237-.245.187-.215.371-.19.454.067a.459.459,0,0,0,.5.366c.294,0,.376-.15.458-.4.036-.108.3-.141.465-.207-.066.111-.18.217-.186.331a.786.786,0,0,0,.1.516,2.832,2.832,0,0,0,.622.452c.052.034.157.059.191.03.056-.044.122-.172.1-.205-.264-.382-.287-.951-.84-1.115a7.2,7.2,0,0,0-.3-.74.513.513,0,0,0-.305-.175c-.282-.076-.572-.129-.875-.195.079-.4.327-.794-.172-1.036a1.655,1.655,0,0,0,.694-.913,4.219,4.219,0,0,0,.066-.552c-.293-.029-.479-.05-.665-.066-.09-.008-.181-.006-.273-.008,0,.108-.038.247.013.318a.819.819,0,0,1,.044.892c-.031.073.085.211.133.318-.109.281-.27.359-.522.147a.437.437,0,0,0-.261-.131c-.443.038-.633-.235-.716-.592a2.7,2.7,0,0,1-.179-1.555,1.52,1.52,0,0,0-.337-1.37,3.451,3.451,0,0,0-1.009-.665l-.614-.38c.4-.109.676-.21.658-.6,0-.031.175-.119.243-.1a2.083,2.083,0,0,1,.753.313,4.25,4.25,0,0,0,1.319.827,5.906,5.906,0,0,1,.974.686,1.183,1.183,0,0,0,.424.085c-.026-.118-.014-.28-.088-.347a10.941,10.941,0,0,0-1.656-1.408,24.972,24.972,0,0,1-2.278-1.771c-.391-.306-.837-.551-1.193-.892-.64-.615-1.224-1.289-1.842-1.926-.721-.74-1.476-1.448-2.171-2.211-.336-.37-.531-.868-.861-1.247a2.673,2.673,0,0,1-.533-2.2,1.922,1.922,0,0,1,.5-1.243,1.762,1.762,0,0,0,.292-.628,4.479,4.479,0,0,1,1.476-1.705,2.433,2.433,0,0,1,.454.435,1.591,1.591,0,0,1,.106.515l-.007.114c.144.352.269.712.441,1.05a.642.642,0,0,0,.366.268,3.4,3.4,0,0,0,.65.06c-.22.369-.277.664.19.787.041.011.1.1.093.13-.222.611.436.79.6,1.214a3.17,3.17,0,0,0,.348.622,1.67,1.67,0,0,0,.269.249,7.238,7.238,0,0,0,.864.79c.39.257.476.9,1.109.851.1-.007.231.114.309.208.267.319.495.671.777.974a5.61,5.61,0,0,0,.711.55l.187-.282.685.855a9.482,9.482,0,0,0,1.137-.184c.363-.106.59.6.926.168.243.077.442.133.638.2.1.036.259.078.281.15.154.516.652.634.995.936a23.526,23.526,0,0,0,2.11,1.254,6.822,6.822,0,0,1,.783.826,3.111,3.111,0,0,0,.371.288l.071-.084a5.04,5.04,0,0,0,.371.737.456.456,0,0,0,.4.115.771.771,0,0,1,1.011.426c.06.117.221.185.345.263s.249.132.4.208l.52-.394c.16.37.364.57.771.339.076-.043.262.128.406.177.25.084.507.149.76.222l.061-.147c-.456-.5-.906-1.012-1.369-1.508-.506-.542-1.033-1.065-1.535-1.611a7.557,7.557,0,0,1-.7-.876,7.006,7.006,0,0,0-.75-1.189c-.455-.435-.22-1.03-.5-1.5-.129-.22.058-.622.1-.942s.074-.624.11-.937a2.093,2.093,0,0,1,.261-.986c.193-.31.363-.675.574-1a1.234,1.234,0,0,1,1.317-.235.338.338,0,0,1,.023.33.355.355,0,0,0,.145.6c.427.189.472.437.223.822l.079.08c.138-.048.274-.1.414-.142s.294-.068.506-.117c-.3.685-.3,1.317.1,1.418.119.269.187.47.292.65.128.222.3.417.429.64.181.327.283.348.495.04a2.762,2.762,0,0,0,.208-.435L650.311,315l.293-.27a6.769,6.769,0,0,1,.9.819c.3.386.331.416.576,0,.019-.032.061-.052.129-.1.16.759.836.761,1.245.976l1.005.985-.2.318c.773.305.707,1.062.908,1.672.157-.16.3-.422.441-.419.16,0,.316.241.515.414l.225-.136.107.044-.143.637,3.336,1.308a1.219,1.219,0,0,0,.534,1.045c.181.073.363.147.539.231.446.216.444.219.21.737a3.948,3.948,0,0,1,.485.072c.181.052.425.089.507.217.068.108-.06.339-.113.569a.472.472,0,0,0,.187.065c.556.013.8.4,1.053.817.079.131.263.2.4.3a2.44,2.44,0,0,0,.184-.42,4.191,4.191,0,0,0,.055-.564l.145,0c.021.185.054.369.059.555.013.525.163.632.67.51a.471.471,0,0,1,.382.09,2.024,2.024,0,0,1,.495.685.619.619,0,0,0,.692.485c.066,0,.133.078.208.125a.916.916,0,0,1-1.368-.186.625.625,0,0,0-.438-.185c.169.44.186.96.748,1.082l.311.985c.4-.208.381-.432.126-.662a4.205,4.205,0,0,0-.448-.312c.281-.359.572-.344.793.016a.729.729,0,0,0,.352.237,1.965,1.965,0,0,0,.438.061c-.059.095-.074.151-.1.157-.271.066-.449.241-.288.485a.632.632,0,0,0,.557.113c.441-.122.622-.006.663.477a8.355,8.355,0,0,0,.155.835h.127l-.207.227c.148.232.281.446.417.658.186.289.178.512-.2.617a1.5,1.5,0,0,0-.215.106c.215.253.4.46.063.765-.189.168.162,1.1.416,1.311a3.713,3.713,0,0,1,.316.329l-.074.092c-.072-.022-.149-.073-.215-.061a1.156,1.156,0,0,0-.448.143c-.037.025.042.234.077.355.114.382.4.717.207,1.176-.07.162.047.4.092.7l-.667-.116c-.228.412-.478.089-.759-.1l-.346.382c.426.114.712.539,1.162.161.127.253.211.436.575.346.222-.055.525.214.855.366l.266-.165c.127.354.307.6.715.572.067,0,.149.184.235.3a5.585,5.585,0,0,0-.988-.03c-.114.017-.2.246-.263.335.731.305,1.423.632,2.141.883a13.136,13.136,0,0,0,1.55.341c.074.247.316.363.687.235a2.04,2.04,0,0,1,.441-.048,2.188,2.188,0,0,1-.123.67c-.073.138-.3.193-.462.285l.151.207a1.8,1.8,0,0,0,.292-.043.519.519,0,0,1,.673.327c.108.359-.022.561-.393.652-.188.047-.371.125-.614.208l.138-.414-.12.053c-.2-.324-.427-.639-.607-.976-.167-.315-.253-.5-.729-.334a3.923,3.923,0,0,1-1.577.025c-.121-.011-.219-.292-.345-.474l-.275.228-.227-.2-.532.694-.55-.47-.1.1.084.37-.913.114-.017.088.911.455,0,.114a5.006,5.006,0,0,0-.537.07,1.277,1.277,0,0,0-.413.172c-.031.022.017.253.046.257a1.9,1.9,0,0,0,.393-.029c.163-.014.327-.025.469-.036a4.648,4.648,0,0,1-.16,1.078c-.091.226-.371.377-.567.561v-.761l-.166.013c-.094.274-.179.546.177.737a3.355,3.355,0,0,0-.3.271,1.053,1.053,0,0,0-.219.42,1.287,1.287,0,0,1,1.781.859l-.569.173.165-.1.667.412c.052-.175.052-.175.765.168l.271,1.034.727-.446.131.67.353-.073-.161.787,1.236-.85c.149.227.149.227-.442.689a6.806,6.806,0,0,0,.549.47.467.467,0,0,0,.3.029,3.305,3.305,0,0,0,.492-.12c.115-.035.3-.07.319-.145a.435.435,0,0,0-.078-.384c-.271-.241-.156-.4,0-.657a7.267,7.267,0,0,0,.411-1.066.983.983,0,0,1,1.445-.59.439.439,0,0,0,.327.02,2.464,2.464,0,0,1,2.216.131c.082.032.137.2.153.315.108.778.669,1.046,1.433.848.6-.156,1.28-.4,1.844.24a.809.809,0,0,0,.733.061.672.672,0,0,1,.878.213,1.741,1.741,0,0,0,2.449.52c.149.273.072.438-.227.483-.7.106-1.406.205-2.112.292-.3.036-.6.018-.895.058a.366.366,0,0,0-.22.219c-.017.043.085.171.159.208a6.374,6.374,0,0,1,1.475.741c.306.274.823.428.849,1.03.013.311.371.594.514.918a4.09,4.09,0,0,1,.185.811l-.116.055c.072.035.146.1.219.1.425-.013.555.21.53.6-.015.243.083.434.358.444.349.016.435.228.422.524-.016.334.056.608.413.646l-.154,1.017-.489.174c.455.2.46.41.3.814-.143.366-.331.713-.454,1.063a1.609,1.609,0,0,0-.024,1.6c.173.25.037.718.03,1.086,0,.062-.107.133-.095.185a1.978,1.978,0,0,1,0,.952,1.61,1.61,0,0,0,.179.9,2.318,2.318,0,0,0,.491.765c.294.291.568.53.082.88.071.077.1.133.145.154.447.2.552.432.34.866a.584.584,0,0,0-.007.64c.065.107-.037.309-.046.47-.011.215,0,.431-.006.647a2.324,2.324,0,0,0,.5-.089c.467-.19.724-.022.8.478a3.885,3.885,0,0,0,.33.813c-.1.607-.222,1.344-.357,2.079a2.368,2.368,0,0,1-.192.606.947.947,0,0,0,.054,1.088.635.635,0,0,1,.127.268,11.848,11.848,0,0,0,.3,1.849c.331,1,.12,2.112.766,3.041.316.454.538.507.936.123a2.827,2.827,0,0,0,.724-2.091,6.131,6.131,0,0,1,.18-.674.527.527,0,0,0-.055-.4,1.409,1.409,0,0,1-.409-1.133c.028-.936.025-1.872.016-2.808,0-.1-.12-.282-.2-.293-.305-.043-.346-.24-.313-.467a.8.8,0,0,0-.342-.825c-.244-.179-.33-.362-.065-.634a.512.512,0,0,0-.139-.826c-.117-.062-.287-.269-.271-.291a1.935,1.935,0,0,1,.462-.455c.029-.019.21.185.317.288a1.477,1.477,0,0,1,.125.2,3.32,3.32,0,0,0,.384-.491,1.013,1.013,0,0,0,.173-.6,2.017,2.017,0,0,0-.43-.675c-.029-.036-.217,0-.281.062a.33.33,0,0,0-.094.286c.161.321-.057.381-.266.365a2.135,2.135,0,0,0-1.678.623,4.392,4.392,0,0,1,.116-2.719c-.271-.28-.4-.579-.049-.912.043-.042-.012-.2-.04-.3a3.838,3.838,0,0,1-.188-.638c-.03-.339.041-.68-.372-.883-.109-.053-.1-.358-.138-.546l.115-.047a1.175,1.175,0,0,0,.266.179,2.649,2.649,0,0,0,.427.073c-.037-.18-.037-.5-.118-.52-.543-.149-.428-.6-.461-.954a.537.537,0,0,1,.209-.448c.107-.047.307.1.458.184.038.02.043.1.144.145a2.18,2.18,0,0,1,.824-1.769,13.9,13.9,0,0,0,1.059-.946,6.2,6.2,0,0,0,.579-1.3.1.1,0,0,0-.007-.084c-.476-.633-.05-.944.45-1.193a.678.678,0,0,1,.555-.037c.468.305.9.669,1.343,1.01a1.15,1.15,0,0,1,.46.927,7.131,7.131,0,0,0,.13.754.356.356,0,0,1-.017.238c-.566.721.054,1.3.232,1.922.066.235.213.453.256.689.073.4.177.473.542.312.115-.05.245-.072.488-.143-.329.521-.306.794.239.957a.446.446,0,0,1,.244.728c-.043.059,0,.214.043.3.256.462.532.913.785,1.376a2.4,2.4,0,0,1,.079.375c.15.435.311.866.465,1.3a6.3,6.3,0,0,1,.363,1.08c.137.854.158,1.729.339,2.574.113.534.223,1.083.364,1.614.174.661.673.958.986,1.441a2.352,2.352,0,0,0,1.194.885.89.89,0,0,0,1.321-.772,5.359,5.359,0,0,1,.138-.669c-.013-.017-.026-.049-.049-.059-.222-.1-.617-.169-.638-.3a5.372,5.372,0,0,1,.024-1.316,2.414,2.414,0,0,1,.188-.6,1.073,1.073,0,0,1,.186-.367,1.544,1.544,0,0,0,.287-1.62,7.045,7.045,0,0,1-.77-3.406,2.558,2.558,0,0,0-.159-.827c-.006-.028-.024-.053-.03-.08a2.244,2.244,0,0,1,.671-1.459.557.557,0,0,0,.4-.633,1.62,1.62,0,0,1,.59-1.526c.13-.1.162-.328.286-.6l-.583.175a2.832,2.832,0,0,1,.1-.468c.1-.237.221-.466.342-.693.068-.131.154-.253.232-.38a2.546,2.546,0,0,1,.385.309,3.282,3.282,0,0,1,.4.563,1.08,1.08,0,0,1-.006,1.109c-.249.454-.131.654.5.65-.167.16-.246.285-.359.333-.276.119-.269.307-.171.53.263.6.255.638-.214.938a3.4,3.4,0,0,1,.211,1.083,3.351,3.351,0,0,1-.484.98l.078.092.489-.287c.031.114.1.225.08.315-.135.593-.289,1.183-.436,1.775-.017.07-.06.154-.037.208a3.13,3.13,0,0,0,.9,1.595,1.631,1.631,0,0,1,.7,1.475,12.112,12.112,0,0,1-.137,1.214c.561-.008,1.057.035,1.009.8.357-.263.609-.311.919-.071.2.157.382-.02.393-.273.016-.339.007-.659.458-.761.11-.025.171-.27.269-.441l.306.191.261-.418c-.094-.074-.207-.119-.235-.195-.053-.136-.119-.382-.066-.42.15-.106.454-.232.526-.165a1.474,1.474,0,0,1,.443.709,1.088,1.088,0,0,1-1.22,1.17.736.736,0,0,0-.252-.04c-.066.016-.116.1-.175.153.056.053.122.16.168.151.649-.124.539.235.416.625-.113.357.165.519.4.616a.938.938,0,0,1,.7,1,.707.707,0,0,0,.065.293c.294.746.192,1-.474,1.305a5.316,5.316,0,0,1-.229.54c-.265.46-.518.932-.823,1.364-.377.534-.793,1.041-1.208,1.546q-.892,1.081-1.811,2.138c-.165.19-.388.325-.55.516-.349.414-.646.878-1.021,1.267-.782.809-1.641,1.548-2.389,2.386a6.293,6.293,0,0,1-1.67,1.17,4.58,4.58,0,0,1-.8.454,1.074,1.074,0,0,1-1.008-.145c-.645-.431-1.369-.739-2.04-1.133-.728-.425-1.43-.891-2.147-1.335-.737-.458-1.493-.892-2.216-1.373a27.891,27.891,0,0,1-2.449-1.751,4.513,4.513,0,0,1-.743-1.179c-.294-.486-.6-.967-.877-1.462a1.5,1.5,0,0,1-.26-.687,1.521,1.521,0,0,0-.868-1.369c-.18-.115-.269-.371-.4-.563l.11-.163c-.426-.089-.85-.2-1.28-.258-.276-.04-.456.108-.682.309a1.7,1.7,0,0,1-1.132.351,3.02,3.02,0,0,1-1.9-1.167,1.908,1.908,0,0,0-1.015-.581,1.919,1.919,0,0,1-1.02-.61c-.334-.281-.627-.609-.942-.914q-1.211-1.167-2.423-2.333c-.371-.355-.755-.7-1.124-1.058-.715-.7-1.454-1.37-2.118-2.112a4.8,4.8,0,0,1-.609-1.189c-.107-.228-.19-.468-.275-.706a7.952,7.952,0,0,0-.547-1.476,16.009,16.009,0,0,1-.847-2.241c-.226-.53-.519-1.032-.76-1.558-.135-.293-.188-.626-.339-.908-.324-.606-.694-1.188-1.032-1.788-.171-.3-.311-.62-.5-1.008a2.868,2.868,0,0,1,1.1-1.226,5.015,5.015,0,0,0,.694-.773,1.639,1.639,0,0,1,.413-.3c.207-.109.428-.192.643-.286l-.049-.167h-1.471c.273.423.263.752-.219.981l-.252-.548c-.191,1.064-.856,1.167-1.662,1.008-.172-.234-.484-.484-.527-.775-.042-.275.2-.593.332-.937l-.823.337a7.218,7.218,0,0,1-.719-.74c-.4-.545-.757-1.122-1.142-1.679-.244-.351-.514-.685-.761-1.033-.563-.8-1.126-1.588-1.674-2.394-.283-.419-.513-.876-.8-1.291-.464-.668-.936-1.333-1.444-1.967a7.952,7.952,0,0,0-1.469-1.615,15.863,15.863,0,0,1-1.956-1.948c-.275-.275-.522-.579-.785-.867-.067-.074-.129-.178-.214-.207-.369-.125-.5-.453-.727-.723-.379-.465-.842-.861-1.266-1.291-.783-.8-1.574-1.584-2.341-2.4-.57-.6-1.083-1.265-1.666-1.857a7.486,7.486,0,0,0-1.446-1.215,3.568,3.568,0,0,0-4.178.685,3.4,3.4,0,0,0-1.044,2.354,8.045,8.045,0,0,0,.3,2.18,7.8,7.8,0,0,0,.665,1.241c.321.6.608,1.226.958,1.811.249.417.6.77.864,1.179.4.623.76,1.273,1.143,1.908.181.3.384.587.566.888.133.221.237.46.374.677.269.428.56.842.824,1.272.139.226.233.479.369.706.041.068.159.09.24.133Zm52.334,31.392a.9.9,0,0,0,.832-.346,8.166,8.166,0,0,1,.818-.938,11.464,11.464,0,0,0,1.447-1.592c.11-.129.178-.292.282-.426.426-.551.83-1.124,1.3-1.636.329-.358.545-.956.318-1.239s-.486-.587-.744-.9a1.362,1.362,0,0,0-.681,1.791c-.166.016-.346-.024-.418.047a4.276,4.276,0,0,0-1.387,2.05,11.7,11.7,0,0,1-.416,1.322.824.824,0,0,1-.281.42c-.561.342-.729.956-1.062,1.456a6.461,6.461,0,0,0-.8.285,1.313,1.313,0,0,0-.467.4,3.865,3.865,0,0,0-.3.7,2.9,2.9,0,0,0,.724-.086A1.4,1.4,0,0,0,700.466,376.753Zm-25.979-17.912c.257-.223.476-.417.7-.6a.605.605,0,0,1,.209-.141.4.4,0,0,0,.335-.515.915.915,0,0,0-.4-.555,1.064,1.064,0,0,0-.682.088c-.089.032-.2.271-.163.34.219.393.044.609-.319.755Zm20.532,21.118c.036.065.071.223.16.264a.36.36,0,0,0,.334-.076,3.605,3.605,0,0,0,.58-.861.62.62,0,0,0-.192-.56.558.558,0,0,0-.537.13A6.494,6.494,0,0,0,695.019,379.959Zm-26.326-42.032.067-.24a3,3,0,0,0-.664-.234,2.765,2.765,0,0,1-1.526-.309c-.089-.066-.287.012-.434.023A2.841,2.841,0,0,0,668.693,337.926Zm1.2,12.986c-.054-.512-.537-.6-.951-.748-.113.192-.222.352-.305.525a1.443,1.443,0,0,0-.068.328,1.284,1.284,0,0,0,.337.05C669.213,351.032,669.515,350.975,669.895,350.912Zm6.3,10.332-.089-.1c-.112.072-.227.138-.333.217s-.2.177-.309.262a1.565,1.565,0,0,0-.3.241c-.024.032.073.225.124.228.143.011.352.013.424-.073A6.07,6.07,0,0,0,676.195,361.244Zm-38.733-33.4a2.758,2.758,0,0,0-.578-.312c-.058-.014-.229.171-.247.281-.052.322.107.556.495.759C636.849,328.156,637.112,328.027,637.462,327.839Zm34.122,20.69-.194-.049c-.078.358,0,.806-.492.968.245.036.558.04.592-.054A3.52,3.52,0,0,0,671.583,348.529Zm-12.936-27.058-.6-.536c-.062.074-.187.2-.177.214a4.658,4.658,0,0,0,.5.5C658.382,321.668,658.5,321.568,658.648,321.472Zm-15.454,18.791-.124-.617c-.1.031-.256.036-.286.1C642.675,339.979,642.742,340.162,643.194,340.263ZM636.08,329.3c-.129.165-.25.252-.252.342s.108.2.169.294c.094-.084.232-.154.268-.258C636.289,329.6,636.177,329.482,636.08,329.3Zm1.619-.1.107-.2c-.116-.046-.237-.136-.347-.125-.09.01-.168.139-.251.216.08.084.148.2.246.241C637.51,329.36,637.616,329.252,637.7,329.2Zm61.188,49.738.163.014.358-.555c-.253.052-.45.035-.5.115C698.837,378.615,698.887,378.794,698.887,378.939ZM665.153,336.66l-.13.06c.06.109.1.289.184.312a1.391,1.391,0,0,0,.478-.031l-.035-.114Zm1.829,6.713h.126v-.637l-.126,0Zm3.569,7,.006.216.4-.03a.824.824,0,0,0-.019-.179A3.792,3.792,0,0,0,670.552,350.376Zm-3.446-3.735-.122-.006v.534l.122,0ZM635.151,314.8l.012-.18h-.4l-.008.137Z" transform="translate(-612.063 -305.29)"/><path class="b" d="M645.387,341.069a1.184,1.184,0,0,0-.288-1.077,7.063,7.063,0,0,1-1.375-2.8,12.378,12.378,0,0,0-.6-1.269,2.9,2.9,0,0,0-.839-1.159c-.159-.136-.2-.4-.312-.6a15.374,15.374,0,0,0-1.8-2.611,1.716,1.716,0,0,1-.337-.683,5.128,5.128,0,0,1-.5-1.771,2.366,2.366,0,0,1,1.677-2.033c.043-.008.1,0,.126-.028.821-.743,1.355-.012,1.914.41.119.09.073.426.062.646a2.3,2.3,0,0,1-.12.473,1.823,1.823,0,0,1,.628.049c.064.032.011.3.011.365l.654,1.255-.122.172a8.838,8.838,0,0,1,.648.847.582.582,0,0,1-.037.443c-.168.386-.1.685.292.818.262.089.27.267.346.474.2.557.538,1.155,1.293,1.021l.167.752a3.65,3.65,0,0,1,.382-.668c.261-.277.466-.2.662.12.084.139.293.211.455.3.2.1.407.185.611.275l-.029.133-.431.2.013.127a2.753,2.753,0,0,1,.484-.03,2.285,2.285,0,0,1,.522.132,3.079,3.079,0,0,0,.408.195c.52.094.716.423.74.964a6.506,6.506,0,0,0,.313,1.4c.017.059.252.132.281.1.28-.3.562-.023.82.016.111.016.279.348.244.494-.086.355.074.375.342.418a4.185,4.185,0,0,1,.734.267l-.27.384.021.048c.7-.041.342.862.873.985a.289.289,0,0,1,.149.238c-.047.39.163.538.554.563l-.216.349c.035.047.053.1.085.111a3.793,3.793,0,0,1,1.43.907c.089.115.05.349.03.524a2.111,2.111,0,0,1-.148.432c.126-.025.252-.06.38-.073.271-.029.544-.048.815-.071l.025.135-.328.217c.121.271.253.532.357.8s.014.478-.3.476a3.911,3.911,0,0,1-.694-.126c-.091-.018-.216-.082-.269-.044-.423.3-.561.042-.634-.384a.842.842,0,0,1-1.247.022.663.663,0,0,0-.5-.05.5.5,0,0,0-.319.264c-.026.062.116.232.217.3.336.233.687.444,1.035.66.246.153.491.311.749.442a.4.4,0,0,0,.273-.02,2.817,2.817,0,0,0-.012-.462c.46-.251.779.16,1.2.306-.062.114-.154.2-.144.279.022.154.054.381.159.436.533.286,1.093.521,1.641.783.345.165.683.342,1.075.54l-.42.464.019.11a3.025,3.025,0,0,1,.5-.1.934.934,0,0,1,.519.062,2.377,2.377,0,0,1,.993,1.245,1.119,1.119,0,0,1-.03.423c-.132-.034-.3-.029-.391-.109a4.456,4.456,0,0,1-.466-.538c-.3.025-.386.651-.865.148l.2.717-2.1-1.251a.3.3,0,0,1-.1-.078,4.533,4.533,0,0,0-1.523-1.062c-.488-.31-.911-.719-1.375-1.07-.615-.465-1.25-.906-1.86-1.376-.531-.408-1.023-.866-1.562-1.263-.569-.419-1.173-.793-1.763-1.187-.331-.222-.653-.46-1-.664-.3-.177-.614-.315-.92-.474a1.093,1.093,0,0,1-.362-.222,1.007,1.007,0,0,0-.859-.387c-.1,0-.2-.127-.3-.2-.131-.1-.258-.2-.388-.3Z" transform="translate(-609.305 -300.984)"/><path class="b" d="M697.328,349.068a.674.674,0,0,1,.208-.92c.468-.351.423-.479-.086-.765a1.146,1.146,0,0,1-.441-.581c-.083-.223-.137-.461-.4-.384-.238.067-.594.223-.63.4-.092.442-.587.528-.689.924a.258.258,0,0,1-.189-.007,5.048,5.048,0,0,1-.665-.645.885.885,0,0,0-.79-.331,1.168,1.168,0,0,1-.657-.2.716.716,0,0,1-.205-.527c0-.067.289-.147.454-.191s.353-.024.509-.085c.131-.052.313-.175.322-.28.012-.145-.116-.3-.185-.454a1.269,1.269,0,0,0-.4.193c-.233.25-.454.5-.781.161-.411-.422-.423-.844-.065-1.159.138-.122.271-.25.419-.387l.22.275c.059-.1.127-.167.13-.234.013-.339.109-.509.471-.294.261.155.532.292.8.434.074.038.187.113.228.086.459-.289.67-.029.811.4a1.121,1.121,0,0,0-.148-1.316,1.06,1.06,0,0,1-.114-.34,2.517,2.517,0,0,1,.366.121c.262.132.519.274.772.423a8.785,8.785,0,0,1,2.1,1.287,1.346,1.346,0,0,0,.431.192c-.019.043-.025.089-.052.112-.118.1-.241.2-.363.3.149.12.333.367.444.339.693-.181.6.467.782.753a3.6,3.6,0,0,1,.3,1.087c.013.06-.026.132-.137.217-.032-.121-.067-.243-.1-.364a.637.637,0,0,0-.611-.508c-.513-.062-1.02-.179-1.529-.268a1.676,1.676,0,0,0-.269,0c.014.092-.006.222.047.27.3.262.612.5.921.753l-1.083,1.579Zm-1.053-4.044.183-.019-.072-.532-.184.023Z" transform="translate(-598.644 -297.744)"/><path class="b" d="M685.981,342.343l.512.139-.081.259a7.876,7.876,0,0,1,.5.644c.3.479.2.825-.281,1.176-.11.081-.258.183-.283.3a1.98,1.98,0,0,1-1.011,1.175,2.671,2.671,0,0,0-.414.5,3.024,3.024,0,0,1-.258.238c-.06-.084-.121-.168-.18-.252l-.525-.742c.122-.281-.094-.539-.382-.743a1.393,1.393,0,0,1-.631-1.333c.032-.462-.114-.954.263-1.351.028-.028,0-.1,0-.065a3.177,3.177,0,0,1-1.045-.225,3.477,3.477,0,0,1-.793-.875c-.058-.076,0-.239.006-.363.114.024.231.044.344.071.17.041.383.167.5.107a.619.619,0,0,0,.2-.47,10.938,10.938,0,0,0-.084-1.1c.144.019.406-.028.514.079a5.044,5.044,0,0,0,1.977.887,2.736,2.736,0,0,1,1.331,1.279C686.237,341.8,686.063,342.065,685.981,342.343Z" transform="translate(-600.86 -298.43)"/><path class="b" d="M674.486,339.571c-.491-.055-.892-.091-1.291-.149-.153-.023-.3-.138-.445-.137a3.825,3.825,0,0,1-1.85-.687c-.48-.262-.988-.477-1.49-.7a.346.346,0,0,0-.289,0c-.294.238-.549.064-.825-.029a5,5,0,0,1-1.713-.894c-.121-.106-.114-.408-.1-.615a2.007,2.007,0,0,1,.195-.646.836.836,0,0,1,.3-.316,9.968,9.968,0,0,0,1.04-.651c.62-.531.821-.546,1.452-.02.135.113.361.113.5.221.383.3.742.621,1.111.936.02.018.029.06.05.067.648.2.781.825,1.119,1.289a11.294,11.294,0,0,0,.964.969c.153.161.25.372.389.548a.414.414,0,0,0,.25.171C674.186,338.937,674.343,339.121,674.486,339.571Z" transform="translate(-603.85 -299.451)"/><path class="b" d="M687.195,340.3a1.36,1.36,0,0,1,.355.084c.593.324,1.185.652,1.767,1a1.84,1.84,0,0,1,.485.429c.192.243.344.518.53.807-.095.042-.174.108-.213.089-.3-.146-.561-.2-.718.2-.014.037-.181.036-.27.017-.268-.055-.533-.129-.8-.195-.042-.011-.086-.012-.126-.026a2.508,2.508,0,0,1-.846-1.28c.067-.377.216-.754-.289-1.029Z" transform="translate(-599.711 -298.254)"/><path class="b" d="M662.626,330.678l.57-.1c-.586-.307-1.284-.306-1.767-.77l.031-.19a4.523,4.523,0,0,0,1.076-.018,4.627,4.627,0,0,0,.976-.52l.21.8.238-.518c.474.47.521.679.268,1.207l.61.192,0,.108a3.647,3.647,0,0,0-.43.225,4.757,4.757,0,0,0-.408.352l-.253-.387-.333.472Z" transform="translate(-604.864 -300.51)"/><path class="b" d="M696.368,353.97c.135.6.258,1.075.337,1.553a.973.973,0,0,1-.135.436,3.609,3.609,0,0,0-.226.528c-.1.474-.253.566-.7.372a2,2,0,0,0-.2-.068c-.377-.113-.534-.484-.257-.733a2.706,2.706,0,0,0,.807-1.541C696.03,354.358,696.19,354.225,696.368,353.97Z" transform="translate(-598.108 -295.507)"/><path class="b" d="M642.217,339.958c.259.24.615.436.752.731a2.818,2.818,0,0,1,.111,1.111c0,.036-.252.114-.381.1s-.22-.122-.329-.19l.011.012-.974-.722a.941.941,0,0,0,.281-.089,1.068,1.068,0,0,0,.316-.306c.026-.041-.083-.235-.107-.232a2.057,2.057,0,0,0-.408.142.807.807,0,0,0-.141.113l-.3-.393a.871.871,0,0,1,1.132-.3Z" transform="translate(-608.961 -298.347)"/><path class="b" d="M641.465,344.568a1.962,1.962,0,0,0,.341-.536c.065-.289.208-.361.456-.276a.518.518,0,0,1,.36.67,1.149,1.149,0,0,1-1.177.455,2.565,2.565,0,0,1-.514-.19c-.089-.061-.1-.233-.149-.354a1.366,1.366,0,0,1,.345.023A1.692,1.692,0,0,1,641.465,344.568Z" transform="translate(-609.013 -297.566)"/><path class="b" d="M641.131,342.929a.671.671,0,0,1-.8-.488c-.036-.142.061-.448.133-.46a1,1,0,0,1,.618.1,1.528,1.528,0,0,1,.365.419l-.333.436Z" transform="translate(-609.105 -297.919)"/><path class="b" d="M641.009,342.781l.694.423a6.137,6.137,0,0,1-.455.8c-.079.1-.285.108-.384.142v-.618l.031.012q.065-.382.127-.766Z" transform="translate(-608.997 -297.758)"/><path class="b" d="M642.281,341.4l.125.763c-.346.195-.524.078-.922-.709l.808-.042Z" transform="translate(-608.872 -298.034)"/><path class="b" d="M691.878,379.154c-.545.434.22.711.095,1.11-.352-.1-.77-.595-.71-.843S691.5,379.037,691.878,379.154Z" transform="translate(-598.87 -290.455)"/><path class="b" d="M693.354,382.882a1.175,1.175,0,0,1-.351,1.053.385.385,0,0,1-.375-.019.392.392,0,0,1,0-.384A7.491,7.491,0,0,1,693.354,382.882Z" transform="translate(-598.605 -289.697)"/><path class="b" d="M641.8,345.056l.943.4c-.472.371-.749.277-1.006-.249Z" transform="translate(-608.821 -297.299)"/><path class="b" d="M695.428,378.463l-.406-.724.111-.126c.167.031.456.026.477.1a2.615,2.615,0,0,1,.024.709Z" transform="translate(-598.113 -290.756)"/><path class="b" d="M693.716,382.565c-.263-.279-.3-.515-.055-.7.059-.046.2.012.3.022Z" transform="translate(-598.42 -289.905)"/><path class="b" d="M696.264,349.623c.114.149.232.239.219.3-.022.1-.131.175-.2.262-.078-.065-.217-.13-.217-.195C696.062,349.9,696.16,349.8,696.264,349.623Z" transform="translate(-597.904 -296.381)"/><path class="b" d="M696.279,353.579v-.621l.146-.01.048.621Z" transform="translate(-597.861 -295.712)"/><path class="b" d="M696.056,352.226v-.668h.134v.667Z" transform="translate(-597.906 -295.992)"/><path class="b" d="M642.8,340.113c.488-.03.518.011.39.476Z" transform="translate(-608.607 -298.293)"/><path class="b" d="M664.635,375.616a1.8,1.8,0,0,1,.41,2.007.328.328,0,0,1-.192.144,2.057,2.057,0,0,1-2.158-.472c-.255-.27-.536-.515-.832-.8l1.938-1.834.677.787-.824.646-.5-.383a2.812,2.812,0,0,0-.047.933c.078.243.346.423.6.7.185-.281.488-.566.432-.689-.127-.28.054-.353.156-.5C664.415,375.981,664.522,375.8,664.635,375.616Zm-.118.915-1.024,1.088C663.963,377.629,664.625,376.916,664.517,376.531Z" transform="translate(-604.777 -291.348)"/><path class="b" d="M659.282,379.14l1.937-1.761c.443.53,1.274.871,1.374,1.775a4.146,4.146,0,0,1-.076,1.022.347.347,0,0,1-.213.232,2.03,2.03,0,0,1-2.122-.438C659.915,379.694,659.618,379.447,659.282,379.14Zm1.111-.755.137.6-.322.442.363.3.162-.119.238.638.5-.424c.029.023.115.144.183.133.268-.042.346-.257.381-.482l-.141-.067.371-.538-.579-.2-.181-.564-.476.376Z" transform="translate(-605.296 -290.803)"/></g></g></g></svg>