<svg xmlns="http://www.w3.org/2000/svg" width="190" height="190" viewBox="0 0 190 190"><defs><style>.a,.b{fill:#fff;}.a{opacity:0;}</style></defs><g transform="translate(-1125 -270)"><rect class="a" width="190" height="190" transform="translate(1125 270)"/><path class="b" d="M2603,12425.642V12407l21.277,9.23v27.235L2603,12451Z" transform="translate(-1405.716 -12043.633)"/><path class="b" d="M22.3,39.693,0,30.018V-10L22.3-.326V39.694Zm0-.032h0V-.357L44.6-10V30.018L22.3,39.66Z" transform="translate(1197.285 331.268)"/><path class="b" d="M22.3,15.734,0,6.06V0H44.581V6.066L22.3,15.734Z" transform="translate(1197.286 313.271)"/><path class="b" d="M22.273,15.734h0L.007,7.749,0,0H44.577l.006,7.749L22.273,15.734Z" transform="translate(1241.842 417.382) rotate(180)"/><path class="b" d="M0,37.84V19.2L21.276,10V28.641L0,37.84Z" transform="translate(1220.607 353.368)"/><path class="b" d="M21.276,0,0,9.2v6.579l21.276,7.533Z" transform="translate(1220.607 384.054)"/></g></svg>