<svg xmlns="http://www.w3.org/2000/svg" width="190" height="190" viewBox="0 0 190 190"><defs><style>.a{fill:#ac7b7b;opacity:0;}.b,.c{fill:none;}.b{stroke:#ff864e;stroke-width:20px;}.c{stroke:#2b2e34;stroke-width:3px;}</style></defs><g transform="translate(-775 -266)"><rect class="a" width="190" height="190" transform="translate(775 266)"/><g transform="translate(-5 -2)"><g transform="translate(880 308)"><path class="b" d="M0,48.328v-120" transform="translate(0 71.672)"/></g><g transform="translate(863 298)"><path class="c" d="M0,49.651l14.8-14.8M0,40.885l14.8-14.8M0,32.117l14.8-14.8M0,23.351l14.8-14.8M0,14.585,14.8-.218M0,5.818l14.8-14.8M0-2.948l14.8-14.8M0-11.714l14.8-14.8M0-20.48l14.8-14.8M0-29.248l14.8-14.8M0-38.014l14.8-14.8M0-46.78l14.8-14.8M0-55.548l14.8-14.8" transform="translate(0 70.349)"/></g></g></g></svg>