<svg xmlns="http://www.w3.org/2000/svg" width="190" height="190" viewBox="0 0 190 190"><defs><style>.a{fill:#5e131b;opacity:0;}.b{fill:#fff;}</style></defs><g transform="translate(-775 -620)"><rect class="a" width="190" height="190" transform="translate(775 620)"/><g transform="translate(-0.974 -10)"><g transform="translate(810.974 658)"><path class="b" d="M-294.312,240.592c-.766-.14-1.53-.283-2.3-.421-.579-.1-1.16-.2-1.74-.3l.03-.27c.627.058,1.255.106,1.881.177.71.08,1.417.181,2.126.272Z" transform="translate(414.883 -172.736)"/><path class="b" d="M-565.054,167.777a.778.778,0,0,1-.115-.349c.019-.378.11-.753.136-1.132a9.284,9.284,0,0,0,.008-1.136c-.026-.5-.136-1.008-.116-1.508.034-.863.135-1.723.218-2.584a.661.661,0,0,1,.127-.38,1.228,1.228,0,0,0,.11-1.508,13.238,13.238,0,0,1-1.065-4.036c-.2-2.025.282-3.129,2.021-4.086.283-.155.7-.064,1.046-.112a.652.652,0,0,0,.394-.175.975.975,0,0,1,1.331-.189,2.7,2.7,0,0,1,1.476,1.111c.106.2.5.255.8.4.214-.524.512-.474.713.007a1.5,1.5,0,0,0,.774.74,2.053,2.053,0,0,1,.685,1.038c.4,1.049.794,2.107,1.09,3.189a2.351,2.351,0,0,0,1.189,1.344c.323.212.684.366,1.162.617l.825-2.013c-.4-.742-.9-1.452-.325-2.32.057-.087,0-.25-.008-.378-.014-.622-.029-1.243-.038-1.865,0-.085.065-.233.04-.247-.854-.492-.052-.752.18-1,.651-.684,1.361-1.313,2.1-2.01l-.614-.8,5.141-3.833c-.305-.553-.1-1.067.676-1.362.986-.373,1.993-.69,2.983-1.052a11.085,11.085,0,0,1,1.308-.547,19.1,19.1,0,0,1,2.275-.325c.818-.08,1.642-.109,2.508-.163l-.1-.47c.061-.023.085-.041.1-.036a24.179,24.179,0,0,1,2.481.662c1.363.512,1.935,1.818,2.572,2.962a6.818,6.818,0,0,1,.406,2.21,3.008,3.008,0,0,1,.09.943,4.3,4.3,0,0,1-.432,1.266c-.115.214-.461.292-.629.494a4.294,4.294,0,0,0-.425.775,5.037,5.037,0,0,1,.642.336c.189.134.5.346.482.48-.162,1.029-.393,2.048-.6,3.07l-.256-.051.1-.613a1.022,1.022,0,0,1-.329.074c-1.276-.217-1.582.03-1.435,1.28a8.479,8.479,0,0,0,.4,1.386l.3-.087-.438-1.45c.3.046.692-.006.842.161s.069.555.084.846a1.52,1.52,0,0,1-.317,1.22c-.072.08.093.542.26.64.5.293.493.793.543,1.222a9.844,9.844,0,0,0,1.342,4.213,3.448,3.448,0,0,1,.363,1.824c-.029,1.19-1.066,1.446-1.931,1.817a2.065,2.065,0,0,1-.9.2c-.763-.184-1.52-.416-2.294-.525a1.217,1.217,0,0,0-.8.405c-.642.617-1.245,1.275-1.855,1.925-.258.276-.5.571-.819.945,1.411.605,2.6,1.551,4.262,1.466a21.63,21.63,0,0,0-1.132,2.2,10.435,10.435,0,0,0-.514,2.147c-.149.95-.284,1.875-1.284,2.354-.071.034-.085.187-.126.285-.326.789-.5.865-1.331.587a.957.957,0,0,0-.261-.027l-.18,1.214-.152,0-.149-.491-2.416.531-.04.19,1.595.315c-.407.879-1,1.512-1.9,1.439a5.579,5.579,0,0,1,.429.96c.182.785.31,1.582.471,2.437-.824-.1-1.574-.226-2.331-.271-.831-.05-.9.047-.881.835a4.4,4.4,0,0,1-1.324,3.431c-.292.282-.624.522-.93.774l.367.7-.1.08-1.121-1.282a3.136,3.136,0,0,0,.216-.919c-.113-1.1-.248-2.2-.455-3.28a1.053,1.053,0,0,0-.626-.658,22.528,22.528,0,0,1-5.423-2.436,13.659,13.659,0,0,1-1.645-1.293,95.6,95.6,0,0,0-9.34-7.4c-.987-.661-.927-.68-.682-1.854.167-.8.186-1.63.293-2.444C-565.259,168.513-565.157,168.207-565.054,167.777Zm3.831-16.149c.25.616-.543,1.353.176,1.958a2.353,2.353,0,0,1,.259-.685c.542-.631.4-1.043-.454-1.256a1.767,1.767,0,0,0-2.676.247c-.525.835-1.368,1.667-.368,2.905.122-.656.239-1.207.325-1.763a1.505,1.505,0,0,1,.637-1.188A2.106,2.106,0,0,1-561.223,151.628Zm8.525,25.746c.349.792.568,1.656,1.518,1.878a7.437,7.437,0,0,1,3.393,1.851,1.058,1.058,0,0,0,.684.241,2.688,2.688,0,0,1,1.983,1,.793.793,0,0,1,.152.729c-.349.592-.138.986.389,1.51l1.056-3.009-2.444-2.343A9.711,9.711,0,0,1-552.7,177.373Zm11.267-27.215.154.173c.326-.236.637-.5.983-.7a2.031,2.031,0,0,1,1-.424,15.3,15.3,0,0,1,2.692.45c1.141.3,1.128.354,1.427-.885a3.367,3.367,0,0,0-.678-.38,15.286,15.286,0,0,0-2.907-.762c-1.078-.1-2.348-.632-3.179.6a8.67,8.67,0,0,0-.78,1.661c-.039.1.116.33.24.411.077.05.28-.041.4-.115.25-.156.481-.343.719-.518l.109.116Zm-1.261,4.823c.62.25,1.168.484,1.726.691.36.134.693-.009.712-.375a11.1,11.1,0,0,0-.143-1.62c.693-.259.852-.213,1.6.374a1.746,1.746,0,0,0,.648.167,1.592,1.592,0,0,0,.064-.6c-.286-.93-2.012-1.351-2.892-.735-.481.337-.982.645-1.478.968l.311-.986a2.04,2.04,0,0,0-1.394,2.473l.2-.606.837.924.086-.072Zm.787.974a2.163,2.163,0,0,0,3.035.689c.314-.155.618-.307.417-.689Zm5.337,9a13.756,13.756,0,0,1,1.38.133,5.436,5.436,0,0,1,.974.349c.438.182.869.382,1.3.574l.07-.177A2.924,2.924,0,0,0-536.568,164.955Zm-6.676,3.516.088.226a3.624,3.624,0,0,1,3,.019l-.093-.959a12.2,12.2,0,0,0-1.542.178A12.232,12.232,0,0,0-543.244,168.471Zm-3.4,2.571.375-2.205-.173-.06c-.1.224-.218.444-.3.674-.066.178-.036.422-.148.545C-547.292,170.427-547.116,170.708-546.649,171.042Zm-15.049-15.43c1.075-.169,1.634-.674,1.572-1.3Zm23.919,9.289.188-.09c-.08-.251-.168-.5-.238-.753-.058-.209-.095-.423-.141-.635l-.271.1Z" transform="translate(581.518 -111.056)"/><path class="b" d="M-419.925,143.122c.076.429.152.858.2,1.139a22.638,22.638,0,0,1,2.8-.677c.978-.113,1.421.824,2.063,1.351.115.095.153.281.264.384a2.39,2.39,0,0,1,.766,2.53,23.176,23.176,0,0,1-1.363,3.974,21.052,21.052,0,0,1-3.115,4.052c-.282.349-.928.409-1.412.587-.286.105-.583.182-.875.272l.025.191a2.064,2.064,0,0,0,.63-.01,17.912,17.912,0,0,0,1.8-.7,5.18,5.18,0,0,0,2.2-1.872c.4-.612.648-.57,1.032.244l.538-.5-.8-.484,1.122-1.795.821.587-.186.6-.424-.277-.544.814.979.416-.112.668-.865-.053-.045.291c.481.119.964.232,1.442.362.139.038.387.149.379.185-.12.6.28.862.649,1.206.141.132-.067.582.042.813.283.6.654,1.156,1,1.743l-.25.074c.655.664,1.29,1.306,1.923,1.95.046.047.061.146.112.165,1.077.4.446,1.1.119,1.463a40.47,40.47,0,0,1-2.983,2.9c-.443.4-1.009.668-1.459,1.063-.186.164-.212.507-.314.767a1.755,1.755,0,0,1-.248.582c-1.132,1.167-2.25,2.35-3.437,3.46a49.136,49.136,0,0,0-5.707,6.156c-.893,1.18-1.959,2.229-2.992,3.388A5.574,5.574,0,0,0-429.385,179c-.023-.119-.052-.183-.035-.2,1.1-1.069-.1-1.636-.514-2.375a18.286,18.286,0,0,1-1.146-2.126,2.991,2.991,0,0,0-2.519-2.074,13.072,13.072,0,0,1-4.454-1.314,8.577,8.577,0,0,1-.894-.582,19.864,19.864,0,0,1-2.927-2.091c-1.626-1.647-1.741-3.753-1.241-5.885.255-1.086-.359-1.75-.888-2.491-.236-.33-.555-.606-.756-.953-.287-.5-.05-.855.515-.8.524.047,1.042.161,1.616.171a4.712,4.712,0,0,0-.594-.247c-1.116-.3-1.121-1.183-.852-2.1.115-.388.313-.751.43-1.139.31-1.018-.268-1.634-1.327-1.5a2.731,2.731,0,0,1-2.6-1.267,2.062,2.062,0,0,1,.03-2.537,45.118,45.118,0,0,1,5.3-6.906,5.377,5.377,0,0,0,1.734-4.243,21.854,21.854,0,0,1,.352-3.307,3.009,3.009,0,0,0,.747.127c.264-.029.518-.218.774-.213a.856.856,0,0,1,.59.315,10.562,10.562,0,0,1,.655,1.143l1.7.589a1.849,1.849,0,0,0-.158-1.909,3.337,3.337,0,0,1-.459-1.183.868.868,0,0,0-1.148-.695,4.62,4.62,0,0,1-.907.051c-.247,0-.5-.052-.741-.026a4,4,0,0,0-.7.219l.472-1.144c.549.1,1.075.208,1.606.288.732.111,1.466.2,2.2.3a6.758,6.758,0,0,1,1.792.267c.322.141.492.692.666,1.087a2.322,2.322,0,0,1,.072.725l.168,0c0-.352.022-.706-.006-1.055-.031-.384.194-.586.469-.408a18.352,18.352,0,0,1,2.244,1.682c.148.132-.021.619-.047.987.894-.11.677.751.943,1.195.2.33.11.358.543.263.1-.022.294.139.361.262a4.39,4.39,0,0,1,.241.692,12.107,12.107,0,0,1,.542,1.666,2.527,2.527,0,0,1-.235.96c-.089.332-.177.665-.245.922.058,1.211.167,2.386.151,3.558-.008.615-.328,1.228-.32,1.839a1.309,1.309,0,0,0,.636.956,2.57,2.57,0,0,0,2.7-.417c.08-.056.107-.184.163-.275.33-.529.686-1.044.982-1.591.162-.3.135-.738.349-.967a11.147,11.147,0,0,1,1.319-1.03c.331-.26.646-.539.968-.81l-.1-.162,1.253-.107Zm2.37,1.306c-.56-.033-1.026.327-1.226,1.1a16.538,16.538,0,0,0-.406,1.844,6.772,6.772,0,0,0,.091,1.288c-.383.291-.217.8.087,1.381.526-.54.894-.977.514-1.785-.465-.989-.366-1.006.47-1.7a1.422,1.422,0,0,0,.361-.8A12.034,12.034,0,0,0-417.555,144.428Zm-21.611.992c.686-.578,1.371-1.143,2.038-1.727a.983.983,0,0,0,.267-.456.426.426,0,0,0-.106-.343c-.043-.045-.222-.01-.3.044-.128.085-.207.261-.34.318a1.171,1.171,0,0,1-.682.142c-.13-.036-.213-.341-.266-.539-.071-.267-.093-.547-.164-1-.551.8-.121,1.752-.844,2.271-.008.006,0,.043.009.063Zm2.549-3.257c-.27-.593-.467-1.081-.71-1.545-.407-.778-.925-1-1.553-.405-.253.239-.555.427-.971.74Zm16.338,7.593c-.574.822-1.128,1.576-1.635,2.36-.2.3-.116.592.329.564A1.92,1.92,0,0,0-420.278,149.756Zm-23.665,3.068c-1.106-1.548-2.2-1.786-2.72-.692.7.871,1.867.219,2.654.795Zm28.388-4.316a1.579,1.579,0,0,0,0,2.094Zm-2.742,3.55.167.084a2.762,2.762,0,0,0,.411-.693c.038-.148-.112-.375-.232-.521a.375.375,0,0,0-.354,0,.9.9,0,0,0-.1.481A4.686,4.686,0,0,0-418.3,152.058Z" transform="translate(508.122 -105.884)"/><path class="b" d="M-468.207,375.777a2.28,2.28,0,0,0-1.674,1.351,3.727,3.727,0,0,1-.547.851.9.9,0,0,1-.675.268,4.505,4.505,0,0,0-2.781.325.849.849,0,0,1-.75-.121,11.7,11.7,0,0,1-1.443-1.576c-.393-.53-.5-.563-.868.018-.582.051-1.074-.66-1.746-.268l1.29,1.585c-.486.215-.876.372-1.253.557-.416.2-.819.433-1.23.649a1.145,1.145,0,0,1-.3.137c-1.832.354-3.543,1.122-5.362,1.539a9.638,9.638,0,0,0-2.131,1.106h.65a3.238,3.238,0,0,1-3.984-.409,1.076,1.076,0,0,0-.209-.168c-.864-.5-.826-.489-.58-1.487.642-2.607,1.186-5.24,1.894-7.828a31.224,31.224,0,0,1,1.4-3.345c.443-1.094,1.475-1.516,2.287-2.219a10.852,10.852,0,0,1,5.455-2.321,5.846,5.846,0,0,0,1.7-.666,5,5,0,0,1,2.7-.467c1.012.042,2.022.152,3.033.154.937,0,1.667.23,1.937,1.234.088.328.3.406.638.506a6.911,6.911,0,0,1,1.631.845c.272.171.476.43.648-.073.469.328.732,1.082,1.36.392.495.919.983,1.188,1.254.859.256.125.469.249.7.334a10.008,10.008,0,0,0,1.458.489.944.944,0,0,0,.733-.211c1.069-1.034,2.035-2.185,3.169-3.138a6.341,6.341,0,0,1,4.385-1.5c1.687.056,2.454,1.236,3.11,2.551a8.3,8.3,0,0,1,.277,5.709,10.362,10.362,0,0,1-5.95,7.526c-2.664,1.2-5.5,1.5-8.175-.2A4.577,4.577,0,0,1-468.207,375.777Zm10.372-10.473-.23-.169c-.606.173-1.3.276-1.5,1.018-.35,1.283-.614,2.59-.957,3.875a.98.98,0,0,1-.509.6c-1.187.427-2.391.81-3.6,1.182a1.493,1.493,0,0,0-1.081,1.7c.457-.208.89-.378,1.3-.594,1-.528,1.976-1.083,2.971-1.611a1.561,1.561,0,0,1,.5-.078,3.211,3.211,0,0,1,.038.5,3.978,3.978,0,0,1-.111.46c-.332,1.675-.662,3.35-1.021,5.168l1.916-.209c0-1.8.01-3.492,0-5.18-.008-1.029-.024-1.038.988-1.094,1.42-.078,2.841-.123,4.259-.225a.9.9,0,0,0,.682-.394,7.975,7.975,0,0,0,.213-1.482,2.16,2.16,0,0,0-.421,0c-1.484.377-2.964.771-4.451,1.134a5,5,0,0,1-.955.052,8.51,8.51,0,0,1,.278-.865C-458.975,367.834-458.4,366.571-457.834,365.3Zm-22.613,13.343c-.532-.686-1-1.27-1.449-1.876a7.6,7.6,0,0,1-1-1.5,7.173,7.173,0,0,1,.357-6.329c.142-.269.262-.55.392-.825a1.112,1.112,0,0,0-.508.481,18.369,18.369,0,0,0-2,6.01c-.29,1.343-.626,2.681-1.026,4-.195.64-.464,1.2.191,1.557Zm23.489-3.135c.443-.546.852-1.01,1.2-1.515a.563.563,0,0,0-.12-.536,10.791,10.791,0,0,0-1.677-1.109,1.425,1.425,0,0,0-1.023-.006c-.141.052-.216.509-.182.764C-458.616,374.19-457.733,374.722-456.958,375.512Zm-5.211-2.558-.227-.1c-1.028.822-2.074,1.624-3.057,2.5-.1.087.143.628.31.908a.572.572,0,0,0,.55.047c.759-.8,1.5-1.609,2.2-2.461C-462.219,373.628-462.238,373.255-462.168,372.954Zm4.2-4.346a4.309,4.309,0,0,0,2.991-1.992.552.552,0,0,0-.065-.881c-.358-.269-.638-.121-.883.153-.6.67-1.194,1.342-1.767,2.033A2.722,2.722,0,0,0-457.964,368.608Zm-29.531,8.4c-.229-.11-.48-.342-.695-.312-.444.062-.8.3-.659.876a1.243,1.243,0,0,1-.277,1.312.645.645,0,0,0,.117,1.1c.1.06.5-.134.5-.182a2.542,2.542,0,0,1,.783-1.981C-487.6,377.668-487.6,377.4-487.495,377.012Zm25.667-9.244-1.51,1.661c.667.7,1.015.766,1.482.346A1.3,1.3,0,0,0-461.828,367.769Z" transform="translate(535.508 -249.732)"/><path class="b" d="M-480.594,285.467l-.9.23a3.98,3.98,0,0,1,.271-1.326c.616-.924,1.337-1.777,2-2.668a1.329,1.329,0,0,0,.326-.651c.032-.967.847-1.579,1.06-2.454.224-.919.428-1.843.671-2.757a1.985,1.985,0,0,1,1.741-1.494c1.043-.179,2.1-.3,3.13-.525a4.587,4.587,0,0,1,2.236.361,4.064,4.064,0,0,0,1.286.248,6.105,6.105,0,0,1,3.437,1.058c.681.364.7.826.229,1.468-.154.211-.352.389-.622.683.556,0,1,0,1.435,0,1.178-.013,1.648.5,1.492,1.632-.061.443-.141.884-.2,1.327a9,9,0,0,1-.233,1.3q-.113-.516-.225-1.032c-.519-.271-.876-.049-1.18.379a3.681,3.681,0,0,1-.591.728c-.46.382-.286.839-.228,1.291.052.4.122.8.165,1.2.146,1.356.323,2.617-.975,3.718a16.953,16.953,0,0,0-2.266,3.065,11.133,11.133,0,0,1-1.194,1.425c-.13.125-.525.092-.739,0a9.809,9.809,0,0,0-6.974-.666c-.61.181-.729-.22-.876-.555-.358-.816-.659-1.657-.976-2.49a5.985,5.985,0,0,1-.531-1.533c-.037-.455-.285-.606-.557-.835C-480.688,286.324-481.147,286.077-480.594,285.467Zm13.447-7.914c-.2.049-.377.083-.545.131a1.875,1.875,0,0,0-1.431.953,20.72,20.72,0,0,1-1.412,2.17,1.1,1.1,0,0,0-.079.38l.165.087Z" transform="translate(528.992 -194.026)"/><path class="b" d="M-417.895,106.488c.172-.852.154-.8.886-.54a25.137,25.137,0,0,1,6.488,3.556c1.992,1.469,3.871,3.092,5.8,4.645.243.2.5.378.761.579.269-1-.561-1.44-1-2.167-.061.211-.107.371-.153.533-.042.008-.1.037-.124.019-1.007-.806-2.025-1.6-3-2.44a1.256,1.256,0,0,1-.4-.813.957.957,0,0,0-.589-.883c-1.726-.967-3.418-1.995-5.167-2.916a4.029,4.029,0,0,0-2.856-.534c.388-.4,1.2-.575.313-1.254l.162-.095,1.408.07-1.187-1.962.207-.165c.738,1.731,2.542,1.688,3.875,2.428,1.27.706,2.569,1.363,3.81,2.117.332.2.487.685.75,1.018a.516.516,0,0,0,.381.2c1.357-.2,1.955.932,2.821,1.59-.072.921.692,1.119,1.26,1.515.17.119.182.461.207.531l-1.081.671a1,1,0,0,0,1.356.657c.42-.1,1.054.381,1.493.727a5.486,5.486,0,0,1,2.064,2.317,1.6,1.6,0,0,1-.831,2.153c2.171,2.282,4.364,4.537,6.5,6.844q3.653,3.948,7.219,7.976c1.205,1.357,2.326,2.788,3.495,4.178.239.285.371.518-.141.75l-.165-.684a4.471,4.471,0,0,1-.7-.524c-.807-.909-1.639-1.8-2.374-2.767a76.118,76.118,0,0,0-5.264-5.953c-1.916-2.039-3.86-4.051-5.793-6.073-.9-.946-1.878-1.835-2.693-2.851-.53-.661-1.363-.6-1.922-1.095-.245-.218-.593-.4-.7-.678a5.62,5.62,0,0,0-1.593-2.141,52.572,52.572,0,0,0-8.683-6.57c-1.229-.7-2.536-1.275-3.827-1.864A3.317,3.317,0,0,0-417.895,106.488Zm15.291,7.642c.19.461.3.79.461,1.1a.846.846,0,0,0,.357.322c.056.029.267-.088.263-.119a.9.9,0,0,0-.15-.48C-401.916,114.688-402.207,114.472-402.6,114.13Z" transform="translate(489.368 -87.078)"/><path class="b" d="M-388.768,62.211c1.446.925,1.863,2.455,2.563,3.8a79.187,79.187,0,0,0,5.887,9.809c1.621,2.251,3.27,4.491,5.058,6.608q3.273,3.876,6.811,7.526c2.341,2.409,4.812,4.694,7.27,6.986a59.758,59.758,0,0,1,6.235,7.2,12.458,12.458,0,0,1,1.361,2.319,3.331,3.331,0,0,1,.078,1.2l-.2.042a7.41,7.41,0,0,0-.519-1.047c-1.192-1.7-2.319-3.449-3.633-5.045-3.427-4.161-7.592-7.6-11.335-11.456-2.485-2.557-4.834-5.249-7.176-7.939-1.347-1.547-2.611-3.173-3.816-4.832-1.14-1.569-2.221-3.19-3.21-4.857-1.347-2.271-2.611-4.593-3.852-6.926C-387.823,64.522-388.256,63.367-388.768,62.211Z" transform="translate(471.22 -62.211)"/><path class="b" d="M-390.974,306.559a4.264,4.264,0,0,1-2.132,1.586,2.349,2.349,0,0,0-1.738,1.248c-.123.271-.5.424-.628.694a2.972,2.972,0,0,0-.464,1.523,2.015,2.015,0,0,1-.76,1.953.9.9,0,0,1-.837.141,1.305,1.305,0,0,1-.5-.909,9.568,9.568,0,0,1,.349-1.32,1.576,1.576,0,0,0-.091-.987c-.676-1.1-.449-1.938.733-2.625,1.327-.77,2.847-.775,4.237-1.277A6.063,6.063,0,0,1-390.974,306.559Z" transform="translate(477.068 -214.417)"/><path class="b" d="M-461.353,342.981l-.93.2c.206.194.328.411.472.427.562.064.695.5.846.9.338.9.652,1.816.964,2.729.033.1.031.282-.026.319a6.671,6.671,0,0,1-1.576.911c-.218.066-.79-.358-.878-.655-.483-1.63-.905-3.282-1.252-4.947a1.639,1.639,0,0,1,.438-1.137c.469-.571.971-.473,1.337.171C-461.771,342.231-461.588,342.562-461.353,342.981Z" transform="translate(517.936 -236.135)"/><path class="b" d="M-473.364,347.76a5.227,5.227,0,0,1,.7.747,1.427,1.427,0,0,1,.22.77,3.423,3.423,0,0,0,.661,2.061c.284.448.14.7-.327.864-1.778.634-2.01.5-2.523-1.356-.234-.847-.467-1.681.287-2.389A9.625,9.625,0,0,1-473.364,347.76Z" transform="translate(524.86 -240.125)"/><path class="b" d="M-446.416,347.341l-.506-.593-.138.064c.03.126.02.324.1.367.544.31.473.813.453,1.307a2.892,2.892,0,0,1-.031.791,4.063,4.063,0,0,1-.482.787c-.169-.155-.4-.28-.495-.472a18.288,18.288,0,0,1-1.309-2.791,2.689,2.689,0,0,1,.217-1.716.8.8,0,0,1,1.488.036c.307.633.519,1.311.766,1.971C-446.339,347.14-446.383,347.21-446.416,347.341Z" transform="translate(508.682 -238.154)"/><path class="b" d="M-398.257,351.2c-.073.349-.841,1.133-1.151,1.075a.559.559,0,0,1-.346-.337,3.118,3.118,0,0,1,.182-2.362c.214-.433.508-.463.712-.01C-398.623,350.1-398.455,350.658-398.257,351.2Z" transform="translate(478.159 -241.05)"/><path class="b" d="M-381.655,280.67c.869-1.527,1.308-1.73,2.428-1.155l-.936,1.784Z" transform="translate(466.789 -197.42)"/><path class="b" d="M-377.39,269l-1.094,1.7-1.368-.567C-378.977,268.476-378.641,268.3-377.39,269Z" transform="translate(465.665 -190.813)"/><path class="b" d="M-414.335,263.008l-.268.5.1.109.922-.778.112.1-.8,1.588-.122-.679-.158-.089-.7,1.2-.347-.248-1.428,1.651c-.262-.567.11-.7.39-.94a3.771,3.771,0,0,0,.63-.906,4.475,4.475,0,0,1,.571-.968A4.432,4.432,0,0,1-414.335,263.008Z" transform="translate(488.885 -187.217)"/><path class="b" d="M-376.124,260.614l-1.129,1.62-1.251-.508A1.48,1.48,0,0,1-376.124,260.614Z" transform="translate(464.825 -185.631)"/><path class="b" d="M-513.972,273.353c.874.82,2.1,1.275,2.568,2.506.07.182-.113.46-.229.873l-2.526-3.192Z" transform="translate(549.347 -193.765)"/><path class="b" d="M-402.9,93.562c-.134-.585.141-.936.793-.8a9.462,9.462,0,0,1,2.414.795,7.474,7.474,0,0,1,1.893,1.578c-.969-.546-1.924-1.117-2.91-1.63A1.862,1.862,0,0,0-402.9,93.562Z" transform="translate(480.048 -81.228)"/><path class="b" d="M-377.06,258.12a1.086,1.086,0,0,1,1.6-1.025c.966.375,1.9.836,2.844,1.267a9.234,9.234,0,0,1,1.024.519,4.186,4.186,0,0,1,.577.53c-1.474-.681-2.869-1.338-4.276-1.97-.742-.333-.9-.262-1.572.492C-376.909,257.99-376.97,258.037-377.06,258.12Z" transform="translate(463.926 -183.566)"/><path class="b" d="M-476.308,415.179c1.017-.776,2.178-.618,3.333-1.036C-473.973,415.168-475.5,415.656-476.308,415.179Z" transform="translate(525.763 -281.486)"/><path class="b" d="M-385.1,284.317c-.254.022-.495.12-.652.044-1.4-.671-2.789-1.357-4.158-2.083-.218-.115-.318-.454-.429-.7A20.637,20.637,0,0,0-385.1,284.317Z" transform="translate(472.199 -198.892)"/><path class="b" d="M-446.268,122.081c-.228-.072-.47-.229-.68-.194-.245.041-.451.276-.7.373a.676.676,0,0,1-.452-.032c-.383-.152-.753-.335-1.168-.524C-449.164,121.21-447.5,121.269-446.268,122.081Z" transform="translate(508.912 -99.082)"/><path class="b" d="M-394.2,285.674c-.99-.905-2.4-1.314-3.149-2.5l.178-.214,3.123,2.524Z" transform="translate(476.568 -199.749)"/><path class="b" d="M-410.4,99.206l1.754-1.836C-408.8,98.791-409.449,99.444-410.4,99.206Z" transform="translate(484.699 -84.117)"/><path class="b" d="M-422.362,117.592l-2.862.5a3.511,3.511,0,0,1,2.841-.788Z" transform="translate(493.935 -96.487)"/><path class="b" d="M-436.713,307.29c-1.023-.666-.94-1.284.134-2.065C-436.619,305.85-436.664,306.548-436.713,307.29Z" transform="translate(501.542 -213.623)"/><path class="b" d="M-606.992,243.732c.5-.122.971-.661,1.422-.09a.44.44,0,0,1,.082.38.432.432,0,0,1-.37.177C-606.246,244.073-606.616,243.892-606.992,243.732Z" transform="translate(607.187 -175.093)"/><path class="b" d="M-423.872,273.942c-1.321.662-.176,1.925-.742,2.773-.072-.627-.163-1.231-.2-1.838S-424.4,274.078-423.872,273.942Z" transform="translate(493.683 -194.132)"/><path class="b" d="M-417.363,266.684l-1.1,1.753C-418.617,267.589-418.334,267.1-417.363,266.684Z" transform="translate(489.745 -189.61)"/><path class="b" d="M-476.931,414.425a2.71,2.71,0,0,1-2.426.285Z" transform="translate(527.663 -281.662)"/><path class="b" d="M-373.516,160.378l.524-.4c.113.089.3.164.335.282a2.184,2.184,0,0,1,0,.62,2.642,2.642,0,0,1-.6-.158c-.118-.061-.178-.232-.266-.357Z" transform="translate(461.721 -123.128)"/><path class="b" d="M-436.824,311.072l-.451,1.6-.277-.064.379-1.611Z" transform="translate(501.616 -217.22)"/><path class="b" d="M-427.484,280.387l-.417,1.505-.283-.074.388-1.5Z" transform="translate(495.779 -198.103)"/><path class="b" d="M-607.51,238.984c.053-.216.037-.518.175-.629a3.175,3.175,0,0,1,.841-.358l.06.177-.924.837Z" transform="translate(607.51 -171.736)"/></g></g></g></svg>