<svg xmlns="http://www.w3.org/2000/svg" width="303" height="108" viewBox="0 0 303 108"><defs><style>.a{fill:#f7931e;}</style></defs><g transform="translate(-831.6 -133.5)"><circle class="a" cx="1.5" cy="1.5" r="1.5" transform="translate(1131.6 133.5)"/><circle class="a" cx="1.5" cy="1.5" r="1.5" transform="translate(1116.6 133.5)"/><circle class="a" cx="1.5" cy="1.5" r="1.5" transform="translate(1101.6 133.5)"/><circle class="a" cx="1.5" cy="1.5" r="1.5" transform="translate(1086.6 133.5)"/><circle class="a" cx="1.5" cy="1.5" r="1.5" transform="translate(1071.6 133.5)"/><circle class="a" cx="1.5" cy="1.5" r="1.5" transform="translate(1056.6 133.5)"/><circle class="a" cx="1.5" cy="1.5" r="1.5" transform="translate(1041.6 133.5)"/><circle class="a" cx="1.5" cy="1.5" r="1.5" transform="translate(1026.6 133.5)"/><circle class="a" cx="1.5" cy="1.5" r="1.5" transform="translate(1011.6 133.5)"/><circle class="a" cx="1.5" cy="1.5" r="1.5" transform="translate(996.6 133.5)"/><circle class="a" cx="1.5" cy="1.5" r="1.5" transform="translate(981.6 133.5)"/><circle class="a" cx="1.5" cy="1.5" r="1.5" transform="translate(966.6 133.5)"/><circle class="a" cx="1.5" cy="1.5" r="1.5" transform="translate(951.6 133.5)"/><circle class="a" cx="1.5" cy="1.5" r="1.5" transform="translate(936.6 133.5)"/><circle class="a" cx="1.5" cy="1.5" r="1.5" transform="translate(921.6 133.5)"/><circle class="a" cx="1.5" cy="1.5" r="1.5" transform="translate(906.6 133.5)"/><circle class="a" cx="1.5" cy="1.5" r="1.5" transform="translate(891.6 133.5)"/><circle class="a" cx="1.5" cy="1.5" r="1.5" transform="translate(876.6 133.5)"/><circle class="a" cx="1.5" cy="1.5" r="1.5" transform="translate(861.6 133.5)"/><circle class="a" cx="1.5" cy="1.5" r="1.5" transform="translate(846.6 133.5)"/><circle class="a" cx="1.5" cy="1.5" r="1.5" transform="translate(831.6 133.5)"/><circle class="a" cx="1.5" cy="1.5" r="1.5" transform="translate(1131.6 148.5)"/><circle class="a" cx="1.5" cy="1.5" r="1.5" transform="translate(1116.6 148.5)"/><circle class="a" cx="1.5" cy="1.5" r="1.5" transform="translate(1101.6 148.5)"/><circle class="a" cx="1.5" cy="1.5" r="1.5" transform="translate(1086.6 148.5)"/><circle class="a" cx="1.5" cy="1.5" r="1.5" transform="translate(1071.6 148.5)"/><circle class="a" cx="1.5" cy="1.5" r="1.5" transform="translate(1056.6 148.5)"/><circle class="a" cx="1.5" cy="1.5" r="1.5" transform="translate(1041.6 148.5)"/><circle class="a" cx="1.5" cy="1.5" r="1.5" transform="translate(1026.6 148.5)"/><circle class="a" cx="1.5" cy="1.5" r="1.5" transform="translate(1011.6 148.5)"/><circle class="a" cx="1.5" cy="1.5" r="1.5" transform="translate(996.6 148.5)"/><circle class="a" cx="1.5" cy="1.5" r="1.5" transform="translate(981.6 148.5)"/><circle class="a" cx="1.5" cy="1.5" r="1.5" transform="translate(966.6 148.5)"/><circle class="a" cx="1.5" cy="1.5" r="1.5" transform="translate(951.6 148.5)"/><circle class="a" cx="1.5" cy="1.5" r="1.5" transform="translate(936.6 148.5)"/><circle class="a" cx="1.5" cy="1.5" r="1.5" transform="translate(921.6 148.5)"/><circle class="a" cx="1.5" cy="1.5" r="1.5" transform="translate(906.6 148.5)"/><circle class="a" cx="1.5" cy="1.5" r="1.5" transform="translate(891.6 148.5)"/><circle class="a" cx="1.5" cy="1.5" r="1.5" transform="translate(876.6 148.5)"/><circle class="a" cx="1.5" cy="1.5" r="1.5" transform="translate(861.6 148.5)"/><circle class="a" cx="1.5" cy="1.5" r="1.5" transform="translate(846.6 148.5)"/><circle class="a" cx="1.5" cy="1.5" r="1.5" transform="translate(831.6 148.5)"/><circle class="a" cx="1.5" cy="1.5" r="1.5" transform="translate(1131.6 163.5)"/><circle class="a" cx="1.5" cy="1.5" r="1.5" transform="translate(1116.6 163.5)"/><circle class="a" cx="1.5" cy="1.5" r="1.5" transform="translate(1101.6 163.5)"/><circle class="a" cx="1.5" cy="1.5" r="1.5" transform="translate(1086.6 163.5)"/><circle class="a" cx="1.5" cy="1.5" r="1.5" transform="translate(1071.6 163.5)"/><circle class="a" cx="1.5" cy="1.5" r="1.5" transform="translate(1056.6 163.5)"/><circle class="a" cx="1.5" cy="1.5" r="1.5" transform="translate(1041.6 163.5)"/><circle class="a" cx="1.5" cy="1.5" r="1.5" transform="translate(1026.6 163.5)"/><circle class="a" cx="1.5" cy="1.5" r="1.5" transform="translate(1011.6 163.5)"/><circle class="a" cx="1.5" cy="1.5" r="1.5" transform="translate(996.6 163.5)"/><circle class="a" cx="1.5" cy="1.5" r="1.5" transform="translate(981.6 163.5)"/><circle class="a" cx="1.5" cy="1.5" r="1.5" transform="translate(966.6 163.5)"/><circle class="a" cx="1.5" cy="1.5" r="1.5" transform="translate(951.6 163.5)"/><circle class="a" cx="1.5" cy="1.5" r="1.5" transform="translate(936.6 163.5)"/><circle class="a" cx="1.5" cy="1.5" r="1.5" transform="translate(921.6 163.5)"/><circle class="a" cx="1.5" cy="1.5" r="1.5" transform="translate(906.6 163.5)"/><circle class="a" cx="1.5" cy="1.5" r="1.5" transform="translate(891.6 163.5)"/><circle class="a" cx="1.5" cy="1.5" r="1.5" transform="translate(876.6 163.5)"/><circle class="a" cx="1.5" cy="1.5" r="1.5" transform="translate(861.6 163.5)"/><circle class="a" cx="1.5" cy="1.5" r="1.5" transform="translate(846.6 163.5)"/><circle class="a" cx="1.5" cy="1.5" r="1.5" transform="translate(831.6 163.5)"/><circle class="a" cx="1.5" cy="1.5" r="1.5" transform="translate(1131.6 178.5)"/><circle class="a" cx="1.5" cy="1.5" r="1.5" transform="translate(1116.6 178.5)"/><circle class="a" cx="1.5" cy="1.5" r="1.5" transform="translate(1101.6 178.5)"/><circle class="a" cx="1.5" cy="1.5" r="1.5" transform="translate(1086.6 178.5)"/><circle class="a" cx="1.5" cy="1.5" r="1.5" transform="translate(1071.6 178.5)"/><circle class="a" cx="1.5" cy="1.5" r="1.5" transform="translate(1056.6 178.5)"/><circle class="a" cx="1.5" cy="1.5" r="1.5" transform="translate(1041.6 178.5)"/><circle class="a" cx="1.5" cy="1.5" r="1.5" transform="translate(1026.6 178.5)"/><circle class="a" cx="1.5" cy="1.5" r="1.5" transform="translate(1011.6 178.5)"/><circle class="a" cx="1.5" cy="1.5" r="1.5" transform="translate(996.6 178.5)"/><circle class="a" cx="1.5" cy="1.5" r="1.5" transform="translate(981.6 178.5)"/><circle class="a" cx="1.5" cy="1.5" r="1.5" transform="translate(966.6 178.5)"/><circle class="a" cx="1.5" cy="1.5" r="1.5" transform="translate(951.6 178.5)"/><circle class="a" cx="1.5" cy="1.5" r="1.5" transform="translate(936.6 178.5)"/><circle class="a" cx="1.5" cy="1.5" r="1.5" transform="translate(921.6 178.5)"/><circle class="a" cx="1.5" cy="1.5" r="1.5" transform="translate(906.6 178.5)"/><circle class="a" cx="1.5" cy="1.5" r="1.5" transform="translate(891.6 178.5)"/><circle class="a" cx="1.5" cy="1.5" r="1.5" transform="translate(876.6 178.5)"/><circle class="a" cx="1.5" cy="1.5" r="1.5" transform="translate(861.6 178.5)"/><circle class="a" cx="1.5" cy="1.5" r="1.5" transform="translate(846.6 178.5)"/><circle class="a" cx="1.5" cy="1.5" r="1.5" transform="translate(831.6 178.5)"/><circle class="a" cx="1.5" cy="1.5" r="1.5" transform="translate(1131.6 193.5)"/><circle class="a" cx="1.5" cy="1.5" r="1.5" transform="translate(1116.6 193.5)"/><circle class="a" cx="1.5" cy="1.5" r="1.5" transform="translate(1101.6 193.5)"/><circle class="a" cx="1.5" cy="1.5" r="1.5" transform="translate(1086.6 193.5)"/><circle class="a" cx="1.5" cy="1.5" r="1.5" transform="translate(1071.6 193.5)"/><circle class="a" cx="1.5" cy="1.5" r="1.5" transform="translate(1056.6 193.5)"/><circle class="a" cx="1.5" cy="1.5" r="1.5" transform="translate(1041.6 193.5)"/><circle class="a" cx="1.5" cy="1.5" r="1.5" transform="translate(1026.6 193.5)"/><circle class="a" cx="1.5" cy="1.5" r="1.5" transform="translate(1011.6 193.5)"/><circle class="a" cx="1.5" cy="1.5" r="1.5" transform="translate(996.6 193.5)"/><circle class="a" cx="1.5" cy="1.5" r="1.5" transform="translate(981.6 193.5)"/><circle class="a" cx="1.5" cy="1.5" r="1.5" transform="translate(966.6 193.5)"/><circle class="a" cx="1.5" cy="1.5" r="1.5" transform="translate(951.6 193.5)"/><circle class="a" cx="1.5" cy="1.5" r="1.5" transform="translate(936.6 193.5)"/><circle class="a" cx="1.5" cy="1.5" r="1.5" transform="translate(921.6 193.5)"/><circle class="a" cx="1.5" cy="1.5" r="1.5" transform="translate(906.6 193.5)"/><circle class="a" cx="1.5" cy="1.5" r="1.5" transform="translate(891.6 193.5)"/><circle class="a" cx="1.5" cy="1.5" r="1.5" transform="translate(876.6 193.5)"/><circle class="a" cx="1.5" cy="1.5" r="1.5" transform="translate(861.6 193.5)"/><circle class="a" cx="1.5" cy="1.5" r="1.5" transform="translate(846.6 193.5)"/><circle class="a" cx="1.5" cy="1.5" r="1.5" transform="translate(831.6 193.5)"/><circle class="a" cx="1.5" cy="1.5" r="1.5" transform="translate(1131.6 208.5)"/><circle class="a" cx="1.5" cy="1.5" r="1.5" transform="translate(1116.6 208.5)"/><circle class="a" cx="1.5" cy="1.5" r="1.5" transform="translate(1101.6 208.5)"/><circle class="a" cx="1.5" cy="1.5" r="1.5" transform="translate(1086.6 208.5)"/><circle class="a" cx="1.5" cy="1.5" r="1.5" transform="translate(1071.6 208.5)"/><circle class="a" cx="1.5" cy="1.5" r="1.5" transform="translate(1056.6 208.5)"/><circle class="a" cx="1.5" cy="1.5" r="1.5" transform="translate(1041.6 208.5)"/><circle class="a" cx="1.5" cy="1.5" r="1.5" transform="translate(1026.6 208.5)"/><circle class="a" cx="1.5" cy="1.5" r="1.5" transform="translate(1011.6 208.5)"/><circle class="a" cx="1.5" cy="1.5" r="1.5" transform="translate(996.6 208.5)"/><circle class="a" cx="1.5" cy="1.5" r="1.5" transform="translate(981.6 208.5)"/><circle class="a" cx="1.5" cy="1.5" r="1.5" transform="translate(966.6 208.5)"/><circle class="a" cx="1.5" cy="1.5" r="1.5" transform="translate(951.6 208.5)"/><circle class="a" cx="1.5" cy="1.5" r="1.5" transform="translate(936.6 208.5)"/><circle class="a" cx="1.5" cy="1.5" r="1.5" transform="translate(921.6 208.5)"/><circle class="a" cx="1.5" cy="1.5" r="1.5" transform="translate(906.6 208.5)"/><circle class="a" cx="1.5" cy="1.5" r="1.5" transform="translate(891.6 208.5)"/><circle class="a" cx="1.5" cy="1.5" r="1.5" transform="translate(876.6 208.5)"/><circle class="a" cx="1.5" cy="1.5" r="1.5" transform="translate(861.6 208.5)"/><circle class="a" cx="1.5" cy="1.5" r="1.5" transform="translate(846.6 208.5)"/><circle class="a" cx="1.5" cy="1.5" r="1.5" transform="translate(831.6 208.5)"/><circle class="a" cx="1.5" cy="1.5" r="1.5" transform="translate(1131.6 223.5)"/><circle class="a" cx="1.5" cy="1.5" r="1.5" transform="translate(1116.6 223.5)"/><circle class="a" cx="1.5" cy="1.5" r="1.5" transform="translate(1101.6 223.5)"/><circle class="a" cx="1.5" cy="1.5" r="1.5" transform="translate(1086.6 223.5)"/><circle class="a" cx="1.5" cy="1.5" r="1.5" transform="translate(1071.6 223.5)"/><circle class="a" cx="1.5" cy="1.5" r="1.5" transform="translate(1056.6 223.5)"/><circle class="a" cx="1.5" cy="1.5" r="1.5" transform="translate(1041.6 223.5)"/><circle class="a" cx="1.5" cy="1.5" r="1.5" transform="translate(1026.6 223.5)"/><circle class="a" cx="1.5" cy="1.5" r="1.5" transform="translate(1011.6 223.5)"/><circle class="a" cx="1.5" cy="1.5" r="1.5" transform="translate(996.6 223.5)"/><circle class="a" cx="1.5" cy="1.5" r="1.5" transform="translate(981.6 223.5)"/><circle class="a" cx="1.5" cy="1.5" r="1.5" transform="translate(966.6 223.5)"/><circle class="a" cx="1.5" cy="1.5" r="1.5" transform="translate(951.6 223.5)"/><circle class="a" cx="1.5" cy="1.5" r="1.5" transform="translate(936.6 223.5)"/><circle class="a" cx="1.5" cy="1.5" r="1.5" transform="translate(921.6 223.5)"/><circle class="a" cx="1.5" cy="1.5" r="1.5" transform="translate(906.6 223.5)"/><circle class="a" cx="1.5" cy="1.5" r="1.5" transform="translate(891.6 223.5)"/><circle class="a" cx="1.5" cy="1.5" r="1.5" transform="translate(876.6 223.5)"/><circle class="a" cx="1.5" cy="1.5" r="1.5" transform="translate(861.6 223.5)"/><circle class="a" cx="1.5" cy="1.5" r="1.5" transform="translate(846.6 223.5)"/><circle class="a" cx="1.5" cy="1.5" r="1.5" transform="translate(831.6 223.5)"/><circle class="a" cx="1.5" cy="1.5" r="1.5" transform="translate(1131.6 238.5)"/><circle class="a" cx="1.5" cy="1.5" r="1.5" transform="translate(1116.6 238.5)"/><circle class="a" cx="1.5" cy="1.5" r="1.5" transform="translate(1101.6 238.5)"/><circle class="a" cx="1.5" cy="1.5" r="1.5" transform="translate(1086.6 238.5)"/><circle class="a" cx="1.5" cy="1.5" r="1.5" transform="translate(1071.6 238.5)"/><circle class="a" cx="1.5" cy="1.5" r="1.5" transform="translate(1056.6 238.5)"/><circle class="a" cx="1.5" cy="1.5" r="1.5" transform="translate(1041.6 238.5)"/><circle class="a" cx="1.5" cy="1.5" r="1.5" transform="translate(1026.6 238.5)"/><circle class="a" cx="1.5" cy="1.5" r="1.5" transform="translate(1011.6 238.5)"/><circle class="a" cx="1.5" cy="1.5" r="1.5" transform="translate(996.6 238.5)"/><circle class="a" cx="1.5" cy="1.5" r="1.5" transform="translate(981.6 238.5)"/><circle class="a" cx="1.5" cy="1.5" r="1.5" transform="translate(966.6 238.5)"/><circle class="a" cx="1.5" cy="1.5" r="1.5" transform="translate(951.6 238.5)"/><circle class="a" cx="1.5" cy="1.5" r="1.5" transform="translate(936.6 238.5)"/><circle class="a" cx="1.5" cy="1.5" r="1.5" transform="translate(921.6 238.5)"/><circle class="a" cx="1.5" cy="1.5" r="1.5" transform="translate(906.6 238.5)"/><circle class="a" cx="1.5" cy="1.5" r="1.5" transform="translate(891.6 238.5)"/><circle class="a" cx="1.5" cy="1.5" r="1.5" transform="translate(876.6 238.5)"/><circle class="a" cx="1.5" cy="1.5" r="1.5" transform="translate(861.6 238.5)"/><circle class="a" cx="1.5" cy="1.5" r="1.5" transform="translate(846.6 238.5)"/><circle class="a" cx="1.5" cy="1.5" r="1.5" transform="translate(831.6 238.5)"/></g></svg>