<svg xmlns="http://www.w3.org/2000/svg" width="645" height="720.854" viewBox="0 0 645 720.854"><defs><style>.a,.b,.d{fill:none;stroke-miterlimit:10;}.a,.d{stroke:#55efc4;}.a{stroke-width:10px;}.b{stroke:#f7931e;}.c{fill:#f7931e;}.d{stroke-width:20px;}.e{fill:#55efc4;}</style></defs><g transform="translate(-626 -202.5)"><g transform="translate(141.2 69)"><line class="a" x1="20" y2="20" transform="translate(688.8 643.3)"/><line class="a" x1="20" y1="20" transform="translate(688.8 643.3)"/></g><g transform="translate(137.9 69)"><line class="b" x1="5" y2="5" transform="translate(628.1 805)"/><line class="b" x1="5" y1="5" transform="translate(628.1 805)"/><line class="b" x1="5" y2="5" transform="translate(613.1 805)"/><line class="b" x1="5" y1="5" transform="translate(613.1 805)"/><line class="b" x1="5" y2="5" transform="translate(598.1 805)"/><line class="b" x1="5" y1="5" transform="translate(598.1 805)"/><line class="b" x1="5" y2="5" transform="translate(583.1 805)"/><line class="b" x1="5" y1="5" transform="translate(583.1 805)"/><line class="b" x1="5" y2="5" transform="translate(568.1 805)"/><line class="b" x1="5" y1="5" transform="translate(568.1 805)"/><line class="b" x1="5" y2="5" transform="translate(553.1 805)"/><line class="b" x1="5" y1="5" transform="translate(553.1 805)"/><line class="b" x1="5" y2="5" transform="translate(628.1 819.6)"/><line class="b" x1="5" y1="5" transform="translate(628.1 819.6)"/><line class="b" x1="5" y2="5" transform="translate(613.1 819.6)"/><line class="b" x1="5" y1="5" transform="translate(613.1 819.6)"/><line class="b" x1="5" y2="5" transform="translate(598.1 819.6)"/><line class="b" x1="5" y1="5" transform="translate(598.1 819.6)"/><line class="b" x1="5" y2="5" transform="translate(583.1 819.6)"/><line class="b" x1="5" y1="5" transform="translate(583.1 819.6)"/><line class="b" x1="5" y2="5" transform="translate(568.1 819.6)"/><line class="b" x1="5" y1="5" transform="translate(568.1 819.6)"/><line class="b" x1="5" y2="5" transform="translate(553.1 819.6)"/><line class="b" x1="5" y1="5" transform="translate(553.1 819.6)"/><line class="b" x1="5" y2="5" transform="translate(643.1 834.3)"/><line class="b" x1="5" y1="5" transform="translate(643.1 834.3)"/><line class="b" x1="5" y2="5" transform="translate(628.1 834.3)"/><line class="b" x1="5" y1="5" transform="translate(628.1 834.3)"/><line class="b" x1="5" y2="5" transform="translate(613.1 834.3)"/><line class="b" x1="5" y1="5" transform="translate(613.1 834.3)"/><line class="b" x1="5" y2="5" transform="translate(598.1 834.3)"/><line class="b" x1="5" y1="5" transform="translate(598.1 834.3)"/><line class="b" x1="5" y2="5" transform="translate(583.1 834.3)"/><line class="b" x1="5" y1="5" transform="translate(583.1 834.3)"/><line class="b" x1="5" y2="5" transform="translate(568.1 834.3)"/><line class="b" x1="5" y1="5" transform="translate(568.1 834.3)"/><line class="b" x1="5" y2="5" transform="translate(613.1 849)"/><line class="b" x1="5" y1="5" transform="translate(613.1 849)"/><line class="b" x1="5" y2="5" transform="translate(598.1 849)"/><line class="b" x1="5" y1="5" transform="translate(598.1 849)"/><line class="b" x1="5" y2="5" transform="translate(583.1 849)"/><line class="b" x1="5" y1="5" transform="translate(583.1 849)"/><line class="b" x1="5" y2="5" transform="translate(568.1 849)"/><line class="b" x1="5" y1="5" transform="translate(568.1 849)"/><line class="b" x1="5" y2="5" transform="translate(553.1 849)"/><line class="b" x1="5" y1="5" transform="translate(553.1 849)"/><line class="b" x1="5" y2="5" transform="translate(538.1 849)"/><line class="b" x1="5" y1="5" transform="translate(538.1 849)"/></g><g transform="translate(136.4 69)"><circle class="c" cx="1.5" cy="1.5" r="1.5" transform="translate(1131.6 133.5)"/><circle class="c" cx="1.5" cy="1.5" r="1.5" transform="translate(1116.6 133.5)"/><circle class="c" cx="1.5" cy="1.5" r="1.5" transform="translate(1101.6 133.5)"/><circle class="c" cx="1.5" cy="1.5" r="1.5" transform="translate(1086.6 133.5)"/><circle class="c" cx="1.5" cy="1.5" r="1.5" transform="translate(1071.6 133.5)"/><circle class="c" cx="1.5" cy="1.5" r="1.5" transform="translate(1056.6 133.5)"/><circle class="c" cx="1.5" cy="1.5" r="1.5" transform="translate(1041.6 133.5)"/><circle class="c" cx="1.5" cy="1.5" r="1.5" transform="translate(1026.6 133.5)"/><circle class="c" cx="1.5" cy="1.5" r="1.5" transform="translate(1011.6 133.5)"/><circle class="c" cx="1.5" cy="1.5" r="1.5" transform="translate(996.6 133.5)"/><circle class="c" cx="1.5" cy="1.5" r="1.5" transform="translate(981.6 133.5)"/><circle class="c" cx="1.5" cy="1.5" r="1.5" transform="translate(966.6 133.5)"/><circle class="c" cx="1.5" cy="1.5" r="1.5" transform="translate(951.6 133.5)"/><circle class="c" cx="1.5" cy="1.5" r="1.5" transform="translate(936.6 133.5)"/><circle class="c" cx="1.5" cy="1.5" r="1.5" transform="translate(921.6 133.5)"/><circle class="c" cx="1.5" cy="1.5" r="1.5" transform="translate(906.6 133.5)"/><circle class="c" cx="1.5" cy="1.5" r="1.5" transform="translate(891.6 133.5)"/><circle class="c" cx="1.5" cy="1.5" r="1.5" transform="translate(876.6 133.5)"/><circle class="c" cx="1.5" cy="1.5" r="1.5" transform="translate(861.6 133.5)"/><circle class="c" cx="1.5" cy="1.5" r="1.5" transform="translate(846.6 133.5)"/><circle class="c" cx="1.5" cy="1.5" r="1.5" transform="translate(831.6 133.5)"/><circle class="c" cx="1.5" cy="1.5" r="1.5" transform="translate(1131.6 148.5)"/><circle class="c" cx="1.5" cy="1.5" r="1.5" transform="translate(1116.6 148.5)"/><circle class="c" cx="1.5" cy="1.5" r="1.5" transform="translate(1101.6 148.5)"/><circle class="c" cx="1.5" cy="1.5" r="1.5" transform="translate(1086.6 148.5)"/><circle class="c" cx="1.5" cy="1.5" r="1.5" transform="translate(1071.6 148.5)"/><circle class="c" cx="1.5" cy="1.5" r="1.5" transform="translate(1056.6 148.5)"/><circle class="c" cx="1.5" cy="1.5" r="1.5" transform="translate(1041.6 148.5)"/><circle class="c" cx="1.5" cy="1.5" r="1.5" transform="translate(1026.6 148.5)"/><circle class="c" cx="1.5" cy="1.5" r="1.5" transform="translate(1011.6 148.5)"/><circle class="c" cx="1.5" cy="1.5" r="1.5" transform="translate(996.6 148.5)"/><circle class="c" cx="1.5" cy="1.5" r="1.5" transform="translate(981.6 148.5)"/><circle class="c" cx="1.5" cy="1.5" r="1.5" transform="translate(966.6 148.5)"/><circle class="c" cx="1.5" cy="1.5" r="1.5" transform="translate(951.6 148.5)"/><circle class="c" cx="1.5" cy="1.5" r="1.5" transform="translate(936.6 148.5)"/><circle class="c" cx="1.5" cy="1.5" r="1.5" transform="translate(921.6 148.5)"/><circle class="c" cx="1.5" cy="1.5" r="1.5" transform="translate(906.6 148.5)"/><circle class="c" cx="1.5" cy="1.5" r="1.5" transform="translate(891.6 148.5)"/><circle class="c" cx="1.5" cy="1.5" r="1.5" transform="translate(876.6 148.5)"/><circle class="c" cx="1.5" cy="1.5" r="1.5" transform="translate(861.6 148.5)"/><circle class="c" cx="1.5" cy="1.5" r="1.5" transform="translate(846.6 148.5)"/><circle class="c" cx="1.5" cy="1.5" r="1.5" transform="translate(831.6 148.5)"/><circle class="c" cx="1.5" cy="1.5" r="1.5" transform="translate(1131.6 163.5)"/><circle class="c" cx="1.5" cy="1.5" r="1.5" transform="translate(1116.6 163.5)"/><circle class="c" cx="1.5" cy="1.5" r="1.5" transform="translate(1101.6 163.5)"/><circle class="c" cx="1.5" cy="1.5" r="1.5" transform="translate(1086.6 163.5)"/><circle class="c" cx="1.5" cy="1.5" r="1.5" transform="translate(1071.6 163.5)"/><circle class="c" cx="1.5" cy="1.5" r="1.5" transform="translate(1056.6 163.5)"/><circle class="c" cx="1.5" cy="1.5" r="1.5" transform="translate(1041.6 163.5)"/><circle class="c" cx="1.5" cy="1.5" r="1.5" transform="translate(1026.6 163.5)"/><circle class="c" cx="1.5" cy="1.5" r="1.5" transform="translate(1011.6 163.5)"/><circle class="c" cx="1.5" cy="1.5" r="1.5" transform="translate(996.6 163.5)"/><circle class="c" cx="1.5" cy="1.5" r="1.5" transform="translate(981.6 163.5)"/><circle class="c" cx="1.5" cy="1.5" r="1.5" transform="translate(966.6 163.5)"/><circle class="c" cx="1.5" cy="1.5" r="1.5" transform="translate(951.6 163.5)"/><circle class="c" cx="1.5" cy="1.5" r="1.5" transform="translate(936.6 163.5)"/><circle class="c" cx="1.5" cy="1.5" r="1.5" transform="translate(921.6 163.5)"/><circle class="c" cx="1.5" cy="1.5" r="1.5" transform="translate(906.6 163.5)"/><circle class="c" cx="1.5" cy="1.5" r="1.5" transform="translate(891.6 163.5)"/><circle class="c" cx="1.5" cy="1.5" r="1.5" transform="translate(876.6 163.5)"/><circle class="c" cx="1.5" cy="1.5" r="1.5" transform="translate(861.6 163.5)"/><circle class="c" cx="1.5" cy="1.5" r="1.5" transform="translate(846.6 163.5)"/><circle class="c" cx="1.5" cy="1.5" r="1.5" transform="translate(831.6 163.5)"/><circle class="c" cx="1.5" cy="1.5" r="1.5" transform="translate(1131.6 178.5)"/><circle class="c" cx="1.5" cy="1.5" r="1.5" transform="translate(1116.6 178.5)"/><circle class="c" cx="1.5" cy="1.5" r="1.5" transform="translate(1101.6 178.5)"/><circle class="c" cx="1.5" cy="1.5" r="1.5" transform="translate(1086.6 178.5)"/><circle class="c" cx="1.5" cy="1.5" r="1.5" transform="translate(1071.6 178.5)"/><circle class="c" cx="1.5" cy="1.5" r="1.5" transform="translate(1056.6 178.5)"/><circle class="c" cx="1.5" cy="1.5" r="1.5" transform="translate(1041.6 178.5)"/><circle class="c" cx="1.5" cy="1.5" r="1.5" transform="translate(1026.6 178.5)"/><circle class="c" cx="1.5" cy="1.5" r="1.5" transform="translate(1011.6 178.5)"/><circle class="c" cx="1.5" cy="1.5" r="1.5" transform="translate(996.6 178.5)"/><circle class="c" cx="1.5" cy="1.5" r="1.5" transform="translate(981.6 178.5)"/><circle class="c" cx="1.5" cy="1.5" r="1.5" transform="translate(966.6 178.5)"/><circle class="c" cx="1.5" cy="1.5" r="1.5" transform="translate(951.6 178.5)"/><circle class="c" cx="1.5" cy="1.5" r="1.5" transform="translate(936.6 178.5)"/><circle class="c" cx="1.5" cy="1.5" r="1.5" transform="translate(921.6 178.5)"/><circle class="c" cx="1.5" cy="1.5" r="1.5" transform="translate(906.6 178.5)"/><circle class="c" cx="1.5" cy="1.5" r="1.5" transform="translate(891.6 178.5)"/><circle class="c" cx="1.5" cy="1.5" r="1.5" transform="translate(876.6 178.5)"/><circle class="c" cx="1.5" cy="1.5" r="1.5" transform="translate(861.6 178.5)"/><circle class="c" cx="1.5" cy="1.5" r="1.5" transform="translate(846.6 178.5)"/><circle class="c" cx="1.5" cy="1.5" r="1.5" transform="translate(831.6 178.5)"/><circle class="c" cx="1.5" cy="1.5" r="1.5" transform="translate(1131.6 193.5)"/><circle class="c" cx="1.5" cy="1.5" r="1.5" transform="translate(1116.6 193.5)"/><circle class="c" cx="1.5" cy="1.5" r="1.5" transform="translate(1101.6 193.5)"/><circle class="c" cx="1.5" cy="1.5" r="1.5" transform="translate(1086.6 193.5)"/><circle class="c" cx="1.5" cy="1.5" r="1.5" transform="translate(1071.6 193.5)"/><circle class="c" cx="1.5" cy="1.5" r="1.5" transform="translate(1056.6 193.5)"/><circle class="c" cx="1.5" cy="1.5" r="1.5" transform="translate(1041.6 193.5)"/><circle class="c" cx="1.5" cy="1.5" r="1.5" transform="translate(1026.6 193.5)"/><circle class="c" cx="1.5" cy="1.5" r="1.5" transform="translate(1011.6 193.5)"/><circle class="c" cx="1.5" cy="1.5" r="1.5" transform="translate(996.6 193.5)"/><circle class="c" cx="1.5" cy="1.5" r="1.5" transform="translate(981.6 193.5)"/><circle class="c" cx="1.5" cy="1.5" r="1.5" transform="translate(966.6 193.5)"/><circle class="c" cx="1.5" cy="1.5" r="1.5" transform="translate(951.6 193.5)"/><circle class="c" cx="1.5" cy="1.5" r="1.5" transform="translate(936.6 193.5)"/><circle class="c" cx="1.5" cy="1.5" r="1.5" transform="translate(921.6 193.5)"/><circle class="c" cx="1.5" cy="1.5" r="1.5" transform="translate(906.6 193.5)"/><circle class="c" cx="1.5" cy="1.5" r="1.5" transform="translate(891.6 193.5)"/><circle class="c" cx="1.5" cy="1.5" r="1.5" transform="translate(876.6 193.5)"/><circle class="c" cx="1.5" cy="1.5" r="1.5" transform="translate(861.6 193.5)"/><circle class="c" cx="1.5" cy="1.5" r="1.5" transform="translate(846.6 193.5)"/><circle class="c" cx="1.5" cy="1.5" r="1.5" transform="translate(831.6 193.5)"/><circle class="c" cx="1.5" cy="1.5" r="1.5" transform="translate(1131.6 208.5)"/><circle class="c" cx="1.5" cy="1.5" r="1.5" transform="translate(1116.6 208.5)"/><circle class="c" cx="1.5" cy="1.5" r="1.5" transform="translate(1101.6 208.5)"/><circle class="c" cx="1.5" cy="1.5" r="1.5" transform="translate(1086.6 208.5)"/><circle class="c" cx="1.5" cy="1.5" r="1.5" transform="translate(1071.6 208.5)"/><circle class="c" cx="1.5" cy="1.5" r="1.5" transform="translate(1056.6 208.5)"/><circle class="c" cx="1.5" cy="1.5" r="1.5" transform="translate(1041.6 208.5)"/><circle class="c" cx="1.5" cy="1.5" r="1.5" transform="translate(1026.6 208.5)"/><circle class="c" cx="1.5" cy="1.5" r="1.5" transform="translate(1011.6 208.5)"/><circle class="c" cx="1.5" cy="1.5" r="1.5" transform="translate(996.6 208.5)"/><circle class="c" cx="1.5" cy="1.5" r="1.5" transform="translate(981.6 208.5)"/><circle class="c" cx="1.5" cy="1.5" r="1.5" transform="translate(966.6 208.5)"/><circle class="c" cx="1.5" cy="1.5" r="1.5" transform="translate(951.6 208.5)"/><circle class="c" cx="1.5" cy="1.5" r="1.5" transform="translate(936.6 208.5)"/><circle class="c" cx="1.5" cy="1.5" r="1.5" transform="translate(921.6 208.5)"/><circle class="c" cx="1.5" cy="1.5" r="1.5" transform="translate(906.6 208.5)"/><circle class="c" cx="1.5" cy="1.5" r="1.5" transform="translate(891.6 208.5)"/><circle class="c" cx="1.5" cy="1.5" r="1.5" transform="translate(876.6 208.5)"/><circle class="c" cx="1.5" cy="1.5" r="1.5" transform="translate(861.6 208.5)"/><circle class="c" cx="1.5" cy="1.5" r="1.5" transform="translate(846.6 208.5)"/><circle class="c" cx="1.5" cy="1.5" r="1.5" transform="translate(831.6 208.5)"/><circle class="c" cx="1.5" cy="1.5" r="1.5" transform="translate(1131.6 223.5)"/><circle class="c" cx="1.5" cy="1.5" r="1.5" transform="translate(1116.6 223.5)"/><circle class="c" cx="1.5" cy="1.5" r="1.5" transform="translate(1101.6 223.5)"/><circle class="c" cx="1.5" cy="1.5" r="1.5" transform="translate(1086.6 223.5)"/><circle class="c" cx="1.5" cy="1.5" r="1.5" transform="translate(1071.6 223.5)"/><circle class="c" cx="1.5" cy="1.5" r="1.5" transform="translate(1056.6 223.5)"/><circle class="c" cx="1.5" cy="1.5" r="1.5" transform="translate(1041.6 223.5)"/><circle class="c" cx="1.5" cy="1.5" r="1.5" transform="translate(1026.6 223.5)"/><circle class="c" cx="1.5" cy="1.5" r="1.5" transform="translate(1011.6 223.5)"/><circle class="c" cx="1.5" cy="1.5" r="1.5" transform="translate(996.6 223.5)"/><circle class="c" cx="1.5" cy="1.5" r="1.5" transform="translate(981.6 223.5)"/><circle class="c" cx="1.5" cy="1.5" r="1.5" transform="translate(966.6 223.5)"/><circle class="c" cx="1.5" cy="1.5" r="1.5" transform="translate(951.6 223.5)"/><circle class="c" cx="1.5" cy="1.5" r="1.5" transform="translate(936.6 223.5)"/><circle class="c" cx="1.5" cy="1.5" r="1.5" transform="translate(921.6 223.5)"/><circle class="c" cx="1.5" cy="1.5" r="1.5" transform="translate(906.6 223.5)"/><circle class="c" cx="1.5" cy="1.5" r="1.5" transform="translate(891.6 223.5)"/><circle class="c" cx="1.5" cy="1.5" r="1.5" transform="translate(876.6 223.5)"/><circle class="c" cx="1.5" cy="1.5" r="1.5" transform="translate(861.6 223.5)"/><circle class="c" cx="1.5" cy="1.5" r="1.5" transform="translate(846.6 223.5)"/><circle class="c" cx="1.5" cy="1.5" r="1.5" transform="translate(831.6 223.5)"/><circle class="c" cx="1.5" cy="1.5" r="1.5" transform="translate(1131.6 238.5)"/><circle class="c" cx="1.5" cy="1.5" r="1.5" transform="translate(1116.6 238.5)"/><circle class="c" cx="1.5" cy="1.5" r="1.5" transform="translate(1101.6 238.5)"/><circle class="c" cx="1.5" cy="1.5" r="1.5" transform="translate(1086.6 238.5)"/><circle class="c" cx="1.5" cy="1.5" r="1.5" transform="translate(1071.6 238.5)"/><circle class="c" cx="1.5" cy="1.5" r="1.5" transform="translate(1056.6 238.5)"/><circle class="c" cx="1.5" cy="1.5" r="1.5" transform="translate(1041.6 238.5)"/><circle class="c" cx="1.5" cy="1.5" r="1.5" transform="translate(1026.6 238.5)"/><circle class="c" cx="1.5" cy="1.5" r="1.5" transform="translate(1011.6 238.5)"/><circle class="c" cx="1.5" cy="1.5" r="1.5" transform="translate(996.6 238.5)"/><circle class="c" cx="1.5" cy="1.5" r="1.5" transform="translate(981.6 238.5)"/><circle class="c" cx="1.5" cy="1.5" r="1.5" transform="translate(966.6 238.5)"/><circle class="c" cx="1.5" cy="1.5" r="1.5" transform="translate(951.6 238.5)"/><circle class="c" cx="1.5" cy="1.5" r="1.5" transform="translate(936.6 238.5)"/><circle class="c" cx="1.5" cy="1.5" r="1.5" transform="translate(921.6 238.5)"/><circle class="c" cx="1.5" cy="1.5" r="1.5" transform="translate(906.6 238.5)"/><circle class="c" cx="1.5" cy="1.5" r="1.5" transform="translate(891.6 238.5)"/><circle class="c" cx="1.5" cy="1.5" r="1.5" transform="translate(876.6 238.5)"/><circle class="c" cx="1.5" cy="1.5" r="1.5" transform="translate(861.6 238.5)"/><circle class="c" cx="1.5" cy="1.5" r="1.5" transform="translate(846.6 238.5)"/><circle class="c" cx="1.5" cy="1.5" r="1.5" transform="translate(831.6 238.5)"/></g><circle class="a" cx="20" cy="20" r="20" transform="translate(1192.6 396)"/><rect class="d" width="362" height="566" transform="translate(779.5 256.5)"/><rect class="e" width="120" height="10" transform="translate(626 351)"/></g></svg>