<svg xmlns="http://www.w3.org/2000/svg" width="658.835" height="720.854" viewBox="0 0 658.835 720.854"><defs><style>.a{fill:#55efc4;}.b,.d,.e{fill:none;stroke-miterlimit:10;}.b{stroke:#f7931e;}.c{fill:#f7931e;}.d{stroke:#55efc4;stroke-width:10px;}.e{stroke:#e5e5e5;stroke-width:20px;}</style></defs><g transform="translate(-141.177 -1282.5)"><g transform="translate(-85.888 69)"><rect class="a" width="84" height="5.6" transform="translate(583.9 1389)"/><rect class="a" width="33.6" height="5.6" transform="translate(583.9 1400.2)"/><rect class="a" width="33.6" height="5.6" transform="translate(634.3 1400.2)"/><rect class="a" width="16.8" height="5.6" transform="translate(583.9 1411.4)"/><rect class="a" width="16.8" height="5.6" transform="translate(651.1 1411.4)"/></g><g transform="translate(-85.888 69)"><line class="b" x1="5" y2="5" transform="translate(365.9 1885)"/><line class="b" x1="5" y1="5" transform="translate(365.9 1885)"/><line class="b" x1="5" y2="5" transform="translate(350.9 1885)"/><line class="b" x1="5" y1="5" transform="translate(350.9 1885)"/><line class="b" x1="5" y2="5" transform="translate(335.9 1885)"/><line class="b" x1="5" y1="5" transform="translate(335.9 1885)"/><line class="b" x1="5" y2="5" transform="translate(320.9 1885)"/><line class="b" x1="5" y1="5" transform="translate(320.9 1885)"/><line class="b" x1="5" y2="5" transform="translate(305.9 1885)"/><line class="b" x1="5" y1="5" transform="translate(305.9 1885)"/><line class="b" x1="5" y2="5" transform="translate(290.9 1885)"/><line class="b" x1="5" y1="5" transform="translate(290.9 1885)"/><line class="b" x1="5" y2="5" transform="translate(365.9 1899.6)"/><line class="b" x1="5" y1="5" transform="translate(365.9 1899.6)"/><line class="b" x1="5" y2="5" transform="translate(350.9 1899.6)"/><line class="b" x1="5" y1="5" transform="translate(350.9 1899.6)"/><line class="b" x1="5" y2="5" transform="translate(335.9 1899.6)"/><line class="b" x1="5" y1="5" transform="translate(335.9 1899.6)"/><line class="b" x1="5" y2="5" transform="translate(320.9 1899.6)"/><line class="b" x1="5" y1="5" transform="translate(320.9 1899.6)"/><line class="b" x1="5" y2="5" transform="translate(305.9 1899.6)"/><line class="b" x1="5" y1="5" transform="translate(305.9 1899.6)"/><line class="b" x1="5" y2="5" transform="translate(290.9 1899.6)"/><line class="b" x1="5" y1="5" transform="translate(290.9 1899.6)"/><line class="b" x1="5" y2="5" transform="translate(380.9 1914.3)"/><line class="b" x1="5" y1="5" transform="translate(380.9 1914.3)"/><line class="b" x1="5" y2="5" transform="translate(365.9 1914.3)"/><line class="b" x1="5" y1="5" transform="translate(365.9 1914.3)"/><line class="b" x1="5" y2="5" transform="translate(350.9 1914.3)"/><line class="b" x1="5" y1="5" transform="translate(350.9 1914.3)"/><line class="b" x1="5" y2="5" transform="translate(335.9 1914.3)"/><line class="b" x1="5" y1="5" transform="translate(335.9 1914.3)"/><line class="b" x1="5" y2="5" transform="translate(320.9 1914.3)"/><line class="b" x1="5" y1="5" transform="translate(320.9 1914.3)"/><line class="b" x1="5" y2="5" transform="translate(305.9 1914.3)"/><line class="b" x1="5" y1="5" transform="translate(305.9 1914.3)"/><line class="b" x1="5" y2="5" transform="translate(350.9 1929)"/><line class="b" x1="5" y1="5" transform="translate(350.9 1929)"/><line class="b" x1="5" y2="5" transform="translate(335.9 1929)"/><line class="b" x1="5" y1="5" transform="translate(335.9 1929)"/><line class="b" x1="5" y2="5" transform="translate(320.9 1929)"/><line class="b" x1="5" y1="5" transform="translate(320.9 1929)"/><line class="b" x1="5" y2="5" transform="translate(305.9 1929)"/><line class="b" x1="5" y1="5" transform="translate(305.9 1929)"/><line class="b" x1="5" y2="5" transform="translate(290.9 1929)"/><line class="b" x1="5" y1="5" transform="translate(290.9 1929)"/><line class="b" x1="5" y2="5" transform="translate(275.9 1929)"/><line class="b" x1="5" y1="5" transform="translate(275.9 1929)"/></g><g transform="translate(-85.888 69)"><circle class="c" cx="1.5" cy="1.5" r="1.5" transform="translate(869.4 1213.5)"/><circle class="c" cx="1.5" cy="1.5" r="1.5" transform="translate(854.4 1213.5)"/><circle class="c" cx="1.5" cy="1.5" r="1.5" transform="translate(839.4 1213.5)"/><circle class="c" cx="1.5" cy="1.5" r="1.5" transform="translate(824.4 1213.5)"/><circle class="c" cx="1.5" cy="1.5" r="1.5" transform="translate(809.4 1213.5)"/><circle class="c" cx="1.5" cy="1.5" r="1.5" transform="translate(794.4 1213.5)"/><circle class="c" cx="1.5" cy="1.5" r="1.5" transform="translate(779.4 1213.5)"/><circle class="c" cx="1.5" cy="1.5" r="1.5" transform="translate(764.4 1213.5)"/><circle class="c" cx="1.5" cy="1.5" r="1.5" transform="translate(749.4 1213.5)"/><circle class="c" cx="1.5" cy="1.5" r="1.5" transform="translate(734.4 1213.5)"/><circle class="c" cx="1.5" cy="1.5" r="1.5" transform="translate(719.4 1213.5)"/><circle class="c" cx="1.5" cy="1.5" r="1.5" transform="translate(704.4 1213.5)"/><circle class="c" cx="1.5" cy="1.5" r="1.5" transform="translate(689.4 1213.5)"/><circle class="c" cx="1.5" cy="1.5" r="1.5" transform="translate(674.4 1213.5)"/><circle class="c" cx="1.5" cy="1.5" r="1.5" transform="translate(659.4 1213.5)"/><circle class="c" cx="1.5" cy="1.5" r="1.5" transform="translate(644.4 1213.5)"/><circle class="c" cx="1.5" cy="1.5" r="1.5" transform="translate(629.4 1213.5)"/><circle class="c" cx="1.5" cy="1.5" r="1.5" transform="translate(614.4 1213.5)"/><circle class="c" cx="1.5" cy="1.5" r="1.5" transform="translate(599.4 1213.5)"/><circle class="c" cx="1.5" cy="1.5" r="1.5" transform="translate(584.4 1213.5)"/><circle class="c" cx="1.5" cy="1.5" r="1.5" transform="translate(569.4 1213.5)"/><circle class="c" cx="1.5" cy="1.5" r="1.5" transform="translate(869.4 1228.5)"/><circle class="c" cx="1.5" cy="1.5" r="1.5" transform="translate(854.4 1228.5)"/><circle class="c" cx="1.5" cy="1.5" r="1.5" transform="translate(839.4 1228.5)"/><circle class="c" cx="1.5" cy="1.5" r="1.5" transform="translate(824.4 1228.5)"/><circle class="c" cx="1.5" cy="1.5" r="1.5" transform="translate(809.4 1228.5)"/><circle class="c" cx="1.5" cy="1.5" r="1.5" transform="translate(794.4 1228.5)"/><circle class="c" cx="1.5" cy="1.5" r="1.5" transform="translate(779.4 1228.5)"/><circle class="c" cx="1.5" cy="1.5" r="1.5" transform="translate(764.4 1228.5)"/><circle class="c" cx="1.5" cy="1.5" r="1.5" transform="translate(749.4 1228.5)"/><circle class="c" cx="1.5" cy="1.5" r="1.5" transform="translate(734.4 1228.5)"/><circle class="c" cx="1.5" cy="1.5" r="1.5" transform="translate(719.4 1228.5)"/><circle class="c" cx="1.5" cy="1.5" r="1.5" transform="translate(704.4 1228.5)"/><circle class="c" cx="1.5" cy="1.5" r="1.5" transform="translate(689.4 1228.5)"/><circle class="c" cx="1.5" cy="1.5" r="1.5" transform="translate(674.4 1228.5)"/><circle class="c" cx="1.5" cy="1.5" r="1.5" transform="translate(659.4 1228.5)"/><circle class="c" cx="1.5" cy="1.5" r="1.5" transform="translate(644.4 1228.5)"/><circle class="c" cx="1.5" cy="1.5" r="1.5" transform="translate(629.4 1228.5)"/><circle class="c" cx="1.5" cy="1.5" r="1.5" transform="translate(614.4 1228.5)"/><circle class="c" cx="1.5" cy="1.5" r="1.5" transform="translate(599.4 1228.5)"/><circle class="c" cx="1.5" cy="1.5" r="1.5" transform="translate(584.4 1228.5)"/><circle class="c" cx="1.5" cy="1.5" r="1.5" transform="translate(569.4 1228.5)"/><circle class="c" cx="1.5" cy="1.5" r="1.5" transform="translate(869.4 1243.5)"/><circle class="c" cx="1.5" cy="1.5" r="1.5" transform="translate(854.4 1243.5)"/><circle class="c" cx="1.5" cy="1.5" r="1.5" transform="translate(839.4 1243.5)"/><circle class="c" cx="1.5" cy="1.5" r="1.5" transform="translate(824.4 1243.5)"/><circle class="c" cx="1.5" cy="1.5" r="1.5" transform="translate(809.4 1243.5)"/><circle class="c" cx="1.5" cy="1.5" r="1.5" transform="translate(794.4 1243.5)"/><circle class="c" cx="1.5" cy="1.5" r="1.5" transform="translate(779.4 1243.5)"/><circle class="c" cx="1.5" cy="1.5" r="1.5" transform="translate(764.4 1243.5)"/><circle class="c" cx="1.5" cy="1.5" r="1.5" transform="translate(749.4 1243.5)"/><circle class="c" cx="1.5" cy="1.5" r="1.5" transform="translate(734.4 1243.5)"/><circle class="c" cx="1.5" cy="1.5" r="1.5" transform="translate(719.4 1243.5)"/><circle class="c" cx="1.5" cy="1.5" r="1.5" transform="translate(704.4 1243.5)"/><circle class="c" cx="1.5" cy="1.5" r="1.5" transform="translate(689.4 1243.5)"/><circle class="c" cx="1.5" cy="1.5" r="1.5" transform="translate(674.4 1243.5)"/><circle class="c" cx="1.5" cy="1.5" r="1.5" transform="translate(659.4 1243.5)"/><circle class="c" cx="1.5" cy="1.5" r="1.5" transform="translate(644.4 1243.5)"/><circle class="c" cx="1.5" cy="1.5" r="1.5" transform="translate(629.4 1243.5)"/><circle class="c" cx="1.5" cy="1.5" r="1.5" transform="translate(614.4 1243.5)"/><circle class="c" cx="1.5" cy="1.5" r="1.5" transform="translate(599.4 1243.5)"/><circle class="c" cx="1.5" cy="1.5" r="1.5" transform="translate(584.4 1243.5)"/><circle class="c" cx="1.5" cy="1.5" r="1.5" transform="translate(569.4 1243.5)"/><circle class="c" cx="1.5" cy="1.5" r="1.5" transform="translate(869.4 1258.5)"/><circle class="c" cx="1.5" cy="1.5" r="1.5" transform="translate(854.4 1258.5)"/><circle class="c" cx="1.5" cy="1.5" r="1.5" transform="translate(839.4 1258.5)"/><circle class="c" cx="1.5" cy="1.5" r="1.5" transform="translate(824.4 1258.5)"/><circle class="c" cx="1.5" cy="1.5" r="1.5" transform="translate(809.4 1258.5)"/><circle class="c" cx="1.5" cy="1.5" r="1.5" transform="translate(794.4 1258.5)"/><circle class="c" cx="1.5" cy="1.5" r="1.5" transform="translate(779.4 1258.5)"/><circle class="c" cx="1.5" cy="1.5" r="1.5" transform="translate(764.4 1258.5)"/><circle class="c" cx="1.5" cy="1.5" r="1.5" transform="translate(749.4 1258.5)"/><circle class="c" cx="1.5" cy="1.5" r="1.5" transform="translate(734.4 1258.5)"/><circle class="c" cx="1.5" cy="1.5" r="1.5" transform="translate(719.4 1258.5)"/><circle class="c" cx="1.5" cy="1.5" r="1.5" transform="translate(704.4 1258.5)"/><circle class="c" cx="1.5" cy="1.5" r="1.5" transform="translate(689.4 1258.5)"/><circle class="c" cx="1.5" cy="1.5" r="1.5" transform="translate(674.4 1258.5)"/><circle class="c" cx="1.5" cy="1.5" r="1.5" transform="translate(659.4 1258.5)"/><circle class="c" cx="1.5" cy="1.5" r="1.5" transform="translate(644.4 1258.5)"/><circle class="c" cx="1.5" cy="1.5" r="1.5" transform="translate(629.4 1258.5)"/><circle class="c" cx="1.5" cy="1.5" r="1.5" transform="translate(614.4 1258.5)"/><circle class="c" cx="1.5" cy="1.5" r="1.5" transform="translate(599.4 1258.5)"/><circle class="c" cx="1.5" cy="1.5" r="1.5" transform="translate(584.4 1258.5)"/><circle class="c" cx="1.5" cy="1.5" r="1.5" transform="translate(569.4 1258.5)"/><circle class="c" cx="1.5" cy="1.5" r="1.5" transform="translate(869.4 1273.5)"/><circle class="c" cx="1.5" cy="1.5" r="1.5" transform="translate(854.4 1273.5)"/><circle class="c" cx="1.5" cy="1.5" r="1.5" transform="translate(839.4 1273.5)"/><circle class="c" cx="1.5" cy="1.5" r="1.5" transform="translate(824.4 1273.5)"/><circle class="c" cx="1.5" cy="1.5" r="1.5" transform="translate(809.4 1273.5)"/><circle class="c" cx="1.5" cy="1.5" r="1.5" transform="translate(794.4 1273.5)"/><circle class="c" cx="1.5" cy="1.5" r="1.5" transform="translate(779.4 1273.5)"/><circle class="c" cx="1.5" cy="1.5" r="1.5" transform="translate(764.4 1273.5)"/><circle class="c" cx="1.5" cy="1.5" r="1.5" transform="translate(749.4 1273.5)"/><circle class="c" cx="1.5" cy="1.5" r="1.5" transform="translate(734.4 1273.5)"/><circle class="c" cx="1.5" cy="1.5" r="1.5" transform="translate(719.4 1273.5)"/><circle class="c" cx="1.5" cy="1.5" r="1.5" transform="translate(704.4 1273.5)"/><circle class="c" cx="1.5" cy="1.5" r="1.5" transform="translate(689.4 1273.5)"/><circle class="c" cx="1.5" cy="1.5" r="1.5" transform="translate(674.4 1273.5)"/><circle class="c" cx="1.5" cy="1.5" r="1.5" transform="translate(659.4 1273.5)"/><circle class="c" cx="1.5" cy="1.5" r="1.5" transform="translate(644.4 1273.5)"/><circle class="c" cx="1.5" cy="1.5" r="1.5" transform="translate(629.4 1273.5)"/><circle class="c" cx="1.5" cy="1.5" r="1.5" transform="translate(614.4 1273.5)"/><circle class="c" cx="1.5" cy="1.5" r="1.5" transform="translate(599.4 1273.5)"/><circle class="c" cx="1.5" cy="1.5" r="1.5" transform="translate(584.4 1273.5)"/><circle class="c" cx="1.5" cy="1.5" r="1.5" transform="translate(569.4 1273.5)"/><circle class="c" cx="1.5" cy="1.5" r="1.5" transform="translate(869.4 1288.5)"/><circle class="c" cx="1.5" cy="1.5" r="1.5" transform="translate(854.4 1288.5)"/><circle class="c" cx="1.5" cy="1.5" r="1.5" transform="translate(839.4 1288.5)"/><circle class="c" cx="1.5" cy="1.5" r="1.5" transform="translate(824.4 1288.5)"/><circle class="c" cx="1.5" cy="1.5" r="1.5" transform="translate(809.4 1288.5)"/><circle class="c" cx="1.5" cy="1.5" r="1.5" transform="translate(794.4 1288.5)"/><circle class="c" cx="1.5" cy="1.5" r="1.5" transform="translate(779.4 1288.5)"/><circle class="c" cx="1.5" cy="1.5" r="1.5" transform="translate(764.4 1288.5)"/><circle class="c" cx="1.5" cy="1.5" r="1.5" transform="translate(749.4 1288.5)"/><circle class="c" cx="1.5" cy="1.5" r="1.5" transform="translate(734.4 1288.5)"/><circle class="c" cx="1.5" cy="1.5" r="1.5" transform="translate(719.4 1288.5)"/><circle class="c" cx="1.5" cy="1.5" r="1.5" transform="translate(704.4 1288.5)"/><circle class="c" cx="1.5" cy="1.5" r="1.5" transform="translate(689.4 1288.5)"/><circle class="c" cx="1.5" cy="1.5" r="1.5" transform="translate(674.4 1288.5)"/><circle class="c" cx="1.5" cy="1.5" r="1.5" transform="translate(659.4 1288.5)"/><circle class="c" cx="1.5" cy="1.5" r="1.5" transform="translate(644.4 1288.5)"/><circle class="c" cx="1.5" cy="1.5" r="1.5" transform="translate(629.4 1288.5)"/><circle class="c" cx="1.5" cy="1.5" r="1.5" transform="translate(614.4 1288.5)"/><circle class="c" cx="1.5" cy="1.5" r="1.5" transform="translate(599.4 1288.5)"/><circle class="c" cx="1.5" cy="1.5" r="1.5" transform="translate(584.4 1288.5)"/><circle class="c" cx="1.5" cy="1.5" r="1.5" transform="translate(569.4 1288.5)"/><circle class="c" cx="1.5" cy="1.5" r="1.5" transform="translate(869.4 1303.5)"/><circle class="c" cx="1.5" cy="1.5" r="1.5" transform="translate(854.4 1303.5)"/><circle class="c" cx="1.5" cy="1.5" r="1.5" transform="translate(839.4 1303.5)"/><circle class="c" cx="1.5" cy="1.5" r="1.5" transform="translate(824.4 1303.5)"/><circle class="c" cx="1.5" cy="1.5" r="1.5" transform="translate(809.4 1303.5)"/><circle class="c" cx="1.5" cy="1.5" r="1.5" transform="translate(794.4 1303.5)"/><circle class="c" cx="1.5" cy="1.5" r="1.5" transform="translate(779.4 1303.5)"/><circle class="c" cx="1.5" cy="1.5" r="1.5" transform="translate(764.4 1303.5)"/><circle class="c" cx="1.5" cy="1.5" r="1.5" transform="translate(749.4 1303.5)"/><circle class="c" cx="1.5" cy="1.5" r="1.5" transform="translate(734.4 1303.5)"/><circle class="c" cx="1.5" cy="1.5" r="1.5" transform="translate(719.4 1303.5)"/><circle class="c" cx="1.5" cy="1.5" r="1.5" transform="translate(704.4 1303.5)"/><circle class="c" cx="1.5" cy="1.5" r="1.5" transform="translate(689.4 1303.5)"/><circle class="c" cx="1.5" cy="1.5" r="1.5" transform="translate(674.4 1303.5)"/><circle class="c" cx="1.5" cy="1.5" r="1.5" transform="translate(659.4 1303.5)"/><circle class="c" cx="1.5" cy="1.5" r="1.5" transform="translate(644.4 1303.5)"/><circle class="c" cx="1.5" cy="1.5" r="1.5" transform="translate(629.4 1303.5)"/><circle class="c" cx="1.5" cy="1.5" r="1.5" transform="translate(614.4 1303.5)"/><circle class="c" cx="1.5" cy="1.5" r="1.5" transform="translate(599.4 1303.5)"/><circle class="c" cx="1.5" cy="1.5" r="1.5" transform="translate(584.4 1303.5)"/><circle class="c" cx="1.5" cy="1.5" r="1.5" transform="translate(569.4 1303.5)"/><circle class="c" cx="1.5" cy="1.5" r="1.5" transform="translate(869.4 1318.5)"/><circle class="c" cx="1.5" cy="1.5" r="1.5" transform="translate(854.4 1318.5)"/><circle class="c" cx="1.5" cy="1.5" r="1.5" transform="translate(839.4 1318.5)"/><circle class="c" cx="1.5" cy="1.5" r="1.5" transform="translate(824.4 1318.5)"/><circle class="c" cx="1.5" cy="1.5" r="1.5" transform="translate(809.4 1318.5)"/><circle class="c" cx="1.5" cy="1.5" r="1.5" transform="translate(794.4 1318.5)"/><circle class="c" cx="1.5" cy="1.5" r="1.5" transform="translate(779.4 1318.5)"/><circle class="c" cx="1.5" cy="1.5" r="1.5" transform="translate(764.4 1318.5)"/><circle class="c" cx="1.5" cy="1.5" r="1.5" transform="translate(749.4 1318.5)"/><circle class="c" cx="1.5" cy="1.5" r="1.5" transform="translate(734.4 1318.5)"/><circle class="c" cx="1.5" cy="1.5" r="1.5" transform="translate(719.4 1318.5)"/><circle class="c" cx="1.5" cy="1.5" r="1.5" transform="translate(704.4 1318.5)"/><circle class="c" cx="1.5" cy="1.5" r="1.5" transform="translate(689.4 1318.5)"/><circle class="c" cx="1.5" cy="1.5" r="1.5" transform="translate(674.4 1318.5)"/><circle class="c" cx="1.5" cy="1.5" r="1.5" transform="translate(659.4 1318.5)"/><circle class="c" cx="1.5" cy="1.5" r="1.5" transform="translate(644.4 1318.5)"/><circle class="c" cx="1.5" cy="1.5" r="1.5" transform="translate(629.4 1318.5)"/><circle class="c" cx="1.5" cy="1.5" r="1.5" transform="translate(614.4 1318.5)"/><circle class="c" cx="1.5" cy="1.5" r="1.5" transform="translate(599.4 1318.5)"/><circle class="c" cx="1.5" cy="1.5" r="1.5" transform="translate(584.4 1318.5)"/><circle class="c" cx="1.5" cy="1.5" r="1.5" transform="translate(569.4 1318.5)"/></g><circle class="d" cx="28" cy="28" r="28" transform="translate(739.012 1732)"/><g transform="translate(-85.888 69)"><line class="d" x1="30" y2="30" transform="translate(230.6 1534.3)"/><line class="d" x1="30" y1="30" transform="translate(230.6 1534.3)"/></g><rect class="e" width="362" height="566" transform="translate(299.5 1337.5)"/></g></svg>