<svg xmlns="http://www.w3.org/2000/svg" width="110.707" height="49.707" viewBox="0 0 110.707 49.707"><defs><style>.a{fill:none;stroke:#f7931e;stroke-miterlimit:10;}</style></defs><g transform="translate(-537.747 -804.646)"><line class="a" x1="5" y2="5" transform="translate(628.1 805)"/><line class="a" x1="5" y1="5" transform="translate(628.1 805)"/><line class="a" x1="5" y2="5" transform="translate(613.1 805)"/><line class="a" x1="5" y1="5" transform="translate(613.1 805)"/><line class="a" x1="5" y2="5" transform="translate(598.1 805)"/><line class="a" x1="5" y1="5" transform="translate(598.1 805)"/><line class="a" x1="5" y2="5" transform="translate(583.1 805)"/><line class="a" x1="5" y1="5" transform="translate(583.1 805)"/><line class="a" x1="5" y2="5" transform="translate(568.1 805)"/><line class="a" x1="5" y1="5" transform="translate(568.1 805)"/><line class="a" x1="5" y2="5" transform="translate(553.1 805)"/><line class="a" x1="5" y1="5" transform="translate(553.1 805)"/><line class="a" x1="5" y2="5" transform="translate(628.1 819.6)"/><line class="a" x1="5" y1="5" transform="translate(628.1 819.6)"/><line class="a" x1="5" y2="5" transform="translate(613.1 819.6)"/><line class="a" x1="5" y1="5" transform="translate(613.1 819.6)"/><line class="a" x1="5" y2="5" transform="translate(598.1 819.6)"/><line class="a" x1="5" y1="5" transform="translate(598.1 819.6)"/><line class="a" x1="5" y2="5" transform="translate(583.1 819.6)"/><line class="a" x1="5" y1="5" transform="translate(583.1 819.6)"/><line class="a" x1="5" y2="5" transform="translate(568.1 819.6)"/><line class="a" x1="5" y1="5" transform="translate(568.1 819.6)"/><line class="a" x1="5" y2="5" transform="translate(553.1 819.6)"/><line class="a" x1="5" y1="5" transform="translate(553.1 819.6)"/><line class="a" x1="5" y2="5" transform="translate(643.1 834.3)"/><line class="a" x1="5" y1="5" transform="translate(643.1 834.3)"/><line class="a" x1="5" y2="5" transform="translate(628.1 834.3)"/><line class="a" x1="5" y1="5" transform="translate(628.1 834.3)"/><line class="a" x1="5" y2="5" transform="translate(613.1 834.3)"/><line class="a" x1="5" y1="5" transform="translate(613.1 834.3)"/><line class="a" x1="5" y2="5" transform="translate(598.1 834.3)"/><line class="a" x1="5" y1="5" transform="translate(598.1 834.3)"/><line class="a" x1="5" y2="5" transform="translate(583.1 834.3)"/><line class="a" x1="5" y1="5" transform="translate(583.1 834.3)"/><line class="a" x1="5" y2="5" transform="translate(568.1 834.3)"/><line class="a" x1="5" y1="5" transform="translate(568.1 834.3)"/><line class="a" x1="5" y2="5" transform="translate(613.1 849)"/><line class="a" x1="5" y1="5" transform="translate(613.1 849)"/><line class="a" x1="5" y2="5" transform="translate(598.1 849)"/><line class="a" x1="5" y1="5" transform="translate(598.1 849)"/><line class="a" x1="5" y2="5" transform="translate(583.1 849)"/><line class="a" x1="5" y1="5" transform="translate(583.1 849)"/><line class="a" x1="5" y2="5" transform="translate(568.1 849)"/><line class="a" x1="5" y1="5" transform="translate(568.1 849)"/><line class="a" x1="5" y2="5" transform="translate(553.1 849)"/><line class="a" x1="5" y1="5" transform="translate(553.1 849)"/><line class="a" x1="5" y2="5" transform="translate(538.1 849)"/><line class="a" x1="5" y1="5" transform="translate(538.1 849)"/></g></svg>