<svg xmlns="http://www.w3.org/2000/svg" xmlns:xlink="http://www.w3.org/1999/xlink" width="199" height="190" viewBox="0 0 199 190"><defs><style>.a{opacity:0;}.b{fill:#f7931e;}.c{fill:#55efc4;}.d{fill:#fff;font-size:44px;font-family:Montserrat-Black, Montserrat;font-weight:800;}.e{filter:url(#a);}</style><filter id="a" x="0" y="53" width="199" height="84" filterUnits="userSpaceOnUse"><feOffset input="SourceAlpha"/><feGaussianBlur stdDeviation="5" result="b"/><feFlood flood-opacity="0.502"/><feComposite operator="in" in2="b"/><feComposite in="SourceGraphic"/></filter></defs><g transform="translate(-1471 -620)"><rect class="a" width="190" height="190" transform="translate(1475 620)"/><g transform="translate(1481.129 788.456)"><g transform="translate(4.877 0)"><g transform="translate(24.387)"><g transform="translate(0 0)"><rect class="b" width="2.299" height="0.325" transform="translate(0 1.626) rotate(-45)"/></g><rect class="b" width="0.325" height="2.299" transform="translate(0 0.23) rotate(-45)"/></g><g transform="translate(19.509)"><g transform="translate(0 0)"><rect class="b" width="2.299" height="0.325" transform="translate(0 1.626) rotate(-45)"/></g><rect class="b" width="0.325" height="2.299" transform="translate(0 0.23) rotate(-45)"/></g><g transform="translate(14.632)"><g transform="translate(0 0)"><rect class="b" width="2.299" height="0.325" transform="translate(0 1.626) rotate(-45)"/></g><g transform="translate(0)"><rect class="b" width="0.325" height="2.299" transform="translate(0 0.23) rotate(-45)"/></g></g><g transform="translate(9.755)"><g transform="translate(0 0)"><rect class="b" width="2.299" height="0.325" transform="translate(0 1.626) rotate(-45)"/></g><rect class="b" width="0.325" height="2.299" transform="translate(0 0.23) rotate(-45)"/></g><g transform="translate(4.877)"><g transform="translate(0 0)"><rect class="b" width="2.299" height="0.325" transform="translate(0 1.626) rotate(-45)"/></g><rect class="b" width="0.325" height="2.299" transform="translate(0 0.23) rotate(-45)"/></g><g transform="translate(0)"><g transform="translate(0 0)"><rect class="b" width="2.299" height="0.325" transform="translate(0 1.626) rotate(-45)"/></g><g transform="translate(0)"><rect class="b" width="0.325" height="2.299" transform="translate(0 0.23) rotate(-45)"/></g></g></g><g transform="translate(4.877 4.769)"><g transform="translate(24.387 0)"><g transform="translate(0 0)"><rect class="b" width="2.299" height="0.325" transform="translate(0 1.626) rotate(-45)"/></g><rect class="b" width="0.325" height="2.299" transform="translate(0 0.23) rotate(-45)"/></g><g transform="translate(19.509 0)"><g transform="translate(0 0)"><rect class="b" width="2.299" height="0.325" transform="translate(0 1.626) rotate(-45)"/></g><g transform="translate(0)"><rect class="b" width="0.325" height="2.299" transform="translate(0 0.23) rotate(-45)"/></g></g><g transform="translate(14.632 0)"><g transform="translate(0 0)"><rect class="b" width="2.299" height="0.325" transform="translate(0 1.626) rotate(-45)"/></g><g transform="translate(0)"><rect class="b" width="0.325" height="2.299" transform="translate(0 0.23) rotate(-45)"/></g></g><g transform="translate(9.755 0)"><g transform="translate(0 0)"><rect class="b" width="2.299" height="0.325" transform="translate(0 1.626) rotate(-45)"/></g><rect class="b" width="0.325" height="2.299" transform="translate(0 0.23) rotate(-45)"/></g><g transform="translate(4.877 0)"><g transform="translate(0 0)"><rect class="b" width="2.299" height="0.325" transform="translate(0 1.626) rotate(-45)"/></g><rect class="b" width="0.325" height="2.299" transform="translate(0 0.23) rotate(-45)"/></g><g transform="translate(0 0)"><g transform="translate(0 0)"><rect class="b" width="2.299" height="0.325" transform="translate(0 1.626) rotate(-45)"/></g><g transform="translate(0)"><rect class="b" width="0.325" height="2.299" transform="translate(0 0.23) rotate(-45)"/></g></g></g><g transform="translate(9.755 9.538)"><g transform="translate(24.387 0)"><g transform="translate(0 0)"><rect class="b" width="2.299" height="0.325" transform="translate(0 1.626) rotate(-45)"/></g><rect class="b" width="0.325" height="2.299" transform="translate(0 0.23) rotate(-45)"/></g><g transform="translate(19.509 0)"><g transform="translate(0 0)"><rect class="b" width="2.299" height="0.325" transform="translate(0 1.626) rotate(-45)"/></g><g transform="translate(0)"><rect class="b" width="0.325" height="2.299" transform="translate(0 0.23) rotate(-45)"/></g></g><g transform="translate(14.632 0)"><g transform="translate(0 0)"><rect class="b" width="2.299" height="0.325" transform="translate(0 1.626) rotate(-45)"/></g><rect class="b" width="0.325" height="2.299" transform="translate(0 0.23) rotate(-45)"/></g><g transform="translate(9.755 0)"><g transform="translate(0 0)"><rect class="b" width="2.299" height="0.325" transform="translate(0 1.626) rotate(-45)"/></g><rect class="b" width="0.325" height="2.299" transform="translate(0 0.23) rotate(-45)"/></g><g transform="translate(4.877 0)"><g transform="translate(0 0)"><rect class="b" width="2.299" height="0.325" transform="translate(0 1.626) rotate(-45)"/></g><g transform="translate(0)"><rect class="b" width="0.325" height="2.299" transform="translate(0 0.23) rotate(-45)"/></g></g><g transform="translate(0 0)"><g transform="translate(0 0)"><rect class="b" width="2.299" height="0.325" transform="translate(0 1.626) rotate(-45)"/></g><g transform="translate(0)"><rect class="b" width="0.325" height="2.299" transform="translate(0 0.23) rotate(-45)"/></g></g></g><g transform="translate(0 14.307)"><g transform="translate(24.387 0)"><g transform="translate(0 0)"><rect class="b" width="2.299" height="0.325" transform="translate(0 1.626) rotate(-45)"/></g><g transform="translate(0)"><rect class="b" width="0.325" height="2.299" transform="translate(0 0.23) rotate(-45)"/></g></g><g transform="translate(19.509 0)"><g transform="translate(0 0)"><rect class="b" width="2.299" height="0.325" transform="translate(0 1.626) rotate(-45)"/></g><rect class="b" width="0.325" height="2.299" transform="translate(0 0.23) rotate(-45)"/></g><g transform="translate(14.632 0)"><g transform="translate(0 0)"><rect class="b" width="2.299" height="0.325" transform="translate(0 1.626) rotate(-45)"/></g><rect class="b" width="0.325" height="2.299" transform="translate(0 0.23) rotate(-45)"/></g><g transform="translate(9.755 0)"><g transform="translate(0 0)"><rect class="b" width="2.299" height="0.325" transform="translate(0 1.626) rotate(-45)"/></g><g transform="translate(0)"><rect class="b" width="0.325" height="2.299" transform="translate(0 0.23) rotate(-45)"/></g></g><g transform="translate(4.877 0)"><g transform="translate(0 0)"><rect class="b" width="2.299" height="0.325" transform="translate(0 1.626) rotate(-45)"/></g><rect class="b" width="0.325" height="2.299" transform="translate(0 0.23) rotate(-45)"/></g><g transform="translate(0 0)"><g transform="translate(0 0)"><rect class="b" width="2.299" height="0.325" transform="translate(0 1.626) rotate(-45)"/></g><rect class="b" width="0.325" height="2.299" transform="translate(0 0.23) rotate(-45)"/></g></g></g><g transform="translate(1555.007 622.03)"><g transform="translate(0)"><g transform="translate(93.826)"><circle class="b" cx="0.469" cy="0.469" r="0.469" transform="translate(0.156 0.156)"/><path class="b" d="M-63.392,163.233a.626.626,0,0,1-.626-.626.626.626,0,0,1,.626-.626.626.626,0,0,1,.626.626A.626.626,0,0,1-63.392,163.233Zm0-.938a.313.313,0,0,0-.313.313.313.313,0,0,0,.313.313.313.313,0,0,0,.313-.313A.313.313,0,0,0-63.392,162.295Z" transform="translate(64.018 -161.982)"/></g><g transform="translate(89.135)"><g transform="translate(0)"><circle class="b" cx="0.469" cy="0.469" r="0.469" transform="translate(0.156 0.156)"/><path class="b" d="M-78.392,163.233a.626.626,0,0,1-.626-.626.626.626,0,0,1,.626-.626.626.626,0,0,1,.626.626A.626.626,0,0,1-78.392,163.233Zm0-.938a.313.313,0,0,0-.313.313.313.313,0,0,0,.313.313.313.313,0,0,0,.313-.313A.313.313,0,0,0-78.392,162.295Z" transform="translate(79.018 -161.982)"/></g></g><g transform="translate(84.443)"><g transform="translate(0)"><circle class="b" cx="0.469" cy="0.469" r="0.469" transform="translate(0.156 0.156)"/><path class="b" d="M-93.393,163.233a.626.626,0,0,1-.626-.626.626.626,0,0,1,.626-.626.626.626,0,0,1,.626.626A.626.626,0,0,1-93.393,163.233Zm0-.938a.313.313,0,0,0-.313.313.313.313,0,0,0,.313.313.313.313,0,0,0,.313-.313A.313.313,0,0,0-93.393,162.295Z" transform="translate(94.018 -161.982)"/></g></g><g transform="translate(79.752)"><g transform="translate(0)"><circle class="b" cx="0.469" cy="0.469" r="0.469" transform="translate(0.156 0.156)"/><path class="b" d="M-108.393,163.233a.626.626,0,0,1-.625-.626.626.626,0,0,1,.625-.626.626.626,0,0,1,.626.626A.626.626,0,0,1-108.393,163.233Zm0-.938a.313.313,0,0,0-.313.313.313.313,0,0,0,.313.313.313.313,0,0,0,.313-.313A.313.313,0,0,0-108.393,162.295Z" transform="translate(109.018 -161.982)"/></g></g><g transform="translate(75.061)"><circle class="b" cx="0.469" cy="0.469" r="0.469" transform="translate(0.156 0.156)"/><path class="b" d="M-123.393,163.233a.626.626,0,0,1-.626-.626.626.626,0,0,1,.626-.626.626.626,0,0,1,.626.626A.626.626,0,0,1-123.393,163.233Zm0-.938a.313.313,0,0,0-.313.313.313.313,0,0,0,.313.313.313.313,0,0,0,.313-.313A.313.313,0,0,0-123.393,162.295Z" transform="translate(124.018 -161.982)"/></g><g transform="translate(70.37)"><circle class="b" cx="0.469" cy="0.469" r="0.469" transform="translate(0.156 0.156)"/><path class="b" d="M-138.393,163.233a.626.626,0,0,1-.626-.626.626.626,0,0,1,.626-.626.626.626,0,0,1,.626.626A.626.626,0,0,1-138.393,163.233Zm0-.938a.313.313,0,0,0-.313.313.313.313,0,0,0,.313.313.313.313,0,0,0,.313-.313A.313.313,0,0,0-138.393,162.295Z" transform="translate(139.018 -161.982)"/></g><g transform="translate(65.678)"><circle class="b" cx="0.469" cy="0.469" r="0.469" transform="translate(0.156 0.156)"/><path class="b" d="M-153.393,163.233a.626.626,0,0,1-.626-.626.626.626,0,0,1,.626-.626.626.626,0,0,1,.626.626A.626.626,0,0,1-153.393,163.233Zm0-.938a.313.313,0,0,0-.313.313.313.313,0,0,0,.313.313.313.313,0,0,0,.313-.313A.313.313,0,0,0-153.393,162.295Z" transform="translate(154.018 -161.982)"/></g><g transform="translate(60.987)"><circle class="b" cx="0.469" cy="0.469" r="0.469" transform="translate(0.156 0.156)"/><path class="b" d="M-168.393,163.233a.626.626,0,0,1-.626-.626.626.626,0,0,1,.626-.626.626.626,0,0,1,.626.626A.626.626,0,0,1-168.393,163.233Zm0-.938a.313.313,0,0,0-.313.313.313.313,0,0,0,.313.313.313.313,0,0,0,.313-.313A.313.313,0,0,0-168.393,162.295Z" transform="translate(169.018 -161.982)"/></g><g transform="translate(56.296)"><circle class="b" cx="0.469" cy="0.469" r="0.469" transform="translate(0.156 0.156)"/><path class="b" d="M-183.393,163.233a.626.626,0,0,1-.626-.626.626.626,0,0,1,.626-.626.626.626,0,0,1,.626.626A.626.626,0,0,1-183.393,163.233Zm0-.938a.313.313,0,0,0-.313.313.313.313,0,0,0,.313.313.313.313,0,0,0,.313-.313A.313.313,0,0,0-183.393,162.295Z" transform="translate(184.018 -161.982)"/></g><g transform="translate(51.604)"><circle class="b" cx="0.469" cy="0.469" r="0.469" transform="translate(0.156 0.156)"/><path class="b" d="M-198.393,163.233a.626.626,0,0,1-.625-.626.626.626,0,0,1,.625-.626.626.626,0,0,1,.626.626A.626.626,0,0,1-198.393,163.233Zm0-.938a.313.313,0,0,0-.313.313.313.313,0,0,0,.313.313.313.313,0,0,0,.313-.313A.313.313,0,0,0-198.393,162.295Z" transform="translate(199.018 -161.982)"/></g><g transform="translate(46.913)"><circle class="b" cx="0.469" cy="0.469" r="0.469" transform="translate(0.156 0.156)"/><path class="b" d="M-213.392,163.233a.626.626,0,0,1-.626-.626.626.626,0,0,1,.626-.626.626.626,0,0,1,.625.626A.626.626,0,0,1-213.392,163.233Zm0-.938a.313.313,0,0,0-.313.313.313.313,0,0,0,.313.313.313.313,0,0,0,.313-.313A.313.313,0,0,0-213.392,162.295Z" transform="translate(214.018 -161.982)"/></g><g transform="translate(42.222)"><circle class="b" cx="0.469" cy="0.469" r="0.469" transform="translate(0.156 0.156)"/><path class="b" d="M-228.393,163.233a.626.626,0,0,1-.625-.626.626.626,0,0,1,.625-.626.626.626,0,0,1,.626.626A.626.626,0,0,1-228.393,163.233Zm0-.938a.313.313,0,0,0-.313.313.313.313,0,0,0,.313.313.313.313,0,0,0,.313-.313A.313.313,0,0,0-228.393,162.295Z" transform="translate(229.018 -161.982)"/></g><g transform="translate(37.53)"><circle class="b" cx="0.469" cy="0.469" r="0.469" transform="translate(0.156 0.156)"/><path class="b" d="M-243.393,163.233a.626.626,0,0,1-.626-.626.626.626,0,0,1,.626-.626.626.626,0,0,1,.625.626A.626.626,0,0,1-243.393,163.233Zm0-.938a.313.313,0,0,0-.313.313.313.313,0,0,0,.313.313.313.313,0,0,0,.313-.313A.313.313,0,0,0-243.393,162.295Z" transform="translate(244.018 -161.982)"/></g><g transform="translate(32.839)"><circle class="b" cx="0.469" cy="0.469" r="0.469" transform="translate(0.156 0.156)"/><path class="b" d="M-258.392,163.233a.626.626,0,0,1-.626-.626.626.626,0,0,1,.626-.626.626.626,0,0,1,.625.626A.626.626,0,0,1-258.392,163.233Zm0-.938a.313.313,0,0,0-.313.313.313.313,0,0,0,.313.313.313.313,0,0,0,.313-.313A.313.313,0,0,0-258.392,162.295Z" transform="translate(259.018 -161.982)"/></g><g transform="translate(28.148)"><circle class="b" cx="0.469" cy="0.469" r="0.469" transform="translate(0.156 0.156)"/><path class="b" d="M-273.392,163.233a.626.626,0,0,1-.626-.626.626.626,0,0,1,.626-.626.626.626,0,0,1,.625.626A.626.626,0,0,1-273.392,163.233Zm0-.938a.313.313,0,0,0-.313.313.313.313,0,0,0,.313.313.313.313,0,0,0,.313-.313A.313.313,0,0,0-273.392,162.295Z" transform="translate(274.018 -161.982)"/></g><g transform="translate(23.457)"><circle class="b" cx="0.469" cy="0.469" r="0.469" transform="translate(0.156 0.156)"/><path class="b" d="M-288.393,163.233a.626.626,0,0,1-.625-.626.626.626,0,0,1,.625-.626.626.626,0,0,1,.626.626A.626.626,0,0,1-288.393,163.233Zm0-.938a.313.313,0,0,0-.313.313.313.313,0,0,0,.313.313.313.313,0,0,0,.313-.313A.313.313,0,0,0-288.393,162.295Z" transform="translate(289.018 -161.982)"/></g><g transform="translate(18.765)"><circle class="b" cx="0.469" cy="0.469" r="0.469" transform="translate(0.156 0.156)"/><path class="b" d="M-303.393,163.233a.626.626,0,0,1-.625-.626.626.626,0,0,1,.625-.626.626.626,0,0,1,.625.626A.626.626,0,0,1-303.393,163.233Zm0-.938a.313.313,0,0,0-.313.313.313.313,0,0,0,.313.313.313.313,0,0,0,.313-.313A.313.313,0,0,0-303.393,162.295Z" transform="translate(304.018 -161.982)"/></g><g transform="translate(14.074)"><circle class="b" cx="0.469" cy="0.469" r="0.469" transform="translate(0.156 0.156)"/><path class="b" d="M-318.393,163.233a.626.626,0,0,1-.625-.626.626.626,0,0,1,.625-.626.626.626,0,0,1,.626.626A.626.626,0,0,1-318.393,163.233Zm0-.938a.313.313,0,0,0-.313.313.313.313,0,0,0,.313.313.313.313,0,0,0,.313-.313A.313.313,0,0,0-318.393,162.295Z" transform="translate(319.018 -161.982)"/></g><g transform="translate(9.383)"><circle class="b" cx="0.469" cy="0.469" r="0.469" transform="translate(0.156 0.156)"/><path class="b" d="M-333.393,163.233a.626.626,0,0,1-.625-.626.626.626,0,0,1,.625-.626.626.626,0,0,1,.626.626A.626.626,0,0,1-333.393,163.233Zm0-.938a.313.313,0,0,0-.313.313.313.313,0,0,0,.313.313.313.313,0,0,0,.313-.313A.313.313,0,0,0-333.393,162.295Z" transform="translate(334.018 -161.982)"/></g><g transform="translate(4.691)"><circle class="b" cx="0.469" cy="0.469" r="0.469" transform="translate(0.156 0.156)"/><path class="b" d="M-348.392,163.233a.626.626,0,0,1-.626-.626.626.626,0,0,1,.626-.626.626.626,0,0,1,.625.626A.626.626,0,0,1-348.392,163.233Zm0-.938a.313.313,0,0,0-.313.313.313.313,0,0,0,.313.313.313.313,0,0,0,.313-.313A.313.313,0,0,0-348.392,162.295Z" transform="translate(349.018 -161.982)"/></g><circle class="b" cx="0.469" cy="0.469" r="0.469" transform="translate(0.156 0.156)"/><path class="b" d="M-363.392,163.233a.626.626,0,0,1-.626-.626.626.626,0,0,1,.626-.626.626.626,0,0,1,.625.626A.626.626,0,0,1-363.392,163.233Zm0-.938a.313.313,0,0,0-.313.313.313.313,0,0,0,.313.313.313.313,0,0,0,.313-.313A.313.313,0,0,0-363.392,162.295Z" transform="translate(364.018 -161.982)"/></g><g transform="translate(0 4.691)"><g transform="translate(93.826)"><circle class="b" cx="0.469" cy="0.469" r="0.469" transform="translate(0.156 0.156)"/><path class="b" d="M-63.392,178.233a.626.626,0,0,1-.626-.626.626.626,0,0,1,.626-.626.626.626,0,0,1,.626.626A.626.626,0,0,1-63.392,178.233Zm0-.938a.313.313,0,0,0-.313.313.313.313,0,0,0,.313.313.313.313,0,0,0,.313-.313A.313.313,0,0,0-63.392,177.295Z" transform="translate(64.018 -176.982)"/></g><g transform="translate(89.135)"><g transform="translate(0)"><circle class="b" cx="0.469" cy="0.469" r="0.469" transform="translate(0.156 0.156)"/><path class="b" d="M-78.392,178.233a.626.626,0,0,1-.626-.626.626.626,0,0,1,.626-.626.626.626,0,0,1,.626.626A.626.626,0,0,1-78.392,178.233Zm0-.938a.313.313,0,0,0-.313.313.313.313,0,0,0,.313.313.313.313,0,0,0,.313-.313A.313.313,0,0,0-78.392,177.295Z" transform="translate(79.018 -176.982)"/></g></g><g transform="translate(84.443)"><g transform="translate(0)"><circle class="b" cx="0.469" cy="0.469" r="0.469" transform="translate(0.156 0.156)"/><path class="b" d="M-93.393,178.233a.626.626,0,0,1-.626-.626.626.626,0,0,1,.626-.626.626.626,0,0,1,.626.626A.626.626,0,0,1-93.393,178.233Zm0-.938a.313.313,0,0,0-.313.313.313.313,0,0,0,.313.313.313.313,0,0,0,.313-.313A.313.313,0,0,0-93.393,177.295Z" transform="translate(94.018 -176.982)"/></g></g><g transform="translate(79.752)"><g transform="translate(0)"><circle class="b" cx="0.469" cy="0.469" r="0.469" transform="translate(0.156 0.156)"/><path class="b" d="M-108.393,178.233a.626.626,0,0,1-.625-.626.626.626,0,0,1,.625-.626.626.626,0,0,1,.626.626A.626.626,0,0,1-108.393,178.233Zm0-.938a.313.313,0,0,0-.313.313.313.313,0,0,0,.313.313.313.313,0,0,0,.313-.313A.313.313,0,0,0-108.393,177.295Z" transform="translate(109.018 -176.982)"/></g></g><g transform="translate(75.061)"><circle class="b" cx="0.469" cy="0.469" r="0.469" transform="translate(0.156 0.156)"/><path class="b" d="M-123.393,178.233a.626.626,0,0,1-.626-.626.626.626,0,0,1,.626-.626.626.626,0,0,1,.626.626A.626.626,0,0,1-123.393,178.233Zm0-.938a.313.313,0,0,0-.313.313.313.313,0,0,0,.313.313.313.313,0,0,0,.313-.313A.313.313,0,0,0-123.393,177.295Z" transform="translate(124.018 -176.982)"/></g><g transform="translate(70.37)"><circle class="b" cx="0.469" cy="0.469" r="0.469" transform="translate(0.156 0.156)"/><path class="b" d="M-138.393,178.233a.626.626,0,0,1-.626-.626.626.626,0,0,1,.626-.626.626.626,0,0,1,.626.626A.626.626,0,0,1-138.393,178.233Zm0-.938a.313.313,0,0,0-.313.313.313.313,0,0,0,.313.313.313.313,0,0,0,.313-.313A.313.313,0,0,0-138.393,177.295Z" transform="translate(139.018 -176.982)"/></g><g transform="translate(65.678)"><circle class="b" cx="0.469" cy="0.469" r="0.469" transform="translate(0.156 0.156)"/><path class="b" d="M-153.393,178.233a.626.626,0,0,1-.626-.626.626.626,0,0,1,.626-.626.626.626,0,0,1,.626.626A.626.626,0,0,1-153.393,178.233Zm0-.938a.313.313,0,0,0-.313.313.313.313,0,0,0,.313.313.313.313,0,0,0,.313-.313A.313.313,0,0,0-153.393,177.295Z" transform="translate(154.018 -176.982)"/></g><g transform="translate(60.987)"><circle class="b" cx="0.469" cy="0.469" r="0.469" transform="translate(0.156 0.156)"/><path class="b" d="M-168.393,178.233a.626.626,0,0,1-.626-.626.626.626,0,0,1,.626-.626.626.626,0,0,1,.626.626A.626.626,0,0,1-168.393,178.233Zm0-.938a.313.313,0,0,0-.313.313.313.313,0,0,0,.313.313.313.313,0,0,0,.313-.313A.313.313,0,0,0-168.393,177.295Z" transform="translate(169.018 -176.982)"/></g><g transform="translate(56.296)"><circle class="b" cx="0.469" cy="0.469" r="0.469" transform="translate(0.156 0.156)"/><path class="b" d="M-183.393,178.233a.626.626,0,0,1-.626-.626.626.626,0,0,1,.626-.626.626.626,0,0,1,.626.626A.626.626,0,0,1-183.393,178.233Zm0-.938a.313.313,0,0,0-.313.313.313.313,0,0,0,.313.313.313.313,0,0,0,.313-.313A.313.313,0,0,0-183.393,177.295Z" transform="translate(184.018 -176.982)"/></g><g transform="translate(51.604)"><circle class="b" cx="0.469" cy="0.469" r="0.469" transform="translate(0.156 0.156)"/><path class="b" d="M-198.393,178.233a.626.626,0,0,1-.625-.626.626.626,0,0,1,.625-.626.626.626,0,0,1,.626.626A.626.626,0,0,1-198.393,178.233Zm0-.938a.313.313,0,0,0-.313.313.313.313,0,0,0,.313.313.313.313,0,0,0,.313-.313A.313.313,0,0,0-198.393,177.295Z" transform="translate(199.018 -176.982)"/></g><g transform="translate(46.913)"><circle class="b" cx="0.469" cy="0.469" r="0.469" transform="translate(0.156 0.156)"/><path class="b" d="M-213.392,178.233a.626.626,0,0,1-.626-.626.626.626,0,0,1,.626-.626.626.626,0,0,1,.625.626A.626.626,0,0,1-213.392,178.233Zm0-.938a.313.313,0,0,0-.313.313.313.313,0,0,0,.313.313.313.313,0,0,0,.313-.313A.313.313,0,0,0-213.392,177.295Z" transform="translate(214.018 -176.982)"/></g><g transform="translate(42.222)"><circle class="b" cx="0.469" cy="0.469" r="0.469" transform="translate(0.156 0.156)"/><path class="b" d="M-228.393,178.233a.626.626,0,0,1-.625-.626.626.626,0,0,1,.625-.626.626.626,0,0,1,.626.626A.626.626,0,0,1-228.393,178.233Zm0-.938a.313.313,0,0,0-.313.313.313.313,0,0,0,.313.313.313.313,0,0,0,.313-.313A.313.313,0,0,0-228.393,177.295Z" transform="translate(229.018 -176.982)"/></g><g transform="translate(37.53)"><circle class="b" cx="0.469" cy="0.469" r="0.469" transform="translate(0.156 0.156)"/><path class="b" d="M-243.393,178.233a.626.626,0,0,1-.626-.626.626.626,0,0,1,.626-.626.626.626,0,0,1,.625.626A.626.626,0,0,1-243.393,178.233Zm0-.938a.313.313,0,0,0-.313.313.313.313,0,0,0,.313.313.313.313,0,0,0,.313-.313A.313.313,0,0,0-243.393,177.295Z" transform="translate(244.018 -176.982)"/></g><g transform="translate(32.839)"><circle class="b" cx="0.469" cy="0.469" r="0.469" transform="translate(0.156 0.156)"/><path class="b" d="M-258.392,178.233a.626.626,0,0,1-.626-.626.626.626,0,0,1,.626-.626.626.626,0,0,1,.625.626A.626.626,0,0,1-258.392,178.233Zm0-.938a.313.313,0,0,0-.313.313.313.313,0,0,0,.313.313.313.313,0,0,0,.313-.313A.313.313,0,0,0-258.392,177.295Z" transform="translate(259.018 -176.982)"/></g><g transform="translate(28.148)"><circle class="b" cx="0.469" cy="0.469" r="0.469" transform="translate(0.156 0.156)"/><path class="b" d="M-273.392,178.233a.626.626,0,0,1-.626-.626.626.626,0,0,1,.626-.626.626.626,0,0,1,.625.626A.626.626,0,0,1-273.392,178.233Zm0-.938a.313.313,0,0,0-.313.313.313.313,0,0,0,.313.313.313.313,0,0,0,.313-.313A.313.313,0,0,0-273.392,177.295Z" transform="translate(274.018 -176.982)"/></g><g transform="translate(23.457)"><circle class="b" cx="0.469" cy="0.469" r="0.469" transform="translate(0.156 0.156)"/><path class="b" d="M-288.393,178.233a.626.626,0,0,1-.625-.626.626.626,0,0,1,.625-.626.626.626,0,0,1,.626.626A.626.626,0,0,1-288.393,178.233Zm0-.938a.313.313,0,0,0-.313.313.313.313,0,0,0,.313.313.313.313,0,0,0,.313-.313A.313.313,0,0,0-288.393,177.295Z" transform="translate(289.018 -176.982)"/></g><g transform="translate(18.765)"><circle class="b" cx="0.469" cy="0.469" r="0.469" transform="translate(0.156 0.156)"/><path class="b" d="M-303.393,178.233a.626.626,0,0,1-.625-.626.626.626,0,0,1,.625-.626.626.626,0,0,1,.625.626A.626.626,0,0,1-303.393,178.233Zm0-.938a.313.313,0,0,0-.313.313.313.313,0,0,0,.313.313.313.313,0,0,0,.313-.313A.313.313,0,0,0-303.393,177.295Z" transform="translate(304.018 -176.982)"/></g><g transform="translate(14.074)"><circle class="b" cx="0.469" cy="0.469" r="0.469" transform="translate(0.156 0.156)"/><path class="b" d="M-318.393,178.233a.626.626,0,0,1-.625-.626.626.626,0,0,1,.625-.626.626.626,0,0,1,.626.626A.626.626,0,0,1-318.393,178.233Zm0-.938a.313.313,0,0,0-.313.313.313.313,0,0,0,.313.313.313.313,0,0,0,.313-.313A.313.313,0,0,0-318.393,177.295Z" transform="translate(319.018 -176.982)"/></g><g transform="translate(9.383)"><circle class="b" cx="0.469" cy="0.469" r="0.469" transform="translate(0.156 0.156)"/><path class="b" d="M-333.393,178.233a.626.626,0,0,1-.625-.626.626.626,0,0,1,.625-.626.626.626,0,0,1,.626.626A.626.626,0,0,1-333.393,178.233Zm0-.938a.313.313,0,0,0-.313.313.313.313,0,0,0,.313.313.313.313,0,0,0,.313-.313A.313.313,0,0,0-333.393,177.295Z" transform="translate(334.018 -176.982)"/></g><g transform="translate(4.691)"><circle class="b" cx="0.469" cy="0.469" r="0.469" transform="translate(0.156 0.156)"/><path class="b" d="M-348.392,178.233a.626.626,0,0,1-.626-.626.626.626,0,0,1,.626-.626.626.626,0,0,1,.625.626A.626.626,0,0,1-348.392,178.233Zm0-.938a.313.313,0,0,0-.313.313.313.313,0,0,0,.313.313.313.313,0,0,0,.313-.313A.313.313,0,0,0-348.392,177.295Z" transform="translate(349.018 -176.982)"/></g><circle class="b" cx="0.469" cy="0.469" r="0.469" transform="translate(0.156 0.156)"/><path class="b" d="M-363.392,178.233a.626.626,0,0,1-.626-.626.626.626,0,0,1,.626-.626.626.626,0,0,1,.625.626A.626.626,0,0,1-363.392,178.233Zm0-.938a.313.313,0,0,0-.313.313.313.313,0,0,0,.313.313.313.313,0,0,0,.313-.313A.313.313,0,0,0-363.392,177.295Z" transform="translate(364.018 -176.982)"/></g><g transform="translate(0 9.383)"><g transform="translate(93.826)"><circle class="b" cx="0.469" cy="0.469" r="0.469" transform="translate(0.156 0.156)"/><path class="b" d="M-63.392,193.233a.626.626,0,0,1-.626-.626.626.626,0,0,1,.626-.626.626.626,0,0,1,.626.626A.626.626,0,0,1-63.392,193.233Zm0-.938a.313.313,0,0,0-.313.313.313.313,0,0,0,.313.313.313.313,0,0,0,.313-.313A.313.313,0,0,0-63.392,192.295Z" transform="translate(64.018 -191.982)"/></g><g transform="translate(89.135)"><g transform="translate(0)"><circle class="b" cx="0.469" cy="0.469" r="0.469" transform="translate(0.156 0.156)"/><path class="b" d="M-78.392,193.233a.626.626,0,0,1-.626-.626.626.626,0,0,1,.626-.626.626.626,0,0,1,.626.626A.626.626,0,0,1-78.392,193.233Zm0-.938a.313.313,0,0,0-.313.313.313.313,0,0,0,.313.313.313.313,0,0,0,.313-.313A.313.313,0,0,0-78.392,192.295Z" transform="translate(79.018 -191.982)"/></g></g><g transform="translate(84.443)"><g transform="translate(0)"><circle class="b" cx="0.469" cy="0.469" r="0.469" transform="translate(0.156 0.156)"/><path class="b" d="M-93.393,193.233a.626.626,0,0,1-.626-.626.626.626,0,0,1,.626-.626.626.626,0,0,1,.626.626A.626.626,0,0,1-93.393,193.233Zm0-.938a.313.313,0,0,0-.313.313.313.313,0,0,0,.313.313.313.313,0,0,0,.313-.313A.313.313,0,0,0-93.393,192.295Z" transform="translate(94.018 -191.982)"/></g></g><g transform="translate(79.752)"><g transform="translate(0)"><circle class="b" cx="0.469" cy="0.469" r="0.469" transform="translate(0.156 0.156)"/><path class="b" d="M-108.393,193.233a.626.626,0,0,1-.625-.626.626.626,0,0,1,.625-.626.626.626,0,0,1,.626.626A.626.626,0,0,1-108.393,193.233Zm0-.938a.313.313,0,0,0-.313.313.313.313,0,0,0,.313.313.313.313,0,0,0,.313-.313A.313.313,0,0,0-108.393,192.295Z" transform="translate(109.018 -191.982)"/></g></g><g transform="translate(75.061)"><circle class="b" cx="0.469" cy="0.469" r="0.469" transform="translate(0.156 0.156)"/><path class="b" d="M-123.393,193.233a.626.626,0,0,1-.626-.626.626.626,0,0,1,.626-.626.626.626,0,0,1,.626.626A.626.626,0,0,1-123.393,193.233Zm0-.938a.313.313,0,0,0-.313.313.313.313,0,0,0,.313.313.313.313,0,0,0,.313-.313A.313.313,0,0,0-123.393,192.295Z" transform="translate(124.018 -191.982)"/></g><g transform="translate(70.37)"><circle class="b" cx="0.469" cy="0.469" r="0.469" transform="translate(0.156 0.156)"/><path class="b" d="M-138.393,193.233a.626.626,0,0,1-.626-.626.626.626,0,0,1,.626-.626.626.626,0,0,1,.626.626A.626.626,0,0,1-138.393,193.233Zm0-.938a.313.313,0,0,0-.313.313.313.313,0,0,0,.313.313.313.313,0,0,0,.313-.313A.313.313,0,0,0-138.393,192.295Z" transform="translate(139.018 -191.982)"/></g><g transform="translate(65.678)"><circle class="b" cx="0.469" cy="0.469" r="0.469" transform="translate(0.156 0.156)"/><path class="b" d="M-153.393,193.233a.626.626,0,0,1-.626-.626.626.626,0,0,1,.626-.626.626.626,0,0,1,.626.626A.626.626,0,0,1-153.393,193.233Zm0-.938a.313.313,0,0,0-.313.313.313.313,0,0,0,.313.313.313.313,0,0,0,.313-.313A.313.313,0,0,0-153.393,192.295Z" transform="translate(154.018 -191.982)"/></g><g transform="translate(60.987)"><circle class="b" cx="0.469" cy="0.469" r="0.469" transform="translate(0.156 0.156)"/><path class="b" d="M-168.393,193.233a.626.626,0,0,1-.626-.626.626.626,0,0,1,.626-.626.626.626,0,0,1,.626.626A.626.626,0,0,1-168.393,193.233Zm0-.938a.313.313,0,0,0-.313.313.313.313,0,0,0,.313.313.313.313,0,0,0,.313-.313A.313.313,0,0,0-168.393,192.295Z" transform="translate(169.018 -191.982)"/></g><g transform="translate(56.296)"><circle class="b" cx="0.469" cy="0.469" r="0.469" transform="translate(0.156 0.156)"/><path class="b" d="M-183.393,193.233a.626.626,0,0,1-.626-.626.626.626,0,0,1,.626-.626.626.626,0,0,1,.626.626A.626.626,0,0,1-183.393,193.233Zm0-.938a.313.313,0,0,0-.313.313.313.313,0,0,0,.313.313.313.313,0,0,0,.313-.313A.313.313,0,0,0-183.393,192.295Z" transform="translate(184.018 -191.982)"/></g><g transform="translate(51.604)"><circle class="b" cx="0.469" cy="0.469" r="0.469" transform="translate(0.156 0.156)"/><path class="b" d="M-198.393,193.233a.626.626,0,0,1-.625-.626.626.626,0,0,1,.625-.626.626.626,0,0,1,.626.626A.626.626,0,0,1-198.393,193.233Zm0-.938a.313.313,0,0,0-.313.313.313.313,0,0,0,.313.313.313.313,0,0,0,.313-.313A.313.313,0,0,0-198.393,192.295Z" transform="translate(199.018 -191.982)"/></g><g transform="translate(46.913)"><circle class="b" cx="0.469" cy="0.469" r="0.469" transform="translate(0.156 0.156)"/><path class="b" d="M-213.392,193.233a.626.626,0,0,1-.626-.626.626.626,0,0,1,.626-.626.626.626,0,0,1,.625.626A.626.626,0,0,1-213.392,193.233Zm0-.938a.313.313,0,0,0-.313.313.313.313,0,0,0,.313.313.313.313,0,0,0,.313-.313A.313.313,0,0,0-213.392,192.295Z" transform="translate(214.018 -191.982)"/></g><g transform="translate(42.222)"><circle class="b" cx="0.469" cy="0.469" r="0.469" transform="translate(0.156 0.156)"/><path class="b" d="M-228.393,193.233a.626.626,0,0,1-.625-.626.626.626,0,0,1,.625-.626.626.626,0,0,1,.626.626A.626.626,0,0,1-228.393,193.233Zm0-.938a.313.313,0,0,0-.313.313.313.313,0,0,0,.313.313.313.313,0,0,0,.313-.313A.313.313,0,0,0-228.393,192.295Z" transform="translate(229.018 -191.982)"/></g><g transform="translate(37.53)"><circle class="b" cx="0.469" cy="0.469" r="0.469" transform="translate(0.156 0.156)"/><path class="b" d="M-243.393,193.233a.626.626,0,0,1-.626-.626.626.626,0,0,1,.626-.626.626.626,0,0,1,.625.626A.626.626,0,0,1-243.393,193.233Zm0-.938a.313.313,0,0,0-.313.313.313.313,0,0,0,.313.313.313.313,0,0,0,.313-.313A.313.313,0,0,0-243.393,192.295Z" transform="translate(244.018 -191.982)"/></g><g transform="translate(32.839)"><circle class="b" cx="0.469" cy="0.469" r="0.469" transform="translate(0.156 0.156)"/><path class="b" d="M-258.392,193.233a.626.626,0,0,1-.626-.626.626.626,0,0,1,.626-.626.626.626,0,0,1,.625.626A.626.626,0,0,1-258.392,193.233Zm0-.938a.313.313,0,0,0-.313.313.313.313,0,0,0,.313.313.313.313,0,0,0,.313-.313A.313.313,0,0,0-258.392,192.295Z" transform="translate(259.018 -191.982)"/></g><g transform="translate(28.148)"><circle class="b" cx="0.469" cy="0.469" r="0.469" transform="translate(0.156 0.156)"/><path class="b" d="M-273.392,193.233a.626.626,0,0,1-.626-.626.626.626,0,0,1,.626-.626.626.626,0,0,1,.625.626A.626.626,0,0,1-273.392,193.233Zm0-.938a.313.313,0,0,0-.313.313.313.313,0,0,0,.313.313.313.313,0,0,0,.313-.313A.313.313,0,0,0-273.392,192.295Z" transform="translate(274.018 -191.982)"/></g><g transform="translate(23.457)"><circle class="b" cx="0.469" cy="0.469" r="0.469" transform="translate(0.156 0.156)"/><path class="b" d="M-288.393,193.233a.626.626,0,0,1-.625-.626.626.626,0,0,1,.625-.626.626.626,0,0,1,.626.626A.626.626,0,0,1-288.393,193.233Zm0-.938a.313.313,0,0,0-.313.313.313.313,0,0,0,.313.313.313.313,0,0,0,.313-.313A.313.313,0,0,0-288.393,192.295Z" transform="translate(289.018 -191.982)"/></g><g transform="translate(18.765)"><circle class="b" cx="0.469" cy="0.469" r="0.469" transform="translate(0.156 0.156)"/><path class="b" d="M-303.393,193.233a.626.626,0,0,1-.625-.626.626.626,0,0,1,.625-.626.626.626,0,0,1,.625.626A.626.626,0,0,1-303.393,193.233Zm0-.938a.313.313,0,0,0-.313.313.313.313,0,0,0,.313.313.313.313,0,0,0,.313-.313A.313.313,0,0,0-303.393,192.295Z" transform="translate(304.018 -191.982)"/></g><g transform="translate(14.074)"><circle class="b" cx="0.469" cy="0.469" r="0.469" transform="translate(0.156 0.156)"/><path class="b" d="M-318.393,193.233a.626.626,0,0,1-.625-.626.626.626,0,0,1,.625-.626.626.626,0,0,1,.626.626A.626.626,0,0,1-318.393,193.233Zm0-.938a.313.313,0,0,0-.313.313.313.313,0,0,0,.313.313.313.313,0,0,0,.313-.313A.313.313,0,0,0-318.393,192.295Z" transform="translate(319.018 -191.982)"/></g><g transform="translate(9.383)"><circle class="b" cx="0.469" cy="0.469" r="0.469" transform="translate(0.156 0.156)"/><path class="b" d="M-333.393,193.233a.626.626,0,0,1-.625-.626.626.626,0,0,1,.625-.626.626.626,0,0,1,.626.626A.626.626,0,0,1-333.393,193.233Zm0-.938a.313.313,0,0,0-.313.313.313.313,0,0,0,.313.313.313.313,0,0,0,.313-.313A.313.313,0,0,0-333.393,192.295Z" transform="translate(334.018 -191.982)"/></g><g transform="translate(4.691)"><circle class="b" cx="0.469" cy="0.469" r="0.469" transform="translate(0.156 0.156)"/><path class="b" d="M-348.392,193.233a.626.626,0,0,1-.626-.626.626.626,0,0,1,.626-.626.626.626,0,0,1,.625.626A.626.626,0,0,1-348.392,193.233Zm0-.938a.313.313,0,0,0-.313.313.313.313,0,0,0,.313.313.313.313,0,0,0,.313-.313A.313.313,0,0,0-348.392,192.295Z" transform="translate(349.018 -191.982)"/></g><circle class="b" cx="0.469" cy="0.469" r="0.469" transform="translate(0.156 0.156)"/><path class="b" d="M-363.392,193.233a.626.626,0,0,1-.626-.626.626.626,0,0,1,.626-.626.626.626,0,0,1,.625.626A.626.626,0,0,1-363.392,193.233Zm0-.938a.313.313,0,0,0-.313.313.313.313,0,0,0,.313.313.313.313,0,0,0,.313-.313A.313.313,0,0,0-363.392,192.295Z" transform="translate(364.018 -191.982)"/></g><g transform="translate(0 14.074)"><g transform="translate(93.826)"><circle class="b" cx="0.469" cy="0.469" r="0.469" transform="translate(0.156 0.156)"/><path class="b" d="M-63.392,208.233a.626.626,0,0,1-.626-.626.626.626,0,0,1,.626-.626.626.626,0,0,1,.626.626A.626.626,0,0,1-63.392,208.233Zm0-.938a.313.313,0,0,0-.313.313.313.313,0,0,0,.313.313.313.313,0,0,0,.313-.313A.313.313,0,0,0-63.392,207.295Z" transform="translate(64.018 -206.982)"/></g><g transform="translate(89.135)"><g transform="translate(0)"><circle class="b" cx="0.469" cy="0.469" r="0.469" transform="translate(0.156 0.156)"/><path class="b" d="M-78.392,208.233a.626.626,0,0,1-.626-.626.626.626,0,0,1,.626-.626.626.626,0,0,1,.626.626A.626.626,0,0,1-78.392,208.233Zm0-.938a.313.313,0,0,0-.313.313.313.313,0,0,0,.313.313.313.313,0,0,0,.313-.313A.313.313,0,0,0-78.392,207.295Z" transform="translate(79.018 -206.982)"/></g></g><g transform="translate(84.443)"><g transform="translate(0)"><circle class="b" cx="0.469" cy="0.469" r="0.469" transform="translate(0.156 0.156)"/><path class="b" d="M-93.393,208.233a.626.626,0,0,1-.626-.626.626.626,0,0,1,.626-.626.626.626,0,0,1,.626.626A.626.626,0,0,1-93.393,208.233Zm0-.938a.313.313,0,0,0-.313.313.313.313,0,0,0,.313.313.313.313,0,0,0,.313-.313A.313.313,0,0,0-93.393,207.295Z" transform="translate(94.018 -206.982)"/></g></g><g transform="translate(79.752)"><g transform="translate(0)"><circle class="b" cx="0.469" cy="0.469" r="0.469" transform="translate(0.156 0.156)"/><path class="b" d="M-108.393,208.233a.626.626,0,0,1-.625-.626.626.626,0,0,1,.625-.626.626.626,0,0,1,.626.626A.626.626,0,0,1-108.393,208.233Zm0-.938a.313.313,0,0,0-.313.313.313.313,0,0,0,.313.313.313.313,0,0,0,.313-.313A.313.313,0,0,0-108.393,207.295Z" transform="translate(109.018 -206.982)"/></g></g><g transform="translate(75.061)"><circle class="b" cx="0.469" cy="0.469" r="0.469" transform="translate(0.156 0.156)"/><path class="b" d="M-123.393,208.233a.626.626,0,0,1-.626-.626.626.626,0,0,1,.626-.626.626.626,0,0,1,.626.626A.626.626,0,0,1-123.393,208.233Zm0-.938a.313.313,0,0,0-.313.313.313.313,0,0,0,.313.313.313.313,0,0,0,.313-.313A.313.313,0,0,0-123.393,207.295Z" transform="translate(124.018 -206.982)"/></g><g transform="translate(70.37)"><circle class="b" cx="0.469" cy="0.469" r="0.469" transform="translate(0.156 0.156)"/><path class="b" d="M-138.393,208.233a.626.626,0,0,1-.626-.626.626.626,0,0,1,.626-.626.626.626,0,0,1,.626.626A.626.626,0,0,1-138.393,208.233Zm0-.938a.313.313,0,0,0-.313.313.313.313,0,0,0,.313.313.313.313,0,0,0,.313-.313A.313.313,0,0,0-138.393,207.295Z" transform="translate(139.018 -206.982)"/></g><g transform="translate(65.678)"><circle class="b" cx="0.469" cy="0.469" r="0.469" transform="translate(0.156 0.156)"/><path class="b" d="M-153.393,208.233a.626.626,0,0,1-.626-.626.626.626,0,0,1,.626-.626.626.626,0,0,1,.626.626A.626.626,0,0,1-153.393,208.233Zm0-.938a.313.313,0,0,0-.313.313.313.313,0,0,0,.313.313.313.313,0,0,0,.313-.313A.313.313,0,0,0-153.393,207.295Z" transform="translate(154.018 -206.982)"/></g><g transform="translate(60.987)"><circle class="b" cx="0.469" cy="0.469" r="0.469" transform="translate(0.156 0.156)"/><path class="b" d="M-168.393,208.233a.626.626,0,0,1-.626-.626.626.626,0,0,1,.626-.626.626.626,0,0,1,.626.626A.626.626,0,0,1-168.393,208.233Zm0-.938a.313.313,0,0,0-.313.313.313.313,0,0,0,.313.313.313.313,0,0,0,.313-.313A.313.313,0,0,0-168.393,207.295Z" transform="translate(169.018 -206.982)"/></g><g transform="translate(56.296)"><circle class="b" cx="0.469" cy="0.469" r="0.469" transform="translate(0.156 0.156)"/><path class="b" d="M-183.393,208.233a.626.626,0,0,1-.626-.626.626.626,0,0,1,.626-.626.626.626,0,0,1,.626.626A.626.626,0,0,1-183.393,208.233Zm0-.938a.313.313,0,0,0-.313.313.313.313,0,0,0,.313.313.313.313,0,0,0,.313-.313A.313.313,0,0,0-183.393,207.295Z" transform="translate(184.018 -206.982)"/></g><g transform="translate(51.604)"><circle class="b" cx="0.469" cy="0.469" r="0.469" transform="translate(0.156 0.156)"/><path class="b" d="M-198.393,208.233a.626.626,0,0,1-.625-.626.626.626,0,0,1,.625-.626.626.626,0,0,1,.626.626A.626.626,0,0,1-198.393,208.233Zm0-.938a.313.313,0,0,0-.313.313.313.313,0,0,0,.313.313.313.313,0,0,0,.313-.313A.313.313,0,0,0-198.393,207.295Z" transform="translate(199.018 -206.982)"/></g><g transform="translate(46.913)"><circle class="b" cx="0.469" cy="0.469" r="0.469" transform="translate(0.156 0.156)"/><path class="b" d="M-213.392,208.233a.626.626,0,0,1-.626-.626.626.626,0,0,1,.626-.626.626.626,0,0,1,.625.626A.626.626,0,0,1-213.392,208.233Zm0-.938a.313.313,0,0,0-.313.313.313.313,0,0,0,.313.313.313.313,0,0,0,.313-.313A.313.313,0,0,0-213.392,207.295Z" transform="translate(214.018 -206.982)"/></g><g transform="translate(42.222)"><circle class="b" cx="0.469" cy="0.469" r="0.469" transform="translate(0.156 0.156)"/><path class="b" d="M-228.393,208.233a.626.626,0,0,1-.625-.626.626.626,0,0,1,.625-.626.626.626,0,0,1,.626.626A.626.626,0,0,1-228.393,208.233Zm0-.938a.313.313,0,0,0-.313.313.313.313,0,0,0,.313.313.313.313,0,0,0,.313-.313A.313.313,0,0,0-228.393,207.295Z" transform="translate(229.018 -206.982)"/></g><g transform="translate(37.53)"><circle class="b" cx="0.469" cy="0.469" r="0.469" transform="translate(0.156 0.156)"/><path class="b" d="M-243.393,208.233a.626.626,0,0,1-.626-.626.626.626,0,0,1,.626-.626.626.626,0,0,1,.625.626A.626.626,0,0,1-243.393,208.233Zm0-.938a.313.313,0,0,0-.313.313.313.313,0,0,0,.313.313.313.313,0,0,0,.313-.313A.313.313,0,0,0-243.393,207.295Z" transform="translate(244.018 -206.982)"/></g><g transform="translate(32.839)"><circle class="b" cx="0.469" cy="0.469" r="0.469" transform="translate(0.156 0.156)"/><path class="b" d="M-258.392,208.233a.626.626,0,0,1-.626-.626.626.626,0,0,1,.626-.626.626.626,0,0,1,.625.626A.626.626,0,0,1-258.392,208.233Zm0-.938a.313.313,0,0,0-.313.313.313.313,0,0,0,.313.313.313.313,0,0,0,.313-.313A.313.313,0,0,0-258.392,207.295Z" transform="translate(259.018 -206.982)"/></g><g transform="translate(28.148)"><circle class="b" cx="0.469" cy="0.469" r="0.469" transform="translate(0.156 0.156)"/><path class="b" d="M-273.392,208.233a.626.626,0,0,1-.626-.626.626.626,0,0,1,.626-.626.626.626,0,0,1,.625.626A.626.626,0,0,1-273.392,208.233Zm0-.938a.313.313,0,0,0-.313.313.313.313,0,0,0,.313.313.313.313,0,0,0,.313-.313A.313.313,0,0,0-273.392,207.295Z" transform="translate(274.018 -206.982)"/></g><g transform="translate(23.457)"><circle class="b" cx="0.469" cy="0.469" r="0.469" transform="translate(0.156 0.156)"/><path class="b" d="M-288.393,208.233a.626.626,0,0,1-.625-.626.626.626,0,0,1,.625-.626.626.626,0,0,1,.626.626A.626.626,0,0,1-288.393,208.233Zm0-.938a.313.313,0,0,0-.313.313.313.313,0,0,0,.313.313.313.313,0,0,0,.313-.313A.313.313,0,0,0-288.393,207.295Z" transform="translate(289.018 -206.982)"/></g><g transform="translate(18.765)"><circle class="b" cx="0.469" cy="0.469" r="0.469" transform="translate(0.156 0.156)"/><path class="b" d="M-303.393,208.233a.626.626,0,0,1-.625-.626.626.626,0,0,1,.625-.626.626.626,0,0,1,.625.626A.626.626,0,0,1-303.393,208.233Zm0-.938a.313.313,0,0,0-.313.313.313.313,0,0,0,.313.313.313.313,0,0,0,.313-.313A.313.313,0,0,0-303.393,207.295Z" transform="translate(304.018 -206.982)"/></g><g transform="translate(14.074)"><circle class="b" cx="0.469" cy="0.469" r="0.469" transform="translate(0.156 0.156)"/><path class="b" d="M-318.393,208.233a.626.626,0,0,1-.625-.626.626.626,0,0,1,.625-.626.626.626,0,0,1,.626.626A.626.626,0,0,1-318.393,208.233Zm0-.938a.313.313,0,0,0-.313.313.313.313,0,0,0,.313.313.313.313,0,0,0,.313-.313A.313.313,0,0,0-318.393,207.295Z" transform="translate(319.018 -206.982)"/></g><g transform="translate(9.383)"><circle class="b" cx="0.469" cy="0.469" r="0.469" transform="translate(0.156 0.156)"/><path class="b" d="M-333.393,208.233a.626.626,0,0,1-.625-.626.626.626,0,0,1,.625-.626.626.626,0,0,1,.626.626A.626.626,0,0,1-333.393,208.233Zm0-.938a.313.313,0,0,0-.313.313.313.313,0,0,0,.313.313.313.313,0,0,0,.313-.313A.313.313,0,0,0-333.393,207.295Z" transform="translate(334.018 -206.982)"/></g><g transform="translate(4.691)"><circle class="b" cx="0.469" cy="0.469" r="0.469" transform="translate(0.156 0.156)"/><path class="b" d="M-348.392,208.233a.626.626,0,0,1-.626-.626.626.626,0,0,1,.626-.626.626.626,0,0,1,.625.626A.626.626,0,0,1-348.392,208.233Zm0-.938a.313.313,0,0,0-.313.313.313.313,0,0,0,.313.313.313.313,0,0,0,.313-.313A.313.313,0,0,0-348.392,207.295Z" transform="translate(349.018 -206.982)"/></g><circle class="b" cx="0.469" cy="0.469" r="0.469" transform="translate(0.156 0.156)"/><path class="b" d="M-363.392,208.233a.626.626,0,0,1-.626-.626.626.626,0,0,1,.626-.626.626.626,0,0,1,.625.626A.626.626,0,0,1-363.392,208.233Zm0-.938a.313.313,0,0,0-.313.313.313.313,0,0,0,.313.313.313.313,0,0,0,.313-.313A.313.313,0,0,0-363.392,207.295Z" transform="translate(364.018 -206.982)"/></g><g transform="translate(0 18.765)"><g transform="translate(93.826)"><circle class="b" cx="0.469" cy="0.469" r="0.469" transform="translate(0.156 0.156)"/><path class="b" d="M-63.392,223.233a.626.626,0,0,1-.626-.626.626.626,0,0,1,.626-.625.626.626,0,0,1,.626.625A.626.626,0,0,1-63.392,223.233Zm0-.938a.313.313,0,0,0-.313.313.313.313,0,0,0,.313.313.313.313,0,0,0,.313-.313A.313.313,0,0,0-63.392,222.295Z" transform="translate(64.018 -221.982)"/></g><g transform="translate(89.135)"><g transform="translate(0)"><circle class="b" cx="0.469" cy="0.469" r="0.469" transform="translate(0.156 0.156)"/><path class="b" d="M-78.392,223.233a.626.626,0,0,1-.626-.626.626.626,0,0,1,.626-.625.626.626,0,0,1,.626.625A.626.626,0,0,1-78.392,223.233Zm0-.938a.313.313,0,0,0-.313.313.313.313,0,0,0,.313.313.313.313,0,0,0,.313-.313A.313.313,0,0,0-78.392,222.295Z" transform="translate(79.018 -221.982)"/></g></g><g transform="translate(84.443)"><g transform="translate(0)"><circle class="b" cx="0.469" cy="0.469" r="0.469" transform="translate(0.156 0.156)"/><path class="b" d="M-93.393,223.233a.626.626,0,0,1-.626-.626.626.626,0,0,1,.626-.625.626.626,0,0,1,.626.625A.626.626,0,0,1-93.393,223.233Zm0-.938a.313.313,0,0,0-.313.313.313.313,0,0,0,.313.313.313.313,0,0,0,.313-.313A.313.313,0,0,0-93.393,222.295Z" transform="translate(94.018 -221.982)"/></g></g><g transform="translate(79.752)"><g transform="translate(0)"><circle class="b" cx="0.469" cy="0.469" r="0.469" transform="translate(0.156 0.156)"/><path class="b" d="M-108.393,223.233a.626.626,0,0,1-.625-.626.626.626,0,0,1,.625-.625.626.626,0,0,1,.626.625A.626.626,0,0,1-108.393,223.233Zm0-.938a.313.313,0,0,0-.313.313.313.313,0,0,0,.313.313.313.313,0,0,0,.313-.313A.313.313,0,0,0-108.393,222.295Z" transform="translate(109.018 -221.982)"/></g></g><g transform="translate(75.061)"><circle class="b" cx="0.469" cy="0.469" r="0.469" transform="translate(0.156 0.156)"/><path class="b" d="M-123.393,223.233a.626.626,0,0,1-.626-.626.626.626,0,0,1,.626-.625.626.626,0,0,1,.626.625A.626.626,0,0,1-123.393,223.233Zm0-.938a.313.313,0,0,0-.313.313.313.313,0,0,0,.313.313.313.313,0,0,0,.313-.313A.313.313,0,0,0-123.393,222.295Z" transform="translate(124.018 -221.982)"/></g><g transform="translate(70.37)"><circle class="b" cx="0.469" cy="0.469" r="0.469" transform="translate(0.156 0.156)"/><path class="b" d="M-138.393,223.233a.626.626,0,0,1-.626-.626.626.626,0,0,1,.626-.625.626.626,0,0,1,.626.625A.626.626,0,0,1-138.393,223.233Zm0-.938a.313.313,0,0,0-.313.313.313.313,0,0,0,.313.313.313.313,0,0,0,.313-.313A.313.313,0,0,0-138.393,222.295Z" transform="translate(139.018 -221.982)"/></g><g transform="translate(65.678)"><circle class="b" cx="0.469" cy="0.469" r="0.469" transform="translate(0.156 0.156)"/><path class="b" d="M-153.393,223.233a.626.626,0,0,1-.626-.626.626.626,0,0,1,.626-.625.626.626,0,0,1,.626.625A.626.626,0,0,1-153.393,223.233Zm0-.938a.313.313,0,0,0-.313.313.313.313,0,0,0,.313.313.313.313,0,0,0,.313-.313A.313.313,0,0,0-153.393,222.295Z" transform="translate(154.018 -221.982)"/></g><g transform="translate(60.987)"><circle class="b" cx="0.469" cy="0.469" r="0.469" transform="translate(0.156 0.156)"/><path class="b" d="M-168.393,223.233a.626.626,0,0,1-.626-.626.626.626,0,0,1,.626-.625.626.626,0,0,1,.626.625A.626.626,0,0,1-168.393,223.233Zm0-.938a.313.313,0,0,0-.313.313.313.313,0,0,0,.313.313.313.313,0,0,0,.313-.313A.313.313,0,0,0-168.393,222.295Z" transform="translate(169.018 -221.982)"/></g><g transform="translate(56.296)"><circle class="b" cx="0.469" cy="0.469" r="0.469" transform="translate(0.156 0.156)"/><path class="b" d="M-183.393,223.233a.626.626,0,0,1-.626-.626.626.626,0,0,1,.626-.625.626.626,0,0,1,.626.625A.626.626,0,0,1-183.393,223.233Zm0-.938a.313.313,0,0,0-.313.313.313.313,0,0,0,.313.313.313.313,0,0,0,.313-.313A.313.313,0,0,0-183.393,222.295Z" transform="translate(184.018 -221.982)"/></g><g transform="translate(51.604)"><circle class="b" cx="0.469" cy="0.469" r="0.469" transform="translate(0.156 0.156)"/><path class="b" d="M-198.393,223.233a.626.626,0,0,1-.625-.626.626.626,0,0,1,.625-.625.626.626,0,0,1,.626.625A.626.626,0,0,1-198.393,223.233Zm0-.938a.313.313,0,0,0-.313.313.313.313,0,0,0,.313.313.313.313,0,0,0,.313-.313A.313.313,0,0,0-198.393,222.295Z" transform="translate(199.018 -221.982)"/></g><g transform="translate(46.913)"><circle class="b" cx="0.469" cy="0.469" r="0.469" transform="translate(0.156 0.156)"/><path class="b" d="M-213.392,223.233a.626.626,0,0,1-.626-.626.626.626,0,0,1,.626-.625.626.626,0,0,1,.625.625A.626.626,0,0,1-213.392,223.233Zm0-.938a.313.313,0,0,0-.313.313.313.313,0,0,0,.313.313.313.313,0,0,0,.313-.313A.313.313,0,0,0-213.392,222.295Z" transform="translate(214.018 -221.982)"/></g><g transform="translate(42.222)"><circle class="b" cx="0.469" cy="0.469" r="0.469" transform="translate(0.156 0.156)"/><path class="b" d="M-228.393,223.233a.626.626,0,0,1-.625-.626.626.626,0,0,1,.625-.625.626.626,0,0,1,.626.625A.626.626,0,0,1-228.393,223.233Zm0-.938a.313.313,0,0,0-.313.313.313.313,0,0,0,.313.313.313.313,0,0,0,.313-.313A.313.313,0,0,0-228.393,222.295Z" transform="translate(229.018 -221.982)"/></g><g transform="translate(37.53)"><circle class="b" cx="0.469" cy="0.469" r="0.469" transform="translate(0.156 0.156)"/><path class="b" d="M-243.393,223.233a.626.626,0,0,1-.626-.626.626.626,0,0,1,.626-.625.626.626,0,0,1,.625.625A.626.626,0,0,1-243.393,223.233Zm0-.938a.313.313,0,0,0-.313.313.313.313,0,0,0,.313.313.313.313,0,0,0,.313-.313A.313.313,0,0,0-243.393,222.295Z" transform="translate(244.018 -221.982)"/></g><g transform="translate(32.839)"><circle class="b" cx="0.469" cy="0.469" r="0.469" transform="translate(0.156 0.156)"/><path class="b" d="M-258.392,223.233a.626.626,0,0,1-.626-.626.626.626,0,0,1,.626-.625.626.626,0,0,1,.625.625A.626.626,0,0,1-258.392,223.233Zm0-.938a.313.313,0,0,0-.313.313.313.313,0,0,0,.313.313.313.313,0,0,0,.313-.313A.313.313,0,0,0-258.392,222.295Z" transform="translate(259.018 -221.982)"/></g><g transform="translate(28.148)"><circle class="b" cx="0.469" cy="0.469" r="0.469" transform="translate(0.156 0.156)"/><path class="b" d="M-273.392,223.233a.626.626,0,0,1-.626-.626.626.626,0,0,1,.626-.625.626.626,0,0,1,.625.625A.626.626,0,0,1-273.392,223.233Zm0-.938a.313.313,0,0,0-.313.313.313.313,0,0,0,.313.313.313.313,0,0,0,.313-.313A.313.313,0,0,0-273.392,222.295Z" transform="translate(274.018 -221.982)"/></g><g transform="translate(23.457)"><circle class="b" cx="0.469" cy="0.469" r="0.469" transform="translate(0.156 0.156)"/><path class="b" d="M-288.393,223.233a.626.626,0,0,1-.625-.626.626.626,0,0,1,.625-.625.626.626,0,0,1,.626.625A.626.626,0,0,1-288.393,223.233Zm0-.938a.313.313,0,0,0-.313.313.313.313,0,0,0,.313.313.313.313,0,0,0,.313-.313A.313.313,0,0,0-288.393,222.295Z" transform="translate(289.018 -221.982)"/></g><g transform="translate(18.765)"><circle class="b" cx="0.469" cy="0.469" r="0.469" transform="translate(0.156 0.156)"/><path class="b" d="M-303.393,223.233a.626.626,0,0,1-.625-.626.626.626,0,0,1,.625-.625.626.626,0,0,1,.625.625A.626.626,0,0,1-303.393,223.233Zm0-.938a.313.313,0,0,0-.313.313.313.313,0,0,0,.313.313.313.313,0,0,0,.313-.313A.313.313,0,0,0-303.393,222.295Z" transform="translate(304.018 -221.982)"/></g><g transform="translate(14.074)"><circle class="b" cx="0.469" cy="0.469" r="0.469" transform="translate(0.156 0.156)"/><path class="b" d="M-318.393,223.233a.626.626,0,0,1-.625-.626.626.626,0,0,1,.625-.625.626.626,0,0,1,.626.625A.626.626,0,0,1-318.393,223.233Zm0-.938a.313.313,0,0,0-.313.313.313.313,0,0,0,.313.313.313.313,0,0,0,.313-.313A.313.313,0,0,0-318.393,222.295Z" transform="translate(319.018 -221.982)"/></g><g transform="translate(9.383)"><circle class="b" cx="0.469" cy="0.469" r="0.469" transform="translate(0.156 0.156)"/><path class="b" d="M-333.393,223.233a.626.626,0,0,1-.625-.626.626.626,0,0,1,.625-.625.626.626,0,0,1,.626.625A.626.626,0,0,1-333.393,223.233Zm0-.938a.313.313,0,0,0-.313.313.313.313,0,0,0,.313.313.313.313,0,0,0,.313-.313A.313.313,0,0,0-333.393,222.295Z" transform="translate(334.018 -221.982)"/></g><g transform="translate(4.691)"><circle class="b" cx="0.469" cy="0.469" r="0.469" transform="translate(0.156 0.156)"/><path class="b" d="M-348.392,223.233a.626.626,0,0,1-.626-.626.626.626,0,0,1,.626-.625.626.626,0,0,1,.625.625A.626.626,0,0,1-348.392,223.233Zm0-.938a.313.313,0,0,0-.313.313.313.313,0,0,0,.313.313.313.313,0,0,0,.313-.313A.313.313,0,0,0-348.392,222.295Z" transform="translate(349.018 -221.982)"/></g><circle class="b" cx="0.469" cy="0.469" r="0.469" transform="translate(0.156 0.156)"/><path class="b" d="M-363.392,223.233a.626.626,0,0,1-.626-.626.626.626,0,0,1,.626-.625.626.626,0,0,1,.625.625A.626.626,0,0,1-363.392,223.233Zm0-.938a.313.313,0,0,0-.313.313.313.313,0,0,0,.313.313.313.313,0,0,0,.313-.313A.313.313,0,0,0-363.392,222.295Z" transform="translate(364.018 -221.982)"/></g><g transform="translate(0 23.457)"><g transform="translate(93.826)"><circle class="b" cx="0.469" cy="0.469" r="0.469" transform="translate(0.156 0.156)"/><path class="b" d="M-63.392,238.233a.626.626,0,0,1-.626-.626.626.626,0,0,1,.626-.625.626.626,0,0,1,.626.625A.626.626,0,0,1-63.392,238.233Zm0-.938a.313.313,0,0,0-.313.313.313.313,0,0,0,.313.313.313.313,0,0,0,.313-.313A.313.313,0,0,0-63.392,237.295Z" transform="translate(64.018 -236.982)"/></g><g transform="translate(89.135)"><g transform="translate(0)"><circle class="b" cx="0.469" cy="0.469" r="0.469" transform="translate(0.156 0.156)"/><path class="b" d="M-78.392,238.233a.626.626,0,0,1-.626-.626.626.626,0,0,1,.626-.625.626.626,0,0,1,.626.625A.626.626,0,0,1-78.392,238.233Zm0-.938a.313.313,0,0,0-.313.313.313.313,0,0,0,.313.313.313.313,0,0,0,.313-.313A.313.313,0,0,0-78.392,237.295Z" transform="translate(79.018 -236.982)"/></g></g><g transform="translate(84.443)"><g transform="translate(0)"><circle class="b" cx="0.469" cy="0.469" r="0.469" transform="translate(0.156 0.156)"/><path class="b" d="M-93.393,238.233a.626.626,0,0,1-.626-.626.626.626,0,0,1,.626-.625.626.626,0,0,1,.626.625A.626.626,0,0,1-93.393,238.233Zm0-.938a.313.313,0,0,0-.313.313.313.313,0,0,0,.313.313.313.313,0,0,0,.313-.313A.313.313,0,0,0-93.393,237.295Z" transform="translate(94.018 -236.982)"/></g></g><g transform="translate(79.752)"><g transform="translate(0)"><circle class="b" cx="0.469" cy="0.469" r="0.469" transform="translate(0.156 0.156)"/><path class="b" d="M-108.393,238.233a.626.626,0,0,1-.625-.626.626.626,0,0,1,.625-.625.626.626,0,0,1,.626.625A.626.626,0,0,1-108.393,238.233Zm0-.938a.313.313,0,0,0-.313.313.313.313,0,0,0,.313.313.313.313,0,0,0,.313-.313A.313.313,0,0,0-108.393,237.295Z" transform="translate(109.018 -236.982)"/></g></g><g transform="translate(75.061)"><circle class="b" cx="0.469" cy="0.469" r="0.469" transform="translate(0.156 0.156)"/><path class="b" d="M-123.393,238.233a.626.626,0,0,1-.626-.626.626.626,0,0,1,.626-.625.626.626,0,0,1,.626.625A.626.626,0,0,1-123.393,238.233Zm0-.938a.313.313,0,0,0-.313.313.313.313,0,0,0,.313.313.313.313,0,0,0,.313-.313A.313.313,0,0,0-123.393,237.295Z" transform="translate(124.018 -236.982)"/></g><g transform="translate(70.37)"><circle class="b" cx="0.469" cy="0.469" r="0.469" transform="translate(0.156 0.156)"/><path class="b" d="M-138.393,238.233a.626.626,0,0,1-.626-.626.626.626,0,0,1,.626-.625.626.626,0,0,1,.626.625A.626.626,0,0,1-138.393,238.233Zm0-.938a.313.313,0,0,0-.313.313.313.313,0,0,0,.313.313.313.313,0,0,0,.313-.313A.313.313,0,0,0-138.393,237.295Z" transform="translate(139.018 -236.982)"/></g><g transform="translate(65.678)"><circle class="b" cx="0.469" cy="0.469" r="0.469" transform="translate(0.156 0.156)"/><path class="b" d="M-153.393,238.233a.626.626,0,0,1-.626-.626.626.626,0,0,1,.626-.625.626.626,0,0,1,.626.625A.626.626,0,0,1-153.393,238.233Zm0-.938a.313.313,0,0,0-.313.313.313.313,0,0,0,.313.313.313.313,0,0,0,.313-.313A.313.313,0,0,0-153.393,237.295Z" transform="translate(154.018 -236.982)"/></g><g transform="translate(60.987)"><circle class="b" cx="0.469" cy="0.469" r="0.469" transform="translate(0.156 0.156)"/><path class="b" d="M-168.393,238.233a.626.626,0,0,1-.626-.626.626.626,0,0,1,.626-.625.626.626,0,0,1,.626.625A.626.626,0,0,1-168.393,238.233Zm0-.938a.313.313,0,0,0-.313.313.313.313,0,0,0,.313.313.313.313,0,0,0,.313-.313A.313.313,0,0,0-168.393,237.295Z" transform="translate(169.018 -236.982)"/></g><g transform="translate(56.296)"><circle class="b" cx="0.469" cy="0.469" r="0.469" transform="translate(0.156 0.156)"/><path class="b" d="M-183.393,238.233a.626.626,0,0,1-.626-.626.626.626,0,0,1,.626-.625.626.626,0,0,1,.626.625A.626.626,0,0,1-183.393,238.233Zm0-.938a.313.313,0,0,0-.313.313.313.313,0,0,0,.313.313.313.313,0,0,0,.313-.313A.313.313,0,0,0-183.393,237.295Z" transform="translate(184.018 -236.982)"/></g><g transform="translate(51.604)"><circle class="b" cx="0.469" cy="0.469" r="0.469" transform="translate(0.156 0.156)"/><path class="b" d="M-198.393,238.233a.626.626,0,0,1-.625-.626.626.626,0,0,1,.625-.625.626.626,0,0,1,.626.625A.626.626,0,0,1-198.393,238.233Zm0-.938a.313.313,0,0,0-.313.313.313.313,0,0,0,.313.313.313.313,0,0,0,.313-.313A.313.313,0,0,0-198.393,237.295Z" transform="translate(199.018 -236.982)"/></g><g transform="translate(46.913)"><circle class="b" cx="0.469" cy="0.469" r="0.469" transform="translate(0.156 0.156)"/><path class="b" d="M-213.392,238.233a.626.626,0,0,1-.626-.626.626.626,0,0,1,.626-.625.626.626,0,0,1,.625.625A.626.626,0,0,1-213.392,238.233Zm0-.938a.313.313,0,0,0-.313.313.313.313,0,0,0,.313.313.313.313,0,0,0,.313-.313A.313.313,0,0,0-213.392,237.295Z" transform="translate(214.018 -236.982)"/></g><g transform="translate(42.222)"><circle class="b" cx="0.469" cy="0.469" r="0.469" transform="translate(0.156 0.156)"/><path class="b" d="M-228.393,238.233a.626.626,0,0,1-.625-.626.626.626,0,0,1,.625-.625.626.626,0,0,1,.626.625A.626.626,0,0,1-228.393,238.233Zm0-.938a.313.313,0,0,0-.313.313.313.313,0,0,0,.313.313.313.313,0,0,0,.313-.313A.313.313,0,0,0-228.393,237.295Z" transform="translate(229.018 -236.982)"/></g><g transform="translate(37.53)"><circle class="b" cx="0.469" cy="0.469" r="0.469" transform="translate(0.156 0.156)"/><path class="b" d="M-243.393,238.233a.626.626,0,0,1-.626-.626.626.626,0,0,1,.626-.625.626.626,0,0,1,.625.625A.626.626,0,0,1-243.393,238.233Zm0-.938a.313.313,0,0,0-.313.313.313.313,0,0,0,.313.313.313.313,0,0,0,.313-.313A.313.313,0,0,0-243.393,237.295Z" transform="translate(244.018 -236.982)"/></g><g transform="translate(32.839)"><circle class="b" cx="0.469" cy="0.469" r="0.469" transform="translate(0.156 0.156)"/><path class="b" d="M-258.392,238.233a.626.626,0,0,1-.626-.626.626.626,0,0,1,.626-.625.626.626,0,0,1,.625.625A.626.626,0,0,1-258.392,238.233Zm0-.938a.313.313,0,0,0-.313.313.313.313,0,0,0,.313.313.313.313,0,0,0,.313-.313A.313.313,0,0,0-258.392,237.295Z" transform="translate(259.018 -236.982)"/></g><g transform="translate(28.148)"><circle class="b" cx="0.469" cy="0.469" r="0.469" transform="translate(0.156 0.156)"/><path class="b" d="M-273.392,238.233a.626.626,0,0,1-.626-.626.626.626,0,0,1,.626-.625.626.626,0,0,1,.625.625A.626.626,0,0,1-273.392,238.233Zm0-.938a.313.313,0,0,0-.313.313.313.313,0,0,0,.313.313.313.313,0,0,0,.313-.313A.313.313,0,0,0-273.392,237.295Z" transform="translate(274.018 -236.982)"/></g><g transform="translate(23.457)"><circle class="b" cx="0.469" cy="0.469" r="0.469" transform="translate(0.156 0.156)"/><path class="b" d="M-288.393,238.233a.626.626,0,0,1-.625-.626.626.626,0,0,1,.625-.625.626.626,0,0,1,.626.625A.626.626,0,0,1-288.393,238.233Zm0-.938a.313.313,0,0,0-.313.313.313.313,0,0,0,.313.313.313.313,0,0,0,.313-.313A.313.313,0,0,0-288.393,237.295Z" transform="translate(289.018 -236.982)"/></g><g transform="translate(18.765)"><circle class="b" cx="0.469" cy="0.469" r="0.469" transform="translate(0.156 0.156)"/><path class="b" d="M-303.393,238.233a.626.626,0,0,1-.625-.626.626.626,0,0,1,.625-.625.626.626,0,0,1,.625.625A.626.626,0,0,1-303.393,238.233Zm0-.938a.313.313,0,0,0-.313.313.313.313,0,0,0,.313.313.313.313,0,0,0,.313-.313A.313.313,0,0,0-303.393,237.295Z" transform="translate(304.018 -236.982)"/></g><g transform="translate(14.074)"><circle class="b" cx="0.469" cy="0.469" r="0.469" transform="translate(0.156 0.156)"/><path class="b" d="M-318.393,238.233a.626.626,0,0,1-.625-.626.626.626,0,0,1,.625-.625.626.626,0,0,1,.626.625A.626.626,0,0,1-318.393,238.233Zm0-.938a.313.313,0,0,0-.313.313.313.313,0,0,0,.313.313.313.313,0,0,0,.313-.313A.313.313,0,0,0-318.393,237.295Z" transform="translate(319.018 -236.982)"/></g><g transform="translate(9.383)"><circle class="b" cx="0.469" cy="0.469" r="0.469" transform="translate(0.156 0.156)"/><path class="b" d="M-333.393,238.233a.626.626,0,0,1-.625-.626.626.626,0,0,1,.625-.625.626.626,0,0,1,.626.625A.626.626,0,0,1-333.393,238.233Zm0-.938a.313.313,0,0,0-.313.313.313.313,0,0,0,.313.313.313.313,0,0,0,.313-.313A.313.313,0,0,0-333.393,237.295Z" transform="translate(334.018 -236.982)"/></g><g transform="translate(4.691)"><circle class="b" cx="0.469" cy="0.469" r="0.469" transform="translate(0.156 0.156)"/><path class="b" d="M-348.392,238.233a.626.626,0,0,1-.626-.626.626.626,0,0,1,.626-.625.626.626,0,0,1,.625.625A.626.626,0,0,1-348.392,238.233Zm0-.938a.313.313,0,0,0-.313.313.313.313,0,0,0,.313.313.313.313,0,0,0,.313-.313A.313.313,0,0,0-348.392,237.295Z" transform="translate(349.018 -236.982)"/></g><circle class="b" cx="0.469" cy="0.469" r="0.469" transform="translate(0.156 0.156)"/><path class="b" d="M-363.392,238.233a.626.626,0,0,1-.626-.626.626.626,0,0,1,.626-.625.626.626,0,0,1,.625.625A.626.626,0,0,1-363.392,238.233Zm0-.938a.313.313,0,0,0-.313.313.313.313,0,0,0,.313.313.313.313,0,0,0,.313-.313A.313.313,0,0,0-363.392,237.295Z" transform="translate(364.018 -236.982)"/></g><g transform="translate(0 28.148)"><g transform="translate(93.826)"><circle class="b" cx="0.469" cy="0.469" r="0.469" transform="translate(0.156 0.156)"/><path class="b" d="M-63.392,253.233a.626.626,0,0,1-.626-.626.626.626,0,0,1,.626-.625.626.626,0,0,1,.626.625A.626.626,0,0,1-63.392,253.233Zm0-.938a.313.313,0,0,0-.313.313.313.313,0,0,0,.313.313.313.313,0,0,0,.313-.313A.313.313,0,0,0-63.392,252.295Z" transform="translate(64.018 -251.982)"/></g><g transform="translate(89.135)"><g transform="translate(0)"><circle class="b" cx="0.469" cy="0.469" r="0.469" transform="translate(0.156 0.156)"/><path class="b" d="M-78.392,253.233a.626.626,0,0,1-.626-.626.626.626,0,0,1,.626-.625.626.626,0,0,1,.626.625A.626.626,0,0,1-78.392,253.233Zm0-.938a.313.313,0,0,0-.313.313.313.313,0,0,0,.313.313.313.313,0,0,0,.313-.313A.313.313,0,0,0-78.392,252.295Z" transform="translate(79.018 -251.982)"/></g></g><g transform="translate(84.443)"><g transform="translate(0)"><circle class="b" cx="0.469" cy="0.469" r="0.469" transform="translate(0.156 0.156)"/><path class="b" d="M-93.393,253.233a.626.626,0,0,1-.626-.626.626.626,0,0,1,.626-.625.626.626,0,0,1,.626.625A.626.626,0,0,1-93.393,253.233Zm0-.938a.313.313,0,0,0-.313.313.313.313,0,0,0,.313.313.313.313,0,0,0,.313-.313A.313.313,0,0,0-93.393,252.295Z" transform="translate(94.018 -251.982)"/></g></g><g transform="translate(79.752)"><g transform="translate(0)"><circle class="b" cx="0.469" cy="0.469" r="0.469" transform="translate(0.156 0.156)"/><path class="b" d="M-108.393,253.233a.626.626,0,0,1-.625-.626.626.626,0,0,1,.625-.625.626.626,0,0,1,.626.625A.626.626,0,0,1-108.393,253.233Zm0-.938a.313.313,0,0,0-.313.313.313.313,0,0,0,.313.313.313.313,0,0,0,.313-.313A.313.313,0,0,0-108.393,252.295Z" transform="translate(109.018 -251.982)"/></g></g><g transform="translate(75.061)"><circle class="b" cx="0.469" cy="0.469" r="0.469" transform="translate(0.156 0.156)"/><path class="b" d="M-123.393,253.233a.626.626,0,0,1-.626-.626.626.626,0,0,1,.626-.625.626.626,0,0,1,.626.625A.626.626,0,0,1-123.393,253.233Zm0-.938a.313.313,0,0,0-.313.313.313.313,0,0,0,.313.313.313.313,0,0,0,.313-.313A.313.313,0,0,0-123.393,252.295Z" transform="translate(124.018 -251.982)"/></g><g transform="translate(70.37)"><circle class="b" cx="0.469" cy="0.469" r="0.469" transform="translate(0.156 0.156)"/><path class="b" d="M-138.393,253.233a.626.626,0,0,1-.626-.626.626.626,0,0,1,.626-.625.626.626,0,0,1,.626.625A.626.626,0,0,1-138.393,253.233Zm0-.938a.313.313,0,0,0-.313.313.313.313,0,0,0,.313.313.313.313,0,0,0,.313-.313A.313.313,0,0,0-138.393,252.295Z" transform="translate(139.018 -251.982)"/></g><g transform="translate(65.678)"><circle class="b" cx="0.469" cy="0.469" r="0.469" transform="translate(0.156 0.156)"/><path class="b" d="M-153.393,253.233a.626.626,0,0,1-.626-.626.626.626,0,0,1,.626-.625.626.626,0,0,1,.626.625A.626.626,0,0,1-153.393,253.233Zm0-.938a.313.313,0,0,0-.313.313.313.313,0,0,0,.313.313.313.313,0,0,0,.313-.313A.313.313,0,0,0-153.393,252.295Z" transform="translate(154.018 -251.982)"/></g><g transform="translate(60.987)"><circle class="b" cx="0.469" cy="0.469" r="0.469" transform="translate(0.156 0.156)"/><path class="b" d="M-168.393,253.233a.626.626,0,0,1-.626-.626.626.626,0,0,1,.626-.625.626.626,0,0,1,.626.625A.626.626,0,0,1-168.393,253.233Zm0-.938a.313.313,0,0,0-.313.313.313.313,0,0,0,.313.313.313.313,0,0,0,.313-.313A.313.313,0,0,0-168.393,252.295Z" transform="translate(169.018 -251.982)"/></g><g transform="translate(56.296)"><circle class="b" cx="0.469" cy="0.469" r="0.469" transform="translate(0.156 0.156)"/><path class="b" d="M-183.393,253.233a.626.626,0,0,1-.626-.626.626.626,0,0,1,.626-.625.626.626,0,0,1,.626.625A.626.626,0,0,1-183.393,253.233Zm0-.938a.313.313,0,0,0-.313.313.313.313,0,0,0,.313.313.313.313,0,0,0,.313-.313A.313.313,0,0,0-183.393,252.295Z" transform="translate(184.018 -251.982)"/></g><g transform="translate(51.604)"><circle class="b" cx="0.469" cy="0.469" r="0.469" transform="translate(0.156 0.156)"/><path class="b" d="M-198.393,253.233a.626.626,0,0,1-.625-.626.626.626,0,0,1,.625-.625.626.626,0,0,1,.626.625A.626.626,0,0,1-198.393,253.233Zm0-.938a.313.313,0,0,0-.313.313.313.313,0,0,0,.313.313.313.313,0,0,0,.313-.313A.313.313,0,0,0-198.393,252.295Z" transform="translate(199.018 -251.982)"/></g><g transform="translate(46.913)"><circle class="b" cx="0.469" cy="0.469" r="0.469" transform="translate(0.156 0.156)"/><path class="b" d="M-213.392,253.233a.626.626,0,0,1-.626-.626.626.626,0,0,1,.626-.625.626.626,0,0,1,.625.625A.626.626,0,0,1-213.392,253.233Zm0-.938a.313.313,0,0,0-.313.313.313.313,0,0,0,.313.313.313.313,0,0,0,.313-.313A.313.313,0,0,0-213.392,252.295Z" transform="translate(214.018 -251.982)"/></g><g transform="translate(42.222)"><circle class="b" cx="0.469" cy="0.469" r="0.469" transform="translate(0.156 0.156)"/><path class="b" d="M-228.393,253.233a.626.626,0,0,1-.625-.626.626.626,0,0,1,.625-.625.626.626,0,0,1,.626.625A.626.626,0,0,1-228.393,253.233Zm0-.938a.313.313,0,0,0-.313.313.313.313,0,0,0,.313.313.313.313,0,0,0,.313-.313A.313.313,0,0,0-228.393,252.295Z" transform="translate(229.018 -251.982)"/></g><g transform="translate(37.53)"><circle class="b" cx="0.469" cy="0.469" r="0.469" transform="translate(0.156 0.156)"/><path class="b" d="M-243.393,253.233a.626.626,0,0,1-.626-.626.626.626,0,0,1,.626-.625.626.626,0,0,1,.625.625A.626.626,0,0,1-243.393,253.233Zm0-.938a.313.313,0,0,0-.313.313.313.313,0,0,0,.313.313.313.313,0,0,0,.313-.313A.313.313,0,0,0-243.393,252.295Z" transform="translate(244.018 -251.982)"/></g><g transform="translate(32.839)"><circle class="b" cx="0.469" cy="0.469" r="0.469" transform="translate(0.156 0.156)"/><path class="b" d="M-258.392,253.233a.626.626,0,0,1-.626-.626.626.626,0,0,1,.626-.625.626.626,0,0,1,.625.625A.626.626,0,0,1-258.392,253.233Zm0-.938a.313.313,0,0,0-.313.313.313.313,0,0,0,.313.313.313.313,0,0,0,.313-.313A.313.313,0,0,0-258.392,252.295Z" transform="translate(259.018 -251.982)"/></g><g transform="translate(28.148)"><circle class="b" cx="0.469" cy="0.469" r="0.469" transform="translate(0.156 0.156)"/><path class="b" d="M-273.392,253.233a.626.626,0,0,1-.626-.626.626.626,0,0,1,.626-.625.626.626,0,0,1,.625.625A.626.626,0,0,1-273.392,253.233Zm0-.938a.313.313,0,0,0-.313.313.313.313,0,0,0,.313.313.313.313,0,0,0,.313-.313A.313.313,0,0,0-273.392,252.295Z" transform="translate(274.018 -251.982)"/></g><g transform="translate(23.457)"><circle class="b" cx="0.469" cy="0.469" r="0.469" transform="translate(0.156 0.156)"/><path class="b" d="M-288.393,253.233a.626.626,0,0,1-.625-.626.626.626,0,0,1,.625-.625.626.626,0,0,1,.626.625A.626.626,0,0,1-288.393,253.233Zm0-.938a.313.313,0,0,0-.313.313.313.313,0,0,0,.313.313.313.313,0,0,0,.313-.313A.313.313,0,0,0-288.393,252.295Z" transform="translate(289.018 -251.982)"/></g><g transform="translate(18.765)"><circle class="b" cx="0.469" cy="0.469" r="0.469" transform="translate(0.156 0.156)"/><path class="b" d="M-303.393,253.233a.626.626,0,0,1-.625-.626.626.626,0,0,1,.625-.625.626.626,0,0,1,.625.625A.626.626,0,0,1-303.393,253.233Zm0-.938a.313.313,0,0,0-.313.313.313.313,0,0,0,.313.313.313.313,0,0,0,.313-.313A.313.313,0,0,0-303.393,252.295Z" transform="translate(304.018 -251.982)"/></g><g transform="translate(14.074)"><circle class="b" cx="0.469" cy="0.469" r="0.469" transform="translate(0.156 0.156)"/><path class="b" d="M-318.393,253.233a.626.626,0,0,1-.625-.626.626.626,0,0,1,.625-.625.626.626,0,0,1,.626.625A.626.626,0,0,1-318.393,253.233Zm0-.938a.313.313,0,0,0-.313.313.313.313,0,0,0,.313.313.313.313,0,0,0,.313-.313A.313.313,0,0,0-318.393,252.295Z" transform="translate(319.018 -251.982)"/></g><g transform="translate(9.383)"><circle class="b" cx="0.469" cy="0.469" r="0.469" transform="translate(0.156 0.156)"/><path class="b" d="M-333.393,253.233a.626.626,0,0,1-.625-.626.626.626,0,0,1,.625-.625.626.626,0,0,1,.626.625A.626.626,0,0,1-333.393,253.233Zm0-.938a.313.313,0,0,0-.313.313.313.313,0,0,0,.313.313.313.313,0,0,0,.313-.313A.313.313,0,0,0-333.393,252.295Z" transform="translate(334.018 -251.982)"/></g><g transform="translate(4.691)"><circle class="b" cx="0.469" cy="0.469" r="0.469" transform="translate(0.156 0.156)"/><path class="b" d="M-348.392,253.233a.626.626,0,0,1-.626-.626.626.626,0,0,1,.626-.625.626.626,0,0,1,.625.625A.626.626,0,0,1-348.392,253.233Zm0-.938a.313.313,0,0,0-.313.313.313.313,0,0,0,.313.313.313.313,0,0,0,.313-.313A.313.313,0,0,0-348.392,252.295Z" transform="translate(349.018 -251.982)"/></g><circle class="b" cx="0.469" cy="0.469" r="0.469" transform="translate(0.156 0.156)"/><path class="b" d="M-363.392,253.233a.626.626,0,0,1-.626-.626.626.626,0,0,1,.626-.625.626.626,0,0,1,.625.625A.626.626,0,0,1-363.392,253.233Zm0-.938a.313.313,0,0,0-.313.313.313.313,0,0,0,.313.313.313.313,0,0,0,.313-.313A.313.313,0,0,0-363.392,252.295Z" transform="translate(364.018 -251.982)"/></g><g transform="translate(0 32.839)"><g transform="translate(93.826)"><circle class="b" cx="0.469" cy="0.469" r="0.469" transform="translate(0.156 0.156)"/><path class="b" d="M-63.392,268.233a.626.626,0,0,1-.626-.625.626.626,0,0,1,.626-.626.626.626,0,0,1,.626.626A.626.626,0,0,1-63.392,268.233Zm0-.938a.313.313,0,0,0-.313.313.313.313,0,0,0,.313.313.313.313,0,0,0,.313-.313A.313.313,0,0,0-63.392,267.295Z" transform="translate(64.018 -266.982)"/></g><g transform="translate(89.135)"><g transform="translate(0)"><circle class="b" cx="0.469" cy="0.469" r="0.469" transform="translate(0.156 0.156)"/><path class="b" d="M-78.392,268.233a.626.626,0,0,1-.626-.625.626.626,0,0,1,.626-.626.626.626,0,0,1,.626.626A.626.626,0,0,1-78.392,268.233Zm0-.938a.313.313,0,0,0-.313.313.313.313,0,0,0,.313.313.313.313,0,0,0,.313-.313A.313.313,0,0,0-78.392,267.295Z" transform="translate(79.018 -266.982)"/></g></g><g transform="translate(84.443)"><g transform="translate(0)"><circle class="b" cx="0.469" cy="0.469" r="0.469" transform="translate(0.156 0.156)"/><path class="b" d="M-93.393,268.233a.626.626,0,0,1-.626-.625.626.626,0,0,1,.626-.626.626.626,0,0,1,.626.626A.626.626,0,0,1-93.393,268.233Zm0-.938a.313.313,0,0,0-.313.313.313.313,0,0,0,.313.313.313.313,0,0,0,.313-.313A.313.313,0,0,0-93.393,267.295Z" transform="translate(94.018 -266.982)"/></g></g><g transform="translate(79.752)"><g transform="translate(0)"><circle class="b" cx="0.469" cy="0.469" r="0.469" transform="translate(0.156 0.156)"/><path class="b" d="M-108.393,268.233a.626.626,0,0,1-.625-.625.626.626,0,0,1,.625-.626.626.626,0,0,1,.626.626A.626.626,0,0,1-108.393,268.233Zm0-.938a.313.313,0,0,0-.313.313.313.313,0,0,0,.313.313.313.313,0,0,0,.313-.313A.313.313,0,0,0-108.393,267.295Z" transform="translate(109.018 -266.982)"/></g></g><g transform="translate(75.061)"><circle class="b" cx="0.469" cy="0.469" r="0.469" transform="translate(0.156 0.156)"/><path class="b" d="M-123.393,268.233a.626.626,0,0,1-.626-.625.626.626,0,0,1,.626-.626.626.626,0,0,1,.626.626A.626.626,0,0,1-123.393,268.233Zm0-.938a.313.313,0,0,0-.313.313.313.313,0,0,0,.313.313.313.313,0,0,0,.313-.313A.313.313,0,0,0-123.393,267.295Z" transform="translate(124.018 -266.982)"/></g><g transform="translate(70.37)"><circle class="b" cx="0.469" cy="0.469" r="0.469" transform="translate(0.156 0.156)"/><path class="b" d="M-138.393,268.233a.626.626,0,0,1-.626-.625.626.626,0,0,1,.626-.626.626.626,0,0,1,.626.626A.626.626,0,0,1-138.393,268.233Zm0-.938a.313.313,0,0,0-.313.313.313.313,0,0,0,.313.313.313.313,0,0,0,.313-.313A.313.313,0,0,0-138.393,267.295Z" transform="translate(139.018 -266.982)"/></g><g transform="translate(65.678)"><circle class="b" cx="0.469" cy="0.469" r="0.469" transform="translate(0.156 0.156)"/><path class="b" d="M-153.393,268.233a.626.626,0,0,1-.626-.625.626.626,0,0,1,.626-.626.626.626,0,0,1,.626.626A.626.626,0,0,1-153.393,268.233Zm0-.938a.313.313,0,0,0-.313.313.313.313,0,0,0,.313.313.313.313,0,0,0,.313-.313A.313.313,0,0,0-153.393,267.295Z" transform="translate(154.018 -266.982)"/></g><g transform="translate(60.987)"><circle class="b" cx="0.469" cy="0.469" r="0.469" transform="translate(0.156 0.156)"/><path class="b" d="M-168.393,268.233a.626.626,0,0,1-.626-.625.626.626,0,0,1,.626-.626.626.626,0,0,1,.626.626A.626.626,0,0,1-168.393,268.233Zm0-.938a.313.313,0,0,0-.313.313.313.313,0,0,0,.313.313.313.313,0,0,0,.313-.313A.313.313,0,0,0-168.393,267.295Z" transform="translate(169.018 -266.982)"/></g><g transform="translate(56.296)"><circle class="b" cx="0.469" cy="0.469" r="0.469" transform="translate(0.156 0.156)"/><path class="b" d="M-183.393,268.233a.626.626,0,0,1-.626-.625.626.626,0,0,1,.626-.626.626.626,0,0,1,.626.626A.626.626,0,0,1-183.393,268.233Zm0-.938a.313.313,0,0,0-.313.313.313.313,0,0,0,.313.313.313.313,0,0,0,.313-.313A.313.313,0,0,0-183.393,267.295Z" transform="translate(184.018 -266.982)"/></g><g transform="translate(51.604)"><circle class="b" cx="0.469" cy="0.469" r="0.469" transform="translate(0.156 0.156)"/><path class="b" d="M-198.393,268.233a.626.626,0,0,1-.625-.625.626.626,0,0,1,.625-.626.626.626,0,0,1,.626.626A.626.626,0,0,1-198.393,268.233Zm0-.938a.313.313,0,0,0-.313.313.313.313,0,0,0,.313.313.313.313,0,0,0,.313-.313A.313.313,0,0,0-198.393,267.295Z" transform="translate(199.018 -266.982)"/></g><g transform="translate(46.913)"><circle class="b" cx="0.469" cy="0.469" r="0.469" transform="translate(0.156 0.156)"/><path class="b" d="M-213.392,268.233a.626.626,0,0,1-.626-.625.626.626,0,0,1,.626-.626.626.626,0,0,1,.625.626A.626.626,0,0,1-213.392,268.233Zm0-.938a.313.313,0,0,0-.313.313.313.313,0,0,0,.313.313.313.313,0,0,0,.313-.313A.313.313,0,0,0-213.392,267.295Z" transform="translate(214.018 -266.982)"/></g><g transform="translate(42.222)"><circle class="b" cx="0.469" cy="0.469" r="0.469" transform="translate(0.156 0.156)"/><path class="b" d="M-228.393,268.233a.626.626,0,0,1-.625-.625.626.626,0,0,1,.625-.626.626.626,0,0,1,.626.626A.626.626,0,0,1-228.393,268.233Zm0-.938a.313.313,0,0,0-.313.313.313.313,0,0,0,.313.313.313.313,0,0,0,.313-.313A.313.313,0,0,0-228.393,267.295Z" transform="translate(229.018 -266.982)"/></g><g transform="translate(37.53)"><circle class="b" cx="0.469" cy="0.469" r="0.469" transform="translate(0.156 0.156)"/><path class="b" d="M-243.393,268.233a.626.626,0,0,1-.626-.625.626.626,0,0,1,.626-.626.626.626,0,0,1,.625.626A.626.626,0,0,1-243.393,268.233Zm0-.938a.313.313,0,0,0-.313.313.313.313,0,0,0,.313.313.313.313,0,0,0,.313-.313A.313.313,0,0,0-243.393,267.295Z" transform="translate(244.018 -266.982)"/></g><g transform="translate(32.839)"><circle class="b" cx="0.469" cy="0.469" r="0.469" transform="translate(0.156 0.156)"/><path class="b" d="M-258.392,268.233a.626.626,0,0,1-.626-.625.626.626,0,0,1,.626-.626.626.626,0,0,1,.625.626A.626.626,0,0,1-258.392,268.233Zm0-.938a.313.313,0,0,0-.313.313.313.313,0,0,0,.313.313.313.313,0,0,0,.313-.313A.313.313,0,0,0-258.392,267.295Z" transform="translate(259.018 -266.982)"/></g><g transform="translate(28.148)"><circle class="b" cx="0.469" cy="0.469" r="0.469" transform="translate(0.156 0.156)"/><path class="b" d="M-273.392,268.233a.626.626,0,0,1-.626-.625.626.626,0,0,1,.626-.626.626.626,0,0,1,.625.626A.626.626,0,0,1-273.392,268.233Zm0-.938a.313.313,0,0,0-.313.313.313.313,0,0,0,.313.313.313.313,0,0,0,.313-.313A.313.313,0,0,0-273.392,267.295Z" transform="translate(274.018 -266.982)"/></g><g transform="translate(23.457)"><circle class="b" cx="0.469" cy="0.469" r="0.469" transform="translate(0.156 0.156)"/><path class="b" d="M-288.393,268.233a.626.626,0,0,1-.625-.625.626.626,0,0,1,.625-.626.626.626,0,0,1,.626.626A.626.626,0,0,1-288.393,268.233Zm0-.938a.313.313,0,0,0-.313.313.313.313,0,0,0,.313.313.313.313,0,0,0,.313-.313A.313.313,0,0,0-288.393,267.295Z" transform="translate(289.018 -266.982)"/></g><g transform="translate(18.765)"><circle class="b" cx="0.469" cy="0.469" r="0.469" transform="translate(0.156 0.156)"/><path class="b" d="M-303.393,268.233a.626.626,0,0,1-.625-.625.626.626,0,0,1,.625-.626.626.626,0,0,1,.625.626A.626.626,0,0,1-303.393,268.233Zm0-.938a.313.313,0,0,0-.313.313.313.313,0,0,0,.313.313.313.313,0,0,0,.313-.313A.313.313,0,0,0-303.393,267.295Z" transform="translate(304.018 -266.982)"/></g><g transform="translate(14.074)"><circle class="b" cx="0.469" cy="0.469" r="0.469" transform="translate(0.156 0.156)"/><path class="b" d="M-318.393,268.233a.626.626,0,0,1-.625-.625.626.626,0,0,1,.625-.626.626.626,0,0,1,.626.626A.626.626,0,0,1-318.393,268.233Zm0-.938a.313.313,0,0,0-.313.313.313.313,0,0,0,.313.313.313.313,0,0,0,.313-.313A.313.313,0,0,0-318.393,267.295Z" transform="translate(319.018 -266.982)"/></g><g transform="translate(9.383)"><circle class="b" cx="0.469" cy="0.469" r="0.469" transform="translate(0.156 0.156)"/><path class="b" d="M-333.393,268.233a.626.626,0,0,1-.625-.625.626.626,0,0,1,.625-.626.626.626,0,0,1,.626.626A.626.626,0,0,1-333.393,268.233Zm0-.938a.313.313,0,0,0-.313.313.313.313,0,0,0,.313.313.313.313,0,0,0,.313-.313A.313.313,0,0,0-333.393,267.295Z" transform="translate(334.018 -266.982)"/></g><g transform="translate(4.691)"><circle class="b" cx="0.469" cy="0.469" r="0.469" transform="translate(0.156 0.156)"/><path class="b" d="M-348.392,268.233a.626.626,0,0,1-.626-.625.626.626,0,0,1,.626-.626.626.626,0,0,1,.625.626A.626.626,0,0,1-348.392,268.233Zm0-.938a.313.313,0,0,0-.313.313.313.313,0,0,0,.313.313.313.313,0,0,0,.313-.313A.313.313,0,0,0-348.392,267.295Z" transform="translate(349.018 -266.982)"/></g><circle class="b" cx="0.469" cy="0.469" r="0.469" transform="translate(0.156 0.156)"/><path class="b" d="M-363.392,268.233a.626.626,0,0,1-.626-.625.626.626,0,0,1,.626-.626.626.626,0,0,1,.625.626A.626.626,0,0,1-363.392,268.233Zm0-.938a.313.313,0,0,0-.313.313.313.313,0,0,0,.313.313.313.313,0,0,0,.313-.313A.313.313,0,0,0-363.392,267.295Z" transform="translate(364.018 -266.982)"/></g></g><g transform="translate(1628.82 673.397)"><path class="c" d="M-142.544,373.913A6.464,6.464,0,0,1-149,367.456,6.464,6.464,0,0,1-142.544,361a6.464,6.464,0,0,1,6.456,6.456A6.464,6.464,0,0,1-142.544,373.913Zm0-10.33a3.878,3.878,0,0,0-3.874,3.874,3.878,3.878,0,0,0,3.874,3.874,3.878,3.878,0,0,0,3.874-3.874A3.878,3.878,0,0,0-142.544,363.583Z" transform="translate(149 -361)"/></g><g transform="translate(1539.646 762.866)"><g transform="translate(0 0)"><rect class="c" width="7.305" height="2.583" transform="translate(0 5.165) rotate(-44.999)"/></g><g transform="translate(0)"><rect class="c" width="2.583" height="7.305" transform="translate(0 1.826) rotate(-45)"/></g></g><g transform="translate(1521 639)"><path class="c" d="M-459.347,357.337H-558V206h98.653Zm-93.488-5.165h88.323V211.165h-88.323Z" transform="translate(558 -206)"/></g><g transform="translate(1501.5 660.484)"><rect class="c" width="30.991" height="2.583"/></g><g class="e" transform="matrix(1, 0, 0, 1, 1471, 620)"><text class="d" transform="translate(100 111)"><tspan x="-83.138" y="0">JUNGO</tspan></text></g></g></svg>