<svg xmlns="http://www.w3.org/2000/svg" width="190" height="190" viewBox="0 0 190 190"><defs><style>.a{opacity:0;}.b{fill:#fff;}.c{fill:red;}</style></defs><g transform="translate(-1125 -270)"><rect class="a" width="190" height="190" transform="translate(1125 270)"/><g transform="translate(1137 302.29)"><path class="b" d="M207.51,120.978a3.606,3.606,0,0,0-2.448-.707,18.463,18.463,0,0,1-2.992.218,4.141,4.141,0,0,0-1.143.163c-1.143.218-2.285.435-3.428.707a9.261,9.261,0,0,0-2.448.816,3.64,3.64,0,0,0-1.034.762c-.218.272-.544.544-.435.871.163.381.6.272.925.272a3.673,3.673,0,0,0,.762-.109,7.1,7.1,0,0,1,3.21.054c.544.163,1.088.218,1.578.326a6.689,6.689,0,0,0,.707-.109,19.316,19.316,0,0,1,2.557-.49,10.416,10.416,0,0,0,3.1-1.034,3.6,3.6,0,0,0,1.2-.816A.568.568,0,0,0,207.51,120.978Z" transform="translate(-89.508 -60.362)"/><path class="b" d="M230.465,138.6l-.163-.326a2.656,2.656,0,0,1,0-2.829c.054-.054.054-.163.109-.218.054-.109.054-.272-.054-.326a.388.388,0,0,0-.326.163,3.383,3.383,0,0,0-.653,2.557v.925a.637.637,0,0,0,.435.6c.218.109.435.326.707.163C230.737,139.089,230.574,138.817,230.465,138.6Z" transform="translate(-105.826 -67.048)"/><path class="b" d="M45.2,170.87c-.163-.109-.326.054-.435.163a6.158,6.158,0,0,0-.544.707c-.109.218-.163.381.054.544a.408.408,0,0,0,.49,0c.381-.218.762-.435.653-.925C45.363,171.142,45.363,170.979,45.2,170.87Z" transform="translate(-21.375 -83.431)"/><path class="b" d="M134.55,235.877c.925-.762.925-.816.6-1.9-.054-.109-.054-.272-.109-.381a.917.917,0,0,0-1.034.544,2.055,2.055,0,0,0-.218,1.143C133.788,235.768,133.843,235.822,134.55,235.877Z" transform="translate(-62.249 -112.04)"/><g transform="translate(22.75 59.874)"><path class="b" d="M207.51,120.978a3.606,3.606,0,0,0-2.448-.707,18.463,18.463,0,0,1-2.992.218,4.141,4.141,0,0,0-1.143.163c-1.143.218-2.285.435-3.428.707a9.261,9.261,0,0,0-2.448.816,3.64,3.64,0,0,0-1.034.762c-.218.272-.544.544-.435.871.163.381.6.272.925.272a3.673,3.673,0,0,0,.762-.109,7.1,7.1,0,0,1,3.21.054c.544.163,1.088.218,1.578.326a6.689,6.689,0,0,0,.707-.109,19.316,19.316,0,0,1,2.557-.49,10.416,10.416,0,0,0,3.1-1.034,3.6,3.6,0,0,0,1.2-.816A.568.568,0,0,0,207.51,120.978Z" transform="translate(-112.258 -120.236)"/><path class="b" d="M230.465,138.6l-.163-.326a2.656,2.656,0,0,1,0-2.829c.054-.054.054-.163.109-.218.054-.109.054-.272-.054-.326a.388.388,0,0,0-.326.163,3.383,3.383,0,0,0-.653,2.557v.925a.637.637,0,0,0,.435.6c.218.109.435.326.707.163C230.737,139.089,230.574,138.817,230.465,138.6Z" transform="translate(-128.576 -126.922)"/><path class="b" d="M45.2,170.87c-.163-.109-.326.054-.435.163a6.158,6.158,0,0,0-.544.707c-.109.218-.163.381.054.544a.408.408,0,0,0,.49,0c.381-.218.762-.435.653-.925C45.363,171.142,45.363,170.979,45.2,170.87Z" transform="translate(-44.125 -143.305)"/><path class="b" d="M134.55,235.877c.925-.762.925-.816.6-1.9-.054-.109-.054-.272-.109-.381a.917.917,0,0,0-1.034.544,2.055,2.055,0,0,0-.218,1.143C133.788,235.768,133.843,235.822,134.55,235.877Z" transform="translate(-84.999 -171.914)"/></g><path class="b" d="M123.2,42.4a.2.2,0,0,0,0-.326c-.707-.109-.979.6-1.523.816a.543.543,0,0,0-.272.218c-.109.054-.163.163-.272.218a7.194,7.194,0,0,1-1.523,1.36.543.543,0,0,0-.272.218c-.109.054-.163.163-.272.218a8.369,8.369,0,0,1-.707.653l-.49.381-.109.109a.543.543,0,0,0-.272.218l-.163.163L96.972,62.424c-.054,0-.054.054-.109.054-.109.054-.163.109-.272.163l-.49.326c-.109.054-.163.054-.272.109-.272-.054-.326-.326-.435-.544a.425.425,0,0,0-.218-.218c-.218-.109-.49-.109-.707-.218a.751.751,0,0,1-.163-.218.9.9,0,0,1,.109-.544c.109-.326.49-.6.218-.979-1.143-.218-1.36-.109-1.36.925a5.3,5.3,0,0,0,.109,1.306,7.554,7.554,0,0,0,1.306,1.85c.109.163.381.326.272.544-.109.272-.381.109-.544.109A1.549,1.549,0,0,1,93,64.111a.543.543,0,0,0-.272-.218c-.272-.109-.544-.109-.816-.218a.773.773,0,0,0-.326-.109,1.471,1.471,0,0,0-.816-.163c-1.034-.272-2.013.49-3.047.218a9.713,9.713,0,0,0-1.251-.109,1.81,1.81,0,0,1-1.143-.6c-.6-.326-.653-.979-1.034-1.469-.326-.326-.653-.49-1.088-.218-.109.054-.163.163-.218.218-.109.109-.163.218-.272.326a.447.447,0,0,1-.381.054c-.054-.054-.163-.109-.218-.163a5.7,5.7,0,0,1-.435-.6c-.163-.218-.272-.435-.435-.653l-.218-.218c-.218-.109-.49-.163-.653-.272A1.467,1.467,0,0,1,80,59.486c-.054-.109-.054-.163-.109-.272a6.472,6.472,0,0,0-.381-1.469c-.054-.109-.054-.218-.109-.326-.435-1.251.49-2.339.49-3.536a.667.667,0,0,0-1.034,0l-.218.218a.578.578,0,0,1-.435-.054,4.361,4.361,0,0,1-1.034-.707c-.381-.435-.653-1.034-1.415-.979-.109.054-.218.054-.326.163-.544.326-1.2.979-1.088-.381a1.177,1.177,0,0,0-.762-1.2l-.326-.163a3.537,3.537,0,0,1-.925-.49.154.154,0,0,1,0-.272c.218-.163.435.054.653.054.871.272.707,0,1.578,0,.87-.272.381-.707.109-1.143a.955.955,0,0,0-.272-.218,7.019,7.019,0,0,1-.871-.49,2.366,2.366,0,0,1-.326-.381c-.163-.326-.163-.707-.435-1.034-.054-.054-.109-.163-.218-.218.326-.653.816-.109,1.251-.218.762.163,1.415.707,2.285.6.653-.054,1.251-.49,2.013-.109,1.2.653,1.523.435,1.959-.816.054-.109.163-.163.218-.272s.163-.163.218-.272a.773.773,0,0,0,.109-.326c.054-.272.054-.6.326-.762.653-.272,1.251.054,1.85.109a1.471,1.471,0,0,0,1.034-.326,1.652,1.652,0,0,1,1.85-.6,1.217,1.217,0,0,0,1.578-.979.543.543,0,0,0-.218-.272c-.49-.109-.925-.272-.979-.871-.49-.544.272-.707.326-1.143a2.073,2.073,0,0,0-.163-.544,1.189,1.189,0,0,0-.163-.272c-.109-.218-.054-.925-.163-1.143-.435-.49-1.578.218-.435-1.632-.979-.054-2.067.653-2.176-.272-.109-.163-.272-.326-.435-.544-.054-.109-.163-.163-.218-.272-.163-.163-.272-.381-.49-.49-.381-.218-1.36-.381-.979-.871,1.088-1.523-.653-1.088-1.415-.816a.813.813,0,0,1-.381.163.5.5,0,0,1-.218-.326,1.629,1.629,0,0,0-.218-.544c-.326-.163-.762.054-1.034-.218a.425.425,0,0,1-.218-.218A.411.411,0,0,1,77.6,31.9c.218-.272.49-.544.163-.925a.543.543,0,0,0-.272-.218,7.789,7.789,0,0,1-1.143-.653c-.544-.816-.435-1.8-.87-2.666l-.163-.326c-.054-1.469-1.632-1.36-1.2-2.666a.543.543,0,0,0-.218-.272c-.653-2.5-2.176-1.8-3.373-2.557a.69.69,0,0,0-.326.054,7.874,7.874,0,0,1-1.959-.054c-.163-.054-.218-.163-.272-.326.272-1.034-.272-2.176.435-3.156a.67.67,0,0,0-.109-.544.788.788,0,0,0-.6-.054c-.326.109-.6.109-.762-.218s.054-.6.272-.816c.109-.109.218-.272.326-.381.272-.326.762-.6.435-1.088a.979.979,0,0,0-1.143-.381.543.543,0,0,0-.272.218c-.272.544-.272,1.251-.979,1.469h-.163c-.109-.054-.218-.054-.272-.109a1.34,1.34,0,0,0-.653-.054c-.109.054-.218.054-.326.163a1.19,1.19,0,0,0-.272.163c-.435.109-.816.49-1.36.326-.272-.6.218-.6.6-.707.326-.109.707-.218.762-.6.054-.435-.435-.435-.707-.6a1.189,1.189,0,0,1-.272-.163c-.109-.054-.163-.163-.272-.218l-.49-.49c-.544-.272-.381-2.122-1.523-.871-1.36.381-1.306-.762-1.687-1.469-.109-.163-.218-.272-.272-.381-.218-.272-.054-.653-.218-.925a2.018,2.018,0,0,0-1.85,0h0a.247.247,0,0,0,0,.272c.218.109.544.272.49.544-.054.653.109.979.816.816l.109.054c0,.054.054.218,0,.218a.866.866,0,0,1-.707.163c-.435,0-.544.381-.653.707-.109.272.054.49.381.6a16.282,16.282,0,0,0,1.741.544c.381,0,.707.381,1.143.163a.184.184,0,0,1,.272.163c0,.163-.109.218-.218.272-.381.163-.707.272-1.088.435-.109.054-.272.109-.218.272a.656.656,0,0,0,.272.272,6.382,6.382,0,0,0,.6.272c.054,0,.054.163.054.218a.19.19,0,0,1-.109.054c-.109,0-.272.054-.381.054s-.272.054-.272.218c0,.218.163.272.381.326.272.163.218.653.653.707.326.218.163.816.653.871-.109.109-.218,0-.326,0a.618.618,0,0,0-.435.163.169.169,0,0,1-.054.109c0,.054,0,.109.109.218h0a.19.19,0,0,1,.054.109.2.2,0,0,1-.054.163h0c-.163.272.109.381.272.544.054,0,.109,0,.109.054.109.054.272.109.272.218.054.109-.054.218-.218.272-.272.109-.6.163-.871.272a.42.42,0,0,0-.381.435.523.523,0,0,0,.381.49c.218.054.435.054.653.109.163.218.544.326.544.816-.381-.707-.979-.272-1.415-.544-1.251-.109-1.469.109-1.251,1.36a1.009,1.009,0,0,0,.109.381c.109.272.163.6.49.707.109.054.381,0,.326.272,0,.054-.218.163-.326.163a.555.555,0,0,0-.6.544c0,.109-.163.218-.272.218-.381-.054-.49.109-.381.381a.9.9,0,0,1-.109.816c-.544.762-1.2,1.578-.762,2.666,0,.054-.054.163-.109.163s-.163-.054-.218-.054a.95.95,0,0,1-.381-.762.955.955,0,0,0-.272-.218h-.218c-.381.49-.218,1.034-.272,1.578-.054-.435.163-.925-.218-1.306h0c-.109-.054-.163-.163-.272-.272h0a.955.955,0,0,1-.218-.272c-.109-.109-.218-.272-.326-.381-.326-.326-.435-.326-.707-.054a3.037,3.037,0,0,0-.272.435A9.681,9.681,0,0,1,53.556,30a3.8,3.8,0,0,0-.979-1.578,2.02,2.02,0,0,1-1.415-.979c-.544-.762-.816-.762-1.632-.326-.653.381-1.251.762-1.9,1.143a2.145,2.145,0,0,0-.925,1.034,3.223,3.223,0,0,0-.326,1.741c-.49.272-.871-.109-1.251-.272a.256.256,0,0,0-.435.054,1.264,1.264,0,0,1-1.034.49c-.163,0-.381.054-.49-.109s.054-.272.218-.381c.326-.218.6-.49.925-.707.272-.218.218-.544.326-.816.109-.326-.218-.326-.326-.49-.163-.218-.435-.435-.272-.816.326.109.653.163.979.272.272.109.381.49.762.49.272-.6-.109-1.143-.272-1.687,0-.054-.163-.109-.218-.163-.6-.49-.653-.6-.163-1.2.109-.109.326-.109.218-.381a1.016,1.016,0,0,0-1.306.49c-.272.381-.544.272-.707-.218a.757.757,0,0,0-.544-.653c-.326-.109-.326-.381-.272-.653l.163-.49c.109-.381.054-.6-.435-.544-.272.054-.218-.163-.272-.326-.109-.49-.163-.925-.762-1.034-.272.163-.381-.109-.544-.218h-.218c-.381.163-.816.326-1.251.49a3.339,3.339,0,0,0,.925-1.306c.326-.6-.054-.979-.49-1.306-.272-.163-.49-.163-.6.163a.19.19,0,0,1-.054.109.412.412,0,0,1-.218.109c-.054,0-.109-.163-.109-.218.381-.762.054-1.2-.544-1.578-.054,0-.054-.054-.109-.109-.109-.163-.218-.326-.109-.49.272-.381,0-.653-.272-.871a.578.578,0,0,1-.109-.707c.054-.163.163-.272.109-.49a.19.19,0,0,1-.109-.054c-.218.109-.49.218-.707.326a.907.907,0,0,1-1.306-.435,1.7,1.7,0,0,0-.49-.6c-.272-.218-.653-.272-.762,0-.326.707-.816.816-1.523.871a4.5,4.5,0,0,0-1.9.272c-.435.218-.435.218-1.2.054-.435.326-.762-.272-1.2-.054-.109.054-.326.054-.326-.054-.109-.544-.6-.435-.871-.6-.109-.054-.435,0-.49-.054-.109-.272.218-.272.326-.435.054-.054.163-.163.109-.218-.218-.435.109-.707.326-1.034.054-.109.054-.272-.054-.326a.7.7,0,0,0-1.088.435c-.054.381-.109.707-.49.816-.218.109-.435.49-.653.218-.326-.381.163-.49.326-.653.054-.054.163-.109.218-.163.163-.163.054-.326-.054-.435-.163-.163-.326-.326-.544-.272s-.435.054-.544-.218a.63.63,0,0,0-.762-.326H23.2c-.326-.163-.054,1.034-.6.218a2,2,0,0,0-.49-1.088c-.218-.163-.381-.218-.544-.054a.578.578,0,0,1-.707.109,11.079,11.079,0,0,1-1.2-.49,1.962,1.962,0,0,0-1.088-.326,3.592,3.592,0,0,1-.762-.054c-.925-.163-.925-.218-1.2.762a1.306,1.306,0,0,1-.381.653,1.306,1.306,0,0,0-.381.653,1.4,1.4,0,0,1-.979.925c-.326.054-.163.326-.054.49a.576.576,0,0,0,.49.272,1.675,1.675,0,0,1-1.034,0c-.272-.054-.544-.326-.871-.054a.581.581,0,0,1-.6.163c-.49-.218-.816,0-1.088.435-.163.272-.326.544-.49.762-.218.218-.326.163-.381-.163-.054-.381-.326-.326-.6-.326-.326-.054-.435.435-.762.381-.272-.054-.544-.272-.816-.326a3.307,3.307,0,0,0-1.034.054,1.359,1.359,0,0,1-1.034,0,.749.749,0,0,0-.6.054,5.348,5.348,0,0,1-.871.272c-.49.054-1.143,0-1.469.326A3.45,3.45,0,0,0,2.9,17.648a1.658,1.658,0,0,1-.435.871c-.218.163-.163.435-.109.707a8.32,8.32,0,0,0,1.8,3.428c.272.326.49.762,1.034.435.163-.109.272.109.381.218.326.272.381.272.544-.109.109-.326.218-.707.6-.762a8.7,8.7,0,0,1,1.143-.272.424.424,0,0,1,.49.326c-.49.435-1.306.49-1.632,1.2.163.272-.218.544-.054.816.054.163,0,.381.218.435.054.054.163.054.218.109.109.054.218.109.218.272s-.109.163-.272.218c-.707.218-.707.218-.326.816.163.218.435.435.326.653-.272.6.109,1.306-.272,1.9A6.4,6.4,0,0,0,6.385,30c-.109.326.109.544.381.49a8.7,8.7,0,0,0,1.143-.272.545.545,0,0,1,.653.544c0,.109-.109.218-.109.381-.054.49.218.707.653.6.218-.054.435-.326.707-.109,0,.326-.272.544-.326.816-.163.435-.163.653.272.871a3.5,3.5,0,0,1,1.2,1.469.405.405,0,0,1-.054.49c-.054.109,0,.272.109.218.381-.163,1.034-.109.871-.871,0-.054,0-.109.054-.109.109-.054.218-.163.326-.163a.413.413,0,0,1,.218.109.593.593,0,0,1,.109.6c-.163.381-.272.762-.381,1.088s0,.435.272.653c.381.272.326.272.109.707,0,.054-.054.054-.109.109-.218.272-.109.435.054.707a2,2,0,0,0,.871.49c.054,0,.109.163.054.218,0,.054-.109.109-.163.163s-.163,0-.272.054c-.381.163-.762-.381-1.088,0-.272.326.163.762-.109,1.143-.163.218.109.381.326.435s.435,0,.544.272c-.109.218-.163.49-.272.707-.218.49-.653,1.034-.653,1.523a18.009,18.009,0,0,0-.218,1.8,1.489,1.489,0,0,1-.381,1.088c-.218.218-.054.381.109.544.163.109.381.218.544.326.49.326.49.326.054.925.163.054.272.163.435.218a6.508,6.508,0,0,1,1.8.707,3.206,3.206,0,0,0,1.8.49,6.821,6.821,0,0,1,1.36.49,3.2,3.2,0,0,0,1.85.544c.218,0,.272.109.272.326a.442.442,0,0,0,.218.435,28.312,28.312,0,0,1,3.156,3.1,9.007,9.007,0,0,1,1.632,2.339,28.554,28.554,0,0,1,1.8,4.189c.49.163.218-.435.49-.49.435.272,1.034.435,1.2.925a1.281,1.281,0,0,0,1.143.87,1.773,1.773,0,0,1,1.034.435c.109.109.109.218-.054.272-.163.109-.49,0-.544.218-.109.381-.435.381-.653.544-.49.381-1.2.054-1.523.544-.326.435,0,1.088-.326,1.632-.054.109-.054.272-.109.381A5.7,5.7,0,0,0,26.57,68.3c.054.163-.109.381-.218.6a6.359,6.359,0,0,0-.762,1.632,1.676,1.676,0,0,1-.272.653c-.163.326-.653.6-.218,1.088h0c.49.218,0,.381,0,.6-.163.109-.326.163-.381.326-.435.653-.816,1.36-1.2,2.013A8.471,8.471,0,0,0,22,76.08a30.768,30.768,0,0,1-3.373,4.3,1.255,1.255,0,0,1,.816,1.088.555.555,0,0,0,.272.435.624.624,0,0,1,.272.653.583.583,0,0,0,.109.326,2.548,2.548,0,0,0,1.687.762c.163,0,.326-.109.49.054a.593.593,0,0,1,.109.6.288.288,0,0,0,.218.381c.163.054.381.109.326.326,0,.653.381.925.871,1.2.218.109.163.272-.163.381s-.435.326-.326.544a.19.19,0,0,0,.054.109c.272.326.381.762.762,1.034.272.163.218.326.054.49-.49.653-.49.653.326.925.326.109.762.109.925.435s.49.435.762.653a2.539,2.539,0,0,1,1.2,2.122c-.054.544.054.544.6.6a1.462,1.462,0,0,1,1.469,1.469,6.8,6.8,0,0,0,.163,1.034,1.222,1.222,0,0,1,.054.871c-.218.381.109.871-.218,1.088-.544.381-.272.653-.109,1.034a.828.828,0,0,1-.218.326c-.6.653-.6.653.272.979.381.109.816.218.979.6a8.118,8.118,0,0,1,.544,2.775c0,.109-.109.272-.218.272-.109.054-.272-.054-.326-.109a5.532,5.532,0,0,1-.707-1.523c-.163-.435-.326-.49-.816-.326a2.651,2.651,0,0,1-.381.163c-.218.054-.326,0-.381-.218-.054-.326-.109-.6-.49-.653-.707.218-.381.707-.272,1.088a18.216,18.216,0,0,0,1.034,2.884l.272.381a2.852,2.852,0,0,0,.6.544v.326l.272.435,6.964,21.6,4.135,5.223a3.18,3.18,0,0,0,1.85.653c2.067.054,4.135.653,6.2.653a2.445,2.445,0,0,0,1.251-.218c.326-.054.707,0,.979-.272,2.394-.381,4.135,1.2,6.039,2.231.49.272.979.544,1.469.762.218.218.435.109.707.163a2.931,2.931,0,0,0,3.482-.762,8.037,8.037,0,0,1,1.578-1.469h0c.6-.381,1.36-.272,1.959-.653,1.36.054,2.666.326,4.08.272a2.987,2.987,0,0,0,2.067-.707c.109,0,.163.054.272.054a1.732,1.732,0,0,0,.816-.707,6.844,6.844,0,0,1,1.8-2.5,1.478,1.478,0,0,0,.435-.925c0-.109.054-.218.054-.326v.272a3.75,3.75,0,0,0,.054,1.9c.435,1.034-.054,1.578-.762,2.122-1.578.816-2.067,2.448-2.884,3.863-.435.707-.109,1.088.762.707.163-.109.272-.163.435-.272,1.9-.762,3.808-1.523,5.713-2.231a1.622,1.622,0,0,0,.925-.653.365.365,0,0,1,.435-.163.759.759,0,0,0,.6,0l3.1-1.306c.6-.272.6-.272.218-.871a.555.555,0,0,1-.109-.49.543.543,0,0,1,.272-.218.327.327,0,0,1,.218.054c.054.054.054.163.109.218.326.707.435.762,1.034.49l2.775-1.143c.762-.326.925-.762.762-1.578a3.812,3.812,0,0,1-.163-.762c0-.218.054-.49.326-.49.653,0,.925-.381,1.088-.925a.343.343,0,0,1,.435-.163c.109.054.218.163.326.218.163.109.326.272.544.109.163-.163.109-.381.054-.6l-.163-.326c-.272-.326,0-.381.272-.49.381-.163.381-.272.109-.49-.054-.054-.163-.109-.218-.163-.49-.218-.49-.544-.272-.979.109-.218.163-.435.326-.544a.8.8,0,0,0,.163-1.251c-.054-.054-.054-.272-.054-.381.326-.653,0-1.143-.381-1.632a7.785,7.785,0,0,1-.6-.816,1.6,1.6,0,0,1-.326-1.469,2.139,2.139,0,0,0-.163-1.9,4.559,4.559,0,0,1-.435-2.666,5.424,5.424,0,0,0-.272-2.067c-.326-.925-.6-1.9-.871-2.884a3.931,3.931,0,0,1,.544-3.7,5.783,5.783,0,0,1,.49-.6c.87-.762,1.415-1.741,2.339-2.448a1.5,1.5,0,0,0,.544-.871c.163-.707.707-1.2.925-1.85a.931.931,0,0,1,.871-.653c.381-.054.49.272.653.544a.868.868,0,0,0,.762.435.2.2,0,0,0,.163-.054.425.425,0,0,0,.218-.218h0a1.68,1.68,0,0,1,.381-.762h0a.656.656,0,0,1,.272-.272h0a.656.656,0,0,1,.272-.272h0a2.206,2.206,0,0,0-.054-2.557c-.435-.544-1.415-.925-.816-1.9a.731.731,0,0,1,.49-.109c.054-.109.163-.218.163-.326v-.109c-.218-.816.326-.979.871-1.251a.818.818,0,0,0,.6-.218c.054-.109.163-.109.326-.109a4.17,4.17,0,0,0,2.448-.163c.163-.163.272-.381.435-.544h0a.656.656,0,0,1,.272-.272h0a1.66,1.66,0,0,0,.979-1.2c-.054-.109-.054-.272-.163-.381-.054-.218-.163-.49,0-.6.544-.435.762-1.251,1.632-1.36a2.916,2.916,0,0,0,.6-.272.653.653,0,0,0,.49-.653c0-.435.381-.6.707-.653a14.375,14.375,0,0,1,1.578-.109,3.275,3.275,0,0,0,1.415-.272,1.171,1.171,0,0,0,.816-1.469,1.067,1.067,0,0,1,.326-1.251,1.086,1.086,0,0,0,.381-1.251,1.084,1.084,0,0,1,.435-1.251c.544-.49.544-.707.218-1.36-.163-.326-.272-.816-.707-.925a2.993,2.993,0,0,0-1.415-.272c-.163.054-.381.218-.6,0-.109-.163.218-.326.6-.326a3.345,3.345,0,0,0,.762-.054.245.245,0,0,0,.163-.163c0-.054,0-.218-.054-.218-.925-.49-1.8-1.088-2.938-.653a1.224,1.224,0,0,1-.762.054,3.869,3.869,0,0,0-2.775.87,4.538,4.538,0,0,1-.653.435c-1.959.925-3.21,2.612-4.733,4.08a2.572,2.572,0,0,0-.381.653,23.936,23.936,0,0,1-2.992,4.733c-.816,1.088-1.523,2.231-2.231,3.373a2.391,2.391,0,0,0-.381,1.2.99.99,0,0,1-.435,1.034.663.663,0,0,0-.326.653v1.034a1.868,1.868,0,0,1-.653,1.632,1.877,1.877,0,0,0-.435.49,18.786,18.786,0,0,1-3.319,4.135,6.787,6.787,0,0,0-.871.925,4.72,4.72,0,0,0-.925,2.775c0,.544.49,1.143-.163,1.632-.054.054,0,.163,0,.218a1.675,1.675,0,0,1,0,1.034,5.752,5.752,0,0,0,.054,2.72,1.678,1.678,0,0,1,0,1.034,8.693,8.693,0,0,0-.272,1.143c-.109.925-.544,1.85-.163,2.829.109.272-.054.49-.218.762-.381.218-.49.707-.762,1.034l.49-.979c-.6-.109-.762.326-.87.762-.054.218.163.272.326.272l-.054.054a7.963,7.963,0,0,1-1.143,1.523,5.106,5.106,0,0,0,.326-.816,16.488,16.488,0,0,1,.87-2.285,3.651,3.651,0,0,0,.326-1.523,14.833,14.833,0,0,1,.163-3.1,1.811,1.811,0,0,0-.054-.762c-.381-.979-.435-2.013-.762-3.047a1.077,1.077,0,0,1,.381-1.36,1.264,1.264,0,0,0,.49-1.034,5.674,5.674,0,0,1,.925-2.938,24.359,24.359,0,0,1,1.523-2.557,17.35,17.35,0,0,1,2.394-3.264,1.751,1.751,0,0,0,.653-.979c.054-.435-.272-.707-.49-1.034a.91.91,0,0,1,.054-1.36c.272-.326.381-.6.109-.925-.544-.707-.381-1.2.272-1.741A1.454,1.454,0,0,0,90.5,88.92a.976.976,0,0,1,.544-1.469c.163-.054.218-.272.381-.381.272-.218.272-.435.054-.707-.272-.326.272-.49.272-.762,0-.707.49-.979.979-1.306a9.686,9.686,0,0,0,1.687-1.251,1.007,1.007,0,0,0,.218-1.2c-.218-.49-.435-1.034-.707-1.523-.272-.435-.762-.762-.109-1.306.054-.054,0-.218,0-.381a5.094,5.094,0,0,0-.218-.871c-.163-.435-.109-.762.381-.925.218-.109.435-.218.381-.435-.218-.49.218-.979,0-1.523-.163-.326.218-.6.544-.381.653.49,1.143.218,1.632-.272l1.088-1.088c.6-.6,1.2-1.251,1.85-1.85a4.775,4.775,0,0,1,.816-.653,4.048,4.048,0,0,0,1.9-1.523.624.624,0,0,1,.653-.272,1.038,1.038,0,0,0,1.251-.435,2.983,2.983,0,0,1,2.176-1.306,5.349,5.349,0,0,0,.871-.272,1.59,1.59,0,0,0,1.034-.925,3.943,3.943,0,0,1,1.85-1.8,12.578,12.578,0,0,0,2.285-1.469A1.607,1.607,0,0,1,114,62.261c.272.109.49-.054.544-.381.054-.163,0-.381.109-.49a.388.388,0,0,1,.326-.163.413.413,0,0,1,.218.109c.054.109.163.218.163.326a.926.926,0,0,1,.054.381c.054.109.109.272.218.272a.388.388,0,0,0,.326-.163,18.186,18.186,0,0,0,1.523-3.1c.109-.326.218-.435.544-.272.6.272.6.272.925-.163a4.024,4.024,0,0,1,1.088-1.251c.49-.272.816-.6.6-1.2,0-.054.109-.109.163-.163.054,0,.054,0,.109-.054s0-.109-.109-.163c-.163-.109-.381-.218-.381-.49a.581.581,0,0,1,.381-.49.19.19,0,0,0,.109-.054c.6-.054.707-.435.653-.871a15.684,15.684,0,0,0-.163-3.21.478.478,0,0,1,.054-.381.592.592,0,0,0,0-.816c-.218-.272-.272-.544.109-.762.218-.109.109-.272,0-.435-.054-.109-.163-.218-.109-.326.435-.435.109-.653-.163-.979-.326-.381-.326-.435.109-.925.163-.218.272-.435.435-.653.272-.218,0-.544.163-.707.218-.272.49.109.707,0a1.488,1.488,0,0,0,.707-.707A5.03,5.03,0,0,0,123.2,42.4Zm-46.246,83.84a20.228,20.228,0,0,0-1.034,1.85,12.036,12.036,0,0,1,2.122-3.591C77.712,125.1,77.277,125.645,76.951,126.243Zm2.339-3.863a6.212,6.212,0,0,1,1.578-1.578A8.662,8.662,0,0,0,79.29,122.38Z" transform="translate(-2.311 -10.187)"/></g><g transform="translate(1254.115 378.67)"><path class="b" d="M220.307,154.451c.381-.326.707-.653,1.251-.435.326.109.326-.163.49-.272.381-.326.435-.381.87.054a.783.783,0,0,0,.816.218,7.014,7.014,0,0,0,3.047-1.959c.435-.435.871-.871,1.251-1.306a.548.548,0,0,1,.49-.163c.218.109.163.381.109.6l-.653,1.306a2.883,2.883,0,0,0,.272,2.394c.218.326.218.544-.054.762-.054.054-.163.109-.218.163-.435.218-.816.544-1.306.49s-.544-.6-.816-.925a1.138,1.138,0,0,0-.326-.218c-.054.054-.109.054-.109.109,0,.272.054.544-.054.707a1.039,1.039,0,0,1-.762.381,4.111,4.111,0,0,1-2.557.054,1.774,1.774,0,0,0-.925,0c-.762.109-1.469.272-1.959-.6a.583.583,0,0,0-.326-.109c-.272.054-.49.109-.762.163-.326.054-.544-.163-.49-.435.054-.326.054-.6.109-.925a1.653,1.653,0,0,0-.054-1.251c-.163-.326,0-.6.054-.87a.37.37,0,0,1,.6-.163,2.569,2.569,0,0,1,.762,1.469,1.975,1.975,0,0,0,.707,1.034C220.089,154.832,220.416,155.1,220.307,154.451Z" transform="translate(-217.57 -150.573)"/></g><g transform="translate(1254.178 371.196)"><path class="b" d="M238.422,158.059c-.272-.272-.49.109-.707.326l-.272.272a.914.914,0,0,1-1.2.163c.272-.272.6-.49.871-.816.272-.272.109-.6-.218-.707-.435-.109-.87-.163-1.251-.272-.544-.163-.49-.163-.762.544-.163.435-.272.816-.979.762-.6-.054-.6.109-.816-.326-.109-.218-.163-.381-.272-.6a.485.485,0,0,0-.435-.272c-.218,0-.326.163-.435.272a2.065,2.065,0,0,0-.326,1.251,1.846,1.846,0,0,1-.816,1.687,4.7,4.7,0,0,0-.707.762c-.054.054-.163,0-.218,0s-.054-.054-.054-.109v-.272c.054-.707-.163-.871-.762-.653-.925.326-1.741.816-1.85,1.959a.355.355,0,0,1-.49.272.418.418,0,0,0-.544.054c-.109.163-.163.326-.381.326s-.218-.218-.218-.381a1.955,1.955,0,0,1,.109-.6c0-.109.109-.218-.054-.326a.408.408,0,0,0-.49,0,1.655,1.655,0,0,0-.272.381.4.4,0,0,1-.6.272,1.317,1.317,0,0,0-1.523.163c-.109.109-.326.109-.49.163h0a1.282,1.282,0,0,1,.163,1.088,1.838,1.838,0,0,1-.381.6h0a12.721,12.721,0,0,0-.381,2.448c-.326.653-.272,1.415-.707,2.067a.51.51,0,0,0,.109.6.593.593,0,0,0,.707.163,1.009,1.009,0,0,0,.653-.87c.054-.326-.218-.707.163-.979.326-.218.653-.054.979-.109h.109c1.36-.816,2.285-2.176,3.863-2.612.435-.218.6.218.87.381l.163.163c.054.054.109.109.109.163l-.054.054c-.054-.054-.109-.109-.109-.163a.8.8,0,0,0-.326-.272,1.061,1.061,0,0,0-.707.054,13.187,13.187,0,0,0-1.687,1.36,1.31,1.31,0,0,0-.272,1.85,3.956,3.956,0,0,0,.49.435,2.915,2.915,0,0,0-.6-.272c-.272-.109-.707,0-.707-.49,0-.6-.326-.707-.816-.381-.109.163-.272.272-.272.435a1.927,1.927,0,0,1-.544,1.415,20.717,20.717,0,0,0-1.578,2.231c-.544.979-1.2,1.9-1.8,2.884-.381.6-.816,1.143-1.143,1.741a5.281,5.281,0,0,0-.6,4.516,5.367,5.367,0,0,1,.163,1.306,3.045,3.045,0,0,0,1.36,2.394c.218.163.381,0,.326-.272,0-.218.109-.326.326-.272a1.551,1.551,0,0,1,1.2.707,2.914,2.914,0,0,0,.816.816c.544.326.816.272,1.2-.272s.762-1.088.109-1.741c-.218-.218-.109-.6.054-.87.218-.326.49-.109.707-.109s.381-.109.381-.272a5.888,5.888,0,0,1,.49-2.394,6.994,6.994,0,0,1,.218-1.034,13.556,13.556,0,0,0,.6-1.469,2.34,2.34,0,0,0,.163-1.578,2.916,2.916,0,0,0-.272-.6,1.36,1.36,0,0,1,0-1.034.756.756,0,0,1,.653-.544c.326-.054.272-.381.326-.6.054-.381.435-.544.653-.218.381.653.87.6,1.469.381.272-.109.435-.218.381-.544a2.038,2.038,0,0,1,.544-2.176c.6-.49.762-1.415,1.632-1.632a.19.19,0,0,0,.109-.054,7.348,7.348,0,0,0,1.578-.87,1.709,1.709,0,0,0,.979-1.415,2.234,2.234,0,0,1,.6-1.523c.326-.272.435-.49.218-.871-.109-.163.054-.326.218-.381.218-.054.381-.163.6-.218s.435-.272.326-.49c-.218-.544.163-.762.49-1.088.272-.218.544-.49.054-.816-.109-.054-.109-.163.054-.163a.632.632,0,0,0,.707-.707c.707,0,.6-.762.925-1.088A.7.7,0,0,0,238.422,158.059Z" transform="translate(-217.685 -146.001)"/><path class="b" d="M253.7,141.985c.6-.544.163-.925-.218-1.251a6.518,6.518,0,0,0-.653-.6.6.6,0,0,0-.816-.109,3.3,3.3,0,0,0-.544.381c-.326.163-.816.163-.87.6h-.163c-.054-.109-.054-.218-.109-.326-.218.163-.435.163-.544-.054a4.034,4.034,0,0,1-.435-1.632c-.109-.544-.218-1.143-.816-1.36a5.331,5.331,0,0,1-1.2-.707c-.218-.218-.653,0-.707.272a2.648,2.648,0,0,0-.054.653,2.576,2.576,0,0,1-.054.925,3.185,3.185,0,0,0,.163,2.013,4.941,4.941,0,0,1,.272,2.938,3.072,3.072,0,0,0,.326,2.285,2.064,2.064,0,0,0,1.2,1.143l1.632.49c.218.054.49,0,.544-.163a1.5,1.5,0,0,1,1.469-.871.36.36,0,0,0,.381-.326,2.549,2.549,0,0,1,.762-1.578,1.57,1.57,0,0,0,.381-1.9C253.478,142.475,253.478,142.149,253.7,141.985Z" transform="translate(-230.782 -136.837)"/></g><g transform="translate(1189.689 298.732)"><path class="b" d="M274.713,79.245a3.857,3.857,0,0,0-.816-1.632,5.545,5.545,0,0,1-1.36-3.047,1.764,1.764,0,0,0-1.306-1.741c-.326-.109-.653-.435-.925-.109-.272.272,0,.544.109.816a2.554,2.554,0,0,1-.054,1.8c-.163.326-.544.435-.762.163-.49-.6-1.251-1.088-.925-2.067a.591.591,0,0,0-.054-.272,15.458,15.458,0,0,1-.544-2.666c0-.109-.163-.163-.272-.272-.054.109-.163.163-.218.272a8.366,8.366,0,0,0-.49,2.829,5.817,5.817,0,0,0,.381,2.884,3.208,3.208,0,0,1-.435.218.993.993,0,0,1-1.2-.163.856.856,0,0,1-.272-.925,1.081,1.081,0,0,0-.816-1.306.969.969,0,0,1-.707-1.306,4.319,4.319,0,0,1,.6-2.122,2.793,2.793,0,0,0,.326-1.741c0-.218-.109-.381-.326-.272-.381.163-.435-.054-.435-.326-.054-.218-.272-.326-.381-.163-.544.6-1.2,1.143-.762,2.122a.928.928,0,0,1-.218,1.088c-.218.163-.6.163-.653-.109a.658.658,0,0,0-.816-.6.49.49,0,0,0-.272.054,1.243,1.243,0,0,1-1.469-.979,3.168,3.168,0,0,1-.163-1.034V67.33c-.054-1.088-.653-1.469-1.687-1.2a5.376,5.376,0,0,0-1.85.925,3.656,3.656,0,0,1-1.632.707c-.544.109-.544.109-.49.653a2.73,2.73,0,0,1,.109.653c.054.381-.054.6-.435.6a.364.364,0,0,0-.326.381c.054.381-.163.435-.49.6-.381.163.381.6-.054.816-.218.218-.163.435-.109.707,0,.054.054.054.109.054.163-.054-.054.163-.054.163a1.749,1.749,0,0,0-.544-1.143c-.272-.163-.218-.435-.326-.653a1.184,1.184,0,0,0-.272-.435c-.218-.272-.49-.054-.707.054-.272.163-.218.326,0,.49.109.326,0,.381-.272.272-.6.381-1.034.925-1.8,1.034-.653.326-.653-.163-.762-.6l-.326-.163c-.544-.218-.6-.326-.435-.707a8.033,8.033,0,0,0,.544-1.469.365.365,0,0,0-.163-.435.414.414,0,0,0-.49.054c-.109.109-.218.272-.326.381-.272.381-.544.653-1.088.49-.326-.109-.544.163-.762.435-.054.109-.163.272-.272.109-.272-.326-.435-.109-.544.163a3.441,3.441,0,0,1-.653,1.251,2.372,2.372,0,0,0-.49,1.578c0,.925-.054,1.85-.109,2.72a.621.621,0,0,1-.163.326c-.109.109-.218,0-.272-.163a13.461,13.461,0,0,1-1.8-6.474,3.651,3.651,0,0,0-.326-1.523,13.026,13.026,0,0,0-.707-1.523,3.6,3.6,0,0,1-.381-1.36,5.472,5.472,0,0,1,0-1.632.815.815,0,0,0-.272-.816c-.163-.163-.381-.109-.6-.109-.218.054-.272-.109-.435-.218-.435-.326-.707-.272-.925.163a2.652,2.652,0,0,0-.218.6,22.069,22.069,0,0,1-1.034,3.21,2.1,2.1,0,0,0-.109,1.415,7.535,7.535,0,0,0,.925,2.829.815.815,0,0,1,0,.979c-.326.544-.6,1.088,0,1.632a.408.408,0,0,1,.054.272,4.562,4.562,0,0,0,.435,1.741,29.375,29.375,0,0,1,1.306,4.244,1.167,1.167,0,0,0,.544.871c.218.163.218.326,0,.435-.381.381-.163.871-.218,1.36-.109.707.218.979.979.979a.631.631,0,0,1,.544.218c.218.326.054.653-.326.816-.218.109-.544,0-.707.272-.218.272,0,.6.054.87.109.49.272.925.381,1.36l.326.979c.109.272-.054.435-.435.326a.589.589,0,0,0-.653.272,1.715,1.715,0,0,0-.272,1.251.491.491,0,0,0,.762.381,3.6,3.6,0,0,0,1.251-1.306.343.343,0,0,1,.49-.109.365.365,0,0,1,.163.435,6.81,6.81,0,0,0-.218,2.557,5.243,5.243,0,0,1,0,1.306c-.054.544-.109,1.034.544,1.306a.575.575,0,0,1,.326.381c.435.871.762.707,1.415.326a2.025,2.025,0,0,0,1.088-1.034A9.768,9.768,0,0,1,246.367,91a1.615,1.615,0,0,1,1.034-.544,2.443,2.443,0,0,0,1.687-.871,5.645,5.645,0,0,1,1.36-.816,2.882,2.882,0,0,0,1.578-1.306,1.729,1.729,0,0,1,.544-.544A12.261,12.261,0,0,1,256,84.848c.6-.218,1.2-.6,1.8-.054a.19.19,0,0,1,.109.054c.544-.326,1.2-.054,1.741-.218.326-.054.49-.326.381-.707l-.326-.979c-.163-.6-.054-.871.544-1.088a8.161,8.161,0,0,1,2.285-.49.413.413,0,0,1,.218.109.165.165,0,0,1,0,.218c-.326.326-.653.707-.979,1.034a1.128,1.128,0,0,0-.326,1.523c.109.218.272.435.381.653.381.6.381.816,0,1.36a1.894,1.894,0,0,1-.707.6.9.9,0,0,0-.49,1.2c.163.6.326.816.87.762a1.315,1.315,0,0,0,1.034-.707c.435-.544.816-1.143,1.2-1.687a1.08,1.08,0,0,0,.163-.979c-.435-.925-.381-2.067-.925-2.884.163-.326.435-.381.653-.49A3.494,3.494,0,0,0,264.7,81.2c.326-.381.326-.707-.109-.979a5.91,5.91,0,0,1-1.415-1.2c.109-.109.218-.272.326-.381a.681.681,0,0,0,.272-.979c-.054-.054-.054-.163-.109-.218-.054-.218.054-.326.272-.326.49,0,.925.326,1.415.054.163-.109.326.054.435.163a4.536,4.536,0,0,1,.435.653.713.713,0,0,0,.871.435c.326-.054.544.109.435.435a1.888,1.888,0,0,0,.435,1.687,1.636,1.636,0,0,1,.109,2.067.321.321,0,0,0,.326.49,1.621,1.621,0,0,0,1.415-1.469,5.36,5.36,0,0,0-.109-.925,2.659,2.659,0,0,1-.054-1.306,13.913,13.913,0,0,0,1.306.6,1.352,1.352,0,0,1,1.034,1.687.413.413,0,0,0,.109.218h.381a1.949,1.949,0,0,0,.6-.218C274.6,81.149,274.93,80.442,274.713,79.245Z" transform="translate(-161.304 -30.304)"/><path class="b" d="M143.9,97.7Z" transform="translate(-119.555 -46.529)"/><path class="b" d="M144.8,101Z" transform="translate(-119.965 -48.033)"/><path class="b" d="M112.7,18.9Z" transform="translate(-105.33 -10.601)"/><path class="b" d="M117.9,22.3Z" transform="translate(-107.701 -12.151)"/><path class="b" d="M142.779,23.86h.381c.163.163.272.6.653.381.272-.218-.054-.435-.109-.653a1.187,1.187,0,0,0-.218-.272h0c-.109-.272-.381-.326-.6-.435a.334.334,0,0,0-.326.054.668.668,0,0,0-.109.707C142.453,23.86,142.616,23.86,142.779,23.86Z" transform="translate(-118.869 -12.406)"/><path class="b" d="M158.013,35.352a.3.3,0,0,0,.272-.163c.054-.054.054-.163.109-.218a.341.341,0,0,0-.109-.435.36.36,0,0,0-.326-.054c-.218.054-.163.218-.163.435a.327.327,0,0,0,.054.218C157.795,35.188,157.795,35.352,158.013,35.352Z" transform="translate(-125.887 -17.695)"/><path class="b" d="M156.063,32.516c.163.054.272-.054.326-.218h0a.771.771,0,0,0-.054-.6.283.283,0,0,0-.218-.109c-.163-.054-.218.109-.218.218v.49C155.954,32.407,156.009,32.516,156.063,32.516Z" transform="translate(-125.026 -16.382)"/><path class="b" d="M249.351,63.976c.163,0,.218-.163.218-.272a1.924,1.924,0,0,0,.054-.326,1.743,1.743,0,0,0-.925-1.523c-.163-.054-.326-.109-.49.054a.773.773,0,0,0-.109.326,3.387,3.387,0,0,0,.979,1.632A.352.352,0,0,0,249.351,63.976Z" transform="translate(-167.063 -30.161)"/><path class="b" d="M101.409,4.328a.424.424,0,0,0-.326-.49,4.9,4.9,0,0,0-.871-.163,1.116,1.116,0,0,0-.925.272A.392.392,0,0,0,99.4,4.6a.88.88,0,0,0,.816.054h.816A.575.575,0,0,0,101.409,4.328Z" transform="translate(-99.153 -3.646)"/><path class="b" d="M266.189,72.587c.163.109.381.326.544.163a3.046,3.046,0,0,0,.653-1.415c-.109-.218-.163-.381-.381-.435a.362.362,0,0,0-.381.272.925.925,0,0,0-.054.381c0,.326-.163.435-.435.544C265.862,72.26,265.862,72.369,266.189,72.587Z" transform="translate(-175.196 -34.31)"/><path class="b" d="M269.888,68.915a.242.242,0,0,0,.326-.163,1.507,1.507,0,0,0,.054-.49,1.678,1.678,0,0,0-.054-.544.362.362,0,0,0-.272-.218.518.518,0,0,0-.381.109A.737.737,0,0,0,269.888,68.915Z" transform="translate(-176.718 -32.759)"/><path class="b" d="M173.142,30.756c0-.054,0-.054-.054-.109a.269.269,0,0,0,.054-.163c-.054-.109-.163-.054-.272-.054-.272.272-.707.109-.979.326a1.763,1.763,0,0,1-1.469.163c-.163,0-.381.054-.326-.218,0-.109.163-.218.272-.272a3.6,3.6,0,0,0,2.013-1.034c.109-.109.218-.163.163-.272a.543.543,0,0,0-.272-.218.757.757,0,0,0-.762.054c-.49.435-1.306.544-1.632,1.2-.109.163-.381.163-.6.054a.552.552,0,0,1-.272-.544c0-.326.218-.544.326-.871a.256.256,0,0,0-.326-.054c-.49-.163-.49-.163-.272-.544.109-.163.272-.218.163-.435-.163-.272-.054-.49.218-.653.109-.054.109-.109,0-.218-.163-.272-.707-.435-.87-.218-.163.163-.272.326-.435.49-.218.218-.435.218-.544.054a.488.488,0,0,1,.054-.6c.054-.109.218-.163.272-.218.435-.326.326-.762.381-1.2,0-.326-.381-.272-.544-.435-.218-.163-.435-.381-.707-.6a.408.408,0,0,0-.49,0c-.109.054-.163.163-.272.272-.435.326-.435.326-.925-.163a1.63,1.63,0,0,0-.979-.326,6.159,6.159,0,0,1-.544.707c-.109.109-.218,0-.272-.109a1.06,1.06,0,0,1-.054-.435,6.155,6.155,0,0,1-.707.544c-.218.163-.381,0-.544-.163-.054-.109-.163-.163-.272,0-.218.218-.381.49-.707.544s-.326.326-.326.6a3.162,3.162,0,0,0,.49,1.36,1.63,1.63,0,0,1,.326.979c0,.109-.109.272-.163.272a.478.478,0,0,1-.381-.054,1.768,1.768,0,0,1-.544-.707c-.163-.272-.326-.381-.544,0a.262.262,0,0,1-.326.109.583.583,0,0,1-.109-.326.934.934,0,0,1,.435-.871.477.477,0,0,0,.272-.544c-.109-.381-.326-.762-.762-.762a4.626,4.626,0,0,1-2.339-.925c-.163-.109-.381-.054-.326.163a.469.469,0,0,1-.326.6c-.326.054-.653.163-1.034.218-.6.109-.979.381-1.034.979-.054.218-.054.435-.272.544s-.218.272-.163.49c.707.435.979-.218,1.306-.6a3.21,3.21,0,0,1-1.2,1.36,2.662,2.662,0,0,0-.979,3.319,1.094,1.094,0,0,1-.109,1.088c-.762,1.523-1.8,2.938-1.36,4.842.163.653-.49,1.088-1.088,1.469v-.109c.054-.054.054-.163.109-.218a.7.7,0,0,0-.054-.653c-.218-.544.435-.979.272-1.523-1.578-.707-2.992.218-4.516.435a22.853,22.853,0,0,0,2.72-.925c.544-.109.653-.49.6-.979a5.438,5.438,0,0,1,1.578-2.448A3.491,3.491,0,0,0,152.2,30.1v-.163a.832.832,0,0,1,.381-1.088,2.914,2.914,0,0,0,.816-.816c-.054-.218.109-.49-.218-.762a8.644,8.644,0,0,0-1.523,1.959h-.109c-.762.218-.87,1.034-1.632,1.632a12.34,12.34,0,0,1,1.251-1.687,8.556,8.556,0,0,0,1.85-2.5,4.708,4.708,0,0,0,.381-.544c.109-.163.163-.218-.109-.381-.326-.163-.381-.381-.163-.544.435-.326.925-.707,1.36-.979a1.163,1.163,0,0,0,.653-.925.256.256,0,0,0-.326-.054c-.272,0-.435-.109-.326-.381a.575.575,0,0,1,.381-.326c.218-.109.544-.163.435-.49a.6.6,0,0,0-.49-.381c-.544-.218-.707-.163-.979.435-.054.109-.054.272-.109.381a.343.343,0,0,1-.435.163c-.381-.109-.6-.544-1.034-.49v.49a.818.818,0,0,1-.49.544.461.461,0,0,1-.544-.435,2.174,2.174,0,0,1,.381-.979.208.208,0,0,0-.163-.272.926.926,0,0,0-.381.054.388.388,0,0,0-.163.326c.109.6-.381.925-.435,1.469-.109.816-.816.435-1.2.653-.109.054-.218.163-.326.218a.959.959,0,0,1-1.469-.218c-.272-.326-.435-.762-.816-.979-.054.054-.163.109-.218.163a1.582,1.582,0,0,0-.272,1.2c0,.218-.163.381-.435.163-.816.435-.163,1.2-.381,1.8,0,.272.054.544-.163.762-.054.054-.109-.163-.218-.218a2.421,2.421,0,0,1-.218-1.632,3.811,3.811,0,0,1,.163-.762c0-.163-.109-.218-.218-.326s-.218,0-.326.054c-.381.218-.326.762-.707,1.034-.218.218-.6,0-.762.272-.109.435-.272.925.272,1.251a.334.334,0,0,1,.054.326c-.054.163-.218.218-.381.272-.218,0-.435-.054-.49-.272a2.807,2.807,0,0,1-.109-.6c0-.163-.054-.326-.272-.326s-.272.163-.272.326a1.009,1.009,0,0,1-.109.381h0a.446.446,0,0,0-.218.544h0a.327.327,0,0,1-.054.218h-.49a.247.247,0,0,1,0-.272.264.264,0,0,0,.163-.326h0v-.163l.163-.326a.242.242,0,0,0-.163-.326c-.163-.054-.218.054-.218.218v.381h0c-.326,0-.435-.272-.49-.544a2.6,2.6,0,0,1,.218-1.8.749.749,0,0,0-.054-.6.412.412,0,0,0-.218-.109c-.054,0-.163.109-.109.163l.163.49c-.054,0-.109.054-.109,0-.544-.054-.762-.653-1.306-.707-.054,0-.109-.218-.109-.326-.054-.163-.054-.326-.109-.49-.163-.326-.381-.326-.6-.109l-.326.326a.1.1,0,0,1,0-.163h0a.775.775,0,0,1-.109-.218c-.49.054-.979-.054-1.415.381-.109.272-.163.544-.272.762-.272,0-.6.054-.762-.272h0c-.054-.163-.163-.218-.272-.163a1.751,1.751,0,0,0-1.088.653c-.163.272-.435.272-.707.272h0a.7.7,0,0,1,.272-.762c.163,0,.218-.109.272-.218h0c.054,0,.109-.054.163-.054.163,0,.272-.054.218-.218-.109-.272-.272-.218-.49-.054h0c-.163.054-.326.054-.49.109h0c-.109,0-.163-.054-.272-.054v-.326c-.054-.49-.272-1.034-.707-1.143-.6-.218-.435-.871-.925-1.088a1.566,1.566,0,0,0-.707-.054h0c.109-.381-.218-.6-.272-.925s-.272-.381-.544-.326h-.109a.792.792,0,0,1-.326-.49.976.976,0,0,0-.272-.381h-1.523a.327.327,0,0,1,.054-.218h0c.163,0,.435-.109.381-.218-.272-.326-.435-.762-.925-.816a5.641,5.641,0,0,1-.544.218h-.272a1.094,1.094,0,0,1-.435-.218.781.781,0,0,0-.816-.272c-.218-.054-.435-.272-.707-.163a.391.391,0,0,1-.6-.326c0-.272.163-.218.326-.163.054,0,.054.054.109.054.163.054.381.109.435-.109a.319.319,0,0,0-.272-.381c-.544-.054-1.088-.054-1.415.544-.49.871-.871,0-1.306-.054a.96.96,0,0,0-.49-.435V15.63c-.109-.109-.163-.109-.272,0-.163.326-.49.381-.762.544-.707.326-.544,1.034-.653,1.578a.144.144,0,0,1-.163.163c-.163-.707.435-1.251.381-1.9,0-.054-.054-.109-.054-.163-.109-.054-.163-.163-.272-.218,0-.109-.054-.272,0-.381a.912.912,0,0,0-.109-1.36c-.109-.109-.109-.381-.163-.6-.87-.163-1.088.49-1.306,1.088-.109.326-.109.326-.218.326-.762.218-.762.218-.707,1.088h0a.2.2,0,0,0-.054-.163.676.676,0,0,0-.435-.326.19.19,0,0,1-.109-.054c0-.054,0-.109.054-.109a1.547,1.547,0,0,0,.925-2.067c-.218-.49-.218-.49-.6-.326-.326,0-.381-.054-.218-.49-.054-.218-.163-.435-.381-.435a.768.768,0,0,0-.49.054c-.054,0-.054.218-.054.326s.054.272-.163.272c-.163,0-.272-.163-.49-.054-.272.109-.272-.109-.218-.272.218-.435.163-.653-.381-.6-.054,0-.163-.163-.163-.272a.462.462,0,0,0-.435-.381c-.218,0-.381.163-.435.435s-.163.49-.435.544a1.284,1.284,0,0,0-.49.435c-.163.054-.109.49-.435.163a2.162,2.162,0,0,0,.871-.979.559.559,0,0,0-.272-.707c-.218-.163-.544-.054-.762-.272a.2.2,0,0,1-.054-.163c-.218-.326-.435-.218-.544.054-.272.544-.6-.49-.87,0-.109-.218.163-.381.054-.544a.467.467,0,0,0-.381-.326c-.163,0-.326-.054-.49-.054l-.326-.163h-.163c-.49.381-.707-.163-1.088-.326,0-.218.218-.544-.272-.49-.218-.109-.544.218-.762-.054-.109-.544-.49-.6-.979-.544-.054.272-.054.544-.109.871a.361.361,0,0,1-.272-.218c-.163-.381.054-1.088-.816-.871-.054,0-.109-.109-.163-.163-.054-.218,0-.435-.054-.653,0-.109-.109-.218-.218-.109a.412.412,0,0,0-.109.218c-.871,1.251-.762,1.632.544,2.067.109.054.163.163.272.218a.117.117,0,0,1-.109.109,1.38,1.38,0,0,0,.109.653c.109.163.218.272.272.381.381.707.326,1.85,1.687,1.469,1.2-1.251.979.6,1.523.871l.49.49c.109.054.163.163.272.218s.163.109.272.163c.218.109.49.163.653.272.109.054.163.109.109.272a.494.494,0,0,1-.163.381.053.053,0,0,0-.054.054h-.054a1.629,1.629,0,0,1-.544.218c-.381.109-.871.109-.6.707.544.163.925-.218,1.36-.326.109-.054.163-.109.272-.163l.326-.163a.91.91,0,0,1,.653.054c.109.054.218.054.272.109h.163c.707-.218.707-.925.979-1.469a.543.543,0,0,1,.272-.218.979.979,0,0,1,1.143.381h0a.343.343,0,0,1,.054.381c-.054.272-.326.49-.544.707a2.366,2.366,0,0,1-.326.381.781.781,0,0,0-.272.816.551.551,0,0,0,.762.218c.054,0,.109,0,.109-.054A.491.491,0,0,1,114,16.12c.054.054.109.109.163.109h.054a.053.053,0,0,0,.054.054c.054.109.109.163.109.272v.163A2.485,2.485,0,0,0,114,18.188c0,.109.054.272,0,.381a5.256,5.256,0,0,1-.054,1.306.557.557,0,0,0,.272.326,7.874,7.874,0,0,0,1.959.054c.109,0,.218-.054.326-.054.054,0,.054.054.109.054a.283.283,0,0,1,.218.109h0c1.143.49,2.448.163,3.047,2.394a.955.955,0,0,1,.218.272v.109a1.062,1.062,0,0,1-.054.381c.054.816,1.2.925,1.306,2.176l.163.326c.381.871.326,1.85.87,2.666a7.789,7.789,0,0,0,1.143.653.955.955,0,0,1,.272.218.919.919,0,0,1,.109.272c.109.163,0,.272-.109.326-.054.109-.163.218-.218.326a.411.411,0,0,0,.054.435c.054.054.163.109.218.218.272.218.6.109.925.218.054,0,.054,0,.109.054h.054a.053.053,0,0,1,.054.054v.054c.109.109.109.272.163.435.054.109.054.218.163.326h.109a.416.416,0,0,0,.272-.109c.762-.218,2.5-.707,1.415.816-.381.49.6.653.979.871.054,0,.054.054.109.054s.054.054.109.054l.326.326c.054.109.163.163.218.272a2.13,2.13,0,0,1,.435.544c0,.054,0,.109.054.109,0,.054.054.109.054.163.326.49,1.251-.054,2.122,0-1.088,1.85.054,1.143.435,1.632.109.218.054.925.163,1.143a1.189,1.189,0,0,0,.163.272,2.073,2.073,0,0,1,.163.544c-.054.435-.816.6-.326,1.143.109.544.544.707.979.871a.543.543,0,0,1,.218.272,1.217,1.217,0,0,1-1.578.979,1.652,1.652,0,0,0-1.85.6,1.471,1.471,0,0,1-1.034.326c-.6-.054-1.2-.435-1.85-.109-.272.163-.272.49-.326.762a.773.773,0,0,1-.109.326.955.955,0,0,1-.218.272c-.054.109-.163.163-.218.272a2.728,2.728,0,0,1-.49.979c-.163.272-.435.326-.871.163-.163-.054-.381-.163-.653-.272-.762-.381-1.36.054-2.013.109-.816.109-1.523-.435-2.285-.6-.435.109-.925-.435-1.251.218.054.054.109.163.218.218a8.373,8.373,0,0,1,.435,1.034c.109.109.163.272.326.381a7.018,7.018,0,0,0,.871.49.543.543,0,0,1,.272.218,3.02,3.02,0,0,0,.326.435q.163.163,0,.49c-.109.218-.218.218-.381.163h-.054c-.871,0-.707.218-1.578,0-.218,0-.435-.272-.653-.054-.109.109-.109.218,0,.272a2.429,2.429,0,0,0,.925.49l.326.163a1.221,1.221,0,0,1,.762,1.2c-.109,1.415.544.762,1.088.381l.326-.163c.762-.054.979.6,1.415.979.326.272.707.435,1.034.707a.614.614,0,0,0,.435.054.425.425,0,0,0,.218-.218c.272-.218.6-.381.871-.163h.109a.053.053,0,0,0,.054.054l.054.054v.054a.768.768,0,0,1-.054.49c-.218.979-.816,1.9-.435,2.938.054.109.054.218.109.326a7.307,7.307,0,0,1,.381,1.469c.054.109.054.218.109.272a1.467,1.467,0,0,0,.381.435c.218.109.435.163.653.272a.425.425,0,0,1,.218.218c.163.218.272.435.435.653a2.416,2.416,0,0,0,.435.6c.054.054.163.109.218.163a.478.478,0,0,0,.381-.054,1.442,1.442,0,0,0,.272-.326c.054-.109.163-.163.218-.218.109-.054.163-.109.272-.109a.49.49,0,0,1,.544.054,1.443,1.443,0,0,1,.326.272c.326.49.381,1.2,1.034,1.469a1.81,1.81,0,0,0,1.143.6,4.871,4.871,0,0,1,1.251.109c1.034.272,2.013-.49,3.047-.218a2.183,2.183,0,0,1,.816.163.773.773,0,0,0,.326.109c.272.109.544.109.816.218a.955.955,0,0,1,.272.218,1.4,1.4,0,0,0,1.415.979c.163,0,.381.109.49-.054v-.054a.053.053,0,0,1,.054-.054c.054-.218-.163-.381-.272-.544a6.335,6.335,0,0,1-1.306-1.85,5.3,5.3,0,0,1-.109-1.306,1.351,1.351,0,0,1,.054-.49v-.272a.576.576,0,0,1,.6-.326.72.72,0,0,1,.653.109h.054v.054h.054a.256.256,0,0,1,.054.326,3.655,3.655,0,0,1-.326.653c-.054.163-.163.381-.109.544.054.054.109.163.163.218.218.109.49.109.707.218.109.054.163.163.218.218.109.218.163.49.435.544.109,0,.163-.054.272-.109l.49-.326c.109-.054.163-.109.272-.163.054,0,.054-.054.109-.054l20.348-15.778.163-.163c.109-.054.163-.163.272-.218a.117.117,0,0,0,.109-.109l.49-.381a8.369,8.369,0,0,1,.707-.653.543.543,0,0,1,.272-.218c.109-.054.163-.163.272-.218a12.316,12.316,0,0,0,1.523-1.36.543.543,0,0,1,.272-.218c.109-.054.163-.163.272-.218.435-.163.707-.653,1.143-.816a8.571,8.571,0,0,1,.816-.653.955.955,0,0,0,.272-.218c.054-.054.109-.054.109-.109a.955.955,0,0,0,.272-.218l.109-.109.218-.218c.544-.326.816.544,1.36.272.109-.272.054-.653.381-.816.435-.218.435-.49.218-.816-.109-.163-.218-.381-.326-.544a.433.433,0,0,1,.109-.49c.163-.109.381-.218.544-.326.109-.054.218-.272.163-.326-.435-.544-.054-.925.218-1.36a.408.408,0,0,0,.054-.272c-.272-.6.381-1.306-.163-1.959-.109-.109.054-.218.163-.272.381-.272.272-.707.326-1.034C173.8,30.81,173.306,30.973,173.142,30.756Zm-56.8-14.744c-.109.054-.109,0,0,0-.054-.054-.054-.054-.054-.109C116.342,15.9,116.4,15.957,116.342,16.011Z" transform="translate(-101.028 -5.046)"/></g><g transform="translate(1230.929 378.201)"><path class="b" d="M202.889,158.356a4.7,4.7,0,0,0,.87-.544.354.354,0,0,0,.109-.49c-.054-.054-.218-.163-.326-.109a8.445,8.445,0,0,0-1.143.218c-.218.054-.218.218-.272.381a1.384,1.384,0,0,1-.109.381c-.326-.109-.6-.218-.87-.326-.435-.109-.49-.109-.6.49-.054.218-.109.326-.326.272a.762.762,0,0,0-.6,0c-.435.163-.218-.163-.218-.326-.109-.381-.272-.163-.435-.054-.381.218-.381-.163-.544-.326-.381-.381-.6.435-.979.163-.163-.435-.272-.871-.435-1.306a.624.624,0,0,0-.707-.435c-.054.109-.163.163-.218.272v.218a1.619,1.619,0,0,1-.272.816.733.733,0,0,0,0-.871c-.109-.054-.163-.218-.272-.218-.218-.054-.6-.054-.707-.272a1.2,1.2,0,0,1-.054-.762,1.729,1.729,0,0,1,.163-.49c0-.109,0-.272-.109-.326-.435-.49-1.306-.435-1.469.163-.163.544-.49.544-.871.49-.272.381-.707.49-.87.816a3.857,3.857,0,0,0,.218-.925c.163-.326.326-.6.49-.925a4.48,4.48,0,0,0,.272-2.666c-.054-.435-.272-.544-.816-.6-.109,0-.272,0-.326-.163s.109-.218.218-.272c.381-.272.381-.272,0-.49-.054-.054-.163-.054-.218-.109-.6-.435-.6-.435-1.088.054-.109.109-.218.218-.272.054a.6.6,0,0,0-.87-.218c-.326.163-.381.544-.381.925v1.2c0,.381-.054.816-.544.925-.435.109-.6-.272-.762-.544a1.424,1.424,0,0,0-1.9-.544c-.816.272-1.578.762-2.5.435-.218-.109-.435.109-.49.326a1.954,1.954,0,0,1-.816,1.143c-.163.653-.326,1.306-1.088,1.578h0a.656.656,0,0,0-.272.272h0c-.163.163-.218.381-.435.544a4.2,4.2,0,0,1-2.448.163c-.109-.054-.218,0-.326.109a.543.543,0,0,1-.6.218c-.544.272-1.088.435-.87,1.251.163.6-.435.326-.653.544-.6.979.381,1.36.816,1.9a2.3,2.3,0,0,1,.054,2.557h0a.656.656,0,0,0-.272.272h0a.655.655,0,0,0-.272.272h0a1.157,1.157,0,0,0-.381.816c.054.218.109.326.381.218.381-.272.6-.762,1.088-.925a.685.685,0,0,0,.49-.816.734.734,0,0,1,.49-.816,1.587,1.587,0,0,1,1.469-.163c.218.109.49.218.707.326a1.237,1.237,0,0,0,.979.163c.218-.109.381.109.49.272s.163.49.326.544a1.909,1.909,0,0,1,.925,1.034.656.656,0,0,0,.272.272c.544.218.707.762.925,1.2a4.554,4.554,0,0,0,1.2,1.959.412.412,0,0,1,.109.218c-.054.816.49,1.251,1.034,1.687a3.036,3.036,0,0,1,.272.435c.163.326.326.707.49,1.034.272.544.544.653,1.143.435a1.678,1.678,0,0,1,1.251-.109c.163.054.326.218.218.381-.272.49,0,.707.381.87.272.109.544.218.544.49,0,.544.326.653.762.6H193.1a1.193,1.193,0,0,0,.925-.381c.218-.272.435-.653.925-.6a.467.467,0,0,0,.381-.326c.218-.435.925-.49,1.034-.979.054-.381-.381-.6-.6-.925h0c.054-.054.054-.163.109-.163.544-.054,1.2.109,1.632-.163.435-.218.6-.925,1.034-1.306a1.736,1.736,0,0,0,.49-.87c.163-.544.381-1.034.544-1.578a3.918,3.918,0,0,1,.816-1.469c-.272-.707.49-.925.707-1.36.109-.272.272-.544.381-.816-.163-.326.054-.707-.163-1.034a.053.053,0,0,0-.054-.054c.109.163.218.381.49.326.272-.163.272-.435.381-.707a.774.774,0,0,0,.109-.326,1.189,1.189,0,0,1,.163-.272,5.734,5.734,0,0,0,.381-.6,1.282,1.282,0,0,0-.163-1.088C202.672,158.737,202.617,158.519,202.889,158.356Zm-7.508,10.228c.435.544.218,1.251.435,1.85C195.327,169.89,195.49,169.183,195.381,168.584Zm5.441-7.562c.109.109.326.218.435.435C201.148,161.294,200.931,161.185,200.822,161.022Z" transform="translate(-174.953 -149.712)"/></g><path d="M214.035,191.72a1.051,1.051,0,0,0-.24.8,1.629,1.629,0,0,0,.56.48c.16,0,.32-.16.48-.24l.24-.24c.16-.16.72-.4.8-.64a.912.912,0,0,0-.24-.48c-.16-.16-.32-.4-.48-.4A2.453,2.453,0,0,0,214.035,191.72Z" transform="translate(1038.276 209.664)"/><circle class="c" cx="1" cy="1" r="1" transform="translate(1264.958 343.538)"/><circle class="c" cx="1" cy="1" r="1" transform="translate(1295.97 341.361)"/><circle class="c" cx="1" cy="1" r="1" transform="translate(1298.146 341.905)"/><circle class="c" cx="1" cy="1" r="1" transform="translate(1264.958 396.312)"/><circle class="c" cx="1" cy="1" r="1" transform="translate(1254.621 400.664)"/><circle class="c" cx="1" cy="1" r="1" transform="translate(1252.445 400.12)"/><circle class="c" cx="1" cy="1" r="1" transform="translate(1251.901 401.209)"/><circle class="c" cx="1" cy="1" r="1" transform="translate(1255.709 391.959)"/><circle class="c" cx="1" cy="1" r="1" transform="translate(1252.989 396.856)"/><circle class="c" cx="1" cy="1" r="1" transform="translate(1249.997 397.128)"/><circle class="c" cx="1" cy="1" r="1" transform="translate(1257.341 408.825)"/><circle class="c" cx="1" cy="1" r="1" transform="translate(1271.487 370.741)"/><circle class="c" cx="1" cy="1" r="1" transform="translate(1264.414 384.887)"/><circle class="c" cx="1" cy="1" r="1" transform="translate(1254.077 379.99)"/><circle class="c" cx="1" cy="1" r="1" transform="translate(1255.165 381.622)"/><circle class="c" cx="1" cy="1" r="1" transform="translate(1273.119 374.005)"/><circle class="c" cx="1" cy="1" r="1" transform="translate(1276.384 376.182)"/><circle class="c" cx="1" cy="1" r="1" transform="translate(1273.119 381.078)"/><circle class="c" cx="1" cy="1" r="1" transform="translate(1274.752 379.99)"/><g transform="translate(1192.489 302.515)"><path class="b" d="M178.038,154l2.884,3.047a18.441,18.441,0,0,1,.925,2.611c-.109.109-6.148,1.632-6.311,1.687s-3.7,1.959-3.7,1.9-.435-4.189-.435-4.189l3.917-3.645Z" transform="translate(-134.893 -75.981)"/><path class="b" d="M173.041,51.278l2.067.326-1.687,8.705s-23.34,16.92-23.449,16.92-8.107.653-8.107.653l-7.943-2.775-8.052-7.78-3.21-4.679-1.36-4.516,1.959-4.407,5.821-2.5.49-5.658-5.06-5.93L123.1,35.391l2.557-3.591h5.332l5.821,6.529,4.08,9.467,3.972,7.345,8.107,2.448,8.215-.109,5.5-3.264,2.394-4.244Z" transform="translate(-112.051 -20.266)"/><path class="b" d="M104.953,10.6l-.653.6.816,1.2L108,14.626l-.109,2.394,3.808,4.135,5.169,2.612.6-2.285-1.687-3.156,1.36-.163s.109-.326.054-.326c-.054-.054-.653-.381-.653-.381l-1.034-.544-.49-1.2-.707-.6-1.85.762a7.341,7.341,0,0,1-1.306-.435c-.054-.109-1.523-1.687-1.523-1.687l-3.373-1.8Z" transform="translate(-104.3 -10.6)"/></g></g></svg>