<svg xmlns="http://www.w3.org/2000/svg" width="190" height="190" viewBox="0 0 190 190"><defs><style>.a{fill:#008088;}.a,.c,.d,.e{fill-rule:evenodd;}.b{opacity:0;}.c{fill:#fff;}.d{fill:#2e9698;}.e{fill:#e20613;}</style></defs><g transform="translate(-775 -270)"><path class="a" d="M93.964,126.423a.517.517,0,0,0-.556,0,.2.2,0,0,0,0,.354.522.522,0,0,0,.556,0,.2.2,0,0,0,0-.354Z" transform="translate(726.315 219.199)"/><path class="a" d="M90.023,156.3a.275.275,0,0,0-.063-.264c.05-.053-.163-.057-.27-.019a.86.86,0,0,0-.353.258.851.851,0,0,0-.2.389.229.229,0,0,0,.334.283.858.858,0,0,0,.352-.257A.843.843,0,0,0,90.023,156.3Z" transform="translate(729.162 198.949)"/><path class="a" d="M92.357,161.888a.2.2,0,0,0-.148-.072.192.192,0,0,0-.146.072h0c-.04.047.048.113-.065.186a.289.289,0,0,0,.065.186h0a.192.192,0,0,0,.146.072.2.2,0,0,0,.148-.072h0a.3.3,0,0,0,0-.372Z" transform="translate(727.207 194.973)"/><path class="a" d="M97.167,165.885a.481.481,0,0,0-.285-.087.946.946,0,0,0-.286.087.226.226,0,0,0,0,.387.514.514,0,0,0,.572,0,.226.226,0,0,0,0-.387Z" transform="translate(724.141 192.254)"/><path class="a" d="M96.358,200.243c-.133-.074-.247-.1-.308-.047s-.065.164-.024.311h0a1.849,1.849,0,0,0,.758.953c.133.074.247.1.308.047s.066-.164.024-.311h0a1.85,1.85,0,0,0-.759-.953Z" transform="translate(724.474 168.781)"/><path class="a" d="M99.491,223.937a.431.431,0,0,0-.489,0,.2.2,0,0,0,0,.339.428.428,0,0,0,.489,0,.2.2,0,0,0,0-.339Z" transform="translate(722.487 152.602)"/><path class="a" d="M188.927,340.163a.6.6,0,0,0,.041.284l0,0v0a2.225,2.225,0,0,1,.042.479,1.35,1.35,0,0,0,.039.379h0a.37.37,0,0,0,.075.157.132.132,0,0,0,.083.047h0a.18.18,0,0,0,.112-.035.745.745,0,0,0,.21-.24.514.514,0,0,0,.044-.089,1.172,1.172,0,0,0,.037-.67h0a.769.769,0,0,0-.273-.489.179.179,0,0,0-.036-.018.356.356,0,0,0-.175-.03.209.209,0,0,0-.132.064A.282.282,0,0,0,188.927,340.163Z" transform="translate(661.015 73.328)"/><path class="a" d="M174.566,353.966a.154.154,0,0,0-.273,0h0a.416.416,0,0,0,0,.443h0a.155.155,0,0,0,.273,0h0a.413.413,0,0,0,0-.443Z" transform="translate(671.049 63.808)"/><path class="a" d="M304.928,312.2a1,1,0,0,0-.438.22.994.994,0,0,0-.3.389.3.3,0,0,0,.009.3h0a.3.3,0,0,0,.289.065,1.1,1.1,0,0,0,.738-.609.3.3,0,0,0-.009-.3h0A.294.294,0,0,0,304.928,312.2Z" transform="translate(582.321 92.278)"/><path class="a" d="M360.465,295.745c.042-.094.059-.161.038-.18s-.085.009-.171.065a1.975,1.975,0,0,0-.606.7c-.042.094-.059.161-.038.179s.086-.008.172-.065a1.968,1.968,0,0,0,.605-.7Z" transform="translate(544.403 103.638)"/><path class="a" d="M357.942,300.512c0-.066-.019-.115-.052-.13s-.083,0-.135.041a.632.632,0,0,0-.171.225.647.647,0,0,0-.069.275c0,.065.019.115.052.13s.083,0,.135-.042a.629.629,0,0,0,.171-.224A.643.643,0,0,0,357.942,300.512Z" transform="translate(545.881 100.349)"/><path class="a" d="M347.786,304.059l-.016,0h0c-.433.066-.822.141-1.1.21a3.331,3.331,0,0,0-.406.112,3.017,3.017,0,0,0,.415-.013c.283-.017.674-.06,1.1-.126h0l.016,0h0c.433-.066.822-.141,1.1-.209a3.233,3.233,0,0,0,.405-.112,3.116,3.116,0,0,0-.415.013c-.283.017-.673.06-1.1.125Z" transform="translate(553.565 97.93)"/><path class="a" d="M298.227,56.954a.5.5,0,0,0-.615,0,.314.314,0,0,0,0,.5.5.5,0,0,0,.615,0,.313.313,0,0,0,0-.5Z" transform="translate(586.873 266.658)"/><path class="a" d="M275.724,73.517a.338.338,0,0,0-.309-.148c-.1.023-.172.125-.21.27a1.331,1.331,0,0,0,.256,1.09.339.339,0,0,0,.309.147c.1-.023.172-.125.21-.27a1.236,1.236,0,0,0-.008-.574A1.22,1.22,0,0,0,275.724,73.517Z" transform="translate(602.112 255.378)"/><path class="a" d="M227.3,72.109c-.078-.1-.159-.156-.222-.14s-.107.1-.125.231a1.542,1.542,0,0,0,.264,1c.078.1.159.157.222.141s.107-.1.125-.231a1.552,1.552,0,0,0-.264-1.006Z" transform="translate(635.05 256.333)"/><path class="a" d="M221,80.825a.323.323,0,0,0-.447,0h0a.3.3,0,0,0,0,.427h0a.323.323,0,0,0,.447,0h0a.3.3,0,0,0,0-.427Z" transform="translate(639.478 250.345)"/><path class="a" d="M184.988,121.571a.414.414,0,0,0-.487,0,.233.233,0,0,0-.094.179.23.23,0,0,0,.094.178.413.413,0,0,0,.487,0,.216.216,0,0,0,0-.357Z" transform="translate(664.1 222.511)"/><rect class="b" width="190" height="190" transform="translate(775 270)"/><path class="c" d="M163.844,64.673c-.014-.072-.03-.153-.048-.234h0l-.036-.175h0a9.223,9.223,0,0,1-.131-1.048,6.636,6.636,0,0,1-.009-.94,1.119,1.119,0,0,0-.042-.458.31.31,0,0,0-.106-.153.2.2,0,0,0-.156-.026.6.6,0,0,0-.243.131,1.052,1.052,0,0,0-.431.909c-.007.065-.013.136-.02.2a.449.449,0,0,1-.061.188h0a.36.36,0,0,1-.207.156.691.691,0,0,1-.285.02,2.017,2.017,0,0,1-.765-.292.866.866,0,0,1-.292-.259h0a.242.242,0,0,1-.036-.192.3.3,0,0,1,.126-.159,1.287,1.287,0,0,1,.508-.163.586.586,0,0,0,.133-.039.679.679,0,0,0,.346-.482,1.805,1.805,0,0,0,.024-.692,1.287,1.287,0,0,0-.084-.31c-.071-.158-.274-.218-.541-.218a4.664,4.664,0,0,0-1.267.247,4.1,4.1,0,0,1-1.356.116,5.678,5.678,0,0,0-1.028.034,1.7,1.7,0,0,1-.767.031c-.1-.077.046-.213.52-.428a6.581,6.581,0,0,1,2.125-.309,8.955,8.955,0,0,0,1.238-.107,1.764,1.764,0,0,0,.92-.578,2.876,2.876,0,0,0,.635-1.151c.119-.485-.225-.719-.624-.989-.071-.049-.146-.1-.217-.151a.85.85,0,0,0-.658-.172,1.708,1.708,0,0,0-.582.243,1.015,1.015,0,0,1-.814.111c-.078-.012-.164-.024-.263-.036a2.474,2.474,0,0,0-1.442.564L157.7,58h0a1.853,1.853,0,0,1-.756.3.222.222,0,0,1-.153-.039.129.129,0,0,1-.033-.149h0a1.125,1.125,0,0,1,.354-.409,3.1,3.1,0,0,1,1.139-.614,4.528,4.528,0,0,1,1.166-.168c.724-.022.759-.191.834-.584v0a.462.462,0,0,0-.2-.468,2.466,2.466,0,0,0-.739-.346.67.67,0,0,1-.361-.223.173.173,0,0,1-.022-.156.248.248,0,0,1,.111-.123,1.326,1.326,0,0,1,.729-.1,1.446,1.446,0,0,0,.841-.12.509.509,0,0,0,.228-.471,4.012,4.012,0,0,1,.028-.6,1.911,1.911,0,0,1,.2-.593.74.74,0,0,0,.085-.632c-.017-.079-.038-.173-.055-.29h0a1.16,1.16,0,0,1,.056-.61,2.411,2.411,0,0,1,.309-.518.744.744,0,0,0,.121-.539,1.436,1.436,0,0,0-.281-.651,1.648,1.648,0,0,0-.36-.34,2.192,2.192,0,0,1-.548-.556.5.5,0,0,0-.123-.128.31.31,0,0,0-.228-.05.654.654,0,0,0-.254.114,2.268,2.268,0,0,0-.515.556.533.533,0,0,1-.309.235h0a.3.3,0,0,1-.187-.017.316.316,0,0,1-.141-.133h0a.727.727,0,0,1-.043-.5c.117-.576-.032-.63-.47-.789h0c-.292-.108-.281-.306-.267-.552a.992.992,0,0,0-.1-.606c-.273-.462-.583-.309-1.543.166l-.008,0c-.839.414-1.533-.019-2.4-.559-.194-.122-.4-.248-.613-.372a1.308,1.308,0,0,0-1.308-.16,3.424,3.424,0,0,0-.978.951,5.3,5.3,0,0,0-.743,1.423,4,4,0,0,1-.578,1.125,2.1,2.1,0,0,1-.532.492.189.189,0,0,1-.137.024.114.114,0,0,1-.08-.111.908.908,0,0,1,.1-.38,3.675,3.675,0,0,1,.421-.712,3.113,3.113,0,0,0,.461-.834,7.668,7.668,0,0,1,.778-1.443,6.3,6.3,0,0,1,.958-1.187c.206-.177.211-.313.108-.433h0a2.251,2.251,0,0,0-.61-.39c-.12-.062-.244-.126-.362-.2a.731.731,0,0,1-.4-.752,2.628,2.628,0,0,1,.29-.842h0c.024-.051.047-.1.068-.153a2.242,2.242,0,0,0,.174-.73c.006-.207-.042-.374-.176-.439l-.017-.007h0c-.262-.1-.745.168-1.314.49-.168.094-.345.2-.524.289a5.689,5.689,0,0,1-1.508.51c-.193.043-.376.084-.544.136a6.34,6.34,0,0,0-.818.309,2.8,2.8,0,0,0-.7.448,1.1,1.1,0,0,1-.43.263.463.463,0,0,1-.226.011.342.342,0,0,1-.183-.106.5.5,0,0,1-.107-.2,1.062,1.062,0,0,1,.144-.682,1.6,1.6,0,0,0,.176-.606.493.493,0,0,0-.042-.247c-.007-.01-.014-.016-.019-.016a.067.067,0,0,0-.036.017.694.694,0,0,0-.168.3.882.882,0,0,1-.191.341.218.218,0,0,1-.116.062.149.149,0,0,1-.115-.032.26.26,0,0,1-.077-.118c-.042-.12.062-.344.186-.608a3.379,3.379,0,0,0,.283-.751c.088-.487.116-.511.573-.919h0l.11-.1a5.166,5.166,0,0,0,.6-.652,3.585,3.585,0,0,1,.5-.532,1.457,1.457,0,0,0,.44-.725,9.251,9.251,0,0,0,.265-1.344,3.644,3.644,0,0,0-.006-1.27,1.806,1.806,0,0,0-.44-.89A2.052,2.052,0,0,1,146,34.18c-.134-.489-.287-1.043-.682-1.228l-.04-.018a1,1,0,0,0-.854,0,1.33,1.33,0,0,0-.6.652l-.023.051a1.187,1.187,0,0,1-.164.281.632.632,0,0,1-.384.243.763.763,0,0,1-.438-.065,1.561,1.561,0,0,1-.356-.222,1.893,1.893,0,0,0-1.33-.271c-.119,0-.243.007-.359.007-.32,0-.414-.088-.414-.234a.9.9,0,0,1,.07-.274,1.318,1.318,0,0,0,.1-.427.48.48,0,0,0-.194-.446,1.186,1.186,0,0,0-.637-.11.8.8,0,0,1-.374-.072.469.469,0,0,1-.2-.185.554.554,0,0,1-.069-.266h0a1.134,1.134,0,0,1,.136-.516,2.94,2.94,0,0,1,1.322-.938c.321-.161.673-.339,1.028-.553a1.006,1.006,0,0,0,.155-.114,1.114,1.114,0,0,0,.3-1.046,3.292,3.292,0,0,0-.445-1.15,2.81,2.81,0,0,0-.294-.411.911.911,0,0,1-.107-.147.626.626,0,0,1-.052-.553h0a1.262,1.262,0,0,1,.359-.486,2.847,2.847,0,0,1,.444-.316l.08-.047a14.091,14.091,0,0,0,1.692-1.1,4.2,4.2,0,0,1,.593-.434,5.526,5.526,0,0,1,.834-.355,3.772,3.772,0,0,0,.955-.473.65.65,0,0,0,.32-.532c-.009-.172-.085-.238-.24-.217a3.166,3.166,0,0,0-.866.374,2.1,2.1,0,0,1-.931.277,1.39,1.39,0,0,1-.821-.221h0a1.879,1.879,0,0,0-.649-.287,1.765,1.765,0,0,0-1.763.734,2.8,2.8,0,0,0-.319.931,1.538,1.538,0,0,1-.506.8,1.961,1.961,0,0,0-.607.977c-.209.858-.959.886-1.826.918-.123,0-.25.009-.38.016-.638.036-.772.229-.752.586a4.578,4.578,0,0,0,.068.473l.032.188a2.674,2.674,0,0,1-.065,1.165,3.8,3.8,0,0,1-.423.948.6.6,0,0,1-.217.225.323.323,0,0,1-.27.02.567.567,0,0,1-.227-.168,1.153,1.153,0,0,1-.242-.508c-.045-.221-.373-.418-.708-.619a2.107,2.107,0,0,1-.756-.605c-.2-.364-.486-.316-.929-.238-.087.015-.18.031-.28.046h0c-.336.049-.526,0-.634-.132a1,1,0,0,1-.125-.62.6.6,0,0,0-.172-.495,1.15,1.15,0,0,0-.52-.188.419.419,0,0,1-.149-.06.326.326,0,0,1-.129-.2.678.678,0,0,1,.005-.275,2.908,2.908,0,0,1,.482-.991,1.7,1.7,0,0,0,.291-.93,3.136,3.136,0,0,0-.229-1.191c-.231-.605-.47-.6-.743-.6H130.7a1.946,1.946,0,0,1-.492-.051.906.906,0,0,1-.441-.252c-.226-.235-.292-.236-.766-.236-.348,0-.39-.261-.435-.536a.89.89,0,0,0-.133-.413c-.238-.295-.082-.527.167-.9l.094-.141c.134-.2-.019-.3-.224-.426a1.355,1.355,0,0,1-.524-.484.781.781,0,0,0-.5-.432.753.753,0,0,1-.3-.164.421.421,0,0,0-.346-.12,1.61,1.61,0,0,0-.415.12.726.726,0,0,1-.542.031c-.068-.014-.151-.032-.265-.051a.746.746,0,0,0-.534.047h0a.93.93,0,0,0-.324.591c-.094.369-.23.347-.382.322-.12-.019-.254-.042-.389.338-.157.44-.35.53-.541.451a1.265,1.265,0,0,1-.471-.521h0c-.118-.2-.22-.339-.329-.355s-.251.09-.456.382c-.142.2-.242.24-.322.183a.622.622,0,0,1-.146-.322c-.054-.194-.117-.423-.265-.461a.731.731,0,0,0-.153-.023.384.384,0,0,0-.259.082.48.48,0,0,0-.148.258,1.038,1.038,0,0,0-.029.231.726.726,0,0,1-.09.39.132.132,0,0,1-.083.057.106.106,0,0,1-.095-.029.39.39,0,0,1-.1-.228.375.375,0,0,0-.092-.205.118.118,0,0,0-.069-.036.115.115,0,0,0-.075.02.409.409,0,0,0-.136.2.858.858,0,0,0-.057.5,1.517,1.517,0,0,0,.269.548,4.075,4.075,0,0,1,.385,1.874l.026.333a7.735,7.735,0,0,0,.858,2.345c.174.359.342.708.47,1.025a2.726,2.726,0,0,1-.312,2.171,5.039,5.039,0,0,0-.237.582,1.311,1.311,0,0,0-.044.786,1.813,1.813,0,0,0,.412.634,1.235,1.235,0,0,1,.27.416h0a.248.248,0,0,1,0,.158.166.166,0,0,1-.1.1.387.387,0,0,1-.184.013.472.472,0,0,1-.344-.2,1.5,1.5,0,0,1-.205-.516.515.515,0,0,0-.143-.27.252.252,0,0,0-.107-.055.244.244,0,0,0-.116,0,.449.449,0,0,0-.222.148,1.261,1.261,0,0,1-.322.293.227.227,0,0,1-.322-.08.284.284,0,0,1,.061-.382,1.662,1.662,0,0,1,.415-.3.4.4,0,0,0,.185-.167.056.056,0,0,0,.005-.034.024.024,0,0,0-.011-.016h0a.125.125,0,0,0-.088-.009.846.846,0,0,0-.3.155,3.6,3.6,0,0,0-.438.382,1.333,1.333,0,0,1-.577.3h0a.959.959,0,0,0-.3.129c-.072.059-.032.146.02.263a.988.988,0,0,1,.114.4.906.906,0,0,0,.088.4,5.107,5.107,0,0,0,.373.58,1.5,1.5,0,0,1,.278.565.2.2,0,0,1-.017.123.113.113,0,0,1-.1.059.37.37,0,0,1-.2-.077,1.232,1.232,0,0,1-.372-.386A2.605,2.605,0,0,1,118.93,32c-.068-.248-.167-.3-.273-.249a1.285,1.285,0,0,0-.392.414.329.329,0,0,1-.255.174.193.193,0,0,1-.119-.042.265.265,0,0,1-.077-.1.484.484,0,0,1,.042-.43.4.4,0,0,0,.07-.179c0-.009,0-.014,0-.015h0a.046.046,0,0,0-.029,0,.517.517,0,0,0-.216.1,2.352,2.352,0,0,1-.572.191,3.773,3.773,0,0,0-1.137.427c-.2.144-.368.072-.5-.118a4.613,4.613,0,0,1-.45-1.492l0-.007a.962.962,0,0,0-.582-.823c-.1-.06-.214-.129-.348-.223a1,1,0,0,0-.7-.188,1.367,1.367,0,0,0-.731.357.9.9,0,0,1-.5.234,1.6,1.6,0,0,0-.562.208c-.446.261-.441.608-.435,1.1h0v.189a1.477,1.477,0,0,1-.272.8,2.42,2.42,0,0,1-.717.7.889.889,0,0,0-.322.611,2.93,2.93,0,0,0,.024,1.079,2.424,2.424,0,0,1,.089.636.8.8,0,0,1-.189.451,2.45,2.45,0,0,0-.3.511,1.569,1.569,0,0,0-.127.605h0V37c0,.24,0,.447-.075.478s-.159-.086-.3-.433-.318-.438-.5-.413a1.13,1.13,0,0,0-.562.35.5.5,0,0,1-.392.193c-.075,0-.141,0-.258.158-.153.2-.062.547.066,1.031a9.247,9.247,0,0,1,.219.984,2.967,2.967,0,0,1,.049.931.21.21,0,0,1-.052.107.085.085,0,0,1-.112.006.314.314,0,0,1-.1-.144,4.105,4.105,0,0,1-.154-.755c-.051-.333-.114-.742-.215-1.181a3.106,3.106,0,0,0-.4-1.017,2.541,2.541,0,0,0-.616-.641,1.335,1.335,0,0,1-.458-.912,4.008,4.008,0,0,0-.257-.853,4.222,4.222,0,0,0-.752-1.1,3.662,3.662,0,0,0-1-.8,2.525,2.525,0,0,1-1-.91c-.062-.082-.128-.171-.2-.265-.221-.28-.551-.263-.914-.244a1.992,1.992,0,0,1-.948-.108,3.87,3.87,0,0,0-1.062-.255,4.409,4.409,0,0,1-1.071-.248,1.032,1.032,0,0,0-.36-.083.652.652,0,0,0-.42.125.916.916,0,0,0-.29.4,2.077,2.077,0,0,0-.133.7c-.02.591,0,1.025.019,1.461.014.308.028.62.028.983a2.734,2.734,0,0,0,.222,1.069,1.327,1.327,0,0,1,.133.588,1.046,1.046,0,0,0,.078.534h0a3.047,3.047,0,0,0,.394.6,2.368,2.368,0,0,1,.511,1.285l.039.205c.07.372.353.475.638.579a1.057,1.057,0,0,1,.641.438,6.517,6.517,0,0,1,.474,1.288,7.289,7.289,0,0,1,.256,1.385,4.964,4.964,0,0,1-.182,1.347,6.736,6.736,0,0,0-.2,1.217,4.082,4.082,0,0,0,.408,1.613,4.9,4.9,0,0,1,.3.9.815.815,0,0,1-.065.583.3.3,0,0,1-.14.122.277.277,0,0,1-.173.012.43.43,0,0,1-.258-.224,2.347,2.347,0,0,1-.156-.643,2.623,2.623,0,0,0-.6-1.546A1.86,1.86,0,0,1,99,44.417a2.713,2.713,0,0,0-.073-.748,5.791,5.791,0,0,1-.208-.806,6.537,6.537,0,0,1-.069-.988c-.01-.743-.169-.782-.478-.854h0l-.1-.024h0c-.271-.07-.414-.495-.577-.982a5.6,5.6,0,0,0-.362-.9,1.531,1.531,0,0,0-.514-.626,1.363,1.363,0,0,0-.581-.14,2.649,2.649,0,0,1-1-.316,1.281,1.281,0,0,1-.572-.588,10.548,10.548,0,0,1-.35-2.046c-.045-.4-.089-.768-.135-1.042-.094-.563-.253-.607-.5-.676a1.723,1.723,0,0,1-.367-.136c-.448-.235-.45-.635-.451-1.253h0c0-.093,0-.19,0-.273a.693.693,0,0,0-.277-.643,1.227,1.227,0,0,0-.6-.12.8.8,0,0,0-.468.09.5.5,0,0,0-.192.35.725.725,0,0,1-.18.381h0a.343.343,0,0,1-.115.08.234.234,0,0,1-.125.015.2.2,0,0,1-.1-.056.356.356,0,0,1-.113-.3,2.547,2.547,0,0,1,.17-.682.794.794,0,0,0,.008-.533.665.665,0,0,0-.157-.244.608.608,0,0,0-.232-.145h0a.529.529,0,0,0-.356,0c-.238.088-.274.36-.31.65a1.418,1.418,0,0,1-.2.676.633.633,0,0,1-.233.217.125.125,0,0,1-.124-.011h0a.169.169,0,0,1-.062-.107,1.142,1.142,0,0,1,.052-.486.8.8,0,0,0,.023-.373.368.368,0,0,0-.086-.172.3.3,0,0,0-.153-.092.517.517,0,0,0-.25,0,2.049,2.049,0,0,0-.627.308,2.212,2.212,0,0,1-.471.253c-.2.068-.337.374-.473.685a3.69,3.69,0,0,1-.234.476.957.957,0,0,0-.1.657,3.033,3.033,0,0,0,.2.672.482.482,0,0,1,.017.38.218.218,0,0,1-.094.1.208.208,0,0,1-.141.019.61.61,0,0,1-.345-.294.642.642,0,0,0-.237-.237.176.176,0,0,0-.126-.015.192.192,0,0,0-.1.07h0a.4.4,0,0,0-.075.2c-.013.159-.047.257-.14.287s-.206-.016-.4-.132a1.261,1.261,0,0,0-.488-.193,1.309,1.309,0,0,0-.539.049,2.7,2.7,0,0,1-.416.067,3.45,3.45,0,0,0-1.228.343.946.946,0,0,0-.627.735,2.181,2.181,0,0,0,.194,1c.218.581-.151.885-.52,1.189a3.351,3.351,0,0,0-.34.309.588.588,0,0,0-.13.622,1.738,1.738,0,0,0,.448.626.908.908,0,0,1,.361.745c0,.069.009.148.022.237a1.834,1.834,0,0,0,.28.782l.1.2a2.872,2.872,0,0,1,.225,1.08,5.817,5.817,0,0,1-.083,1.4c-.033.159-.064.337-.1.516a3.019,3.019,0,0,1-.4,1.311.653.653,0,0,1-.075.068.478.478,0,0,1-.383.109.836.836,0,0,1-.431-.247,2.26,2.26,0,0,1-.189-.209.7.7,0,0,0-.226-.206.145.145,0,0,0-.12-.011.221.221,0,0,0-.093.1,1.025,1.025,0,0,0-.1.369.554.554,0,0,1-.065.218.264.264,0,0,1-.179.132.428.428,0,0,1-.251-.038,1.641,1.641,0,0,1-.466-.35,3.737,3.737,0,0,1-.628-1.867c-.072-.4-.153-.839-.268-1.3a2.52,2.52,0,0,0-1.851-1.762c-.045-.014-.084-.027-.115-.039a.779.779,0,0,1-.346-.192.831.831,0,0,1-.146-.446.665.665,0,0,0-.29-.521c-.055-.046-.115-.1-.178-.16-.23-.23-.238-.3-.286-.751-.009-.09-.021-.2-.038-.336a11.2,11.2,0,0,0-.655-2.008c-.148-.38-.274-.7-.32-.879a4.049,4.049,0,0,0-.2-.614.729.729,0,0,0-.258-.342c-.221-.132-.237-.194-.344-.608l-.047-.181c-.072-.273-.179-.261-.3-.248a.391.391,0,0,1-.4-.133.468.468,0,0,0-.062-.059.5.5,0,0,0-.405-.082.958.958,0,0,0-.444.218.939.939,0,0,0-.133.139.56.56,0,0,1-.651.27c-.062-.007-.131-.016-.208-.02a.922.922,0,0,0-.529.279,1.39,1.39,0,0,1-.834.4c-.273,0-.42.052-.488.153a.655.655,0,0,0-.023.463,1.371,1.371,0,0,1,.012.547,1.073,1.073,0,0,1-.23.436c-.178.222-.073.347.085.534h0l.064.076h0a1.493,1.493,0,0,1,.188.724,6.056,6.056,0,0,1-.027,1.164,1.548,1.548,0,0,0,.444,1.163c.047.062.093.121.131.177a1.225,1.225,0,0,1,.043,1.1l-.023.088a.475.475,0,0,0,.045.411.912.912,0,0,0,.352.264.43.43,0,0,1,.247.446,2.1,2.1,0,0,1-.234.735c-.161.342-.034.555.157.874a4.049,4.049,0,0,1,.384.786,3.547,3.547,0,0,1,.156,1.392,2.3,2.3,0,0,1-.361,1.182,1.039,1.039,0,0,0-.261.488,1.457,1.457,0,0,0,.054.5c.075.357.032.379-.2.5a2.678,2.678,0,0,0-.286.166c-.224.149-.205.486-.188.792.016.27.029.519-.119.639a.964.964,0,0,0-.314.459,2.017,2.017,0,0,0-.069.805,2.048,2.048,0,0,1-.057.795.262.262,0,0,1-.068.109.1.1,0,0,1-.124.006.354.354,0,0,1-.1-.177,1.526,1.526,0,0,1-.055-.753c.01-.1.023-.217.029-.356.013-.27-.036-.312-.108-.375a.7.7,0,0,1-.208-.278h0c-.1-.221-.228-.179-.394-.128a1.149,1.149,0,0,1-.289.066.892.892,0,0,0-.435.157.159.159,0,0,0-.055.062.027.027,0,0,0,0,.029.359.359,0,0,0,.192.075c.288.053.384.118.371.192s-.154.131-.318.192l-.033.013a.234.234,0,0,0-.115.077.072.072,0,0,0-.011.055.152.152,0,0,0,.044.069.621.621,0,0,0,.3.136c.346.071.444.217.634.5.035.052.073.109.12.175.179.255.042.538-.1.829a1.405,1.405,0,0,0-.188.568.627.627,0,0,1-.088.339.4.4,0,0,1-.2.164.405.405,0,0,1-.263,0,.744.744,0,0,1-.336-.232,1.813,1.813,0,0,1-.34-.6,1.339,1.339,0,0,0-.344-.559c-.235-.215-.2-.646-.173-1.047a1.315,1.315,0,0,0-.052-.718.264.264,0,0,0-.1-.088.11.11,0,0,0-.1.007.353.353,0,0,0-.116.122,1.436,1.436,0,0,0-.178.566.858.858,0,0,1-.112.382.12.12,0,0,1-.2.009h0a.669.669,0,0,1-.125-.306,2.516,2.516,0,0,1,.07-.79,3.248,3.248,0,0,0,.078-1.125,1.941,1.941,0,0,1,.159-.918c.14-.431.286-.873.059-1.148a.539.539,0,0,0-.7-.114,2.75,2.75,0,0,0-.7.508,1.076,1.076,0,0,1-.7.277,3.2,3.2,0,0,1-.842-.092.7.7,0,0,0-.149-.017.4.4,0,0,0-.317.138.812.812,0,0,0-.163.365,2.218,2.218,0,0,0-.042.463,3.324,3.324,0,0,1-.512,1.523l-.056.107a3.191,3.191,0,0,0-.251.72,2.317,2.317,0,0,1-.28.732,2.619,2.619,0,0,0-.256,1,17.6,17.6,0,0,0-.092,1.956,3.709,3.709,0,0,0,.471,1.839,3.587,3.587,0,0,1,.192.427l.075.213a2.262,2.262,0,0,1,.185.71c-.01.106-.061.165-.175.155a.53.53,0,0,1-.384-.173,1.567,1.567,0,0,1-.293-.669,4.568,4.568,0,0,0-.285-.761,5.094,5.094,0,0,1-.4-1.194,1.405,1.405,0,0,0-.315-.71.4.4,0,0,0-.182-.115.2.2,0,0,0-.149.017.275.275,0,0,0-.116.14,2.761,2.761,0,0,0-.11.961,16.152,16.152,0,0,0,.126,1.756,4.937,4.937,0,0,1-.4,2.691l-.078.2a3.532,3.532,0,0,0,.256,1.956,4.758,4.758,0,0,1,.217.855,1.6,1.6,0,0,1-.085.738.492.492,0,0,1-.118.179h0a.2.2,0,0,1-.17.053h0a.23.23,0,0,1-.117-.068c-.174-.174-.128-.332-.048-.6.032-.107.07-.237.1-.394a.8.8,0,0,0-.172-.673,3.534,3.534,0,0,1-.332-.654,11.736,11.736,0,0,1-.41-1.282,4.093,4.093,0,0,1-.143-.94c0-.274-.007-.946-.014-1.681-.01-.914-.02-1.926-.02-2.359a1.088,1.088,0,0,0-.465-.849,1.322,1.322,0,0,1-.5-.772c-.045-.268-.147-.346-.287-.321a1.987,1.987,0,0,0-.606.321c-.111.073-.229.15-.349.221a3.611,3.611,0,0,1-.879.4.492.492,0,0,1-.2.013.145.145,0,0,1-.122-.118.3.3,0,0,1,.016-.142,3.071,3.071,0,0,1,.788-.78A5.968,5.968,0,0,0,56.6,51.484a1.8,1.8,0,0,0-.007-1.637c-.05-.141-.1-.286-.145-.438a.647.647,0,0,0-.1-.21.272.272,0,0,0-.23-.114.669.669,0,0,0-.314.108,2.37,2.37,0,0,0-.533.465,2.425,2.425,0,0,1-.56.5.379.379,0,0,1-.169.055.145.145,0,0,1-.135-.077h0a.3.3,0,0,1-.032-.146,1.5,1.5,0,0,1,.362-.633c.293-.389.642-.852.462-1.142-.223-.357-.789-.4-1.5-.456-.262-.02-.543-.042-.837-.082-1.106-.149-1.1-1.346-1.1-1.991v-.07c0-.114.01-.222.019-.323.039-.415.069-.743-.7-1.369a1.529,1.529,0,0,1-.481-.53.16.16,0,0,1,.024-.174h0a.24.24,0,0,1,.162-.063,1.439,1.439,0,0,1,.651.165.864.864,0,0,1,.552.808c.01.072.022.148.039.227a1.723,1.723,0,0,0,.272.575,2.907,2.907,0,0,1,.334.659c.107.32.293.348.527.383a1.486,1.486,0,0,1,.491.138.651.651,0,0,0,.075.034,1.452,1.452,0,0,0,.794.019.853.853,0,0,0,.562-.33c0-.01.01-.019.012-.027a1.763,1.763,0,0,1,.29-.526,1.561,1.561,0,0,1,.575-.422c.116-.052.144-.1.124-.141a.847.847,0,0,0-.207-.21,1.2,1.2,0,0,1-.415-.5c-.073-.23-.322-.224-.541-.219-.2.005-.381.008-.445-.144-.07-.168-.037-.253.119-.318a2.813,2.813,0,0,1,.439-.111c.093-.018.2-.042.316-.067a1.612,1.612,0,0,0,.816-.4,2.512,2.512,0,0,0,.537-.878,4.891,4.891,0,0,0,.31-.89,1.386,1.386,0,0,0-.049-.671,1.392,1.392,0,0,1,.06-.738,1.876,1.876,0,0,0,.032-1.131c-.16-.5-.692-.423-1.108-.361-.237.036-.441.066-.549-.015a.142.142,0,0,1-.036-.228,1.02,1.02,0,0,1,.192-.171c.143-.107.3-.231.273-.364-.057-.237-.659-.095-1.383.077l-.369.087a2,2,0,0,1-.842.061.26.26,0,0,1-.144-.084h0a.148.148,0,0,1-.014-.151h0a.615.615,0,0,1,.238-.241,3.774,3.774,0,0,1,1.109-.344,18.353,18.353,0,0,1,1.958-.272c.235-.015.328-.1.334-.232a1.645,1.645,0,0,0-.207-.636.583.583,0,0,0-.485-.384,2.741,2.741,0,0,0-.878.126,1.963,1.963,0,0,1-.224.042,1.318,1.318,0,0,1-.79-.135.814.814,0,0,1-.41-.514c-.007-.03-.013-.06-.017-.092a.53.53,0,0,1,.151-.519.774.774,0,0,1,.462-.123c.062,0,.085-.026.084-.066a1.493,1.493,0,0,0-.184-.448c-.073-.144-.156-.306-.222-.471-.12-.3-.356-.2-.608-.1a1.108,1.108,0,0,1-.5.128c-.079-.007-.112.024-.116.08a1.446,1.446,0,0,0,.1.438,2.914,2.914,0,0,1,.145.644,1,1,0,0,1-.162.606.788.788,0,0,1-.207.218.325.325,0,0,1-.22.069.166.166,0,0,1-.1-.05h0a.437.437,0,0,1-.078-.394,1.869,1.869,0,0,1,.244-.575.488.488,0,0,0,.081-.246.247.247,0,0,0-.04-.136.293.293,0,0,0-.1-.094.482.482,0,0,0-.24-.064.83.83,0,0,1-.382-.063h0a.628.628,0,0,1-.3-.4,1.126,1.126,0,0,1,.011-.631.87.87,0,0,0,.024-.449,1.365,1.365,0,0,1-.064-.488,4.086,4.086,0,0,1,.085-.582.721.721,0,0,0-.169-.606,1.569,1.569,0,0,1-.208-.389.744.744,0,0,0-.254-.4,1.153,1.153,0,0,0-.475-.165l-.132-.023a.759.759,0,0,1-.719-.5,1.218,1.218,0,0,0-.286-.361.741.741,0,0,1-.269-.43A1.923,1.923,0,0,0,48.9,27.6a2.587,2.587,0,0,1-.2-.545.582.582,0,0,0-.055-.14.433.433,0,0,0-.278-.212.706.706,0,0,0-.333,0,.544.544,0,0,0-.132.05.659.659,0,0,1-.392.1c-.143-.019-.277-.116-.36-.356a.418.418,0,0,0-.143-.217.214.214,0,0,0-.132-.042.242.242,0,0,0-.126.043.278.278,0,0,0-.108.145.4.4,0,0,1-.068.132.207.207,0,0,1-.115.07.252.252,0,0,1-.126-.009.591.591,0,0,1-.188-.112h0l-.055-.049c-.11-.1-.218-.2-.394-.054h0a.34.34,0,0,1-.147.075.173.173,0,0,1-.148-.037.293.293,0,0,1-.086-.137h0a1,1,0,0,1-.024-.406,2.425,2.425,0,0,0-.01-.531,1.535,1.535,0,0,1,0-.461.764.764,0,0,0,.016-.332.2.2,0,0,0-.169-.146c-.241-.046-.238-.2-.23-.585,0-.075,0-.159,0-.27a.964.964,0,0,0-.159-.609,1.283,1.283,0,0,0-.577-.374.837.837,0,0,1-.6-.789c-.014-.076-.029-.158-.052-.245l-.033-.138c-.115-.473-.3-1.225-.64-1.4a.461.461,0,0,0-.212-.065.067.067,0,0,0-.055.026h0a.15.15,0,0,0-.016.094,1.417,1.417,0,0,0,.214.537.632.632,0,0,1,.107.419.285.285,0,0,1-.115.182.413.413,0,0,1-.211.068.916.916,0,0,1-.569-.187,2.552,2.552,0,0,1-.522-.617c-.213-.31-.411-.6-.621-.556s-.319.25-.436.478a1.7,1.7,0,0,1-.366.531.91.91,0,0,1-.319.18.925.925,0,0,1-.446.031.63.63,0,0,1-.359-.192.47.47,0,0,1-.1-.17c-.114-.349-.272-.38-.743-.472l-.045-.009a.755.755,0,0,1-.5-.293,1.719,1.719,0,0,0-.554-.424.717.717,0,0,0-.506-.108.15.15,0,0,0-.082.059.155.155,0,0,0-.019.1.568.568,0,0,0,.26.347l0,0h0a2.108,2.108,0,0,1,.57.677.5.5,0,0,1-.119.517h0a.383.383,0,0,1-.12.111.179.179,0,0,1-.187-.007.421.421,0,0,1-.137-.154,2.224,2.224,0,0,1-.2-.589c-.051-.242-.176-.24-.316-.237a.508.508,0,0,1-.379-.1.257.257,0,0,0-.172-.067.315.315,0,0,0-.149.04.469.469,0,0,0-.247.39.413.413,0,0,1-.078.259.236.236,0,0,1-.128.085.242.242,0,0,1-.161-.018.632.632,0,0,1-.269-.277A.743.743,0,0,0,34.2,20.3a.66.66,0,0,0-.238-.055.365.365,0,0,0-.187.042.181.181,0,0,0-.08.086.463.463,0,0,0,.034.409,1.977,1.977,0,0,0,.514.575h0a1.813,1.813,0,0,1,.352.38,1.068,1.068,0,0,1,.189.476.548.548,0,0,1-.116.415h0a.625.625,0,0,1-.119.106,1.107,1.107,0,0,1-.643.182,2.41,2.41,0,0,1-.593-.095h0a.8.8,0,0,0-.39-.039c-.085.024-.14.095-.166.238a.849.849,0,0,0,.285.634,3.776,3.776,0,0,0,.94.725,3.727,3.727,0,0,0,1.111.473,1.316,1.316,0,0,0,.838-.109,1.441,1.441,0,0,0,.61-.509,2.527,2.527,0,0,0,.315-.71.769.769,0,0,1,.247-.4.369.369,0,0,1,.189-.076.276.276,0,0,1,.175.045.3.3,0,0,1,.119.165.283.283,0,0,1-.083.3.747.747,0,0,0-.179.541c0,.274.059.431.179.479s.327-.005.6-.158a3.087,3.087,0,0,0,1.062-1.111c.055-.081.113-.166.172-.25a.752.752,0,0,1,.377-.309.471.471,0,0,1,.283,0h0a.488.488,0,0,1,.206.128h0a.294.294,0,0,1,.09.188c0,.133-.039.177-.137.177a.882.882,0,0,1-.173-.03l-.119-.027a.255.255,0,0,0-.255.046.556.556,0,0,0-.084.363,1.209,1.209,0,0,1-.274.654,2.291,2.291,0,0,0-.269.488.444.444,0,0,0,.066.483h0a1.4,1.4,0,0,0,.613.321,1.2,1.2,0,0,0,.791-.042,2.679,2.679,0,0,0,.879-.589c.273-.261.42-.344.5-.327.106.021.1.15.082.3a.645.645,0,0,1-.209.374,2.165,2.165,0,0,1-.437.307.988.988,0,0,0-.364.318.257.257,0,0,0-.034.1.15.15,0,0,0,.019.088.3.3,0,0,0,.115.1,2.472,2.472,0,0,0,.828.236,1.982,1.982,0,0,0,.784-.034,1.161,1.161,0,0,1,.529-.082c.131.037.144.144.011.334-.145.21-.519.225-.887.24a2.717,2.717,0,0,0-.555.057c-.07.019-.138.036-.2.051-.265.064-.393.095-.451.3a.45.45,0,0,1-.149.227.381.381,0,0,1-.192.083.325.325,0,0,1-.209-.045h0a.433.433,0,0,1-.167-.2.569.569,0,0,0-.232-.3.806.806,0,0,0-.353-.059l-.076,0a1.94,1.94,0,0,1-1.32-.514,1.083,1.083,0,0,0-.986-.179,2.727,2.727,0,0,0-.79.4,2.8,2.8,0,0,1-.547.243c-.4.145-.824.3-.831.588a1.75,1.75,0,0,0,.3.844,3.966,3.966,0,0,0,.77.917,3.7,3.7,0,0,1,.741.943,5.177,5.177,0,0,0,.539.76,1.426,1.426,0,0,0,1.185.3,2.258,2.258,0,0,1,.989.119,1.184,1.184,0,0,1,.6.481,1.144,1.144,0,0,0,.374.372c.1.067.222.128.334.186s.2.1.287.158a.556.556,0,0,1,.209.9.7.7,0,0,0,.095.992,2.578,2.578,0,0,1,.24.331c.074.128.134.217.183.29a1.11,1.11,0,0,1,.225.743,6.67,6.67,0,0,0,.141.91,7.717,7.717,0,0,1,.145.879,2.8,2.8,0,0,1-.331,1.278,5.726,5.726,0,0,0-.279.747,1.56,1.56,0,0,1-.394.731.478.478,0,0,1-.176.11.19.19,0,0,1-.169-.017h0a.218.218,0,0,1-.083-.122c-.059-.19.106-.507.3-.886a6.332,6.332,0,0,0,.409-.9c.124-.379.049-.471-.043-.581a.732.732,0,0,1-.19-.551c0-.33-.168-.324-.32-.318s-.309.012-.334-.2a1.712,1.712,0,0,0-.106-.47c-.04-.088-.091-.134-.155-.108a1.07,1.07,0,0,0-.319.448,6.214,6.214,0,0,0-.374.966,5.208,5.208,0,0,1-.37.858,3.269,3.269,0,0,0-.363.927.884.884,0,0,1-.2.5.18.18,0,0,1-.108.051.139.139,0,0,1-.106-.043h0a.376.376,0,0,1-.075-.259,1.538,1.538,0,0,1,.228-.727c.068-.138.148-.3.235-.509a8.517,8.517,0,0,0,.516-1.716,3.022,3.022,0,0,0,0-1.258A4.855,4.855,0,0,0,38.8,33.95h0c-.145-.185-.277-.356-.374-.509l-.012-.016a1.162,1.162,0,0,0-.747-.443,1.093,1.093,0,0,0-.723.057l-.007,0h0a.465.465,0,0,0-.228.372,1.207,1.207,0,0,0,.2.626h0a2.644,2.644,0,0,0,.23.343,1.085,1.085,0,0,1,.247.78,2.9,2.9,0,0,1-.115,1,5.3,5.3,0,0,1-.314.8.591.591,0,0,1-.245.3.137.137,0,0,1-.11,0,.135.135,0,0,1-.07-.083.6.6,0,0,1,.055-.389,4.4,4.4,0,0,0,.26-1.066c.027-.263.015-.483-.072-.548s-.151-.054-.219.036a3.962,3.962,0,0,0-.32.643l-.036.081a1.493,1.493,0,0,1-.433.618.291.291,0,0,1-.153.057.158.158,0,0,1-.132-.064.377.377,0,0,1-.057-.243,1.574,1.574,0,0,1,.469-.776c.219-.256.438-.51.438-.7a.715.715,0,0,0-.036-.276c-.007-.013-.012-.021-.016-.021s-.01,0-.019.008a.51.51,0,0,0-.131.166l0,.007v0a.659.659,0,0,1-.566.225,1.324,1.324,0,0,1-.6-.128h0l-.011-.006h0a.716.716,0,0,0-.334-.122.326.326,0,0,0-.276.133,1.957,1.957,0,0,1-.4.382.3.3,0,0,1-.119.049.1.1,0,0,1-.109-.069.338.338,0,0,1,.009-.176.8.8,0,0,1,.482-.582h0c.082-.05.178-.107.285-.182a1.263,1.263,0,0,0,.411-.793,2.408,2.408,0,0,0-.04-1.133.735.735,0,0,0-.4-.513,1.056,1.056,0,0,0-.518-.025c-.354.045-.478-.362-.624-.842-.02-.065-.04-.132-.063-.2a1.671,1.671,0,0,0-.447-.664,3.158,3.158,0,0,0-.835-.567,2.894,2.894,0,0,1-1-.851c-.066-.076-.134-.156-.211-.241a1.118,1.118,0,0,0-.79-.337,3.7,3.7,0,0,1-.784-.176c-.38-.135-.456-.034-.55.088h0a.62.62,0,0,1-.593.282c-.7,0-.9.337-1.171.787l-.036.06a.289.289,0,0,0,.083.445,1.708,1.708,0,0,0,.571.189c.062.012.129.023.2.034.355.057.776.125.83.4h0c.037.187-.011.269-.151.268a1.476,1.476,0,0,1-.509-.188.949.949,0,0,0-.557-.079.938.938,0,0,1-.617-.106.667.667,0,0,0-.518-.138c-.12.051-.188.231-.162.617a1.554,1.554,0,0,0,.65,1.035,1.36,1.36,0,0,1,.426.513c.107.323.31.4.63.517.1.037.212.079.329.13a2.411,2.411,0,0,1,.737.471,1.416,1.416,0,0,1,.418.809.883.883,0,0,1-.011.455.136.136,0,0,1-.1.086.163.163,0,0,1-.128-.041,1.2,1.2,0,0,1-.3-.5c-.207-.548-.56-.6-1.047-.666-.077-.01-.159-.022-.244-.036a3.4,3.4,0,0,1-1.222-.66,7.758,7.758,0,0,0-1.019-.642,1.961,1.961,0,0,0-.561-.192.78.78,0,0,0-.478.059.766.766,0,0,0-.333.361,1.943,1.943,0,0,0-.16.559,2.216,2.216,0,0,0,.252,1.394,4.459,4.459,0,0,0,.892,1.12c.352.334.651.651.922.955s.512.6.747.885h0a1.118,1.118,0,0,0,.918.5c.054,0,.107.009.162.016h0a.7.7,0,0,1,.391.157,2.875,2.875,0,0,1,.39.472,2.462,2.462,0,0,0,1.192.588,4.154,4.154,0,0,1,.732.27,3.063,3.063,0,0,1,.589.384.313.313,0,0,1,.077.106.1.1,0,0,1-.027.119h0a.2.2,0,0,1-.091.037.518.518,0,0,1-.333-.023A2.012,2.012,0,0,1,30,39.5a2.618,2.618,0,0,0-.743-.323,3.949,3.949,0,0,1-1.15-.526,1.931,1.931,0,0,0-.791-.379,1.883,1.883,0,0,0-.64,0,.829.829,0,0,1-.512-.04,1.193,1.193,0,0,1-.434-.478,1.034,1.034,0,0,0-.747-.377,1.771,1.771,0,0,1-.827-.333c-.038-.033-.078-.063-.115-.092a1.25,1.25,0,0,0-.654-.271.646.646,0,0,0-.54.247.513.513,0,0,0-.039.049h0a1.914,1.914,0,0,0-.294.992,7.355,7.355,0,0,0,.074,1.472,1.377,1.377,0,0,0,.627,1.1,1.561,1.561,0,0,1,.433.433c.25.4.385.41.683.432.1.007.208.016.348.037a1.1,1.1,0,0,1,.771.446,3.616,3.616,0,0,0,.311.314,1.522,1.522,0,0,0,1.079.147,2.825,2.825,0,0,1,.921.025,4.219,4.219,0,0,0,1.308.047,4.135,4.135,0,0,0,1.274-.285c.3-.148.484-.189.563-.119h0c.083.073.045.246-.092.522a.791.791,0,0,1-.433.41.882.882,0,0,1-.62-.018.775.775,0,0,0-.365-.078.679.679,0,0,0-.417.239c-.223.231-.562.164-.946.088a2.971,2.971,0,0,0-.73-.083.853.853,0,0,0-.5.164.456.456,0,0,0-.129.169.494.494,0,0,0-.039.228,1.427,1.427,0,0,0,.381.778,2.106,2.106,0,0,0,1.889.613,2.564,2.564,0,0,1,.4,0,.466.466,0,0,1,.239.081.1.1,0,0,1,.032.114.191.191,0,0,1-.082.09,1.788,1.788,0,0,1-.685.173.853.853,0,0,0-.628.253.725.725,0,0,0-.094.442.462.462,0,0,1-.076.266.3.3,0,0,1-.151.114.316.316,0,0,1-.2-.007.7.7,0,0,1-.305-.25c-.2-.267-.26-.22-.41-.1a2.074,2.074,0,0,1-.268.192c-.226.132-.4.151-.509.064S26,46.211,26,45.942l0-.093a1.984,1.984,0,0,0-.351-1.316,2.356,2.356,0,0,0-1.19-.973c-.077-.037-.153-.072-.223-.108s-.137-.069-.2-.1a3.566,3.566,0,0,1-1.154-.829,8.458,8.458,0,0,0-1.161-.87A7.2,7.2,0,0,1,20.265,40.5a1.782,1.782,0,0,0-.381-.353,1.3,1.3,0,0,0-.61-.23.624.624,0,0,0-.448.11.37.37,0,0,0-.073.078,1.357,1.357,0,0,0-.117.79,3.619,3.619,0,0,1-.024.681,3.638,3.638,0,0,0,.535,1.7c.049.1.093.188.126.26a2.144,2.144,0,0,0,.459.634,4.092,4.092,0,0,0,.9.65,7.252,7.252,0,0,1,1.009.666,2.868,2.868,0,0,1,.617.648.824.824,0,0,1,.161.436.151.151,0,0,1-.042.1h0a.117.117,0,0,1-.113.024.647.647,0,0,1-.286-.241.512.512,0,0,0-.418-.221.7.7,0,0,1-.582-.343.717.717,0,0,0-.656-.336,1.119,1.119,0,0,1-.5-.107,1.713,1.713,0,0,0-.455-.165.411.411,0,0,0-.217.01.181.181,0,0,0-.1.127h0a.482.482,0,0,0-.009.172,2.285,2.285,0,0,0,.5.958,3.588,3.588,0,0,1,.363.564,3.237,3.237,0,0,0,.509.654,2.253,2.253,0,0,1,.608.885c.055.343.246.4.532.485l.156.047c.222.072.315.15.312.237h0c0,.085-.1.161-.272.239a.649.649,0,0,1-.61-.106,1.742,1.742,0,0,1-.559-.628,1.451,1.451,0,0,0-.417-.521.752.752,0,0,0-.423-.118,1.039,1.039,0,0,1-.59-.333,7.63,7.63,0,0,1-.6-.65c-.089-.1-.163-.2-.231-.295a1.425,1.425,0,0,0-.813-.631,1.992,1.992,0,0,1-.707-.446,1.923,1.923,0,0,0-.783-.471.838.838,0,0,0-.119-.024.683.683,0,0,0-.582.212,1.5,1.5,0,0,0-.348.663,2.272,2.272,0,0,0-.066.344,2.163,2.163,0,0,1-.226.856h0a1.041,1.041,0,0,1-.625.437,1.254,1.254,0,0,0-.628.443,2.608,2.608,0,0,1-.5.468c-.273.19-.4.345-.41.489s.089.284.267.452a.962.962,0,0,0,.692.227,5.88,5.88,0,0,0,1.019-.136,2.334,2.334,0,0,1,.938.026,1.579,1.579,0,0,0,.859-.013c.517-.172.83.048,1.251.343.133.093.277.194.444.293.338.2.621.366.87.481a1.609,1.609,0,0,0,.665.177c.225,0,.3.1.3.279a2.12,2.12,0,0,1-.1.5c-.026.094-.054.2-.08.311a.679.679,0,0,0,.049.58,1.272,1.272,0,0,0,.486.337h0a1.538,1.538,0,0,0,.624.175,2.579,2.579,0,0,0,.684-.076,4.01,4.01,0,0,1,.783-.117h0l.291-.021A1.3,1.3,0,0,0,23.189,53a1.251,1.251,0,0,0,.41-.593,1.155,1.155,0,0,1,.811-.628A4.478,4.478,0,0,1,25.6,51.65a1.887,1.887,0,0,0,.89-.186,3.025,3.025,0,0,0,.636-.477.92.92,0,0,1,.7-.281,1.341,1.341,0,0,1,.77.407,1.578,1.578,0,0,0,.97.39,1.093,1.093,0,0,0,.862-.3,3.711,3.711,0,0,0,.44-2.008l.005-.127a.6.6,0,0,1,.092-.354.123.123,0,0,1,.1-.047.154.154,0,0,1,.1.048.62.62,0,0,1,.141.349.7.7,0,0,0,.079.327c.037.041.112.044.254.029a.519.519,0,0,1,.412.172,1.07,1.07,0,0,0,.511.264.841.841,0,0,0,.655-.144,2.508,2.508,0,0,0,.578-.6c.2-.268.321-.408.427-.443.126-.042.212.039.324.217a.173.173,0,0,0,.272.068,1.938,1.938,0,0,0,.433-.495,1.2,1.2,0,0,1,.462-.42.408.408,0,0,1,.2-.039.214.214,0,0,1,.158.089.341.341,0,0,1,.056.206c0,.249-.22.478-.459.727a2.726,2.726,0,0,0-.466.582h0a.509.509,0,0,0-.056.161.37.37,0,0,0,.072.283.749.749,0,0,0,.256.205,1.292,1.292,0,0,0,.378.125.53.53,0,0,1,.4.231,1.766,1.766,0,0,1,.181.507.343.343,0,0,0,.181.235.307.307,0,0,0,.441-.25,7.524,7.524,0,0,0-.055-1.131c-.057-.59-.146-1.284-.232-1.817a.925.925,0,0,1,.057-.611.394.394,0,0,1,.213-.177.518.518,0,0,1,.256-.016.6.6,0,0,1,.359.192c.149.2.019.407-.145.663-.038.059-.078.12-.116.186a1.413,1.413,0,0,0,0,.818c.067.36.182.761.272,1.082a.661.661,0,0,0,.172.327.116.116,0,0,0,.088.027.164.164,0,0,0,.093-.057h0a.9.9,0,0,0,.178-.462.611.611,0,0,1,.129-.336.181.181,0,0,1,.146-.058.257.257,0,0,1,.142.062.751.751,0,0,1,.222.359.362.362,0,0,0,.086.157.134.134,0,0,0,.094.042.214.214,0,0,0,.121-.046.806.806,0,0,0,.222-.289,4.565,4.565,0,0,0,.192-1.875l0-.11a.956.956,0,0,1,.069-.46.112.112,0,0,1,.126-.06.206.206,0,0,1,.11.1,2.067,2.067,0,0,1,.211.856,11.509,11.509,0,0,1-.019,1.428,3.5,3.5,0,0,0,.044,1.312.251.251,0,0,0,.054.056.493.493,0,0,0,.369.059,1.213,1.213,0,0,0,.487-.2,1.3,1.3,0,0,0,.3-.29,1.325,1.325,0,0,1,.63-.465.8.8,0,0,0,.369-.246,1.415,1.415,0,0,1,.337-.34.266.266,0,0,1,.12-.042.116.116,0,0,1,.109.055.233.233,0,0,1,.031.115c.009.2-.052.265-.2.417-.055.055-.123.125-.2.216a.445.445,0,0,0-.107.194.18.18,0,0,0,.02.133.265.265,0,0,0,.126.1.854.854,0,0,0,.388.042,2,2,0,0,0,.907-.389,2.641,2.641,0,0,0,.739-.791,1.154,1.154,0,0,1,.286-.369.113.113,0,0,1,.135-.007.167.167,0,0,1,.057.125,2.106,2.106,0,0,1-.131.717,1.492,1.492,0,0,1-.742.811,3.208,3.208,0,0,1-1.384.4,1.914,1.914,0,0,0-.689.133,1.011,1.011,0,0,0-.461.314l-.01.016a.385.385,0,0,0,.01.346.931.931,0,0,0,.351.386c.022.015.045.029.067.041a3.35,3.35,0,0,1,.651.509,8.684,8.684,0,0,1,.626.686.656.656,0,0,0,.208.174.307.307,0,0,0,.2.028.445.445,0,0,0,.187-.1,1.127,1.127,0,0,0,.27-.37,2.121,2.121,0,0,1,.686-.732h0l.144-.111c.25-.2.246-.4.235-.884l0-.1c-.006-.308.037-.463.114-.513s.2.01.321.144a.767.767,0,0,1,.178.511,2.488,2.488,0,0,0,.052.349.363.363,0,0,0,.128.222.132.132,0,0,0,.082.026h0a.144.144,0,0,0,.083-.034.474.474,0,0,0,.133-.29.462.462,0,0,1,.113-.253.274.274,0,0,1,.194-.084.428.428,0,0,1,.215.062h0a.944.944,0,0,1,.344.386,3.4,3.4,0,0,1,.291.725.921.921,0,0,1-.065.7.414.414,0,0,0-.069.174A.049.049,0,0,0,47.4,54a.138.138,0,0,0,.076.016,1.145,1.145,0,0,0,.406-.111,1,1,0,0,1,.581-.055.765.765,0,0,1,.482.27.33.33,0,0,0,.293.131.981.981,0,0,0,.475-.148,1.08,1.08,0,0,1,.606-.141.407.407,0,0,1,.149.042.15.15,0,0,1,.083.109.168.168,0,0,1-.035.122.817.817,0,0,1-.35.29,1.555,1.555,0,0,1-.634.112,1.942,1.942,0,0,0-.621.112,2.038,2.038,0,0,1-.653.118.63.63,0,0,0-.486.161.5.5,0,0,0-.115.349.477.477,0,0,1-.022.147.355.355,0,0,1-.136.188.4.4,0,0,1-.23.067.621.621,0,0,1-.185-.031c-.239-.077-.482.122-1.257.756l-.186.152a11.057,11.057,0,0,1-1.6,1.116,4.236,4.236,0,0,1-1.79.582c-.674.033-.789.316-.889.565-.075.185-.143.355-.386.42a.52.52,0,0,0-.369.419c-.064.193-.125.38-.4.443a1.181,1.181,0,0,0-.545.227,1.411,1.411,0,0,0-.347.612.86.86,0,0,1-.694.58.529.529,0,0,0-.3.145.14.14,0,0,0-.03.069.082.082,0,0,0,.036.068.378.378,0,0,0,.151.062,1.837,1.837,0,0,0,.743-.037.7.7,0,0,1,.5.017.149.149,0,0,1,.076.107.164.164,0,0,1-.038.124.628.628,0,0,1-.427.175,1.583,1.583,0,0,0-.564.139.2.2,0,0,0-.083.073.069.069,0,0,0,.007.066.482.482,0,0,0,.178.141,2.445,2.445,0,0,0,1.3.213l.248,0h0a2.039,2.039,0,0,1,1.233.567c.121.094.243.187.368.269a2.607,2.607,0,0,0,.646.322,2.242,2.242,0,0,0,.635.094,1.685,1.685,0,0,1,.725.221,5.18,5.18,0,0,0,.849.331,1.95,1.95,0,0,0,1.554-.411,6.752,6.752,0,0,1,.742-.389,2.548,2.548,0,0,0,.988-.751,4.13,4.13,0,0,0,.534-.9.7.7,0,0,1,.359-.352.72.72,0,0,1,.767.135,1.028,1.028,0,0,1,.3.645c.075.566-.076.712-.258.889a1.082,1.082,0,0,0-.351.6,3.375,3.375,0,0,1-.293.864,2.117,2.117,0,0,1-.445.527c-.29.273-.166.535-.009.862.036.078.075.159.114.251a.826.826,0,0,1,.07.307.421.421,0,0,1-.077.252.528.528,0,0,1-.229.17,1.516,1.516,0,0,1-.57.088c-.36,0-.834,0-1.263-.022a3.1,3.1,0,0,1-1-.156,1.261,1.261,0,0,0-.553-.127,3.013,3.013,0,0,0-.743.1,1.907,1.907,0,0,1-.771.053,1.236,1.236,0,0,1-.63-.329,1.51,1.51,0,0,0-.676-.329,2.842,2.842,0,0,1-.6-.227,1.79,1.79,0,0,0-.751-.232,1.714,1.714,0,0,0-.833.187,1.08,1.08,0,0,1-1.128.031l-.12-.053c-.227-.1-.522.163-.821.426a3.762,3.762,0,0,1-.439.352c-.353.226-.258.412-.056.806l.1.195a.935.935,0,0,1,.118.352.115.115,0,0,1-.058.114.161.161,0,0,1-.125,0,1.624,1.624,0,0,1-.426-.276,1.355,1.355,0,0,1-.44-.538,1.289,1.289,0,0,1-.049-.692,1.306,1.306,0,0,0-.289-.882,2.3,2.3,0,0,1-.226-.424.535.535,0,0,0-.2-.26.463.463,0,0,0-.224-.082.32.32,0,0,0-.207.052.367.367,0,0,0-.133.176c-.151.4-.633.61-.993.767L34.4,66.6a.562.562,0,0,0-.2.134.086.086,0,0,0-.023.061.116.116,0,0,0,.048.065,1.016,1.016,0,0,0,.386.147.5.5,0,0,1,.266.119.109.109,0,0,1,.015.133.27.27,0,0,1-.1.092,1.267,1.267,0,0,1-.548.137,1.278,1.278,0,0,0-.468.075,2.742,2.742,0,0,0-.593.34c-.326.229-.494-.008-.668-.253-.116-.164-.237-.333-.4-.324-.366.018-.451.231-.644.713l-.079.2h0a.911.911,0,0,1-.538.522.553.553,0,0,0-.389.453.724.724,0,0,1-.193.438.2.2,0,0,1-.277-.006.639.639,0,0,1-.161-.4,1.327,1.327,0,0,1,.2-.8,3.385,3.385,0,0,1,.547-.687.85.85,0,0,0,.224-.316.155.155,0,0,0,0-.1.121.121,0,0,0-.066-.059.5.5,0,0,0-.244-.018.825.825,0,0,1-.478-.089,1.283,1.283,0,0,0-.563-.129c-.354-.007-.449.758-.535,1.453a6.457,6.457,0,0,1-.136.827.9.9,0,0,1-.221.428.32.32,0,0,1-.207.093.332.332,0,0,1-.194-.057.479.479,0,0,1-.176-.216.618.618,0,0,0-.157-.255.538.538,0,0,0-.315-.092c-.237-.016-.254-.142-.277-.313a.713.713,0,0,0-.107-.33.309.309,0,0,0-.106-.1.289.289,0,0,0-.186-.029.5.5,0,0,0-.2.083.587.587,0,0,0-.181.2c-.136.251-.3.217-.651.142-.086-.017-.184-.039-.3-.058a.846.846,0,0,0-.568.091.928.928,0,0,0-.4.451l-.019.047c-.12.3-.148.364-.475.377a1.176,1.176,0,0,0-.5.131.971.971,0,0,0-.359.316.556.556,0,0,1-.484.247.856.856,0,0,1-.571-.238,2.078,2.078,0,0,0-.466-.293,3.676,3.676,0,0,1-.959-.66.985.985,0,0,0-1.112-.1,1.145,1.145,0,0,1-.453.091,1.2,1.2,0,0,0-.527.031.5.5,0,0,0-.293.241,1.656,1.656,0,0,1-.446.484,1.568,1.568,0,0,1-.576.289.3.3,0,0,0-.1.042h0a.289.289,0,0,0-.122.179.689.689,0,0,0,.007.306,1.779,1.779,0,0,0,.251.567.889.889,0,0,1,.177.825,2.233,2.233,0,0,0-.055.489,1.555,1.555,0,0,0,.481.9,2,2,0,0,1,.529.919c.062.41.241.469.426.529a.721.721,0,0,1,.342.189.894.894,0,0,0,.476.277,2.041,2.041,0,0,0,.809-.017,5.045,5.045,0,0,1,1.187-.1l.314,0c.348,0,.436-.288.566-.717a4.721,4.721,0,0,1,.376-.955c.368-.669.826-.6,1.312-.33.164.09.331.2.5.316l.146.1a1.236,1.236,0,0,0,.275.142.579.579,0,0,0,.428,0h0a.71.71,0,0,0,.3-.268,1.431,1.431,0,0,0,.16-.331c.122-.35.386-.338.651-.326a.839.839,0,0,0,.375-.037.7.7,0,0,1,.581-.006,3.172,3.172,0,0,1,.841.565,2.579,2.579,0,0,0,1.581.582c.129.014.257.029.389.049a4,4,0,0,0,.738.032,3.071,3.071,0,0,1,1.048.107,6.7,6.7,0,0,0,1.295.192,7.913,7.913,0,0,1,1.009.128,1.024,1.024,0,0,1,.674.486c.082.118.149.212.267.212s.149-.034.127-.1a1.47,1.47,0,0,0-.335-.412.33.33,0,0,1-.119-.216h0a.2.2,0,0,1,.075-.162.461.461,0,0,1,.178-.092,1.147,1.147,0,0,1,.7.04c.281.116.337.374.393.632a.9.9,0,0,0,.186.458.4.4,0,0,0,.172.1.377.377,0,0,0,.216-.006.54.54,0,0,0,.21-.133h0a.871.871,0,0,0,.21-.378.808.808,0,0,1,.394-.514.991.991,0,0,1,.689-.073.71.71,0,0,0,.417,0,.92.92,0,0,0,.283-.192.8.8,0,0,1,.377-.193.294.294,0,0,1,.113,0,.18.18,0,0,1,.1.057.223.223,0,0,1,.051.118.762.762,0,0,1-.115.426,2.321,2.321,0,0,0-.2.545c-.066.313-.017.4.238.455.1.021.228.037.388.058l.075.01c.372.049.553.169.629.335a.932.932,0,0,1-.011.59,3.3,3.3,0,0,1-.615.964,6.536,6.536,0,0,0-.492.679,1.455,1.455,0,0,0-.228.486c0,.04.06.043.185.022.206-.035.306-.168.443-.352a3.478,3.478,0,0,1,.252-.309,2.162,2.162,0,0,1,.844-.442,3.555,3.555,0,0,0,.681-.3,1.312,1.312,0,0,1,.489-.215.188.188,0,0,1,.125.021.119.119,0,0,1,.055.112.513.513,0,0,1-.1.247,2.033,2.033,0,0,1-1.019.562,3.222,3.222,0,0,0-.355.133,1.177,1.177,0,0,0-.393.4,4.2,4.2,0,0,0-.4.781.952.952,0,0,1-.169.3.28.28,0,0,1-.191.1.266.266,0,0,1-.174-.062.643.643,0,0,1-.154-.176.431.431,0,0,0-.182-.164.169.169,0,0,0-.08-.016.062.062,0,0,0-.044.021.131.131,0,0,0-.022.076c-.005.1.06.159.159.25a1.907,1.907,0,0,1,.4.479,1.3,1.3,0,0,1,.153.934,1.756,1.756,0,0,0-.019.218,1.715,1.715,0,0,0,.084.421,2.559,2.559,0,0,1,.122.692c0,.171.084.231.226.231a2.85,2.85,0,0,0,.68-.154l.118-.035c.372-.11.465,0,.517.179.01.032.017.065.025.1a.579.579,0,0,0,.14.308c.3.286.161.627-.13,1.347l-.007.019c-.175.435.006.62.246.865a2.41,2.41,0,0,1,.417.525.544.544,0,0,0,.152.181.338.338,0,0,0,.232.063.67.67,0,0,0,.27-.09,2.292,2.292,0,0,0,.669-.641,3.053,3.053,0,0,0,.387-.913,6.954,6.954,0,0,0,.234-1.309.535.535,0,0,1,.179-.43.192.192,0,0,1,.144-.029.221.221,0,0,1,.123.075.414.414,0,0,1,.057.391h0l-.033.107c-.1.34-.178.585.055.654a.4.4,0,0,0,.38-.089,2.631,2.631,0,0,0,.426-.467,1.246,1.246,0,0,1,.646-.417,3.1,3.1,0,0,1,.736-.108.759.759,0,0,0,.552-.351,2.264,2.264,0,0,1,.419-.4,2.78,2.78,0,0,0,.521-.446,1.287,1.287,0,0,0,.263-.479,1.113,1.113,0,0,1,.3-.517A.737.737,0,0,1,49.9,80.6a.552.552,0,0,0,.681-.295c.033-.045.069-.095.107-.144a.746.746,0,0,1,.264-.221.54.54,0,0,1,.271-.054.437.437,0,0,1,.236.09.4.4,0,0,1,.12.148.386.386,0,0,1,.035.28.262.262,0,0,1-.051.1.25.25,0,0,1-.085.064.329.329,0,0,1-.237.011.645.645,0,0,0-.106-.023.669.669,0,0,0-.326.031.359.359,0,0,0-.22.238.57.57,0,0,0-.016.078.488.488,0,0,0,.048.378h0a.306.306,0,0,0,.273.056c.165-.019.264,0,.317.088a.657.657,0,0,1,.016.407c-.043.283.049.372.231.547.044.042.093.09.146.144.153.16.224.266.224.335,0,.1-.087.123-.243.109a1.02,1.02,0,0,1-.415-.122.614.614,0,0,1-.3-.425.735.735,0,0,0-.179-.392.907.907,0,0,0-.394-.2c-.222-.067-.257-.235-.294-.408-.029-.139-.061-.283-.217-.351-.2-.086-.279.009-.358.19-.024.057-.048.115-.072.179s-.062.161-.1.247a1.5,1.5,0,0,1-.285.484,2.829,2.829,0,0,1-.561.4c-.382.234-.365.28-.287.485a2.357,2.357,0,0,1,.1.332c.1.449-.693.687-1.376.891a6.583,6.583,0,0,0-.639.213c-.518.225-.576.452-.708.979l-.055.214a7.843,7.843,0,0,1-.434,1.077,4.355,4.355,0,0,0-.528,1.566.648.648,0,0,0,.05.186.372.372,0,0,0,.2.2.65.65,0,0,0,.331.032,1.755,1.755,0,0,0,.482-.149.9.9,0,0,1,.7-.087.713.713,0,0,1,.368.387.317.317,0,0,1,.031.1.24.24,0,0,1-.107.222.735.735,0,0,1-.266.111,2.054,2.054,0,0,1-.545.041c-.354-.02-.422.067-.707.429l-.052.068h0a1.724,1.724,0,0,1-.688.438c-.288.127-.56.246-.61.472s.146.316.341.412c.173.085.347.172.393.344a.238.238,0,0,0,.016.046h0a.239.239,0,0,0,.2.128.953.953,0,0,0,.361-.037,2.5,2.5,0,0,0,.421-.159c.108-.052.223-.109.34-.169a5.553,5.553,0,0,1,1.221-.5,1.335,1.335,0,0,0,.694-.474,5.21,5.21,0,0,0,.569-.877,1.454,1.454,0,0,1,.838-.716,2.788,2.788,0,0,0,.453-.232.9.9,0,0,1,.676-.184,1.983,1.983,0,0,1,.63.286c.4.236.416.231.819.059l.146-.062h0a.958.958,0,0,1,.512-.079.5.5,0,0,1,.263.119.381.381,0,0,1,.122.239.554.554,0,0,1-.06.309h0a.315.315,0,0,0-.042.152.056.056,0,0,0,.037.049.268.268,0,0,0,.128.01,1.83,1.83,0,0,0,.6-.221.928.928,0,0,1,.311-.125.093.093,0,0,1,.1.048.129.129,0,0,1-.011.111,1.877,1.877,0,0,1-.375.428h0a1.644,1.644,0,0,1-.251.2.825.825,0,0,1-.507.145.557.557,0,0,1-.364-.177.614.614,0,0,1-.072-.093c-.067-.108-.2-.1-.353-.088a.829.829,0,0,1-.622-.139.446.446,0,0,0-.482-.118,1.312,1.312,0,0,1-.346.049c-.394,0-.482.153-.689.512l0,0h0c-.225.39-.359.391-.786.39h-.037a.77.77,0,0,0-.486.121.859.859,0,0,0-.267.516,2.038,2.038,0,0,1-1.02,1.145v0h0a1.235,1.235,0,0,0-.382.36,1.565,1.565,0,0,0-.2.514.71.71,0,0,1-.367.494.778.778,0,0,0-.205.168.183.183,0,0,0-.041.153.173.173,0,0,0,.049.088h0a.239.239,0,0,0,.109.057.588.588,0,0,0,.433-.111,1.161,1.161,0,0,1,.284-.131.63.63,0,0,1,.413.008h0a.6.6,0,0,1,.289.251.914.914,0,0,1,.1.233.613.613,0,0,0,.261.39.833.833,0,0,0,.446.077.586.586,0,0,1,.28.043.137.137,0,0,1,.073.088.146.146,0,0,1-.023.112.7.7,0,0,1-.258.211.546.546,0,0,0-.218.188.093.093,0,0,0-.014.063.08.08,0,0,0,.039.047.521.521,0,0,0,.271.052c.25,0,.377.029.413.1s-.026.171-.159.3a.641.641,0,0,1-.415.209.9.9,0,0,1-.533-.167c-.17-.1-.285-.094-.375,0a1.636,1.636,0,0,0-.272.562.468.468,0,0,1-.113.181.59.59,0,0,1-.4.148,1.374,1.374,0,0,1-.493-.083,1.766,1.766,0,0,1-.667-.411,1.176,1.176,0,0,0-.615-.356.653.653,0,0,0-.553.129c-.116.1-.182.169-.152.212.046.066.224.133.6.227.73.182.755.49.785.88l.011.14a.611.611,0,0,1,0,.172.373.373,0,0,1-.147.246.555.555,0,0,1-.273.094,1.334,1.334,0,0,1-.361-.019.345.345,0,0,0-.19.008.087.087,0,0,0-.049.052h0a.184.184,0,0,0,.012.11,1.29,1.29,0,0,0,.363.463c.3.27.3.435.186.539a.976.976,0,0,1-.478.148h0a.959.959,0,0,0-.323.144,1.428,1.428,0,0,1-.975.246.774.774,0,0,0-.928.4c-.032.044-.069.092-.115.151a.789.789,0,0,1-.555.37,1.219,1.219,0,0,1-.659-.218.551.551,0,0,0-.709,0h0a1.54,1.54,0,0,1-.149.091h0a.954.954,0,0,1-.369.119,1.449,1.449,0,0,1-.4-.034.348.348,0,0,0-.349.077,1.307,1.307,0,0,0-.211.726c-.04.42-.316.5-.656.471a3.764,3.764,0,0,1-.561-.117,2.441,2.441,0,0,0-.522-.1c-.542,0-.562-.152-.677-.989l-.006-.043a2.338,2.338,0,0,0-.567-1.148,3.283,3.283,0,0,1-.44-.685,1.721,1.721,0,0,0-.169-.3,1,1,0,0,0-.408-.351h0a.493.493,0,0,0-.493.045c-.231.165-.215.417-.192.82.01.167.022.36.019.584a9.7,9.7,0,0,1-.127,1.136,5.706,5.706,0,0,0-.1,1.687,4.545,4.545,0,0,1,.142.839,1.855,1.855,0,0,1-.156.8,5.138,5.138,0,0,0-.315,1.436h0a2.7,2.7,0,0,0,.12,1.152h0a.9.9,0,0,0,.2.324.443.443,0,0,0,.261.126.555.555,0,0,0,.264-.041.826.826,0,0,0,.276-.185.684.684,0,0,1,.443-.2.652.652,0,0,1,.465.127.582.582,0,0,0,.416.111,1.446,1.446,0,0,0,.582-.186,1.348,1.348,0,0,1,.538-.158.612.612,0,0,0,.436-.188.717.717,0,0,1,.255-.182.345.345,0,0,1,.2-.02.326.326,0,0,1,.166.09.574.574,0,0,1,.132.209c.026.07.064.088.113.07a1.777,1.777,0,0,0,.412-.355c.057-.058.118-.12.182-.181.362-.352,1.235.033,1.757.262h0c.1.044.19.084.248.107.107.042.194.083.276.122a1.317,1.317,0,0,0,.859.161,4.064,4.064,0,0,1,.852.028,5.7,5.7,0,0,0,1.328.018c.445-.057.866-.117,1.219-.2a1.989,1.989,0,0,0,.8-.328,2.345,2.345,0,0,1,.539-.371.668.668,0,0,1,.6.009,4.252,4.252,0,0,1,1.088,1.009l.122.139a1.191,1.191,0,0,0,.619.429,1.393,1.393,0,0,0,.847-.155,5.936,5.936,0,0,1,1.118-.364,5.338,5.338,0,0,1,1.13-.122h0c.71,0,.908,0,1.037-.623a.894.894,0,0,1,.065-.2.742.742,0,0,1,.468-.4,1.063,1.063,0,0,1,.5-.028.546.546,0,0,1,.108.034l.067.028a1.709,1.709,0,0,0,.469.086c.152,0,.288-.021.328-.1l.007-.016c.036-.108.025-.177-.022-.223a.62.62,0,0,0-.276-.12l-.085-.02c-.243-.056-.428-.1-.471-.635-.032-.4.219-.537.523-.706a2.129,2.129,0,0,0,.468-.322.609.609,0,0,1,.128-.1.662.662,0,0,1,.577-.026,1.254,1.254,0,0,1,.445.293.683.683,0,0,1,.1.128.4.4,0,0,1,.055.151.2.2,0,0,1-.042.151.275.275,0,0,1-.154.086,1.044,1.044,0,0,1-.371,0c-.178-.025-.252.113-.28.308a3.382,3.382,0,0,0,0,.6c.006.1.01.2.01.276a.982.982,0,0,0,.089.471,1.94,1.94,0,0,0,.311.389,2.413,2.413,0,0,0,.456.345,2.031,2.031,0,0,1,.686.6c.153.254.4.295.719.347a3.268,3.268,0,0,1,.656.16,4.714,4.714,0,0,1,.854.44,6.788,6.788,0,0,1,.861.66l.013.011a.878.878,0,0,0,.779.173,1.619,1.619,0,0,0,.841-.518l.027-.029a2.586,2.586,0,0,0,.5-.812.9.9,0,0,0,.015-.648,1.765,1.765,0,0,1-.147-.51h0a.22.22,0,0,1,.021-.118h0a.1.1,0,0,1,.113-.046.467.467,0,0,1,.187.123,1.1,1.1,0,0,1,.326.5,1.891,1.891,0,0,1,.057.546v.055a2.628,2.628,0,0,1-.42,1.5.862.862,0,0,0-.133.431.186.186,0,0,0,.069.141.3.3,0,0,0,.165.053.922.922,0,0,0,.448-.109.288.288,0,0,1,.34.021.33.33,0,0,1,.095.136.406.406,0,0,1,.028.166.319.319,0,0,1-.227.3.971.971,0,0,1-.622-.055h0a2.992,2.992,0,0,1-.547-.283.777.777,0,0,0-.385-.137.216.216,0,0,0-.085.015.1.1,0,0,0-.049.04.154.154,0,0,0-.02.084c0,.159.13.212.324.289.077.031.164.066.255.112a4.332,4.332,0,0,1,.768.631c.243.226.506.471.756.66.214.161.333.161.4.07a1.663,1.663,0,0,0,.149-.7l.009-.093h0c.053-.542.511-.862.957-1.172h0l.166-.117a2.336,2.336,0,0,0,.6-.692,1.814,1.814,0,0,0,.289-.793.54.54,0,0,1,.088-.332.176.176,0,0,1,.1-.067.16.16,0,0,1,.12.024.523.523,0,0,1,.181.277.733.733,0,0,1-.149.708,2.835,2.835,0,0,0-.253.5c-.153.411.323.688.72.918.122.071.237.138.329.2a1.4,1.4,0,0,1,.453.621.6.6,0,0,1,.036.189.17.17,0,0,1-.059.144.142.142,0,0,1-.1.024.607.607,0,0,1-.38-.215,4.763,4.763,0,0,1-.438-.576.8.8,0,0,0-.763-.416c-.1-.006-.2-.014-.327-.033a.972.972,0,0,0-.636.128,1.778,1.778,0,0,0-.576.572.665.665,0,0,0-.067.59,1.2,1.2,0,0,1,.017.588,1.118,1.118,0,0,0,.12.748,3.674,3.674,0,0,0,.945,1.131.694.694,0,0,0,.21.111.125.125,0,0,0,.119-.016.076.076,0,0,0,.018-.019.281.281,0,0,0-.034-.306,1.8,1.8,0,0,0-.3-.36,1.769,1.769,0,0,1-.367-.543.575.575,0,0,1-.046-.46.247.247,0,0,1,.1-.1h0a.182.182,0,0,1,.147-.009h0a.329.329,0,0,1,.134.1h0a.974.974,0,0,1,.189.452,1.429,1.429,0,0,0,.221.568,2.4,2.4,0,0,0,.495.491c.407.326.374.483.3.816-.013.062-.029.132-.042.209a.451.451,0,0,0,0,.21.147.147,0,0,0,.077.094h0a.246.246,0,0,0,.139.015.694.694,0,0,0,.284-.118.341.341,0,0,1,.171-.065.189.189,0,0,1,.152.062.328.328,0,0,1,.077.155.907.907,0,0,1-.023.432c-.048.175.05.249.172.341a.865.865,0,0,1,.331.4,3.151,3.151,0,0,0,1.094,1,3.21,3.21,0,0,0,1.341.529c.382.028.5-.228.524-.58a5.225,5.225,0,0,0-.011-.644,3.506,3.506,0,0,1,.018-.859,1.989,1.989,0,0,1,.732-1.177h0c.068-.064.14-.132.222-.215a.767.767,0,0,1,.385-.24.216.216,0,0,1,.156.031.22.22,0,0,1,.086.131.708.708,0,0,1-.06.422c-.048.118-.1.234-.151.349a4.6,4.6,0,0,0-.4,1.2,1.621,1.621,0,0,1-.2.644.685.685,0,0,1-.351.245.279.279,0,0,0-.107.065h0a.07.07,0,0,0-.022.055.136.136,0,0,0,.035.069.557.557,0,0,0,.178.128h0a1,1,0,0,1,.238.181.46.46,0,0,0,.313.169c.159,0,.654.005,1.147.034a7.469,7.469,0,0,1,.8.082,1.51,1.51,0,0,0,.484.049c.014-.006-.006-.048-.045-.122a.135.135,0,0,1-.016-.109h0a.11.11,0,0,1,.094-.069.392.392,0,0,1,.127.006,1.133,1.133,0,0,1,.543.286.265.265,0,0,0,.313.072,1.76,1.76,0,0,0,.432-.294.544.544,0,0,1,.242-.132.162.162,0,0,1,.131.032h0a.2.2,0,0,1,.064.116.728.728,0,0,1-.033.337c-.065.217.079.267.417.381.111.038.242.082.389.14.368.145.919.387,1.428.646a7.094,7.094,0,0,1,.994.589,2.489,2.489,0,0,0,.73.4,2.58,2.58,0,0,0,.588.11,2.9,2.9,0,0,1,.821.3,5.679,5.679,0,0,1,.927.563,3.794,3.794,0,0,1,.3.265c.146.141.2.191.355.1a.778.778,0,0,1,.57-.02,2.154,2.154,0,0,1,.7.345c.05.037.1.077.146.113a.843.843,0,0,0,.317.2c.054,0,.088-.075.1-.3a.512.512,0,0,1,.065-.262.2.2,0,0,1,.172-.1.412.412,0,0,1,.2.063,1.609,1.609,0,0,1,.459.45c.19.268.3.232.71.092.131-.044.292-.1.5-.158a2.4,2.4,0,0,1,1.679.356,4.435,4.435,0,0,0,.918.355h0c.839.181,1.36.293,3.525-.754a13.915,13.915,0,0,1,2.311-.867,10.966,10.966,0,0,1,2.325-.423.3.3,0,0,0,.236-.078.068.068,0,0,0,.016-.034.034.034,0,0,0,0-.025h0c-.012-.023-.047-.04-.1-.045a.491.491,0,0,1-.322-.119.626.626,0,0,1-.15-.385l-.012-.091a3.327,3.327,0,0,0-.42-1.3.736.736,0,0,1-.108-.432.229.229,0,0,1,.116-.17.391.391,0,0,1,.205-.039,1.087,1.087,0,0,1,.554.221,1.21,1.21,0,0,0,.5.241.809.809,0,0,0,.477-.041.741.741,0,0,1,.354-.069.214.214,0,0,1,.105.039.123.123,0,0,1,.049.1h0a.218.218,0,0,1-.044.123,1.3,1.3,0,0,1-.3.292c-.1.08-.233.185-.416.348a1.056,1.056,0,0,0-.145.157.585.585,0,0,0-.13.391.606.606,0,0,0,.166.361.988.988,0,0,0,.151.136c.334.248.706-.051,1.181-.433l.144-.116h0a9.227,9.227,0,0,1,1.463-.889c.12-.063.237-.124.347-.184a3.694,3.694,0,0,0,.576-.352.737.737,0,0,0,.249-.385.53.53,0,0,0,.029-.218.052.052,0,0,0-.018-.036.074.074,0,0,0-.051,0,.818.818,0,0,0-.27.152,1.352,1.352,0,0,1-.818.181,2.377,2.377,0,0,0-.633.068.834.834,0,0,1-.367.049h0a.13.13,0,0,1-.1-.068.142.142,0,0,1,0-.116.846.846,0,0,1,.241-.276.543.543,0,0,0,.16-.179.035.035,0,0,0,0-.029.068.068,0,0,0-.038-.021.84.84,0,0,0-.325.009c-.079.014-.155.029-.227.045a1.43,1.43,0,0,1-.418.049c-.12-.018-.184-.086-.16-.244.026-.182.183-.278.408-.324a3.4,3.4,0,0,1,.759-.031,2.641,2.641,0,0,0,.82-.106,5,5,0,0,0,.854-.336c.263-.129.386-.1.437,0a.7.7,0,0,1,0,.37,1.794,1.794,0,0,0-.027.25.247.247,0,0,0,.067.193.077.077,0,0,0,.046.019.079.079,0,0,0,.049-.013.311.311,0,0,0,.113-.221,2.778,2.778,0,0,1,.136-.472,2.287,2.287,0,0,0,.14-.535c.025-.225-.043-.292-.189-.308a2.113,2.113,0,0,0-.3,0h-.048a.867.867,0,0,1-.372-.056.335.335,0,0,1-.138-.107h0a.281.281,0,0,1-.053-.162.538.538,0,0,1,.054-.23.423.423,0,0,1,.04-.069.779.779,0,0,1,.487-.272.964.964,0,0,1,.535.032.362.362,0,0,1,.061.035.115.115,0,0,0,.024.014.257.257,0,0,0,.247-.049,1.257,1.257,0,0,0,.317-.332,2.47,2.47,0,0,0,.207-.359.887.887,0,0,0,.118-.388.078.078,0,0,0-.018-.051.05.05,0,0,0-.038-.009.383.383,0,0,0-.178.087.59.59,0,0,1-.414.131.925.925,0,0,1-.462-.186.462.462,0,0,0-.342-.1.978.978,0,0,0-.359.159.989.989,0,0,1-.367.156.272.272,0,0,1-.13-.012.2.2,0,0,1-.1-.083.319.319,0,0,1-.043-.133.313.313,0,0,1,.168-.342,2.294,2.294,0,0,1,.536-.184c.3-.082.374-.424.467-.872.04-.191.084-.4.151-.621.148-.481.459-.455.717-.433.143.012.267.023.305-.085.1-.279.144-.273.373-.243a2.624,2.624,0,0,0,.409.025h0c.344-.007.417-.113.414-.246a1.046,1.046,0,0,0-.027-.183l-.013-.073h0a.188.188,0,0,1,.063-.191h0a.24.24,0,0,1,.108-.044.389.389,0,0,1,.12,0,.3.3,0,0,1,.245.153c.031.094.115.1.4.138l.089.011c.169.02.23.085.219.181-.016.136-.229.327-.457.533h0l-.008.007a3.884,3.884,0,0,0-.458.47.646.646,0,0,0-.179.405.112.112,0,0,0,.019.06.08.08,0,0,0,.065.026.329.329,0,0,0,.138-.039,1.214,1.214,0,0,0,.413-.376,1.049,1.049,0,0,1,.689-.493c.074-.024.161-.052.26-.088a.57.57,0,0,0,.4-.532,1.533,1.533,0,0,1,.093-.336.479.479,0,0,1,.223-.263h0a.149.149,0,0,1,.1-.005.141.141,0,0,1,.079.07.451.451,0,0,1-.009.327.255.255,0,0,0-.014.1.121.121,0,0,0,.074.1.493.493,0,0,0,.209.036,2.2,2.2,0,0,0,.618-.119c.248-.081.588-.208.944-.351s.716-.3,1.024-.439a4.279,4.279,0,0,1,1.752-.2l.129,0a2.727,2.727,0,0,0,.546-.062.645.645,0,0,0,.172-.064c.026-.016.042-.034.039-.049a.066.066,0,0,0-.009-.021c-.056-.089-.2-.109-.365-.1a2.679,2.679,0,0,0-.5.088.611.611,0,0,1-.361-.014h0a.214.214,0,0,1-.092-.07.132.132,0,0,1-.014-.119.4.4,0,0,1,.186-.189.873.873,0,0,1,.664-.09,2.734,2.734,0,0,1,.638.248,1.218,1.218,0,0,0,.595.1,2.022,2.022,0,0,1,.531.052,2.553,2.553,0,0,0,.781.1.441.441,0,0,0,.367-.176c.132-.229.059-.4-.159-.92-.042-.1-.089-.212-.144-.344-.266-.652-.132-.794.1-.889l.094-.034c.042-.015.085-.031.131-.051h0c.257-.114.245-.267.2-.882l-.01-.134a.869.869,0,0,1,.082-.545.2.2,0,0,1,.123-.087.208.208,0,0,1,.142.024.547.547,0,0,1,.223.311h0a3.063,3.063,0,0,1,.06.913,13.36,13.36,0,0,1-.15,1.476,8.022,8.022,0,0,0-.111.867.69.69,0,0,0,.1.469.177.177,0,0,0,.1.065.119.119,0,0,0,.083-.015.222.222,0,0,0,.078-.084.518.518,0,0,0,.05-.317c-.031-.263.065-.288.206-.326a.439.439,0,0,0,.275-.171.9.9,0,0,0,.049-.715,3.415,3.415,0,0,1-.06-.445c-.01-.214.039-.307.143-.312.128-.006.335.166.627.41l.107.09c.483.4.481.433.47.659,0,.031,0,.068,0,.116a.793.793,0,0,0,.058.318.208.208,0,0,0,.061.083.073.073,0,0,0,.062.01h0a.211.211,0,0,0,.084-.058c.192-.191.181-.37.161-.719l0-.056h0a.622.622,0,0,1,.224-.527,1.514,1.514,0,0,1,.7-.3,6.4,6.4,0,0,0,1.176-.34,2.161,2.161,0,0,0,.714-.437l.124-.129a1.917,1.917,0,0,1,1.091-.654,1.361,1.361,0,0,0,.723-.473,1.753,1.753,0,0,0,.276-.638,1.491,1.491,0,0,1,.636-.791c.072-.057.147-.115.218-.176h0c.073-.063.136-.11.187-.148.155-.116.19-.143.231-.494a.7.7,0,0,1,.3-.506c.09-.074.168-.139.168-.257a.806.806,0,0,1,.25-.574.86.86,0,0,1,.593-.224.691.691,0,0,0,.545-.194.905.905,0,0,0,.149-.592c0-.452.144-.475.377-.514a1.271,1.271,0,0,0,.253-.062,1.312,1.312,0,0,0,.432-.251,2.381,2.381,0,0,0,.414-.543,1.693,1.693,0,0,1,.583-.61,2.728,2.728,0,0,0,.31-.238.74.74,0,0,0,.258-.353.331.331,0,0,0-.041-.218.231.231,0,0,1-.013-.035.272.272,0,0,1,.046-.238.659.659,0,0,1,.273-.208,1.485,1.485,0,0,1,.2-.073,3.6,3.6,0,0,0,.649-.258,2.842,2.842,0,0,0,.639-.453,3.272,3.272,0,0,1,1.545-.581l.2-.041h0a.7.7,0,0,0,.331-.153.31.31,0,0,0,.094-.146.2.2,0,0,0-.012-.136.245.245,0,0,0-.1-.1c-.171-.1-.189-.183-.122-.293a1.038,1.038,0,0,1,.113-.14c.043-.049.095-.106.144-.171h0a.615.615,0,0,1,.66-.186,1.6,1.6,0,0,0,.2.018,1.92,1.92,0,0,0,.4-.029,1.81,1.81,0,0,0,.526-.205,1.433,1.433,0,0,1,.865-.214h.1a1.269,1.269,0,0,0,.479-.1,7.888,7.888,0,0,0,.759-.372,3.065,3.065,0,0,1,1.733-.106,5.489,5.489,0,0,0,.61.055,2.212,2.212,0,0,0,.7-.089.335.335,0,0,0,.119-.066.044.044,0,0,0,.017-.045.11.11,0,0,0-.03-.045c-.148-.148-.435-.125-.816-.093-.069.005-.143.012-.223.016-.253.018-.456.026-.664.021h0a6.076,6.076,0,0,1-.7-.067,1.583,1.583,0,0,0-1.141.346c-.088.051-.181.107-.284.164a3.059,3.059,0,0,1-1.108.338,1.691,1.691,0,0,0-.4.089,4.553,4.553,0,0,1-.713.26.507.507,0,0,1-.142.016c-.065-.006-.1-.036-.088-.1a.2.2,0,0,1,.056-.1,3.474,3.474,0,0,1,1.288-.479,7.663,7.663,0,0,0,.741-.213c.439-.169.46-.221.574-.5h0l.04-.095c.082-.193.245-.246.427-.3a.777.777,0,0,0,.549-.42,1.958,1.958,0,0,0,.03-1.1,3.856,3.856,0,0,1-.057-.955.931.931,0,0,0-.232-.7,1.925,1.925,0,0,0-.81-.549.75.75,0,0,1-.335-.21.159.159,0,0,1-.039-.108.113.113,0,0,1,.08-.1.983.983,0,0,1,.481.015.88.88,0,0,1,.736.638,1.137,1.137,0,0,0,.353.508,1.814,1.814,0,0,1,.541,1.116,2.877,2.877,0,0,0,.174.58.928.928,0,0,0,.277.365.112.112,0,0,0,.07.022.059.059,0,0,0,.039-.035h0a.726.726,0,0,0,.021-.37.9.9,0,0,1,.023-.452.118.118,0,0,1,.1-.074.149.149,0,0,1,.109.044.888.888,0,0,1,.2.405.928.928,0,0,0,.142.371c.028.023.078,0,.161-.047a.4.4,0,0,1,.188-.056.225.225,0,0,1,.116.031.253.253,0,0,1,.086.092.555.555,0,0,1,.055.265.865.865,0,0,0,.065.4.312.312,0,0,0,.317.146c.19-.005.3-.135.45-.309a2.444,2.444,0,0,1,.557-.51c.495-.316.811.027,1.067.426.044.07.091.148.136.223l.04.068c.162.268.121.409-.067.477a2.261,2.261,0,0,1-.785.027,1.658,1.658,0,0,0-.613.036.106.106,0,0,0-.047.029v0a.258.258,0,0,0,.11.073,1.637,1.637,0,0,0,.574.117,4.573,4.573,0,0,0,.833-.04.572.572,0,0,0,.453-.222.451.451,0,0,1,.4-.192.528.528,0,0,0,.443-.245,2.138,2.138,0,0,1,.565-.482.713.713,0,0,0,.235-.2.184.184,0,0,0,.026-.165.341.341,0,0,0-.116-.146,1.087,1.087,0,0,0-.349-.171.321.321,0,0,1-.144-.079.246.246,0,0,1-.074-.164.334.334,0,0,1,.051-.189.68.68,0,0,1,.234-.225.228.228,0,0,0,.139-.228.983.983,0,0,1,.272-.631h0a5.728,5.728,0,0,1,.917-.877,8.222,8.222,0,0,1,1.2-.8,2.092,2.092,0,0,1,1.26-.328h.085a.782.782,0,0,0,.387-.048c.022-.02,0-.072-.062-.157-.125-.182-.464-.082-.859.036l-.024.007a.846.846,0,0,1-.406.035h0a.273.273,0,0,1-.162-.093.244.244,0,0,1-.048-.19.908.908,0,0,1,.192-.4.887.887,0,0,1,.176-.182.638.638,0,0,1,.488-.127.99.99,0,0,1,.444.192,1.242,1.242,0,0,1,.25.243.8.8,0,0,0,.321.295c.091.031.187,0,.3-.107a1.089,1.089,0,0,0,.224-.526,5.18,5.18,0,0,0,.1-1,2.752,2.752,0,0,1,.176-.759,5.821,5.821,0,0,0,.272-1.1,4.179,4.179,0,0,1,.988-2.029l.043-.061a1.735,1.735,0,0,0,.369-.77h0a.23.23,0,0,0-.013-.115.055.055,0,0,0-.037-.032.157.157,0,0,0-.1.029,2.264,2.264,0,0,0-.508.644,7.28,7.28,0,0,1-.5.71,1.269,1.269,0,0,1-.458.368.671.671,0,0,1-.334.058.566.566,0,0,1-.305-.131.9.9,0,0,1-.242-.341,1.025,1.025,0,0,1-.081-.284.621.621,0,0,1,.1-.437.926.926,0,0,1,.4-.306,2.517,2.517,0,0,1,.7-.17.879.879,0,0,0,.478-.184.5.5,0,0,0,.171-.307.688.688,0,0,0-.049-.361h0a.906.906,0,0,0-.348-.418,1.3,1.3,0,0,1-.433-.43.611.611,0,0,1-.089-.288.307.307,0,0,1,.088-.235.327.327,0,0,1,.15-.082,1.649,1.649,0,0,1,.77.094,3.566,3.566,0,0,0,.669.133,1.323,1.323,0,0,0,.456-.035.319.319,0,0,0,.167-.1.213.213,0,0,0,.03-.177.793.793,0,0,0-.136-.281c-.205-.3-.66-.918-1.115-1.527-.407-.546-.814-1.082-1.04-1.361a1.478,1.478,0,0,1-.343-.65.306.306,0,0,1,.022-.178.179.179,0,0,1,.132-.1.487.487,0,0,1,.3.064c.452.22.537.427.86,1.222l.084.206a3.7,3.7,0,0,0,.545,1.018,1.682,1.682,0,0,0,.79.491,1.73,1.73,0,0,0,.963.064,4.262,4.262,0,0,0,.926-.36,3.312,3.312,0,0,1,.664-.256,4.671,4.671,0,0,0,.693-.25.88.88,0,0,0,.58-.623,1.33,1.33,0,0,0-.1-.733l-.035-.09c-.182-.459-.352-.888.138-1.18a3.188,3.188,0,0,1,1.135-.239,1.865,1.865,0,0,0,.86-.186.35.35,0,0,0,.07-.117.175.175,0,0,0,0-.113.276.276,0,0,0-.08-.107.9.9,0,0,0-.308-.154,1.975,1.975,0,0,1-.582-.266.329.329,0,0,1-.166-.334h0a.267.267,0,0,1,.036-.086.221.221,0,0,1,.144-.091.471.471,0,0,1,.194.01h0a1.641,1.641,0,0,1,.508.25.583.583,0,0,0,.1.055.553.553,0,0,0,.445-.007.987.987,0,0,0,.412-.36,1.513,1.513,0,0,0,.137-.251c.2-.471.07-.612-.334-1.039-.07-.075-.148-.156-.231-.247a2.421,2.421,0,0,0-1.722-.487,3.752,3.752,0,0,1-.673-.06.461.461,0,0,1-.343-.253.268.268,0,0,1-.007-.174h0a.34.34,0,0,1,.105-.155.983.983,0,0,1,.794-.128,7.069,7.069,0,0,1,1.151.261,1.843,1.843,0,0,1,.749.444.724.724,0,0,0,.334.222.135.135,0,0,0,.082-.006.085.085,0,0,0,.041-.052.422.422,0,0,0-.027-.25.208.208,0,0,1,.153-.3h0a1.585,1.585,0,0,1,.3-.054c.215-.025.448-.052.489-.2a.637.637,0,0,0,.021-.138.341.341,0,0,0-.086-.249.628.628,0,0,0-.316-.168,2.054,2.054,0,0,0-.456-.057,1.864,1.864,0,0,1-1.132-.569,8.793,8.793,0,0,1-.95-1.07c-.51-.648-1.6-.605-2.223-.58h0l-.086,0c-.137,0-.3.017-.462.03s-.328.025-.487.032c-.4.016-.715-.017-.723-.215a.4.4,0,0,1,.008-.1h0a.34.34,0,0,1,.164-.222.639.639,0,0,1,.3-.08,1.075,1.075,0,0,1,.269.025.9.9,0,0,0,.523-.121,2.015,2.015,0,0,1,.843-.213c.29,0,.377-.055.377-.142a.808.808,0,0,0-.094-.276c-.022-.047-.044-.1-.067-.153a.509.509,0,0,1-.046-.265.157.157,0,0,1,.074-.115.2.2,0,0,1,.147-.018,1.247,1.247,0,0,1,.479.27,3.157,3.157,0,0,0,1.352.671l.135.043c.6.192.637.373.7.7a2.38,2.38,0,0,0,.113.414c.1.274.424.377.824.388a5.8,5.8,0,0,0,1.366-.18,1.345,1.345,0,0,0,.348-.126.76.76,0,0,0,.371-.407.769.769,0,0,0,.026-.431.615.615,0,0,0-.056-.153.414.414,0,0,1-.044-.123h0a.324.324,0,0,1,.049-.241.577.577,0,0,1,.214-.185,1.421,1.421,0,0,1,.415-.135C163.913,65.324,163.907,65.023,163.844,64.673ZM58.317,97.765a.5.5,0,0,1-.209.149.452.452,0,0,1-.231.025.33.33,0,0,1-.244-.146.832.832,0,0,0-.124-.155.392.392,0,0,0-.162-.108.156.156,0,0,0-.143.019.184.184,0,0,0-.048.041.579.579,0,0,1-.219.14.353.353,0,0,1-.2.013.327.327,0,0,1-.168-.092.468.468,0,0,1-.108-.178c-.019-.067-.035-.117-.048-.168a.426.426,0,0,0-.178-.3,1.125,1.125,0,0,1-.358-.358.791.791,0,0,1-.048-.7,3.748,3.748,0,0,0,.146-.625c.067-.387.127-.739.365-.853a2.029,2.029,0,0,1,.235-.1.5.5,0,0,0,.384-.342.945.945,0,0,1,.276-.491c.133-.1.285-.07.46.136a.832.832,0,0,0,.342.209c.07.032.14.06.2.1.19.117.282.276.07.631-.073.124-.152.244-.228.358l-.133.2a1.264,1.264,0,0,0-.25.583.259.259,0,0,0,.13.231,1.056,1.056,0,0,1,.46.533,3.134,3.134,0,0,1,.143.755c0,.038.006.076.006.108A.6.6,0,0,1,58.317,97.765ZM76.778,83.322a1.769,1.769,0,0,1-.143.666.261.261,0,0,1-.143.133.184.184,0,0,1-.06.01.212.212,0,0,1-.12-.041.766.766,0,0,1-.228-.279l-.035-.063a2.93,2.93,0,0,0-.558-.786,1.552,1.552,0,0,1-.361-.511,1.414,1.414,0,0,1-.089-.533c0-.089.006-.184.016-.289v0a.829.829,0,0,1,.336-.545.615.615,0,0,1,.273-.111.444.444,0,0,1,.289.06.686.686,0,0,1,.285.45,2.953,2.953,0,0,0,.279.7A1.852,1.852,0,0,1,76.778,83.322ZM91.713,94.033a1.289,1.289,0,0,1-.39.32,1.948,1.948,0,0,1-.273.127,3.877,3.877,0,0,1-.377.117,2.439,2.439,0,0,0-1.281.672,1.13,1.13,0,0,1-.536.365.809.809,0,0,1-.425.01.58.58,0,0,1-.327-.219.634.634,0,0,1-.114-.358,1.276,1.276,0,0,1,.425-.907,1.919,1.919,0,0,0,.327-.463,3.23,3.23,0,0,0,.155-.533,1.656,1.656,0,0,1,.431-.929l0,0,0-.006a1.954,1.954,0,0,1,.488-.254.486.486,0,0,1,.282-.016.31.31,0,0,1,.2.193.655.655,0,0,1,.044.257,2.29,2.29,0,0,1-.276.913,1.881,1.881,0,0,0-.222.7.24.24,0,0,0,.029.13.13.13,0,0,0,.1.057.443.443,0,0,0,.184-.025.917.917,0,0,0,.384-.244,2.125,2.125,0,0,1,.5-.39,1.134,1.134,0,0,1,.346-.136.34.34,0,0,1,.317.067h0a.352.352,0,0,1,.06.073.448.448,0,0,1,.025.057A.436.436,0,0,1,91.713,94.033ZM113.512,108a1.313,1.313,0,0,1-.244.561.43.43,0,0,1-.2.146.307.307,0,0,1-.092.013.269.269,0,0,1-.12-.029.362.362,0,0,1-.133-.127.584.584,0,0,0-.206-.238.094.094,0,0,0-.032-.006c-.048,0-.1.044-.171.149a.791.791,0,0,1-.311.3.271.271,0,0,1-.155.019.193.193,0,0,1-.124-.111.412.412,0,0,1-.035-.184.975.975,0,0,1,.019-.181,1.031,1.031,0,0,1,.244-.561,1.422,1.422,0,0,0,.241-.444,1.126,1.126,0,0,1,.235-.431.352.352,0,0,1,.193-.108c.013,0,.025,0,.035,0a.3.3,0,0,1,.178.063.688.688,0,0,1,.19.263.545.545,0,0,0,.266.27C113.478,107.468,113.617,107.547,113.512,108Zm1.687-.707a2.321,2.321,0,0,1-.507.682.323.323,0,0,1-.184.076.175.175,0,0,1-.171-.1.8.8,0,0,1-.038-.4,2.753,2.753,0,0,1,.159-.691,2.621,2.621,0,0,0,.1-1.411,3.561,3.561,0,0,1-.06-.973c.054-.27.2-.327.5-.1.282.222.238.666.193,1.069-.025.276-.054.53.035.621a.662.662,0,0,1,.228.482A1.68,1.68,0,0,1,115.2,107.293Zm.954-58.176a3.1,3.1,0,0,1-.247.913,4.033,4.033,0,0,1-.422.8.46.46,0,0,1-.336.216.328.328,0,0,1-.212-.086.742.742,0,0,0-.33-.133c-.228-.051-.428-.1-.457-.463a1.314,1.314,0,0,0-.168-.469c-.025-.051-.051-.1-.073-.146-.089-.206-.1-.365.181-.485l.029-.013a2.335,2.335,0,0,0,1.145-.84A1.581,1.581,0,0,1,115.58,48a.344.344,0,0,1,.193-.082.257.257,0,0,1,.193.089v0a.651.651,0,0,1,.121.254A2.271,2.271,0,0,1,116.154,49.118Z" transform="translate(781.489 292.905)"/><path class="d" d="M478.425,137.985h0Z" transform="translate(463.31 211.248)"/><path class="d" d="M142.3,241.589h0v0h0Z" transform="translate(692.855 140.497)"/><path class="d" d="M104.385,124.134h0Z" transform="translate(718.748 220.707)"/><path class="c" d="M184.988,121.571a.216.216,0,0,1,0,.357.413.413,0,0,1-.487,0,.23.23,0,0,1-.094-.178.233.233,0,0,1,.094-.179.414.414,0,0,1,.487,0Z" transform="translate(664.1 222.511)"/><path class="c" d="M220.55,80.407a.421.421,0,0,1,.3.119h0a.4.4,0,0,1,0,.577h0a.427.427,0,0,1-.592,0h0a.4.4,0,0,1,0-.577h0a.422.422,0,0,1,.3-.119Z" transform="translate(639.702 250.569)"/><path class="c" d="M227.3,72.109a1.552,1.552,0,0,1,.264,1.006c-.018.127-.062.214-.125.231s-.144-.039-.222-.141a1.542,1.542,0,0,1-.264-1c.018-.127.062-.215.125-.231s.143.038.222.14Z" transform="translate(635.05 256.333)"/><path class="c" d="M275.724,73.517a1.22,1.22,0,0,1,.249.517,1.236,1.236,0,0,1,.008.574c-.039.145-.112.247-.21.27a.339.339,0,0,1-.309-.147,1.331,1.331,0,0,1-.256-1.09c.038-.145.112-.247.21-.27a.338.338,0,0,1,.309.148Z" transform="translate(602.112 255.378)"/><path class="c" d="M298.227,56.954a.313.313,0,0,1,0,.5.5.5,0,0,1-.615,0,.314.314,0,0,1,0-.5.5.5,0,0,1,.615,0Z" transform="translate(586.873 266.658)"/><path class="c" d="M290.911,17.46a.723.723,0,0,1,.346.712.306.306,0,0,1-.479.232.721.721,0,0,1-.346-.712.305.305,0,0,1,.478-.232Z" transform="translate(591.698 293.591)"/><path class="c" d="M347.786,304.059h0c.429-.065.819-.108,1.1-.125a3.116,3.116,0,0,1,.415-.013,3.233,3.233,0,0,1-.405.112c-.278.068-.667.143-1.1.209h0l-.016,0h0c-.429.065-.819.108-1.1.126a3.017,3.017,0,0,1-.415.013,3.331,3.331,0,0,1,.406-.112c.278-.069.667-.144,1.1-.21h0l.016,0Z" transform="translate(553.565 97.93)"/><path class="c" d="M357.942,300.512a.643.643,0,0,1-.069.275.629.629,0,0,1-.171.224c-.052.041-.1.057-.135.042s-.051-.065-.052-.13a.647.647,0,0,1,.069-.275.632.632,0,0,1,.171-.225c.052-.04.1-.057.135-.041s.051.064.052.13Z" transform="translate(545.881 100.349)"/><path class="c" d="M360.465,295.745a1.968,1.968,0,0,1-.605.7c-.086.057-.151.082-.172.065s0-.086.038-.179a1.975,1.975,0,0,1,.606-.7c.087-.057.151-.082.171-.065s0,.086-.038.18Z" transform="translate(544.403 103.638)"/><path class="c" d="M304.928,312.2a.294.294,0,0,1,.29.065h0a.3.3,0,0,1,.009.3,1.1,1.1,0,0,1-.738.609.3.3,0,0,1-.289-.065h0a.3.3,0,0,1-.009-.3.994.994,0,0,1,.3-.389,1,1,0,0,1,.438-.22Z" transform="translate(582.321 92.278)"/><path class="c" d="M174.566,353.966a.154.154,0,0,0-.273,0h0a.416.416,0,0,0,0,.443h0a.155.155,0,0,0,.273,0h0a.413.413,0,0,0,0-.443Z" transform="translate(671.049 63.808)"/><path class="c" d="M188.927,340.163a.282.282,0,0,1,.067-.154.209.209,0,0,1,.132-.064.356.356,0,0,1,.175.03.179.179,0,0,1,.036.018.769.769,0,0,1,.273.489h0a1.172,1.172,0,0,1-.037.67.514.514,0,0,1-.044.089.745.745,0,0,1-.21.24.18.18,0,0,1-.112.035h0a.132.132,0,0,1-.083-.047.37.37,0,0,1-.075-.157h0a1.35,1.35,0,0,1-.039-.379,2.225,2.225,0,0,0-.042-.479v0l0,0a.6.6,0,0,1-.041-.284Z" transform="translate(661.015 73.328)"/><path class="c" d="M99.491,223.937a.2.2,0,0,1,0,.339.428.428,0,0,1-.489,0,.2.2,0,0,1,0-.339.431.431,0,0,1,.489,0Z" transform="translate(722.487 152.602)"/><path class="c" d="M96.358,200.243a1.85,1.85,0,0,1,.759.953h0c.042.147.038.263-.024.311s-.174.027-.308-.047a1.849,1.849,0,0,1-.758-.953h0c-.042-.147-.037-.263.024-.311s.175-.027.308.047Z" transform="translate(724.474 168.781)"/><path class="c" d="M97.167,165.885a.226.226,0,0,1,0,.387.514.514,0,0,1-.572,0,.226.226,0,0,1,0-.387.515.515,0,0,1,.572,0Z" transform="translate(724.141 192.254)"/><path class="c" d="M92.357,161.888h0a.3.3,0,0,1,0,.372h0a.2.2,0,0,1-.148.072.192.192,0,0,1-.146-.072h0a.3.3,0,0,1,0-.372h0a.192.192,0,0,1,.146-.072.2.2,0,0,1,.148.072Z" transform="translate(727.207 194.973)"/><path class="c" d="M90.023,156.3a.843.843,0,0,1-.2.39.858.858,0,0,1-.352.257.229.229,0,0,1-.334-.283.851.851,0,0,1,.2-.389.86.86,0,0,1,.353-.258.229.229,0,0,1,.334.283Z" transform="translate(729.162 198.949)"/><path class="c" d="M93.964,126.423a.517.517,0,0,0-.556,0,.2.2,0,0,0,0,.354.522.522,0,0,0,.556,0,.2.2,0,0,0,0-.354Z" transform="translate(726.315 219.199)"/><path class="e" d="M73.257,59.406a1,1,0,1,1-1,1,1,1,0,0,1,1-1Z" transform="translate(740.476 264.509)"/><path class="e" d="M117.678,262.561l.353,1.148,1.147,0-.929.708.357,1.146-.928-.71-.928.71.358-1.146-.93-.708,1.148,0,.353-1.148Z" transform="translate(710.694 125.173)"/><path class="e" d="M195.886,91.246a1,1,0,1,1-1,1,1,1,0,0,1,1-1Z" transform="translate(656.732 242.765)"/><path class="e" d="M36.254,180.467a1,1,0,1,1-1,1,1,1,0,0,1,1-1Z" transform="translate(765.745 181.835)"/><path class="e" d="M92.949,291.967a1,1,0,1,1-1,1,1,1,0,0,1,1-1Z" transform="translate(727.027 105.69)"/><path class="e" d="M136.927,291.968a1,1,0,1,1-1,1,1,1,0,0,1,1-1Z" transform="translate(696.995 105.689)"/><path class="e" d="M189.73,340.792a1,1,0,1,1-1,1,1,1,0,0,1,1-1Z" transform="translate(660.935 72.347)"/><path class="e" d="M405.591,47.061a1,1,0,1,1-1,1,1,1,0,0,1,1-1Z" transform="translate(513.52 272.94)"/><path class="e" d="M286.424,107.621a1,1,0,1,1-1,1,1,1,0,0,1,1-1Z" transform="translate(594.902 231.582)"/><path class="e" d="M480.155,143.488a1,1,0,1,1-1,1,1,1,0,0,1,1-1Z" transform="translate(462.599 207.088)"/><path class="e" d="M117.368,271.791a1,1,0,1,1-1,1,1,1,0,0,1,1-1Z" transform="translate(710.352 119.469)"/><path class="e" d="M82.607,276.791a1,1,0,1,1-1,1,1,1,0,0,1,1-1Z" transform="translate(734.091 116.054)"/></g></svg>