<svg xmlns="http://www.w3.org/2000/svg" width="190" height="190" viewBox="0 0 190 190"><defs><style>.a{opacity:0;}.b{fill:none;stroke:#fff;}.c{fill:#fff;}</style></defs><g transform="translate(-1475 -270)"><rect class="a" width="190" height="190" transform="translate(1475 270)"/><g transform="translate(175.682 -1912)"><path class="b" d="M2923.827-13861.263c8.827-10.593,3.531-30.894,37.073-32.218s49.872.44,68.85-13.24,74.588-9.709,70.174,18.095-18.978,22.509-22.509,43.694-62.229,23.391-82.532,10.592-50.313-2.649-58.7,0S2915-13850.67,2923.827-13861.263Z" transform="translate(-1616.53 16147.346)"/><path class="b" d="M2923.37-13869.405c7.473-8.968,2.989-26.155,31.386-27.276s42.222.373,58.289-11.209,63.145-8.22,59.409,15.319-16.067,19.057-19.056,36.99-52.684,19.8-69.871,8.969-42.6-2.243-49.695,0S2915.9-13860.438,2923.37-13869.405Z" transform="translate(-1602.776 16154.088)"/><path class="b" d="M2922.682-13881.665c5.434-6.521,2.174-19.02,22.824-19.835s30.7.271,42.388-8.151,45.92-5.978,43.2,11.14-11.684,13.858-13.858,26.9-38.312,14.4-50.811,6.521-30.975-1.63-36.138,0S2917.248-13875.145,2922.682-13881.665Z" transform="translate(-1582.068 16164.237)"/><path class="b" d="M2921.81-13897.207c2.849-3.421,1.14-9.975,11.97-10.4s16.1.143,22.23-4.274,24.083-3.135,22.657,5.842-6.128,7.267-7.268,14.108-20.092,7.552-26.647,3.419-16.245-.854-18.952,0S2918.96-13893.787,2921.81-13897.207Z" transform="translate(-1555.818 16177.108)"/><path class="c" d="M2921.342-13905.555c1.462-1.755.584-5.117,6.14-5.336s8.259.072,11.4-2.192,12.352-1.608,11.622,3-3.143,3.728-3.728,7.236-10.306,3.874-13.668,1.753-8.333-.438-9.722,0S2919.88-13903.8,2921.342-13905.555Z" transform="translate(-1541.717 16184.021)"/></g></g></svg>