<svg xmlns="http://www.w3.org/2000/svg" width="1640" height="1080" viewBox="0 0 1640 1080"><defs><style>.a{fill:#c4cfd8;}.b{opacity:0;}.c{fill:#fff;}.d{fill:red;}</style></defs><g transform="translate(-140 -1602)"><rect class="a" width="1640" height="1080" transform="translate(140 1602)"/><g transform="translate(-579 1458)"><rect class="b" width="828.301" height="828.301" transform="translate(1125 270)"/><g transform="translate(1177.314 395.256)"><g transform="translate(0 15.513)"><path class="c" d="M254.374,123.472c-3.321-1.9-6.641-3.795-10.673-3.083-4.269.949-8.776.712-13.045.949a18.054,18.054,0,0,0-4.981.712c-4.981.949-9.962,1.9-14.943,3.083-3.795.949-7.353,1.66-10.673,3.558a15.867,15.867,0,0,0-4.507,3.321c-.949,1.186-2.372,2.372-1.9,3.795.712,1.66,2.609,1.186,4.032,1.186a16.014,16.014,0,0,0,3.32-.474,30.931,30.931,0,0,1,13.994.237c2.372.712,4.744.949,6.878,1.423a29.188,29.188,0,0,0,3.083-.474,84.2,84.2,0,0,1,11.148-2.135,45.408,45.408,0,0,0,13.519-4.506,15.707,15.707,0,0,0,5.218-3.558C256.034,126.792,256.034,124.421,254.374,123.472Z" transform="translate(260.053 140.783)"/><path class="c" d="M234.212,151.029l-.712-1.423c-1.9-4.032-2.846-8.3,0-12.334.237-.237.237-.712.474-.949.237-.474.237-1.186-.237-1.423a1.69,1.69,0,0,0-1.423.712,14.746,14.746,0,0,0-2.846,11.148v4.032a2.775,2.775,0,0,0,1.9,2.609c.949.474,1.9,1.423,3.083.712C235.4,153.163,234.687,151.977,234.212,151.029Z" transform="translate(309.151 160.9)"/><path class="c" d="M48.809,170.991c-.712-.474-1.423.237-1.9.712a26.849,26.849,0,0,0-2.372,3.083c-.474.949-.712,1.66.237,2.372a1.779,1.779,0,0,0,2.135,0c1.66-.949,3.321-1.9,2.846-4.032C49.521,172.176,49.521,171.465,48.809,170.991Z" transform="translate(55.052 210.196)"/><path class="c" d="M137.156,243.587c4.032-3.321,4.032-3.558,2.609-8.3-.237-.474-.237-1.186-.474-1.66A4,4,0,0,0,134.784,236a8.959,8.959,0,0,0-.949,4.981C133.836,243.113,134.073,243.35,137.156,243.587Z" transform="translate(178.036 296.275)"/><g transform="translate(99.177 261.018)"><path class="c" d="M254.374,123.472c-3.321-1.9-6.641-3.795-10.673-3.083-4.269.949-8.776.712-13.045.949a18.054,18.054,0,0,0-4.981.712c-4.981.949-9.962,1.9-14.943,3.083-3.795.949-7.353,1.66-10.673,3.558a15.867,15.867,0,0,0-4.507,3.321c-.949,1.186-2.372,2.372-1.9,3.795.712,1.66,2.609,1.186,4.032,1.186a16.014,16.014,0,0,0,3.32-.474,30.931,30.931,0,0,1,13.994.237c2.372.712,4.744.949,6.878,1.423a29.188,29.188,0,0,0,3.083-.474,84.2,84.2,0,0,1,11.148-2.135,45.408,45.408,0,0,0,13.519-4.506,15.707,15.707,0,0,0,5.218-3.558C256.034,126.792,256.034,124.421,254.374,123.472Z" transform="translate(160.876 -120.236)"/><path class="c" d="M234.212,151.029l-.712-1.423c-1.9-4.032-2.846-8.3,0-12.334.237-.237.237-.712.474-.949.237-.474.237-1.186-.237-1.423a1.69,1.69,0,0,0-1.423.712,14.746,14.746,0,0,0-2.846,11.148v4.032a2.775,2.775,0,0,0,1.9,2.609c.949.474,1.9,1.423,3.083.712C235.4,153.163,234.687,151.977,234.212,151.029Z" transform="translate(209.974 -100.118)"/><path class="c" d="M48.809,170.991c-.712-.474-1.423.237-1.9.712a26.849,26.849,0,0,0-2.372,3.083c-.474.949-.712,1.66.237,2.372a1.779,1.779,0,0,0,2.135,0c1.66-.949,3.321-1.9,2.846-4.032C49.521,172.176,49.521,171.465,48.809,170.991Z" transform="translate(-44.125 -50.822)"/><path class="c" d="M137.156,243.587c4.032-3.321,4.032-3.558,2.609-8.3-.237-.474-.237-1.186-.474-1.66A4,4,0,0,0,134.784,236a8.959,8.959,0,0,0-.949,4.981C133.836,243.113,134.073,243.35,137.156,243.587Z" transform="translate(78.859 35.257)"/></g><path class="c" d="M529.308,150.631a.889.889,0,0,0,0-1.423c-3.083-.474-4.269,2.609-6.641,3.558a2.368,2.368,0,0,0-1.186.949c-.474.237-.712.712-1.186.949-2.135,2.135-4.032,4.507-6.641,5.93a2.368,2.368,0,0,0-1.186.949c-.474.237-.712.712-1.186.949a36.484,36.484,0,0,1-3.083,2.846L506.064,167l-.474.474a2.368,2.368,0,0,0-1.186.949l-.712.712-88.707,68.783c-.237,0-.237.237-.474.237-.474.237-.712.474-1.186.712l-2.135,1.423c-.474.237-.712.237-1.186.474-1.186-.237-1.423-1.423-1.9-2.372a1.852,1.852,0,0,0-.949-.949c-.949-.474-2.135-.474-3.083-.949a3.276,3.276,0,0,1-.712-.949,3.9,3.9,0,0,1,.474-2.372c.474-1.423,2.135-2.609.949-4.269-4.981-.949-5.93-.474-5.93,4.032a23.1,23.1,0,0,0,.474,5.692,32.932,32.932,0,0,0,5.692,8.064c.474.712,1.66,1.423,1.186,2.372-.474,1.186-1.66.474-2.372.474-3.083,0-4.981-1.9-6.167-4.269a2.368,2.368,0,0,0-1.186-.949c-1.186-.474-2.372-.474-3.558-.949a3.371,3.371,0,0,0-1.423-.474,6.415,6.415,0,0,0-3.558-.712c-4.507-1.186-8.776,2.135-13.282.949-1.9-.474-3.558-.237-5.455-.474-2.135,0-3.558-1.423-4.981-2.609-2.609-1.423-2.846-4.269-4.506-6.4-1.423-1.423-2.846-2.135-4.744-.949-.474.237-.712.712-.949.949-.474.474-.712.949-1.186,1.423a1.949,1.949,0,0,1-1.66.237c-.237-.237-.712-.474-.949-.712a24.842,24.842,0,0,1-1.9-2.609c-.712-.949-1.186-1.9-1.9-2.846l-.949-.949c-.949-.474-2.135-.712-2.846-1.186a6.394,6.394,0,0,1-1.66-1.9c-.237-.474-.237-.712-.474-1.186-.474-2.135-.712-4.506-1.66-6.4-.237-.474-.237-.949-.474-1.423-1.9-5.455,2.135-10.2,2.135-15.417-1.66-1.66-3.083-1.186-4.507,0l-.949.949a2.52,2.52,0,0,1-1.9-.237c-1.423-.949-3.321-1.66-4.507-3.083-1.66-1.9-2.846-4.506-6.167-4.269-.474.237-.949.237-1.423.712-2.372,1.423-5.218,4.269-4.744-1.66.237-2.609-1.186-4.032-3.321-5.218l-1.423-.712c-1.9-.474-3.083-1.66-4.032-2.135a.672.672,0,0,1,0-1.186c.949-.712,1.9.237,2.846.237,3.795,1.186,3.083,0,6.878,0,3.795-1.186,1.66-3.083.474-4.981a4.164,4.164,0,0,0-1.186-.949,30.6,30.6,0,0,1-3.795-2.135,10.314,10.314,0,0,1-1.423-1.66c-.712-1.423-.712-3.083-1.9-4.506-.237-.237-.474-.712-.949-.949,1.423-2.846,3.558-.474,5.455-.949,3.321.712,6.167,3.083,9.962,2.609,2.846-.237,5.455-2.135,8.776-.474,5.218,2.846,6.641,1.9,8.539-3.558.237-.474.712-.712.949-1.186s.712-.712.949-1.186a3.371,3.371,0,0,0,.474-1.423c.237-1.186.237-2.609,1.423-3.321,2.846-1.186,5.455.237,8.064.474a6.415,6.415,0,0,0,4.506-1.423c2.135-2.846,4.981-3.321,8.064-2.609,3.558.712,5.93-.712,6.878-4.269a2.368,2.368,0,0,0-.949-1.186c-2.135-.474-4.032-1.186-4.269-3.795-2.135-2.372,1.186-3.083,1.423-4.981a9.036,9.036,0,0,0-.712-2.372,5.184,5.184,0,0,0-.712-1.186c-.474-.949-.237-4.032-.712-4.981-1.9-2.135-6.878.949-1.9-7.116-4.269-.237-9.013,2.846-9.487-1.186-.474-.712-1.186-1.423-1.9-2.372-.237-.474-.712-.712-.949-1.186-.712-.712-1.186-1.66-2.135-2.135-1.66-.949-5.93-1.66-4.269-3.795,4.744-6.641-2.846-4.744-6.167-3.558a3.542,3.542,0,0,1-1.66.712,2.178,2.178,0,0,1-.949-1.423,7.1,7.1,0,0,0-.949-2.372c-1.423-.712-3.321.237-4.506-.949a1.852,1.852,0,0,1-.949-.949,1.791,1.791,0,0,1-.237-1.9c.949-1.186,2.135-2.372.712-4.032a2.368,2.368,0,0,0-1.186-.949,33.953,33.953,0,0,1-4.981-2.846c-2.372-3.558-1.9-7.827-3.795-11.622l-.712-1.423c-.237-6.4-7.115-5.93-5.218-11.622a2.368,2.368,0,0,0-.949-1.186c-2.846-10.91-9.487-7.827-14.705-11.148a3.009,3.009,0,0,0-1.423.237c-2.846.712-5.692-.237-8.539-.237-.712-.237-.949-.712-1.186-1.423,1.186-4.506-1.186-9.487,1.9-13.757a2.921,2.921,0,0,0-.474-2.372,3.435,3.435,0,0,0-2.609-.237c-1.423.474-2.609.474-3.321-.949s.237-2.609,1.186-3.558c.474-.474.949-1.186,1.423-1.66,1.186-1.423,3.321-2.609,1.9-4.744-.949-1.66-2.846-2.135-4.981-1.66a2.368,2.368,0,0,0-1.186.949c-1.186,2.372-1.186,5.455-4.269,6.4h-.712c-.474-.237-.949-.237-1.186-.474a5.84,5.84,0,0,0-2.846-.237c-.474.237-.949.237-1.423.712a5.186,5.186,0,0,0-1.186.712c-1.9.474-3.558,2.135-5.93,1.423-1.186-2.609.949-2.609,2.609-3.083,1.423-.474,3.083-.949,3.321-2.609.237-1.9-1.9-1.9-3.083-2.609a5.185,5.185,0,0,1-1.186-.712c-.474-.237-.712-.712-1.186-.949l-2.135-2.135c-2.372-1.186-1.66-9.25-6.641-3.795-5.93,1.66-5.692-3.321-7.353-6.4-.474-.712-.949-1.186-1.186-1.66-.949-1.186-.237-2.846-.949-4.032a8.8,8.8,0,0,0-8.064,0h0a1.077,1.077,0,0,0,0,1.186c.949.474,2.372,1.186,2.135,2.372-.237,2.846.474,4.269,3.558,3.558l.474.237c0,.237.237.949,0,.949-.949.949-2.135.712-3.083.712-1.9,0-2.372,1.66-2.846,3.083-.474,1.186.237,2.135,1.66,2.609.949.237,6.4,2.372,7.59,2.372,1.66,0,3.083,1.66,4.981.712a.8.8,0,0,1,1.186.712c0,.712-.474.949-.949,1.186-1.66.712-3.083,1.186-4.744,1.9-.474.237-1.186.474-.949,1.186a2.858,2.858,0,0,0,1.186,1.186,27.826,27.826,0,0,0,2.609,1.186c.237,0,.237.712.237.949a.828.828,0,0,1-.474.237c-.474,0-1.186.237-1.66.237s-1.186.237-1.186.949c0,.949.712,1.186,1.66,1.423,1.186.712.949,2.846,2.846,3.083,1.423.949.712,3.558,2.846,3.795-.474.474-.949,0-1.423,0a2.693,2.693,0,0,0-1.9.712.735.735,0,0,1-.237.474c0,.237,0,.474.474.949h0a.828.828,0,0,1,.237.474.871.871,0,0,1-.237.712h0c-.712,1.186.474,1.66,1.186,2.372.237,0,.474,0,.474.237.474.237,1.186.474,1.186.949.237.474-.237.949-.949,1.186-1.186.474-2.609.712-3.795,1.186a1.833,1.833,0,0,0-1.66,1.9,2.278,2.278,0,0,0,1.66,2.135c.949.237,1.9.237,2.846.474.712.949,2.372,1.423,2.372,3.558-1.66-3.083-4.269-1.186-6.167-2.372-5.455-.474-6.4.474-5.455,5.93a4.4,4.4,0,0,0,.474,1.66c.474,1.186.712,2.609,2.135,3.083.474.237,1.66,0,1.423,1.186,0,.237-.949.712-1.423.712a2.422,2.422,0,0,0-2.609,2.372c0,.474-.712.949-1.186.949-1.66-.237-2.135.474-1.66,1.66a3.945,3.945,0,0,1-.474,3.558c-2.372,3.321-5.218,6.878-3.321,11.622,0,.237-.237.712-.474.712s-.712-.237-.949-.237a4.142,4.142,0,0,1-1.66-3.321,4.165,4.165,0,0,0-1.186-.949h-.949c-1.66,2.135-.949,4.507-1.186,6.878-.237-1.9.712-4.032-.949-5.692h0c-.474-.237-.712-.712-1.186-1.186h0a4.165,4.165,0,0,1-.949-1.186c-.474-.474-.949-1.186-1.423-1.66-1.423-1.423-1.9-1.423-3.083-.237a13.239,13.239,0,0,0-1.186,1.9,42.2,42.2,0,0,1,2.846,6.878,16.583,16.583,0,0,0-4.269-6.878c-2.846-.237-4.507-2.135-6.167-4.269-2.372-3.321-3.558-3.321-7.116-1.423-2.846,1.66-5.455,3.321-8.3,4.981a9.349,9.349,0,0,0-4.032,4.507c-1.66,2.372-1.186,4.981-1.423,7.59-2.135,1.186-3.795-.474-5.455-1.186a1.116,1.116,0,0,0-1.9.237,5.509,5.509,0,0,1-4.506,2.135c-.712,0-1.66.237-2.135-.474s.237-1.186.949-1.66c1.423-.949,2.609-2.135,4.032-3.083,1.186-.949.949-2.372,1.423-3.558.474-1.423-.949-1.423-1.423-2.135-.712-.949-1.9-1.9-1.186-3.558,1.423.474,2.846.712,4.269,1.186,1.186.474,1.66,2.135,3.321,2.135,1.186-2.609-.474-4.981-1.186-7.353,0-.237-.712-.474-.949-.712-2.609-2.135-2.846-2.609-.712-5.218.474-.474,1.423-.474.949-1.66-2.372-.712-4.269-.237-5.692,2.135-1.186,1.66-2.372,1.186-3.083-.949A3.3,3.3,0,0,0,178.75,74.5c-1.423-.474-1.423-1.66-1.186-2.846l.712-2.135c.474-1.66.237-2.609-1.9-2.372-1.186.237-.949-.712-1.186-1.423-.474-2.135-.712-4.032-3.321-4.506-1.186.712-1.66-.474-2.372-.949h-.949c-1.66.712-3.558,1.423-5.455,2.135a14.557,14.557,0,0,0,4.032-5.692c1.423-2.609-.237-4.269-2.135-5.692-1.186-.712-2.135-.712-2.609.712a.828.828,0,0,1-.237.474,1.8,1.8,0,0,1-.949.474c-.237,0-.474-.712-.474-.949,1.66-3.321.237-5.218-2.372-6.878-.237,0-.237-.237-.474-.474-.474-.712-.949-1.423-.474-2.135,1.186-1.66,0-2.846-1.186-3.795a2.519,2.519,0,0,1-.474-3.083c.237-.712.712-1.186.474-2.135a.828.828,0,0,1-.474-.237c-.949.474-2.135.949-3.083,1.423-2.372.949-4.269.712-5.692-1.9a7.414,7.414,0,0,0-2.135-2.609c-1.186-.949-2.846-1.186-3.321,0-1.423,3.083-3.558,3.558-6.641,3.795-2.846.237-5.692-.237-8.3,1.186-1.9.949-1.9.949-5.218.237-1.9,1.423-3.321-1.186-5.218-.237-.474.237-1.423.237-1.423-.237-.474-2.372-2.609-1.9-3.795-2.609-.474-.237-1.9,0-2.135-.237-.474-1.186.949-1.186,1.423-1.9.237-.237.712-.712.474-.949-.949-1.9.474-3.083,1.423-4.506.237-.474.237-1.186-.237-1.423-2.135-1.186-4.269-.237-4.744,1.9-.237,1.66-.474,3.083-2.135,3.558-.949.474-1.9,2.135-2.846.949-1.423-1.66.712-2.135,1.423-2.846.237-.237.712-.474.949-.712.712-.712.237-1.423-.237-1.9-.712-.712-1.423-1.423-2.372-1.186s-1.9.237-2.372-.949c-.712-1.423-1.9-1.66-3.321-1.423H93.364c-1.423-.712-.237,4.506-2.609.949-.474-1.66-.712-3.558-2.135-4.744-.949-.712-1.66-.949-2.372-.237a2.519,2.519,0,0,1-3.083.474,48.3,48.3,0,0,1-5.218-2.135A8.552,8.552,0,0,0,73.2,13.3a15.659,15.659,0,0,1-3.321-.237c-4.032-.712-4.032-.949-5.218,3.321A5.692,5.692,0,0,1,63,19.231a5.692,5.692,0,0,0-1.66,2.846,6.091,6.091,0,0,1-4.269,4.032c-1.423.237-.712,1.423-.237,2.135a2.51,2.51,0,0,0,2.135,1.186c-1.423.237-2.846.712-4.506,0-1.186-.237-2.372-1.423-3.795-.237a2.532,2.532,0,0,1-2.609.712c-2.135-.949-3.558,0-4.744,1.9-.712,1.186-1.423,2.372-2.135,3.321-.949.949-1.423.712-1.66-.712-.237-1.66-1.423-1.423-2.609-1.423-1.423-.237-1.9,1.9-3.321,1.66-1.186-.237-2.372-1.186-3.558-1.423a14.418,14.418,0,0,0-4.506.237,5.922,5.922,0,0,1-4.506,0,3.263,3.263,0,0,0-2.609.237,23.313,23.313,0,0,1-3.795,1.186c-2.135.237-4.981,0-6.4,1.423a15.041,15.041,0,0,0-3.321,6.4c-.474,1.423-.712,2.846-1.9,3.795-.949.712-.712,1.9-.474,3.083,1.186,5.692,4.269,10.436,7.827,14.943,1.186,1.423,2.135,3.321,4.506,1.9.712-.474,1.186.474,1.66.949,1.423,1.186,1.66,1.186,2.372-.474.474-1.423.949-3.083,2.609-3.321A37.909,37.909,0,0,1,26.478,62.4a1.847,1.847,0,0,1,2.135,1.423c-2.135,1.9-5.692,2.135-7.116,5.218.712,1.186-.949,2.372-.237,3.558.237.712,0,1.66.949,1.9.237.237.712.237.949.474.474.237.949.474.949,1.186s-.474.712-1.186.949c-3.083.949-3.083.949-1.423,3.558.712.949,1.9,1.9,1.423,2.846-1.186,2.609.474,5.692-1.186,8.3a27.9,27.9,0,0,0-1.66,4.744c-.474,1.423.474,2.372,1.66,2.135A37.917,37.917,0,0,0,26.715,97.5a2.375,2.375,0,0,1,2.846,2.372c0,.474-.474.949-.474,1.66-.237,2.135.949,3.083,2.846,2.609.949-.237,1.9-1.423,3.083-.474,0,1.423-1.186,2.372-1.423,3.558-.712,1.9-.712,2.846,1.186,3.795,2.609,1.423,3.795,4.032,5.218,6.4a1.766,1.766,0,0,1-.237,2.135c-.237.474,0,1.186.474.949,1.66-.712,4.506-.474,3.795-3.795,0-.237,0-.474.237-.474.474-.237.949-.712,1.423-.712a1.8,1.8,0,0,1,.949.474,2.584,2.584,0,0,1,.474,2.609c-.712,1.66-1.186,3.321-1.66,4.744s0,1.9,1.186,2.846c1.66,1.186,1.423,1.186.474,3.083,0,.237-.237.237-.474.474-.949,1.186-.474,1.9.237,3.083.949,1.186,2.609,1.66,3.795,2.135.237,0,.474.712.237.949,0,.237-.474.474-.712.712s-.712,0-1.186.237c-1.66.712-3.321-1.66-4.744,0-1.186,1.423.712,3.321-.474,4.981-.712.949.474,1.66,1.423,1.9s1.9,0,2.372,1.186c-.474.949-.712,2.135-1.186,3.083-.949,2.135-2.846,4.506-2.846,6.641,0,2.609-1.186,4.981-.949,7.827a6.492,6.492,0,0,1-1.66,4.744c-.949.949-.237,1.66.474,2.372.712.474,1.66.949,2.372,1.423,2.135,1.423,2.135,1.423.237,4.032.712.237,1.186.712,1.9.949,2.609.949,5.692,1.423,7.827,3.083,2.609,2.135,5.218,1.66,7.827,2.135a29.736,29.736,0,0,1,5.93,2.135c2.609,1.423,4.981,2.609,8.064,2.372.949,0,1.186.474,1.186,1.423a1.925,1.925,0,0,0,.949,1.9c5.218,3.795,9.25,9.013,13.757,13.52a39.265,39.265,0,0,1,7.116,10.2c2.846,5.93,5.93,11.859,7.827,18.263,2.135.712.949-1.9,2.135-2.135,1.9,1.186,4.506,1.9,5.218,4.032.949,2.609,2.609,3.321,4.981,3.795a7.728,7.728,0,0,1,4.507,1.9c.474.474.474.949-.237,1.186-.712.474-2.135,0-2.372.949-.474,1.66-1.9,1.66-2.846,2.372-2.135,1.66-5.218.237-6.641,2.372-1.423,1.9,0,4.744-1.423,7.116-.237.474-.237,1.186-.474,1.66-.712,3.083-1.66,6.167-1.186,9.25.237.712-.474,1.66-.949,2.609-1.66,2.135-2.372,4.744-3.321,7.116a7.306,7.306,0,0,1-1.186,2.846c-.712,1.423-2.846,2.609-.949,4.744h0c2.135.949,0,1.66,0,2.609-.712.474-1.423.712-1.66,1.423-1.9,2.846-3.558,5.93-5.218,8.776-2.135,1.423-4.744,1.9-6.641,3.795-4.507,6.4-8.776,12.808-14.705,18.738,2.135.712,3.083,2.372,3.558,4.744a2.419,2.419,0,0,0,1.186,1.9,2.721,2.721,0,0,1,1.186,2.846,2.543,2.543,0,0,0,.474,1.423,11.106,11.106,0,0,0,7.353,3.321c.712,0,1.423-.474,2.135.237a2.584,2.584,0,0,1,.474,2.609,1.254,1.254,0,0,0,.949,1.66c.712.237,1.66.474,1.423,1.423,0,2.846,1.66,4.032,3.795,5.218.949.474.712,1.186-.712,1.66s-1.9,1.423-1.423,2.372a.828.828,0,0,0,.237.474c1.186,1.423,1.66,3.321,3.321,4.507,1.186.712.949,1.423.237,2.135-2.135,2.846-2.135,2.846,1.423,4.032,1.423.474,3.321.474,4.032,1.9s2.135,1.9,3.321,2.846c2.846,2.372,5.455,4.981,5.218,9.25-.237,2.372.237,2.372,2.609,2.609q6.048.712,6.4,6.4a29.657,29.657,0,0,0,.712,4.507,5.329,5.329,0,0,1,.237,3.795c-.949,1.66.474,3.795-.949,4.744-2.372,1.66-1.186,2.846-.474,4.506a3.607,3.607,0,0,1-.949,1.423c-2.609,2.846-2.609,2.846,1.186,4.269,1.66.474,3.558.949,4.269,2.609a35.392,35.392,0,0,1,2.372,12.1c0,.474-.474,1.186-.949,1.186-.474.237-1.186-.237-1.423-.474a24.117,24.117,0,0,1-3.083-6.641c-.712-1.9-1.423-2.135-3.558-1.423a11.562,11.562,0,0,1-1.66.712c-.949.237-1.423,0-1.66-.949-.237-1.423-.474-2.609-2.135-2.846-3.083.949-1.66,3.083-1.186,4.744a79.412,79.412,0,0,0,4.506,12.571l1.186,1.66a12.433,12.433,0,0,0,2.609,2.372v1.423l1.186,1.9,30.36,94.162,18.026,22.77a13.861,13.861,0,0,0,8.064,2.846c9.013.237,18.026,2.846,27.039,2.846a10.66,10.66,0,0,0,5.455-.949c1.423-.237,3.083,0,4.269-1.186,10.436-1.66,18.026,5.218,26.327,9.725,2.135,1.186,4.269,2.372,6.4,3.321.949.949,1.9.474,3.083.711,5.692,2.135,10.91,1.423,15.18-3.32a35.033,35.033,0,0,1,6.878-6.4h0c2.609-1.66,5.93-1.186,8.539-2.846,5.93.237,11.622,1.423,17.789,1.186,3.558-.237,6.641-.712,9.013-3.083.474,0,.712.237,1.186.237a7.548,7.548,0,0,0,3.558-3.083c1.9-4.032,4.269-8.064,7.827-10.91a6.442,6.442,0,0,0,1.9-4.032c0-.474.237-.949.237-1.423v1.186c-.237,2.846-.949,5.693.237,8.3,1.9,4.507-.237,6.878-3.321,9.25-6.878,3.558-9.013,10.673-12.571,16.84-1.9,3.083-.474,4.744,3.321,3.083.712-.474,1.186-.712,1.9-1.186,8.3-3.321,16.6-6.641,24.9-9.725,1.66-.711,3.083-1.186,4.032-2.846a1.589,1.589,0,0,1,1.9-.712,3.309,3.309,0,0,0,2.609,0L358.536,551c2.609-1.186,2.609-1.186.949-3.8a2.419,2.419,0,0,1-.474-2.135,2.369,2.369,0,0,1,1.186-.949,1.426,1.426,0,0,1,.949.237c.237.237.237.712.474.949,1.423,3.083,1.9,3.321,4.506,2.135l12.1-4.981c3.321-1.423,4.032-3.321,3.321-6.878a16.622,16.622,0,0,1-.712-3.321c0-.949.237-2.135,1.423-2.135,2.846,0,4.032-1.66,4.744-4.032a1.494,1.494,0,0,1,1.9-.712c.474.237.949.712,1.423.949.712.474,1.423,1.186,2.372.474.712-.712.474-1.66.237-2.609l-.712-1.423c-1.186-1.423,0-1.66,1.186-2.135,1.66-.711,1.66-1.186.474-2.135-.237-.237-.712-.474-.949-.712-2.135-.949-2.135-2.372-1.186-4.269.474-.949.712-1.9,1.423-2.372,1.9-1.66,2.372-3.321.712-5.455-.237-.237-.237-1.186-.237-1.66,1.423-2.846,0-4.981-1.66-7.115a33.941,33.941,0,0,1-2.609-3.558c-1.186-1.9-2.372-4.032-1.423-6.4a9.324,9.324,0,0,0-.712-8.3,19.874,19.874,0,0,1-1.9-11.622,23.646,23.646,0,0,0-1.186-9.013c-1.423-4.032-2.609-8.3-3.795-12.571-1.66-5.692-1.423-11.148,2.372-16.129a25.213,25.213,0,0,1,2.135-2.609c3.795-3.321,6.167-7.59,10.2-10.673a6.519,6.519,0,0,0,2.372-3.795c.712-3.083,3.083-5.218,4.032-8.064.474-1.9,2.135-2.609,3.795-2.846s2.135,1.186,2.846,2.372a3.785,3.785,0,0,0,3.321,1.9.872.872,0,0,0,.712-.237,1.852,1.852,0,0,0,.949-.949h0a7.326,7.326,0,0,1,1.66-3.321h0a2.859,2.859,0,0,1,1.186-1.186h0a2.858,2.858,0,0,1,1.186-1.186h0c1.9-3.795,2.609-7.59-.237-11.148-1.9-2.372-6.167-4.032-3.558-8.3a3.189,3.189,0,0,1,2.135-.474c.237-.474.712-.949.712-1.423V376.9c-.949-3.558,1.423-4.269,3.795-5.455a3.567,3.567,0,0,0,2.609-.949c.237-.474.712-.474,1.423-.474a18.177,18.177,0,0,0,10.673-.712c.711-.712,1.186-1.66,1.9-2.372h0a2.858,2.858,0,0,1,1.186-1.186h0c2.609-.949,3.558-3.083,4.269-5.218-.237-.474-.237-1.186-.712-1.66-.237-.949-.712-2.135,0-2.609,2.372-1.9,3.321-5.455,7.116-5.93a12.714,12.714,0,0,0,2.609-1.186,2.848,2.848,0,0,0,2.135-2.846c0-1.9,1.66-2.609,3.083-2.846a62.664,62.664,0,0,1,6.878-.474A14.277,14.277,0,0,0,469.3,341.8c2.846-1.186,4.507-3.558,3.558-6.4-.712-2.372-.237-4.032,1.423-5.455a4.733,4.733,0,0,0,1.66-5.455c-.712-2.135,0-3.795,1.9-5.455,2.372-2.135,2.372-3.083.949-5.93-.712-1.423-1.186-3.558-3.083-4.032s-3.795-1.66-6.167-1.186c-.712.237-1.66.949-2.609,0-.474-.712.949-1.423,2.609-1.423a14.583,14.583,0,0,0,3.32-.237,1.069,1.069,0,0,0,.712-.712c0-.237,0-.949-.237-.949-4.032-2.135-7.827-4.744-12.808-2.846a5.337,5.337,0,0,1-3.321.237c-4.744-.474-8.539,1.186-12.1,3.795a19.781,19.781,0,0,1-2.846,1.9c-8.539,4.032-13.994,11.385-20.635,17.789a11.214,11.214,0,0,0-1.66,2.846c-3.321,7.353-8.064,14.231-13.045,20.635-3.558,4.744-6.641,9.725-9.725,14.705a10.423,10.423,0,0,0-1.66,5.218,4.315,4.315,0,0,1-1.9,4.507,2.889,2.889,0,0,0-1.423,2.846V380.7c0,2.846-.474,5.218-2.846,7.116a8.182,8.182,0,0,0-1.9,2.135c-3.795,6.878-9.013,12.571-14.468,18.026a29.588,29.588,0,0,0-3.795,4.032,20.575,20.575,0,0,0-4.032,12.1c0,2.372,2.135,4.981-.712,7.115-.237.237,0,.712,0,.949.712,1.423.237,2.846,0,4.507-.474,4.032-1.186,7.827.237,11.859a7.314,7.314,0,0,1,0,4.506,37.893,37.893,0,0,0-1.186,4.981c-.474,4.032-2.372,8.064-.712,12.334.474,1.186-.237,2.135-.949,3.321-1.66.949-2.135,3.083-3.321,4.506l2.135-4.269c-2.609-.474-3.321,1.423-3.795,3.321-.237.949.712,1.186,1.423,1.186l-.237.237a34.717,34.717,0,0,1-4.981,6.641,22.259,22.259,0,0,0,1.423-3.558,71.884,71.884,0,0,1,3.795-9.962c1.186-2.135,1.186-4.269,1.423-6.641.237-4.507-.474-9.013.712-13.52a7.9,7.9,0,0,0-.237-3.321c-1.66-4.269-1.9-8.776-3.321-13.282a4.7,4.7,0,0,1,1.66-5.93,5.509,5.509,0,0,0,2.135-4.507c-.474-4.744,2.135-8.776,4.032-12.808a106.188,106.188,0,0,1,6.641-11.148c3.321-4.744,5.93-10.2,10.436-14.231,1.186-1.186,2.609-2.372,2.846-4.269s-1.186-3.083-2.135-4.507c-1.66-2.372-1.66-3.558.237-5.93,1.186-1.423,1.66-2.609.474-4.032-2.372-3.083-1.66-5.218,1.186-7.59,1.66-1.423,3.321-4.032,2.372-6.641-1.423-3.083-.474-4.981,2.372-6.4.712-.237.949-1.186,1.66-1.66,1.186-.949,1.186-1.9.237-3.083-1.186-1.423,1.186-2.135,1.186-3.321,0-3.083,2.135-4.269,4.269-5.692a42.228,42.228,0,0,0,7.353-5.455c1.423-1.66,1.9-3.321.949-5.218-.949-2.135-1.9-4.507-3.083-6.641-1.186-1.9-3.321-3.321-.474-5.692.237-.237,0-.949,0-1.66a22.21,22.21,0,0,0-.949-3.795c-.712-1.9-.474-3.321,1.66-4.032.949-.474,1.9-.949,1.66-1.9-.949-2.135.949-4.269,0-6.641-.712-1.423.949-2.609,2.372-1.66,2.846,2.135,4.981.949,7.115-1.186l4.744-4.744c2.609-2.609,5.218-5.455,8.064-8.064a20.815,20.815,0,0,1,3.558-2.846c3.321-1.66,6.4-3.321,8.3-6.641A2.721,2.721,0,0,1,440.6,265.9a4.526,4.526,0,0,0,5.455-1.9c2.372-3.558,5.455-4.981,9.487-5.692a23.317,23.317,0,0,0,3.795-1.186,6.931,6.931,0,0,0,4.507-4.032c1.66-3.795,4.744-5.93,8.064-7.827a54.836,54.836,0,0,0,9.962-6.4c2.135-1.66,4.506-2.846,7.353-1.66,1.186.474,2.135-.237,2.372-1.66.237-.712,0-1.66.474-2.135a1.69,1.69,0,0,1,1.423-.712,1.8,1.8,0,0,1,.949.474c.237.474.712.949.712,1.423a4.038,4.038,0,0,1,.237,1.66c.237.474.474,1.186.949,1.186a1.691,1.691,0,0,0,1.423-.712c2.372-4.506,5.218-8.776,6.641-13.519.474-1.423.949-1.9,2.372-1.186,2.609,1.186,2.609,1.186,4.032-.712s2.609-4.269,4.744-5.455,3.558-2.609,2.609-5.218c0-.237.474-.474.712-.712.237,0,.237,0,.474-.237s0-.474-.474-.712c-.712-.474-1.66-.949-1.66-2.135a2.532,2.532,0,0,1,1.66-2.135.828.828,0,0,0,.474-.237c2.609-.237,3.083-1.9,2.846-3.795-.474-4.744.712-9.487-.712-13.994a2.083,2.083,0,0,1,.237-1.66,2.579,2.579,0,0,0,0-3.558c-.949-1.186-1.186-2.372.474-3.321.949-.474.474-1.186,0-1.9-.237-.474-.712-.949-.474-1.423,1.9-1.9.474-2.846-.712-4.269-1.423-1.66-1.423-1.9.474-4.032.712-.949,1.186-1.9,1.9-2.846,1.186-.949,0-2.372.712-3.083.949-1.186,2.135.474,3.083,0a6.487,6.487,0,0,0,3.083-3.083A21.931,21.931,0,0,0,529.308,150.631ZM327.7,516.132c-1.423,2.609-3.321,5.218-4.507,8.064a52.473,52.473,0,0,1,9.25-15.654C331.022,511.151,329.125,513.523,327.7,516.132Zm10.2-16.84a27.081,27.081,0,0,1,6.878-6.878A37.761,37.761,0,0,0,337.9,499.292Z" transform="translate(-2.311 -10.187)"/></g><g transform="translate(510.561 348.488)"><path class="c" d="M229.5,167.477c1.66-1.423,3.083-2.846,5.455-1.9,1.423.474,1.423-.712,2.135-1.186,1.66-1.423,1.9-1.66,3.795.237a3.414,3.414,0,0,0,3.558.949c5.218-1.423,9.487-4.744,13.282-8.539,1.9-1.9,3.8-3.795,5.455-5.692a2.391,2.391,0,0,1,2.135-.712c.949.474.712,1.66.474,2.609l-2.846,5.692c-1.186,2.609-.712,7.827,1.186,10.436.949,1.423.949,2.372-.237,3.321-.237.237-.712.474-.949.712-1.9.949-3.558,2.372-5.692,2.135s-2.372-2.609-3.558-4.032a4.959,4.959,0,0,0-1.423-.949c-.237.237-.474.237-.474.474,0,1.186.237,2.372-.237,3.083-.712,1.186-2.135,1.423-3.321,1.66-3.795.949-7.353,1.66-11.148.237a7.735,7.735,0,0,0-4.032,0c-3.321.474-6.4,1.186-8.539-2.609a2.543,2.543,0,0,0-1.423-.474c-1.186.237-2.135.474-3.32.711-1.423.237-2.372-.711-2.135-1.9.237-1.423.237-2.609.474-4.032.474-1.9.712-3.795-.237-5.455-.712-1.423,0-2.609.237-3.795a1.613,1.613,0,0,1,2.609-.712,11.2,11.2,0,0,1,3.321,6.4,8.61,8.61,0,0,0,3.083,4.507C228.551,169.137,229.975,170.323,229.5,167.477Z" transform="translate(-217.57 -150.573)"/></g><g transform="translate(510.834 315.907)"><path class="c" d="M308.088,161.83c-1.186-1.186-2.135.474-3.083,1.423l-1.186,1.186c-1.423,1.66-3.321,1.66-5.218.712,1.186-1.186,2.609-2.135,3.795-3.558,1.186-1.186.474-2.609-.949-3.083-1.9-.475-3.795-.712-5.455-1.186-2.372-.712-2.135-.712-3.32,2.372-.712,1.9-1.186,3.558-4.269,3.321-2.609-.237-2.609.474-3.558-1.423-.474-.949-.712-1.66-1.186-2.609a2.112,2.112,0,0,0-1.9-1.186c-.949,0-1.423.712-1.9,1.186a9,9,0,0,0-1.423,5.455c.237,3.321-1.186,5.455-3.558,7.353a20.479,20.479,0,0,0-3.083,3.321c-.237.237-.712,0-.949,0s-.237-.237-.237-.474v-1.186c.237-3.083-.712-3.8-3.32-2.846-4.032,1.423-7.59,3.558-8.064,8.539a1.548,1.548,0,0,1-2.135,1.186,1.824,1.824,0,0,0-2.372.237c-.474.712-.712,1.423-1.66,1.423s-.949-.949-.949-1.66a8.523,8.523,0,0,1,.474-2.609c0-.474.474-.949-.237-1.423a1.779,1.779,0,0,0-2.135,0,7.216,7.216,0,0,0-1.186,1.66,1.732,1.732,0,0,1-2.609,1.186c-2.372-1.423-4.507-.712-6.641.712-.474.475-1.423.475-2.135.712h0a5.587,5.587,0,0,1,.711,4.744,8.011,8.011,0,0,1-1.66,2.609h0c-1.186,3.558-1.186,7.115-1.66,10.673-1.423,2.846-1.186,6.167-3.083,9.013a2.222,2.222,0,0,0,.474,2.609,2.587,2.587,0,0,0,3.083.712,4.4,4.4,0,0,0,2.846-3.795c.237-1.423-.949-3.083.712-4.269,1.423-.949,2.846-.237,4.269-.474h.474c5.93-3.558,9.962-9.487,16.84-11.385,1.9-.949,2.609.949,3.795,1.66l.712.712c.237.237.474.474.474.711l-.237.237c-.237-.237-.474-.474-.474-.712a3.488,3.488,0,0,0-1.423-1.186,4.626,4.626,0,0,0-3.083.237,57.491,57.491,0,0,0-7.353,5.93c-2.609,2.372-3.083,4.981-1.186,8.064a17.25,17.25,0,0,0,2.135,1.9,12.707,12.707,0,0,0-2.609-1.186c-1.186-.474-3.083,0-3.083-2.135,0-2.609-1.423-3.083-3.558-1.66-.474.712-1.186,1.186-1.186,1.9.237,2.609-.949,4.269-2.372,6.167a90.319,90.319,0,0,0-6.878,9.725c-2.372,4.269-5.218,8.3-7.827,12.571-1.66,2.609-3.558,4.981-4.981,7.59-3.321,6.167-5.218,12.571-2.609,19.686.712,1.9.474,3.795.712,5.693a13.275,13.275,0,0,0,5.93,10.436c.949.711,1.66,0,1.423-1.186,0-.949.474-1.423,1.423-1.186,2.135.474,4.032.949,5.218,3.083a12.7,12.7,0,0,0,3.558,3.558c2.372,1.423,3.558,1.186,5.218-1.186s3.321-4.744.474-7.59c-.949-.949-.474-2.609.237-3.795.949-1.423,2.135-.474,3.083-.474s1.66-.474,1.66-1.186c-.474-3.795,1.186-7.116,2.135-10.436.474-1.423.237-3.083.949-4.507a59.11,59.11,0,0,0,2.609-6.4c.949-2.846,1.423-4.507.711-6.878a12.708,12.708,0,0,0-1.186-2.609,5.93,5.93,0,0,1,0-4.507,3.3,3.3,0,0,1,2.846-2.372c1.423-.237,1.186-1.66,1.423-2.609.237-1.66,1.9-2.372,2.846-.949,1.66,2.846,3.795,2.609,6.4,1.66,1.186-.474,1.9-.949,1.66-2.372-.949-3.558-.474-6.878,2.372-9.487,2.609-2.135,3.321-6.167,7.116-7.115a.828.828,0,0,0,.474-.237,32.033,32.033,0,0,0,6.878-3.795c2.372-1.423,4.032-3.083,4.269-6.167.237-2.372.712-4.981,2.609-6.641,1.423-1.186,1.9-2.135.949-3.795-.474-.712.237-1.423.949-1.66.949-.237,1.66-.712,2.609-.949s1.9-1.186,1.423-2.135c-.949-2.372.712-3.321,2.135-4.744,1.186-.949,2.372-2.135.237-3.558-.474-.237-.474-.712.237-.712a2.756,2.756,0,0,0,3.083-3.083c3.083,0,2.609-3.321,4.032-4.744C309.511,164.914,309.274,162.779,308.088,161.83Z" transform="translate(-217.685 -109.263)"/><path class="c" d="M278.167,159.282c2.609-2.372.712-4.032-.949-5.455a28.424,28.424,0,0,0-2.846-2.609,2.631,2.631,0,0,0-3.558-.474,14.405,14.405,0,0,0-2.372,1.66c-1.423.712-3.558.712-3.795,2.609h-.712c-.237-.474-.237-.949-.474-1.423-.949.712-1.9.712-2.372-.237a17.587,17.587,0,0,1-1.9-7.116c-.474-2.372-.949-4.981-3.558-5.93a23.238,23.238,0,0,1-5.218-3.083c-.949-.949-2.846,0-3.083,1.186a11.548,11.548,0,0,0-.237,2.846c0,1.423.237,2.846-.237,4.032-.949,3.083-.237,5.93.711,8.776,1.423,4.032,2.372,8.539,1.186,12.808-1.186,3.558,0,6.641,1.423,9.962a9,9,0,0,0,5.218,4.981l7.116,2.135c.949.237,2.135,0,2.372-.712,1.186-2.846,3.558-3.558,6.4-3.795a1.568,1.568,0,0,0,1.66-1.423c0-2.846,1.66-4.744,3.321-6.878,1.9-2.372,3.558-4.981,1.66-8.3C277.219,161.417,277.219,159.994,278.167,159.282Z" transform="translate(-178.277 -136.837)"/></g><g transform="translate(229.695)"><path class="c" d="M406.553,136.793A16.814,16.814,0,0,0,403,129.678c-3.083-4.032-5.692-8.3-5.93-13.282-.237-4.032-2.135-6.4-5.693-7.59-1.423-.474-2.846-1.9-4.032-.474-1.186,1.186,0,2.372.474,3.558a11.135,11.135,0,0,1-.237,7.827c-.712,1.423-2.372,1.9-3.321.712-2.135-2.609-5.455-4.744-4.032-9.013a2.579,2.579,0,0,0-.237-1.186,67.4,67.4,0,0,1-2.372-11.622c0-.474-.711-.712-1.186-1.186-.237.474-.711.712-.949,1.186a36.471,36.471,0,0,0-2.135,12.334c0,4.269-.474,8.539,1.66,12.571a13.98,13.98,0,0,1-1.9.949c-1.9,1.186-3.558.474-5.218-.712-1.423-1.186-1.423-2.372-1.186-4.032a4.711,4.711,0,0,0-3.558-5.692c-3.321-.949-3.558-3.321-3.083-5.692.237-3.083.711-6.4,2.609-9.25a12.177,12.177,0,0,0,1.423-7.59c0-.949-.474-1.66-1.423-1.186-1.66.712-1.9-.237-1.9-1.423-.237-.949-1.186-1.423-1.66-.712-2.372,2.609-5.218,4.981-3.321,9.25a4.045,4.045,0,0,1-.949,4.744c-.949.712-2.609.712-2.846-.474-.474-2.135-1.66-2.846-3.558-2.609a2.138,2.138,0,0,0-1.186.237c-3.321.712-5.455-1.423-6.4-4.269a13.813,13.813,0,0,1-.711-4.507V84.85c-.237-4.744-2.846-6.4-7.353-5.218a23.436,23.436,0,0,0-8.064,4.032,15.939,15.939,0,0,1-7.115,3.083c-2.372.474-2.372.474-2.135,2.846a11.9,11.9,0,0,1,.474,2.846c.237,1.66-.237,2.609-1.9,2.609a1.586,1.586,0,0,0-1.423,1.66c.237,1.66-.712,1.9-2.135,2.609-1.66.712,1.66,2.609-.237,3.558-.949.949-.712,1.9-.475,3.083,0,.237.237.237.475.237.712-.237-.237.712-.237.712-.474-2.372-.949-3.795-2.372-4.981-1.186-.712-.949-1.9-1.423-2.846a5.163,5.163,0,0,0-1.186-1.9c-.949-1.186-2.135-.237-3.083.237-1.186.712-.949,1.423,0,2.135.474,1.423,0,1.66-1.186,1.186-2.609,1.66-4.506,4.032-7.827,4.506-2.846,1.423-2.846-.712-3.321-2.609l-1.423-.712c-2.372-.949-2.609-1.423-1.9-3.083a35.022,35.022,0,0,0,2.372-6.4,1.589,1.589,0,0,0-.712-1.9,1.806,1.806,0,0,0-2.135.237c-.474.474-.949,1.186-1.423,1.66-1.186,1.66-2.372,2.846-4.744,2.135-1.423-.474-2.372.712-3.321,1.9-.237.474-.712,1.186-1.186.474-1.186-1.423-1.9-.474-2.372.712a15,15,0,0,1-2.846,5.455,10.339,10.339,0,0,0-2.135,6.878c0,4.032-.237,8.064-.474,11.859a2.706,2.706,0,0,1-.712,1.423c-.474.474-.949,0-1.186-.712-4.506-8.776-8.064-18.026-7.827-28.225a15.916,15.916,0,0,0-1.423-6.641,56.782,56.782,0,0,0-3.083-6.641,15.681,15.681,0,0,1-1.66-5.93c0-2.372-.712-4.744,0-7.116.474-1.186-.237-2.609-1.186-3.558-.712-.712-1.66-.474-2.609-.474-.949.237-1.186-.474-1.9-.949-1.9-1.423-3.083-1.186-4.032.712a11.566,11.566,0,0,0-.949,2.609,96.215,96.215,0,0,1-4.506,13.994,9.139,9.139,0,0,0-.474,6.167c.949,4.269,1.423,8.539,4.032,12.334a3.554,3.554,0,0,1,0,4.269c-1.423,2.372-2.609,4.744,0,7.116a1.778,1.778,0,0,1,.237,1.186c-.237,2.846,1.186,5.218,1.9,7.59,2.135,6.167,4.507,12.1,5.692,18.5a5.087,5.087,0,0,0,2.372,3.795c.949.712.949,1.423,0,1.9-1.66,1.66-.712,3.795-.949,5.93-.474,3.083.949,4.269,4.269,4.269a2.75,2.75,0,0,1,2.372.949c.949,1.423.237,2.846-1.423,3.558-.949.474-2.372,0-3.083,1.186-.949,1.186,0,2.609.237,3.795.474,2.135,1.186,4.032,1.66,5.93l1.423,4.269c.474,1.186-.237,1.9-1.9,1.423a2.568,2.568,0,0,0-2.846,1.186,7.479,7.479,0,0,0-1.186,5.455,2.141,2.141,0,0,0,3.321,1.66,15.7,15.7,0,0,0,5.455-5.692,1.5,1.5,0,0,1,2.135-.474,1.589,1.589,0,0,1,.712,1.9,29.689,29.689,0,0,0-.949,11.148,22.859,22.859,0,0,1,0,5.692c-.237,2.372-.474,4.506,2.372,5.692a2.507,2.507,0,0,1,1.423,1.66c1.9,3.795,3.321,3.083,6.167,1.423,2.135-1.186,3.795-2.135,4.744-4.507,1.9-4.744,5.692-7.827,9.013-11.622,1.186-1.186,2.846-2.372,4.506-2.372,3.32,0,5.218-1.9,7.353-3.795a24.611,24.611,0,0,1,5.93-3.558c2.846-1.186,5.455-2.846,6.878-5.692a7.537,7.537,0,0,1,2.372-2.372,53.451,53.451,0,0,1,14.943-9.013c2.609-.949,5.218-2.609,7.827-.237a.828.828,0,0,1,.474.237c2.372-1.423,5.218-.237,7.59-.949,1.423-.237,2.135-1.423,1.66-3.083l-1.423-4.269c-.711-2.609-.237-3.795,2.372-4.744,3.083-1.423,6.641-1.66,9.962-2.135a1.8,1.8,0,0,1,.949.474.721.721,0,0,1,0,.949c-1.423,1.423-2.846,3.083-4.27,4.507-2.372,2.135-2.609,3.795-1.423,6.641.474.949,1.186,1.9,1.66,2.846,1.66,2.609,1.66,3.558,0,5.93A8.258,8.258,0,0,1,347.257,170c-2.135,1.186-2.846,2.609-2.135,5.218s1.423,3.558,3.795,3.321a5.732,5.732,0,0,0,4.507-3.083c1.9-2.372,3.558-4.981,5.218-7.353a4.706,4.706,0,0,0,.712-4.269c-1.9-4.032-1.66-9.013-4.032-12.571.711-1.423,1.9-1.66,2.846-2.135a15.231,15.231,0,0,0,4.744-3.8c1.423-1.66,1.423-3.083-.474-4.269a25.765,25.765,0,0,1-6.167-5.218c.475-.474.949-1.186,1.423-1.66,1.66-1.186,2.134-2.609,1.186-4.269-.237-.237-.237-.712-.474-.949-.237-.949.237-1.423,1.186-1.423,2.135,0,4.032,1.423,6.167.237.711-.474,1.423.237,1.9.712a19.769,19.769,0,0,1,1.9,2.846c.712,1.66,1.9,2.135,3.8,1.9,1.423-.237,2.372.474,1.9,1.9a8.231,8.231,0,0,0,1.9,7.353c2.135,2.846,2.609,5.692.474,9.013a1.4,1.4,0,0,0,1.423,2.135c3.083-.237,6.167-3.321,6.167-6.4a23.37,23.37,0,0,0-.475-4.032c-.237-1.9-.949-3.795-.237-5.692a60.642,60.642,0,0,0,5.693,2.609c3.558,1.186,5.218,3.558,4.506,7.353a1.8,1.8,0,0,0,.474.949h1.66a8.5,8.5,0,0,0,2.609-.949C406.078,145.095,407.5,142.011,406.553,136.793Z" transform="translate(87.85 76.563)"/><path class="c" d="M143.9,97.7Z" transform="translate(-37.768 125.381)"/><path class="c" d="M144.8,101Z" transform="translate(-36.533 129.908)"/><path class="c" d="M112.7,18.9Z" transform="translate(-80.569 17.28)"/><path class="c" d="M117.9,22.3Z" transform="translate(-73.436 21.944)"/><path class="c" d="M144.066,27.226h1.66c.712.712,1.186,2.609,2.846,1.66,1.186-.949-.237-1.9-.474-2.846a5.173,5.173,0,0,0-.949-1.186h0c-.474-1.186-1.66-1.423-2.609-1.9a1.456,1.456,0,0,0-1.423.237,2.911,2.911,0,0,0-.474,3.083C142.643,27.226,143.354,27.226,144.066,27.226Z" transform="translate(-39.831 22.71)"/><path class="c" d="M158.764,38.352a1.3,1.3,0,0,0,1.186-.712c.237-.237.237-.712.474-.949a1.487,1.487,0,0,0-.474-1.9,1.569,1.569,0,0,0-1.423-.237c-.949.237-.711.949-.711,1.9a1.426,1.426,0,0,0,.237.949C157.815,37.64,157.815,38.352,158.764,38.352Z" transform="translate(-18.714 38.624)"/><path class="c" d="M156.612,35.659c.712.237,1.186-.237,1.423-.949h0A3.36,3.36,0,0,0,157.8,32.1a1.232,1.232,0,0,0-.949-.474c-.712-.237-.949.474-.949.949v2.135C156.137,35.185,156.374,35.659,156.612,35.659Z" transform="translate(-21.306 34.675)"/><path class="c" d="M253.555,71.287c.711,0,.949-.712.949-1.186a8.387,8.387,0,0,0,.237-1.423c-.237-2.609-1.186-5.218-4.032-6.641-.712-.237-1.423-.474-2.135.237A3.371,3.371,0,0,0,248.1,63.7c.474,2.846,2.372,4.981,4.269,7.115A1.533,1.533,0,0,0,253.555,71.287Z" transform="translate(105.178 76.132)"/><path class="c" d="M108.989,6.62a1.847,1.847,0,0,0-1.423-2.135,21.358,21.358,0,0,0-3.795-.712c-1.66-.474-2.846.474-4.032,1.186-.949.712-.712,2.135.474,2.846a3.835,3.835,0,0,0,3.558.237h3.558A2.508,2.508,0,0,0,108.989,6.62Z" transform="translate(-99.153 -3.646)"/><path class="c" d="M267.036,78.253c.712.474,1.66,1.423,2.372.712,1.9-1.66,2.135-4.269,2.846-6.167-.474-.949-.712-1.66-1.66-1.9a1.58,1.58,0,0,0-1.66,1.186,4.033,4.033,0,0,0-.237,1.66c0,1.423-.711,1.9-1.9,2.372C265.613,76.83,265.613,77.3,267.036,78.253Z" transform="translate(129.647 88.615)"/><path class="c" d="M271.941,73.667a1.057,1.057,0,0,0,1.423-.712,6.568,6.568,0,0,0,.237-2.135,7.314,7.314,0,0,0-.237-2.372,1.576,1.576,0,0,0-1.186-.949,2.259,2.259,0,0,0-1.66.474C268.383,69.872,269.095,72.718,271.941,73.667Z" transform="translate(134.229 83.951)"/><path class="c" d="M407.891,111.512c0-.237,0-.237-.237-.474a1.171,1.171,0,0,0,.237-.712c-.237-.474-.712-.237-1.186-.237-1.186,1.186-3.083.474-4.269,1.423-2.135,1.423-4.269,1.186-6.4.712-.712,0-1.66.237-1.423-.949,0-.474.712-.949,1.186-1.186,3.558-.237,6.167-2.372,8.776-4.506.474-.474.949-.712.712-1.186a2.368,2.368,0,0,0-1.186-.949,3.3,3.3,0,0,0-3.321.237c-2.135,1.9-5.692,2.372-7.116,5.218-.474.712-1.66.712-2.609.237a2.409,2.409,0,0,1-1.186-2.372c0-1.423.949-2.372,1.423-3.795a1.117,1.117,0,0,0-1.423-.237c-2.135-.712-2.135-.712-1.186-2.372.474-.712,1.186-.949.711-1.9-.711-1.186-.237-2.135.949-2.846.474-.237.474-.474,0-.949-.712-1.186-3.083-1.9-3.795-.949-.712.712-1.186,1.423-1.9,2.135-.949.949-1.9.949-2.372.237a2.126,2.126,0,0,1,.237-2.609c.237-.474.949-.712,1.186-.949,1.9-1.423,1.423-3.321,1.66-5.218,0-1.423-1.66-1.186-2.372-1.9-.949-.712-1.9-1.66-3.083-2.609a1.779,1.779,0,0,0-2.135,0c-.474.237-.712.712-1.186,1.186-1.9,1.423-1.9,1.423-4.032-.712-1.423-.712-2.609-1.66-4.269-1.423a26.852,26.852,0,0,1-2.372,3.083c-.474.474-.949,0-1.186-.474a4.622,4.622,0,0,1-.237-1.9,26.839,26.839,0,0,1-3.083,2.372c-.949.712-1.66,0-2.372-.712-.237-.474-.712-.712-1.186,0-.949.949-1.66,2.135-3.083,2.372s-1.423,1.423-1.423,2.609c0,2.135,1.186,4.032,2.135,5.93.712,1.423,1.66,2.609,1.423,4.269,0,.474-.474,1.186-.712,1.186a2.083,2.083,0,0,1-1.66-.237c-1.186-.712-1.66-1.9-2.372-3.083s-1.423-1.66-2.372,0a1.141,1.141,0,0,1-1.423.474,2.543,2.543,0,0,1-.474-1.423c-.237-1.66.712-2.846,1.9-3.795a2.079,2.079,0,0,0,1.186-2.372c-.474-1.66-1.423-3.321-3.321-3.321a20.167,20.167,0,0,1-10.2-4.032c-.711-.474-1.66-.237-1.423.712a2.046,2.046,0,0,1-1.423,2.609c-1.423.237-2.846.712-4.507.949-2.609.474-4.269,1.66-4.506,4.269-.237.949-.237,1.9-1.186,2.372s-.949,1.186-.711,2.135c3.083,1.9,4.269-.949,5.692-2.609-.949,2.609-3.083,4.269-5.218,5.93-4.981,3.795-6.4,8.539-4.269,14.468a4.768,4.768,0,0,1-.474,4.744c-3.321,6.641-7.827,12.808-5.93,21.109.712,2.846-2.135,4.744-4.744,6.4v-.474c.237-.237.237-.712.474-.949a3.052,3.052,0,0,0-.237-2.846c-.949-2.372,1.9-4.269,1.186-6.641-6.878-3.083-13.045.949-19.686,1.9,4.269-.712,7.827-2.846,11.859-4.032,2.372-.474,2.846-2.135,2.609-4.269a23.706,23.706,0,0,1,6.878-10.673,15.217,15.217,0,0,0,4.744-9.25v-.712a3.625,3.625,0,0,1,1.66-4.744,12.7,12.7,0,0,0,3.558-3.558c-.237-.949.474-2.135-.949-3.321a37.682,37.682,0,0,0-6.641,8.539h-.474c-3.321.949-3.795,4.507-7.116,7.116a53.793,53.793,0,0,1,5.455-7.353c2.846-3.321,6.4-6.4,8.064-10.91a20.529,20.529,0,0,0,1.66-2.372c.474-.712.712-.949-.474-1.66-1.423-.712-1.66-1.66-.712-2.372,1.9-1.423,4.032-3.083,5.93-4.269,1.423-.949,2.846-2.135,2.846-4.032a1.118,1.118,0,0,0-1.423-.237c-1.186,0-1.9-.474-1.423-1.66A2.508,2.508,0,0,1,328.2,75.7c.949-.474,2.372-.712,1.9-2.135a2.626,2.626,0,0,0-2.135-1.66c-2.372-.949-3.083-.712-4.269,1.9-.237.474-.237,1.186-.474,1.66a1.494,1.494,0,0,1-1.9.712c-1.66-.474-2.609-2.372-4.506-2.135v2.135a3.566,3.566,0,0,1-2.135,2.372,2.008,2.008,0,0,1-2.372-1.9c0-1.66.949-2.846,1.66-4.269a.906.906,0,0,0-.712-1.186,4.037,4.037,0,0,0-1.66.237,1.69,1.69,0,0,0-.711,1.423c.474,2.609-1.66,4.032-1.9,6.4-.474,3.558-3.558,1.9-5.218,2.846-.474.237-.949.712-1.423.949-2.846,1.66-4.269,1.423-6.4-.949-1.186-1.423-1.9-3.321-3.558-4.269-.237.237-.712.474-.949.712a6.9,6.9,0,0,0-1.186,5.218c0,.949-.712,1.66-1.9.712-3.558,1.9-.712,5.218-1.66,7.827,0,1.186.237,2.372-.711,3.321-.237.237-.474-.712-.949-.949-1.423-2.135-1.186-4.744-.949-7.116a16.617,16.617,0,0,1,.712-3.321c0-.712-.474-.949-.949-1.423s-.949,0-1.423.237c-1.66.949-1.423,3.321-3.083,4.507-.949.949-2.609,0-3.321,1.186-.474,1.9-1.186,4.032,1.186,5.455a1.456,1.456,0,0,1,.237,1.423c-.237.712-.949.949-1.66,1.186-.949,0-1.9-.237-2.135-1.186a12.239,12.239,0,0,1-.474-2.609c0-.712-.237-1.423-1.186-1.423s-1.186.712-1.186,1.423a4.4,4.4,0,0,1-.474,1.66h0a1.943,1.943,0,0,0-.949,2.372h0a1.426,1.426,0,0,1-.237.949H267a1.077,1.077,0,0,1,0-1.186,1.152,1.152,0,0,0,.712-1.423h0v-.712l.712-1.423a1.057,1.057,0,0,0-.712-1.423c-.712-.237-.949.237-.949.949v1.66h0c-1.423,0-1.9-1.186-2.135-2.372a11.349,11.349,0,0,1,.949-7.827,3.264,3.264,0,0,0-.237-2.609,1.8,1.8,0,0,0-.949-.474c-.237,0-.712.474-.474.712L264.632,84c-.237,0-.474.237-.474,0-2.372-.237-3.321-2.846-5.692-3.083-.237,0-.474-.949-.474-1.423-.237-.712-.237-1.423-.474-2.135-.712-1.423-1.66-1.423-2.609-.474l-1.423,1.423a.445.445,0,0,1,0-.712h0a3.378,3.378,0,0,1-.474-.949c-2.135.237-4.269-.237-6.167,1.66-.474,1.186-.712,2.372-1.186,3.321-1.186,0-2.609.237-3.321-1.186h0c-.237-.712-.711-.949-1.186-.712a7.635,7.635,0,0,0-4.744,2.846c-.712,1.186-1.9,1.186-3.083,1.186h0c-.474-1.423.237-2.372,1.186-3.321.712,0,.949-.474,1.186-.949h0c.237,0,.474-.237.712-.237.711,0,1.186-.237.949-.949-.474-1.186-1.186-.949-2.135-.237h0c-.712.237-1.423.237-2.135.474h0c-.474,0-.712-.237-1.186-.237V76.883c-.237-2.135-1.186-4.506-3.083-4.981-2.609-.949-1.9-3.795-4.032-4.744a6.829,6.829,0,0,0-3.083-.237h0c.474-1.66-.949-2.609-1.186-4.032s-1.186-1.66-2.372-1.423h-.474a3.454,3.454,0,0,1-1.423-2.135,4.254,4.254,0,0,0-1.186-1.66h-6.641a1.426,1.426,0,0,1,.237-.949h0c.712,0,1.9-.474,1.66-.949-1.186-1.423-1.9-3.321-4.032-3.558a24.592,24.592,0,0,1-2.372.949h-1.186a4.768,4.768,0,0,1-1.9-.949,3.406,3.406,0,0,0-3.558-1.186c-.949-.237-1.9-1.186-3.083-.712a1.7,1.7,0,0,1-2.609-1.423c0-1.186.712-.949,1.423-.712.237,0,.237.237.474.237.712.237,1.66.474,1.9-.474a1.393,1.393,0,0,0-1.186-1.66c-2.372-.237-4.744-.237-6.167,2.372-2.135,3.795-3.795,0-5.692-.237a4.185,4.185,0,0,0-2.135-1.9v-.949c-.474-.474-.712-.474-1.186,0-.712,1.423-2.135,1.66-3.321,2.372-3.083,1.423-2.372,4.507-2.846,6.878a.629.629,0,0,1-.712.712c-.711-3.083,1.9-5.455,1.66-8.3,0-.237-.237-.474-.237-.712-.474-.237-.712-.712-1.186-.949,0-.474-.237-1.186,0-1.66,1.66-2.135,1.423-4.032-.474-5.93-.474-.474-.474-1.66-.712-2.609-3.795-.712-4.744,2.135-5.692,4.744-.474,1.423-.474,1.423-.949,1.423-3.321.949-3.321.949-3.083,4.744h0a.871.871,0,0,0-.237-.712,2.946,2.946,0,0,0-1.9-1.423.828.828,0,0,1-.474-.237c0-.237,0-.474.237-.474,3.795-1.9,5.455-4.744,4.032-9.013-.949-2.135-.949-2.135-2.609-1.423-1.423,0-1.66-.237-.949-2.135-.237-.949-.712-1.9-1.66-1.9a3.349,3.349,0,0,0-2.135.237c-.237,0-.237.949-.237,1.423s.237,1.186-.712,1.186c-.712,0-1.186-.712-2.135-.237-1.186.474-1.186-.474-.949-1.186.949-1.9.712-2.846-1.66-2.609-.237,0-.712-.712-.712-1.186a2.013,2.013,0,0,0-1.9-1.66c-.949,0-1.66.712-1.9,1.9s-.712,2.135-1.9,2.372a5.6,5.6,0,0,0-2.135,1.9c-.712.237-.474,2.135-1.9.712a9.423,9.423,0,0,0,3.795-4.269c.237-1.186.237-2.372-1.186-3.083-.949-.712-2.372-.237-3.321-1.186a.871.871,0,0,1-.237-.712c-.949-1.423-1.9-.949-2.372.237-1.186,2.372-2.609-2.135-3.795,0-.474-.949.712-1.66.237-2.372a2.035,2.035,0,0,0-1.66-1.423c-.712,0-1.423-.237-2.135-.237l-1.423-.712h-.712c-2.135,1.66-3.083-.712-4.744-1.423,0-.949.949-2.372-1.186-2.135-.949-.474-2.372.949-3.321-.237-.474-2.372-2.135-2.609-4.269-2.372-.237,1.186-.237,2.372-.474,3.795a1.576,1.576,0,0,1-1.186-.949c-.712-1.66.237-4.744-3.558-3.795-.237,0-.474-.474-.712-.712-.237-.949,0-1.9-.237-2.846,0-.474-.474-.949-.949-.474a1.8,1.8,0,0,0-.474.949c-3.795,5.455-3.321,7.116,2.372,9.013.474.237.712.712,1.186.949a.51.51,0,0,1-.474.474,6.016,6.016,0,0,0,.474,2.846c.474.712.949,1.186,1.186,1.66,1.66,3.083,1.423,8.064,7.353,6.4,5.218-5.455,4.269,2.609,6.641,3.795l2.135,2.135c.474.237.712.712,1.186.949s.712.474,1.186.712c.949.474,2.135.712,2.846,1.186.474.237.712.474.474,1.186a2.153,2.153,0,0,1-.712,1.66.232.232,0,0,0-.237.237H131.1a7.1,7.1,0,0,1-2.372.949c-1.66.474-3.795.474-2.609,3.083,2.372.712,4.032-.949,5.93-1.423.474-.237.712-.474,1.186-.712l1.423-.712a3.967,3.967,0,0,1,2.846.237c.474.237.949.237,1.186.474h.712c3.083-.949,3.083-4.032,4.269-6.4a2.368,2.368,0,0,1,1.186-.949c2.135-.474,4.032,0,4.981,1.66h0a1.5,1.5,0,0,1,.237,1.66c-.237,1.186-1.423,2.135-2.372,3.083a10.313,10.313,0,0,1-1.423,1.66,3.406,3.406,0,0,0-1.186,3.558c.712,1.423,2.135,1.423,3.321.949.237,0,.474,0,.474-.237a2.138,2.138,0,0,1,1.186-.237c.237.237.474.474.711.474h.237a.232.232,0,0,0,.237.237c.237.474.474.712.474,1.186v.712a10.833,10.833,0,0,0-1.66,6.4c0,.474.237,1.186,0,1.66a22.915,22.915,0,0,1-.237,5.692,2.429,2.429,0,0,0,1.186,1.423c2.846,0,5.692.949,8.539.237.474,0,.949-.237,1.423-.237.237,0,.237.237.474.237a1.232,1.232,0,0,1,.949.474h0c4.981,2.135,10.673.712,13.282,10.436a4.165,4.165,0,0,1,.949,1.186v.474a4.63,4.63,0,0,1-.237,1.66c.237,3.558,5.218,4.032,5.692,9.487l.712,1.423c1.66,3.795,1.423,8.064,3.795,11.622a33.956,33.956,0,0,0,4.981,2.846,4.165,4.165,0,0,1,1.186.949,4.008,4.008,0,0,1,.474,1.186c.474.712,0,1.186-.474,1.423-.237.474-.712.949-.949,1.423a1.791,1.791,0,0,0,.237,1.9c.237.237.712.474.949.949,1.186.949,2.609.474,4.032.949.237,0,.237,0,.474.237h.237a.232.232,0,0,1,.237.237v.237c.474.474.474,1.186.712,1.9.237.474.237.949.712,1.423h.474a1.812,1.812,0,0,0,1.186-.474c3.32-.949,10.91-3.083,6.167,3.558-1.66,2.135,2.609,2.846,4.269,3.795.237,0,.237.237.474.237s.237.237.474.237l1.423,1.423c.237.474.712.712.949,1.186a9.286,9.286,0,0,1,1.9,2.372c0,.237,0,.474.237.474,0,.237.237.474.237.712,1.423,2.135,5.455-.237,9.25,0-4.744,8.064.237,4.981,1.9,7.115.474.949.237,4.032.712,4.981a5.184,5.184,0,0,0,.712,1.186,9.038,9.038,0,0,1,.712,2.372c-.237,1.9-3.558,2.609-1.423,4.981.474,2.372,2.372,3.083,4.269,3.795a2.368,2.368,0,0,1,.949,1.186c-.949,3.558-3.321,4.981-6.878,4.269-3.083-.712-5.93-.237-8.064,2.609a6.415,6.415,0,0,1-4.506,1.423c-2.609-.237-5.218-1.9-8.064-.474-1.186.712-1.186,2.135-1.423,3.321a3.372,3.372,0,0,1-.474,1.423,4.166,4.166,0,0,1-.949,1.186c-.237.474-.712.712-.949,1.186-.711,1.9-1.186,3.321-2.135,4.269-.712,1.186-1.9,1.423-3.795.712-.712-.237-1.66-.712-2.846-1.186-3.321-1.66-5.93.237-8.776.474-3.558.474-6.641-1.9-9.962-2.609-1.9.474-4.032-1.9-5.455.949.237.237.474.712.949.949.949,1.423,1.186,3.083,1.9,4.507.474.474.712,1.186,1.423,1.66a30.592,30.592,0,0,0,3.8,2.135,2.368,2.368,0,0,1,1.186.949,13.165,13.165,0,0,0,1.423,1.9q.712.712,0,2.135c-.474.949-.949.949-1.66.712h-.237c-3.795,0-3.083.949-6.878,0-.949,0-1.9-1.186-2.846-.237-.474.474-.474.949,0,1.186a10.592,10.592,0,0,0,4.032,2.135l1.423.712c2.135,1.186,3.558,2.846,3.321,5.218-.474,6.167,2.372,3.321,4.744,1.66l1.423-.712c3.321-.237,4.269,2.609,6.167,4.269,1.423,1.186,3.083,1.9,4.507,3.083a2.677,2.677,0,0,0,1.9.237,1.852,1.852,0,0,0,.949-.949c1.186-.949,2.609-1.66,3.795-.712h.474a.232.232,0,0,0,.237.237l.237.237v.237a3.349,3.349,0,0,1-.237,2.135c-.949,4.269-3.558,8.3-1.9,12.808.237.474.237.949.474,1.423a31.854,31.854,0,0,1,1.66,6.4c.237.474.237.949.474,1.186a6.394,6.394,0,0,0,1.66,1.9c.949.474,1.9.712,2.846,1.186a1.852,1.852,0,0,1,.949.949c.712.949,1.186,1.9,1.9,2.846a10.53,10.53,0,0,0,1.9,2.609c.237.237.712.474.949.712a2.083,2.083,0,0,0,1.66-.237,6.286,6.286,0,0,0,1.186-1.423c.237-.474.712-.712.949-.949.474-.237.712-.474,1.186-.474a2.136,2.136,0,0,1,2.372.237,6.289,6.289,0,0,1,1.423,1.186c1.423,2.135,1.66,5.218,4.507,6.4,1.423,1.186,2.846,2.609,4.981,2.609a21.237,21.237,0,0,1,5.455.474c4.507,1.186,8.776-2.135,13.282-.949a9.517,9.517,0,0,1,3.558.712,3.371,3.371,0,0,0,1.423.474c1.186.474,2.372.474,3.558.949a4.166,4.166,0,0,1,1.186.949c1.186,2.609,3.083,4.506,6.167,4.269.712,0,1.66.474,2.135-.237V254.3a.232.232,0,0,1,.237-.237c.237-.949-.712-1.66-1.186-2.372-2.135-2.372-4.507-4.981-5.692-8.064a23.1,23.1,0,0,1-.474-5.692,5.888,5.888,0,0,1,.237-2.135V234.61a2.512,2.512,0,0,1,2.609-1.423,3.137,3.137,0,0,1,2.846.474h.237v.237H267a1.117,1.117,0,0,1,.237,1.423,15.933,15.933,0,0,1-1.423,2.846c-.237.712-.712,1.66-.474,2.372.237.237.474.712.711.949.949.474,2.135.474,3.083.949.474.237.712.712.949.949.474.949.712,2.135,1.9,2.372.474,0,.712-.237,1.186-.474l2.135-1.423c.474-.237.712-.474,1.186-.712.237,0,.237-.237.474-.237l88.707-68.783.711-.712c.474-.237.712-.712,1.186-.949a.51.51,0,0,0,.474-.474l2.135-1.66a36.479,36.479,0,0,1,3.083-2.846,2.368,2.368,0,0,1,1.186-.949c.474-.237.712-.712,1.186-.949,2.609-1.66,4.506-4.032,6.641-5.93a2.368,2.368,0,0,1,1.186-.949c.474-.237.712-.712,1.186-.949,1.9-.712,3.083-2.846,4.981-3.558a37.375,37.375,0,0,1,3.558-2.846,4.164,4.164,0,0,0,1.186-.949c.237-.237.474-.237.474-.474a4.165,4.165,0,0,0,1.186-.949l.474-.474.949-.949c2.372-1.423,3.558,2.372,5.93,1.186.474-1.186.237-2.846,1.66-3.558,1.9-.949,1.9-2.135.949-3.558-.474-.712-.949-1.66-1.423-2.372a1.888,1.888,0,0,1,.474-2.135c.712-.474,1.66-.949,2.372-1.423.474-.237.949-1.186.712-1.423-1.9-2.372-.237-4.032.949-5.93a1.778,1.778,0,0,0,.237-1.186c-1.186-2.609,1.66-5.692-.712-8.539-.474-.474.237-.949.712-1.186,1.66-1.186,1.186-3.083,1.423-4.507C410.737,111.749,408.6,112.461,407.891,111.512ZM160.271,47.235c-.474.237-.474,0,0,0-.237-.237-.237-.237-.237-.474C160.271,46.761,160.508,47,160.271,47.235Z" transform="translate(-93.511 0.567)"/></g><g transform="translate(409.481 346.444)"><path class="c" d="M296.739,187.4a20.478,20.478,0,0,0,3.795-2.372,1.545,1.545,0,0,0,.474-2.135c-.237-.237-.949-.712-1.423-.474a36.819,36.819,0,0,0-4.981.949c-.949.237-.949.949-1.186,1.66a6.034,6.034,0,0,1-.474,1.66c-1.423-.474-2.609-.949-3.795-1.423-1.9-.474-2.135-.474-2.609,2.135-.237.949-.474,1.423-1.423,1.186a3.321,3.321,0,0,0-2.609,0c-1.9.711-.949-.712-.949-1.423-.474-1.66-1.186-.711-1.9-.237-1.66.949-1.66-.712-2.372-1.423-1.66-1.66-2.609,1.9-4.269.712-.712-1.9-1.186-3.8-1.9-5.693a2.722,2.722,0,0,0-3.083-1.9c-.237.474-.712.712-.949,1.186v.949a7.058,7.058,0,0,1-1.186,3.558c.712-1.423.949-2.609,0-3.8-.474-.237-.712-.949-1.186-.949-.949-.237-2.609-.237-3.083-1.186a5.212,5.212,0,0,1-.237-3.321,7.54,7.54,0,0,1,.712-2.135c0-.474,0-1.186-.474-1.423-1.9-2.135-5.692-1.9-6.4.712-.711,2.372-2.135,2.372-3.795,2.135-1.186,1.66-3.083,2.135-3.795,3.558a16.812,16.812,0,0,0,.949-4.032c.712-1.423,1.423-2.609,2.135-4.032,1.9-3.795,1.66-7.59,1.186-11.622-.237-1.9-1.186-2.372-3.558-2.609-.474,0-1.186,0-1.423-.712s.474-.949.949-1.186c1.66-1.186,1.66-1.186,0-2.135-.237-.237-.711-.237-.949-.474-2.609-1.9-2.609-1.9-4.744.237-.474.474-.949.949-1.186.237a2.6,2.6,0,0,0-3.795-.949c-1.423.712-1.66,2.372-1.66,4.032v5.218c0,1.66-.237,3.558-2.372,4.032-1.9.474-2.609-1.186-3.321-2.372-2.609-3.321-4.507-3.558-8.3-2.372-3.558,1.186-6.878,3.321-10.91,1.9-.949-.474-1.9.474-2.135,1.423a8.519,8.519,0,0,1-3.558,4.981c-.711,2.846-1.423,5.692-4.744,6.878h0a2.858,2.858,0,0,0-1.186,1.186h0c-.712.712-.949,1.66-1.9,2.372a18.306,18.306,0,0,1-10.673.712c-.474-.237-.949,0-1.423.474a2.369,2.369,0,0,1-2.609.949c-2.372,1.186-4.744,1.9-3.795,5.455.712,2.609-1.9,1.423-2.846,2.372-2.609,4.269,1.66,5.929,3.558,8.3,2.846,3.558,1.9,7.353.237,11.148h0a2.858,2.858,0,0,0-1.186,1.186h0a2.857,2.857,0,0,0-1.186,1.186h0a5.044,5.044,0,0,0-1.66,3.558c.237.949.474,1.423,1.66.949,1.66-1.186,2.609-3.321,4.744-4.032a2.984,2.984,0,0,0,2.135-3.558c-.237-1.9.712-2.846,2.135-3.558a6.917,6.917,0,0,1,6.4-.712c.949.474,2.135.949,3.083,1.423a5.393,5.393,0,0,0,4.269.712c.949-.474,1.66.474,2.135,1.186s.711,2.135,1.423,2.372c2.135.949,3.083,2.609,4.032,4.506a2.858,2.858,0,0,0,1.186,1.186c2.372.949,3.083,3.32,4.032,5.218,1.423,3.083,2.372,6.4,5.218,8.539a1.8,1.8,0,0,1,.474.949c-.237,3.558,2.135,5.455,4.507,7.353a13.233,13.233,0,0,1,1.186,1.9c.712,1.423,1.423,3.083,2.135,4.506,1.186,2.372,2.372,2.846,4.981,1.9,1.9-.711,3.558-1.186,5.455-.474.712.237,1.423.949.949,1.66-1.186,2.135,0,3.083,1.66,3.795,1.186.474,2.372.949,2.372,2.135,0,2.372,1.423,2.846,3.321,2.609h9.013a5.2,5.2,0,0,0,4.032-1.66c.949-1.186,1.9-2.846,4.032-2.609a2.035,2.035,0,0,0,1.66-1.423c.949-1.9,4.032-2.135,4.507-4.269.237-1.66-1.66-2.609-2.609-4.032h0c.237-.237.237-.712.474-.712,2.372-.237,5.218.474,7.116-.712,1.9-.949,2.609-4.032,4.507-5.692A7.569,7.569,0,0,0,279.9,228.9c.711-2.372,1.66-4.507,2.372-6.878a17.078,17.078,0,0,1,3.558-6.4c-1.186-3.083,2.135-4.032,3.083-5.93.474-1.186,1.186-2.372,1.66-3.558-.712-1.423.237-3.083-.712-4.506a.232.232,0,0,0-.237-.237c.474.711.949,1.66,2.135,1.423,1.186-.712,1.186-1.9,1.66-3.083a3.372,3.372,0,0,0,.474-1.423,5.181,5.181,0,0,1,.711-1.186,25,25,0,0,0,1.66-2.609,5.587,5.587,0,0,0-.712-4.744C295.79,189.056,295.553,188.107,296.739,187.4Zm-32.731,44.59c1.9,2.372.949,5.455,1.9,8.064C263.771,237.679,264.482,234.6,264.008,231.986Zm23.718-32.969c.474.474,1.423.949,1.9,1.9C289.149,200.2,288.2,199.73,287.726,199.018Z" transform="translate(-174.953 -149.712)"/></g><path d="M214.912,194.139c-.7.7-1.4,2.79-1.046,3.488a7.1,7.1,0,0,0,2.441,2.093c.7,0,1.395-.7,2.093-1.046l1.046-1.046c.7-.7,3.139-1.744,3.488-2.79a3.978,3.978,0,0,0-1.046-2.093c-.7-.7-1.4-1.744-2.093-1.744C218.749,191,215.61,193.092,214.912,194.139Z" transform="translate(287.783 253.373)"/><circle class="d" cx="4.359" cy="4.359" r="4.359" transform="translate(557.832 195.33)"/><circle class="d" cx="4.359" cy="4.359" r="4.359" transform="translate(693.027 185.843)"/><circle class="d" cx="4.359" cy="4.359" r="4.359" transform="translate(702.514 188.215)"/><circle class="d" cx="4.359" cy="4.359" r="4.359" transform="translate(557.832 425.398)"/><circle class="d" cx="4.359" cy="4.359" r="4.359" transform="translate(512.767 444.373)"/><circle class="d" cx="4.359" cy="4.359" r="4.359" transform="translate(503.279 442.001)"/><circle class="d" cx="4.359" cy="4.359" r="4.359" transform="translate(500.908 446.745)"/><circle class="d" cx="4.359" cy="4.359" r="4.359" transform="translate(517.51 406.424)"/><circle class="d" cx="4.359" cy="4.359" r="4.359" transform="translate(505.651 427.77)"/><circle class="d" cx="4.359" cy="4.359" r="4.359" transform="translate(492.606 428.956)"/><circle class="d" cx="4.359" cy="4.359" r="4.359" transform="translate(524.626 479.951)"/><circle class="d" cx="4.359" cy="4.359" r="4.359" transform="translate(586.294 313.922)"/><circle class="d" cx="4.359" cy="4.359" r="4.359" transform="translate(555.46 375.59)"/><circle class="d" cx="4.359" cy="4.359" r="4.359" transform="translate(510.395 354.243)"/><circle class="d" cx="4.359" cy="4.359" r="4.359" transform="translate(515.138 361.359)"/><circle class="d" cx="4.359" cy="4.359" r="4.359" transform="translate(593.409 328.153)"/><circle class="d" cx="4.359" cy="4.359" r="4.359" transform="translate(607.641 337.64)"/><circle class="d" cx="4.359" cy="4.359" r="4.359" transform="translate(593.409 358.987)"/><circle class="d" cx="4.359" cy="4.359" r="4.359" transform="translate(600.525 354.243)"/><g transform="translate(241.903 16.493)"><path class="c" d="M200.337,154l12.571,13.282s4.507,10.91,4.032,11.385-26.8,7.116-27.513,7.353-16.128,8.539-16.128,8.3-1.9-18.263-1.9-18.263l17.077-15.891Z" transform="translate(-12.25 186.122)"/><path class="c" d="M346.862,116.712l9.013,1.423-7.353,37.949S246.77,229.849,246.3,229.849s-35.34,2.846-35.34,2.846l-34.629-12.1-35.1-33.917-13.994-20.4L121.3,146.6l8.539-19.212,25.379-10.91,2.135-24.667L135.294,65.955l-6.167-18.5L140.275,31.8h23.244L188.9,60.262l17.789,41.27L224,133.552l35.34,10.673,35.815-.474,23.956-14.231,10.436-18.5Z" transform="translate(-80.979 18.483)"/><path class="c" d="M107.146,10.6,104.3,13.209l3.558,5.218,12.571,9.725-.474,10.436,16.6,18.026L159.09,68l2.609-9.962L154.346,44.28l5.93-.712s.474-1.423.237-1.423c-.237-.237-2.846-1.66-2.846-1.66l-4.507-2.372L151.025,32.9l-3.083-2.609-8.064,3.321s-5.455-1.423-5.692-1.9-6.641-7.353-6.641-7.353L112.839,16.53Z" transform="translate(-104.3 -10.6)"/></g></g></g></g></svg>