<svg xmlns="http://www.w3.org/2000/svg" width="1920" height="400" viewBox="0 0 1920 400"><defs><style>.a{fill:#ccc;}.b,.d{fill:#fff;}.c{fill:red;}.d{font-size:72px;font-family:Lato-Bold, Lato;font-weight:700;}.e{fill:#333;font-size:16px;font-family:Lato-Regular, Lato;}</style></defs><g transform="translate(0 -7249)"><rect class="a" width="1920" height="400" transform="translate(0 7249)"/><g transform="translate(1085.038 7287.24)"><g transform="translate(0 8.707)"><path class="b" d="M227.693,122.052c-1.864-1.065-3.727-2.13-5.991-1.731a45.175,45.175,0,0,1-7.322.532,10.133,10.133,0,0,0-2.8.4c-2.8.532-5.591,1.065-8.387,1.731a22.661,22.661,0,0,0-5.99,2,8.9,8.9,0,0,0-2.529,1.864c-.533.666-1.331,1.331-1.065,2.13.4.932,1.464.666,2.263.666a8.988,8.988,0,0,0,1.864-.266,17.36,17.36,0,0,1,7.854.133c1.331.4,2.662.533,3.861.8a16.38,16.38,0,0,0,1.731-.266,47.261,47.261,0,0,1,6.257-1.2,25.485,25.485,0,0,0,7.588-2.529,8.816,8.816,0,0,0,2.929-2A1.389,1.389,0,0,0,227.693,122.052Z" transform="translate(61.036 26.265)"/><path class="b" d="M232.079,143.952l-.4-.8c-1.065-2.263-1.6-4.659,0-6.922.133-.133.133-.4.266-.532.133-.266.133-.666-.133-.8a.949.949,0,0,0-.8.4,8.277,8.277,0,0,0-1.6,6.257v2.263a1.557,1.557,0,0,0,1.065,1.464c.533.266,1.065.8,1.731.4C232.745,145.15,232.345,144.485,232.079,143.952Z" transform="translate(72.891 31.122)"/><path class="b" d="M46.754,170.922c-.4-.266-.8.133-1.065.4a15.07,15.07,0,0,0-1.331,1.731c-.266.532-.4.932.133,1.331a1,1,0,0,0,1.2,0c.932-.533,1.864-1.065,1.6-2.263C47.154,171.587,47.154,171.188,46.754,170.922Z" transform="translate(11.54 43.024)"/><path class="b" d="M135.672,239.2c2.263-1.864,2.263-2,1.464-4.659-.133-.266-.133-.666-.266-.932a2.244,2.244,0,0,0-2.529,1.331,5.029,5.029,0,0,0-.532,2.8C133.809,238.931,133.942,239.064,135.672,239.2Z" transform="translate(41.234 63.808)"/><g transform="translate(55.665 146.5)"><path class="b" d="M227.693,122.052c-1.864-1.065-3.727-2.13-5.991-1.731a45.175,45.175,0,0,1-7.322.532,10.133,10.133,0,0,0-2.8.4c-2.8.532-5.591,1.065-8.387,1.731a22.661,22.661,0,0,0-5.99,2,8.9,8.9,0,0,0-2.529,1.864c-.533.666-1.331,1.331-1.065,2.13.4.932,1.464.666,2.263.666a8.988,8.988,0,0,0,1.864-.266,17.36,17.36,0,0,1,7.854.133c1.331.4,2.662.533,3.861.8a16.38,16.38,0,0,0,1.731-.266,47.261,47.261,0,0,1,6.257-1.2,25.485,25.485,0,0,0,7.588-2.529,8.816,8.816,0,0,0,2.929-2A1.389,1.389,0,0,0,227.693,122.052Z" transform="translate(5.372 -120.236)"/><path class="b" d="M232.079,143.952l-.4-.8c-1.065-2.263-1.6-4.659,0-6.922.133-.133.133-.4.266-.532.133-.266.133-.666-.133-.8a.949.949,0,0,0-.8.4,8.277,8.277,0,0,0-1.6,6.257v2.263a1.557,1.557,0,0,0,1.065,1.464c.533.266,1.065.8,1.731.4C232.745,145.15,232.345,144.485,232.079,143.952Z" transform="translate(17.227 -115.378)"/><path class="b" d="M46.754,170.922c-.4-.266-.8.133-1.065.4a15.07,15.07,0,0,0-1.331,1.731c-.266.532-.4.932.133,1.331a1,1,0,0,0,1.2,0c.932-.533,1.864-1.065,1.6-2.263C47.154,171.587,47.154,171.188,46.754,170.922Z" transform="translate(-44.125 -103.476)"/><path class="b" d="M135.672,239.2c2.263-1.864,2.263-2,1.464-4.659-.133-.266-.133-.666-.266-.932a2.244,2.244,0,0,0-2.529,1.331,5.029,5.029,0,0,0-.532,2.8C133.809,238.931,133.942,239.064,135.672,239.2Z" transform="translate(-14.431 -82.692)"/></g><path class="b" d="M298.1,89.013a.5.5,0,0,0,0-.8c-1.731-.266-2.4,1.464-3.727,2a1.329,1.329,0,0,0-.666.532c-.266.133-.4.4-.666.532a17.6,17.6,0,0,1-3.727,3.328,1.329,1.329,0,0,0-.666.532c-.266.133-.4.4-.666.532a20.469,20.469,0,0,1-1.731,1.6l-1.2.932-.266.266a1.329,1.329,0,0,0-.666.532l-.4.4L233.93,138c-.133,0-.133.133-.266.133-.266.133-.4.266-.666.4l-1.2.8c-.266.133-.4.133-.666.266-.666-.133-.8-.8-1.065-1.331a1.039,1.039,0,0,0-.533-.532c-.532-.266-1.2-.266-1.731-.532a1.839,1.839,0,0,1-.4-.533,2.189,2.189,0,0,1,.266-1.331c.266-.8,1.2-1.464.532-2.4-2.8-.532-3.328-.266-3.328,2.263a12.964,12.964,0,0,0,.266,3.195,18.484,18.484,0,0,0,3.195,4.526c.266.4.932.8.666,1.331-.266.666-.932.266-1.331.266a3.791,3.791,0,0,1-3.461-2.4,1.329,1.329,0,0,0-.666-.532c-.666-.266-1.331-.266-2-.533a1.892,1.892,0,0,0-.8-.266,3.6,3.6,0,0,0-2-.4c-2.529-.666-4.926,1.2-7.455.532a23.768,23.768,0,0,0-3.062-.266,4.429,4.429,0,0,1-2.8-1.464c-1.464-.8-1.6-2.4-2.529-3.594-.8-.8-1.6-1.2-2.662-.532-.266.133-.4.4-.532.532-.266.266-.4.533-.666.8a1.094,1.094,0,0,1-.932.133c-.133-.133-.4-.266-.532-.4a13.936,13.936,0,0,1-1.065-1.464c-.4-.532-.666-1.065-1.065-1.6l-.532-.532c-.532-.266-1.2-.4-1.6-.666a3.589,3.589,0,0,1-.932-1.065c-.133-.266-.133-.4-.266-.666a15.838,15.838,0,0,0-.932-3.594c-.133-.266-.133-.533-.266-.8-1.065-3.062,1.2-5.724,1.2-8.653a1.633,1.633,0,0,0-2.529,0l-.532.533A1.414,1.414,0,0,1,188,117.5a10.67,10.67,0,0,1-2.529-1.731c-.932-1.065-1.6-2.529-3.461-2.4-.266.133-.533.133-.8.4-1.331.8-2.929,2.4-2.662-.932.133-1.464-.666-2.263-1.864-2.929l-.8-.4a8.655,8.655,0,0,1-2.263-1.2.377.377,0,0,1,0-.666c.532-.4,1.065.133,1.6.133,2.13.666,1.731,0,3.861,0,2.13-.666.932-1.731.266-2.8a2.337,2.337,0,0,0-.666-.532,17.174,17.174,0,0,1-2.13-1.2,5.789,5.789,0,0,1-.8-.932c-.4-.8-.4-1.731-1.065-2.529-.133-.133-.266-.4-.533-.533.8-1.6,2-.266,3.062-.533,1.864.4,3.461,1.731,5.591,1.464,1.6-.133,3.062-1.2,4.926-.266,2.929,1.6,3.727,1.065,4.792-2,.133-.266.4-.4.532-.666s.4-.4.533-.666a1.892,1.892,0,0,0,.266-.8c.133-.666.133-1.464.8-1.864,1.6-.666,3.062.133,4.526.266a3.6,3.6,0,0,0,2.529-.8,4.041,4.041,0,0,1,4.526-1.464,2.977,2.977,0,0,0,3.861-2.4,1.329,1.329,0,0,0-.532-.666c-1.2-.266-2.263-.666-2.4-2.13-1.2-1.331.666-1.731.8-2.8a5.071,5.071,0,0,0-.4-1.331,2.909,2.909,0,0,0-.4-.666c-.266-.532-.133-2.263-.4-2.8-1.065-1.2-3.861.533-1.065-3.994-2.4-.133-5.059,1.6-5.325-.666-.266-.4-.666-.8-1.065-1.331-.133-.266-.4-.4-.533-.666-.4-.4-.666-.932-1.2-1.2-.932-.532-3.328-.932-2.4-2.13,2.662-3.727-1.6-2.662-3.461-2a1.988,1.988,0,0,1-.932.4,1.223,1.223,0,0,1-.532-.8,3.986,3.986,0,0,0-.533-1.331c-.8-.4-1.864.133-2.529-.532a1.039,1.039,0,0,1-.533-.532,1,1,0,0,1-.133-1.065c.533-.666,1.2-1.331.4-2.263a1.329,1.329,0,0,0-.666-.532,19.054,19.054,0,0,1-2.8-1.6c-1.331-2-1.065-4.393-2.13-6.523l-.4-.8c-.133-3.594-3.994-3.328-2.929-6.523a1.329,1.329,0,0,0-.532-.666c-1.6-6.124-5.325-4.393-8.254-6.257a1.689,1.689,0,0,0-.8.133c-1.6.4-3.195-.133-4.792-.133-.4-.133-.532-.4-.666-.8.666-2.529-.666-5.325,1.065-7.721a1.64,1.64,0,0,0-.266-1.331,1.928,1.928,0,0,0-1.464-.133c-.8.266-1.464.266-1.864-.532s.133-1.464.666-2c.266-.266.533-.666.8-.932.666-.8,1.864-1.464,1.065-2.662a2.394,2.394,0,0,0-2.8-.932,1.329,1.329,0,0,0-.666.532c-.666,1.331-.666,3.062-2.4,3.594h-.4c-.266-.133-.532-.133-.666-.266a3.278,3.278,0,0,0-1.6-.133c-.266.133-.532.133-.8.4a2.911,2.911,0,0,0-.666.4c-1.065.266-2,1.2-3.328.8-.666-1.464.532-1.464,1.464-1.731.8-.266,1.731-.532,1.864-1.464.133-1.065-1.065-1.065-1.731-1.464a2.91,2.91,0,0,1-.666-.4c-.266-.133-.4-.4-.666-.532l-1.2-1.2c-1.331-.666-.932-5.192-3.727-2.13-3.328.932-3.195-1.864-4.127-3.594-.266-.4-.532-.666-.666-.932-.533-.666-.133-1.6-.533-2.263a4.938,4.938,0,0,0-4.526,0h0a.6.6,0,0,0,0,.666c.532.266,1.331.666,1.2,1.331-.133,1.6.266,2.4,2,2l.266.133c0,.133.133.532,0,.532a2.119,2.119,0,0,1-1.731.4c-1.065,0-1.331.932-1.6,1.731-.266.666.133,1.2.932,1.464a39.837,39.837,0,0,0,4.26,1.331c.932,0,1.731.932,2.8.4a.449.449,0,0,1,.666.4c0,.4-.266.532-.533.666-.932.4-1.731.666-2.662,1.065-.266.133-.666.266-.532.666a1.6,1.6,0,0,0,.666.666,15.62,15.62,0,0,0,1.464.666c.133,0,.133.4.133.532a.465.465,0,0,1-.266.133c-.266,0-.666.133-.932.133s-.666.133-.666.532c0,.532.4.666.932.8.666.4.532,1.6,1.6,1.731.8.532.4,2,1.6,2.13-.266.266-.532,0-.8,0a1.512,1.512,0,0,0-1.065.4.412.412,0,0,1-.133.266c0,.133,0,.266.266.532h0a.465.465,0,0,1,.133.266.489.489,0,0,1-.133.4h0c-.4.666.266.932.666,1.331.133,0,.266,0,.266.133.266.133.666.266.666.532.133.266-.133.532-.532.666-.666.266-1.464.4-2.13.666a1.029,1.029,0,0,0-.932,1.065,1.279,1.279,0,0,0,.932,1.2c.533.133,1.065.133,1.6.266.4.532,1.331.8,1.331,2-.932-1.731-2.4-.666-3.461-1.331-3.062-.266-3.594.266-3.062,3.328a2.468,2.468,0,0,0,.266.932c.266.666.4,1.464,1.2,1.731.266.133.932,0,.8.666,0,.133-.532.4-.8.4a1.359,1.359,0,0,0-1.464,1.331c0,.266-.4.532-.666.532-.932-.133-1.2.266-.932.932a2.214,2.214,0,0,1-.266,2c-1.331,1.864-2.929,3.861-1.864,6.523,0,.133-.133.4-.266.4s-.4-.133-.532-.133A2.325,2.325,0,0,1,132.89,56a2.338,2.338,0,0,0-.666-.532h-.532c-.932,1.2-.532,2.529-.666,3.861-.133-1.065.4-2.263-.533-3.195h0c-.266-.133-.4-.4-.666-.666h0a2.338,2.338,0,0,1-.533-.666c-.266-.266-.532-.666-.8-.932-.8-.8-1.065-.8-1.731-.133A7.431,7.431,0,0,0,126.1,54.8a23.688,23.688,0,0,1,1.6,3.861,9.307,9.307,0,0,0-2.4-3.861c-1.6-.133-2.529-1.2-3.461-2.4-1.331-1.864-2-1.864-3.994-.8-1.6.932-3.062,1.864-4.659,2.8a5.247,5.247,0,0,0-2.263,2.529c-.932,1.331-.666,2.8-.8,4.26-1.2.666-2.13-.266-3.062-.666a.626.626,0,0,0-1.065.133,3.092,3.092,0,0,1-2.529,1.2c-.4,0-.932.133-1.2-.266s.133-.666.532-.932c.8-.532,1.464-1.2,2.263-1.731.666-.532.532-1.331.8-2,.266-.8-.533-.8-.8-1.2-.4-.533-1.065-1.065-.666-2,.8.266,1.6.4,2.4.666.666.266.932,1.2,1.864,1.2.666-1.464-.266-2.8-.666-4.127,0-.133-.4-.266-.532-.4-1.464-1.2-1.6-1.464-.4-2.929.266-.266.8-.266.532-.932a2.485,2.485,0,0,0-3.195,1.2c-.666.932-1.331.666-1.731-.532a1.851,1.851,0,0,0-1.331-1.6c-.8-.266-.8-.932-.666-1.6l.4-1.2c.266-.932.133-1.464-1.065-1.331-.666.133-.532-.4-.666-.8-.266-1.2-.4-2.263-1.864-2.529-.666.4-.932-.266-1.331-.533h-.532c-.932.4-2,.8-3.062,1.2A8.17,8.17,0,0,0,94.817,36.3c.8-1.464-.133-2.4-1.2-3.195-.666-.4-1.2-.4-1.464.4a.465.465,0,0,1-.133.266,1.009,1.009,0,0,1-.532.266c-.133,0-.266-.4-.266-.532.932-1.864.133-2.929-1.331-3.861-.133,0-.133-.133-.266-.266-.266-.4-.532-.8-.266-1.2.666-.932,0-1.6-.666-2.13a1.414,1.414,0,0,1-.266-1.731c.133-.4.4-.666.266-1.2a.465.465,0,0,1-.266-.133c-.532.266-1.2.532-1.731.8A2.219,2.219,0,0,1,83.5,22.718a4.162,4.162,0,0,0-1.2-1.464c-.666-.532-1.6-.666-1.864,0-.8,1.731-2,2-3.727,2.13-1.6.133-3.195-.133-4.659.666-1.065.532-1.065.532-2.929.133-1.065.8-1.864-.666-2.929-.133-.266.133-.8.133-.8-.133-.266-1.331-1.464-1.065-2.13-1.464-.266-.133-1.065,0-1.2-.133-.266-.666.532-.666.8-1.065.133-.133.4-.4.266-.532-.532-1.065.266-1.731.8-2.529.133-.266.133-.666-.133-.8a1.708,1.708,0,0,0-2.662,1.065c-.133.932-.266,1.731-1.2,2-.532.266-1.065,1.2-1.6.532-.8-.932.4-1.2.8-1.6.133-.133.4-.266.533-.4.4-.4.133-.8-.133-1.065-.4-.4-.8-.8-1.331-.666s-1.065.133-1.331-.532a1.542,1.542,0,0,0-1.864-.8h-1.6c-.8-.4-.133,2.529-1.464.532a4.888,4.888,0,0,0-1.2-2.662c-.532-.4-.932-.532-1.331-.133a1.414,1.414,0,0,1-1.731.266,27.107,27.107,0,0,1-2.929-1.2,4.8,4.8,0,0,0-2.662-.8,8.789,8.789,0,0,1-1.864-.133c-2.263-.4-2.263-.532-2.929,1.864a3.2,3.2,0,0,1-.932,1.6,3.2,3.2,0,0,0-.932,1.6,3.419,3.419,0,0,1-2.4,2.263c-.8.133-.4.8-.133,1.2a1.409,1.409,0,0,0,1.2.666,4.1,4.1,0,0,1-2.529,0c-.666-.133-1.331-.8-2.13-.133a1.421,1.421,0,0,1-1.464.4c-1.2-.532-2,0-2.662,1.065-.4.666-.8,1.331-1.2,1.864-.532.532-.8.4-.932-.4-.133-.932-.8-.8-1.464-.8-.8-.133-1.065,1.065-1.864.932-.666-.133-1.331-.666-2-.8a8.092,8.092,0,0,0-2.529.133,3.324,3.324,0,0,1-2.529,0,1.832,1.832,0,0,0-1.464.133,13.085,13.085,0,0,1-2.13.666c-1.2.133-2.8,0-3.594.8a8.442,8.442,0,0,0-1.864,3.594A4.057,4.057,0,0,1,2.7,30.572c-.532.4-.4,1.065-.266,1.731A20.357,20.357,0,0,0,6.823,40.69c.666.8,1.2,1.864,2.529,1.065.4-.266.666.266.932.532.8.666.932.666,1.331-.266.266-.8.532-1.731,1.464-1.864a21.277,21.277,0,0,1,2.8-.666,1.037,1.037,0,0,1,1.2.8c-1.2,1.065-3.195,1.2-3.994,2.929.4.666-.532,1.331-.133,2,.133.4,0,.932.532,1.065.133.133.4.133.532.266.266.133.532.266.532.666s-.266.4-.666.532c-1.731.532-1.731.532-.8,2,.4.532,1.065,1.065.8,1.6-.666,1.464.266,3.195-.666,4.659a15.661,15.661,0,0,0-.932,2.662c-.266.8.266,1.331.932,1.2a21.282,21.282,0,0,0,2.8-.666,1.333,1.333,0,0,1,1.6,1.331c0,.266-.266.532-.266.932-.133,1.2.532,1.731,1.6,1.464.532-.133,1.065-.8,1.731-.266,0,.8-.666,1.331-.8,2-.4,1.065-.4,1.6.666,2.13,1.464.8,2.13,2.263,2.929,3.594a.991.991,0,0,1-.133,1.2c-.133.266,0,.666.266.532.932-.4,2.529-.266,2.13-2.13,0-.133,0-.266.133-.266.266-.133.532-.4.8-.4a1.009,1.009,0,0,1,.532.266,1.45,1.45,0,0,1,.266,1.464c-.4.932-.666,1.864-.932,2.662s0,1.065.666,1.6c.932.666.8.666.266,1.731,0,.133-.133.133-.266.266-.532.666-.266,1.065.133,1.731a4.891,4.891,0,0,0,2.13,1.2c.133,0,.266.4.133.533,0,.133-.266.266-.4.4s-.4,0-.666.133c-.932.4-1.864-.932-2.662,0-.666.8.4,1.864-.266,2.8-.4.532.266.932.8,1.065s1.065,0,1.331.666c-.266.532-.4,1.2-.666,1.731-.532,1.2-1.6,2.529-1.6,3.727,0,1.464-.666,2.8-.532,4.393A3.644,3.644,0,0,1,24,98.332c-.532.533-.133.932.266,1.331.4.266.932.533,1.331.8,1.2.8,1.2.8.133,2.263.4.133.666.4,1.065.532,1.464.532,3.195.8,4.393,1.731,1.464,1.2,2.929.932,4.393,1.2a16.689,16.689,0,0,1,3.328,1.2,7.838,7.838,0,0,0,4.526,1.331c.532,0,.666.266.666.8a1.08,1.08,0,0,0,.532,1.065c2.929,2.13,5.192,5.059,7.721,7.588a22.038,22.038,0,0,1,3.994,5.724,69.866,69.866,0,0,1,4.393,10.25c1.2.4.532-1.065,1.2-1.2,1.065.666,2.529,1.065,2.929,2.263a3.134,3.134,0,0,0,2.8,2.13,4.337,4.337,0,0,1,2.529,1.065c.266.266.266.533-.133.666-.4.266-1.2,0-1.331.532-.266.932-1.065.932-1.6,1.331-1.2.932-2.929.133-3.727,1.331-.8,1.065,0,2.662-.8,3.994-.133.266-.133.666-.266.932a13.954,13.954,0,0,0-.666,5.192c.133.4-.266.932-.532,1.464a15.56,15.56,0,0,0-1.864,3.994,4.1,4.1,0,0,1-.666,1.6c-.4.8-1.6,1.464-.532,2.662h0c1.2.532,0,.932,0,1.464-.4.266-.8.4-.932.8-1.065,1.6-2,3.328-2.929,4.926-1.2.8-2.662,1.065-3.727,2.13a75.284,75.284,0,0,1-8.254,10.517,3.07,3.07,0,0,1,2,2.662,1.358,1.358,0,0,0,.666,1.065,1.527,1.527,0,0,1,.666,1.6,1.427,1.427,0,0,0,.266.8,6.234,6.234,0,0,0,4.127,1.864c.4,0,.8-.266,1.2.133a1.45,1.45,0,0,1,.266,1.464.7.7,0,0,0,.532.932c.4.133.932.266.8.8,0,1.6.932,2.263,2.13,2.929.532.266.4.666-.4.932s-1.065.8-.8,1.331a.465.465,0,0,0,.133.266c.666.8.932,1.864,1.864,2.529.666.4.532.8.133,1.2-1.2,1.6-1.2,1.6.8,2.263.8.266,1.864.266,2.263,1.065s1.2,1.065,1.864,1.6c1.6,1.331,3.062,2.8,2.929,5.192-.133,1.331.133,1.331,1.464,1.464q3.395.4,3.594,3.594a16.644,16.644,0,0,0,.4,2.529,2.991,2.991,0,0,1,.133,2.13c-.532.932.266,2.13-.532,2.662-1.331.932-.666,1.6-.266,2.529a2.024,2.024,0,0,1-.532.8c-1.464,1.6-1.464,1.6.666,2.4.932.266,2,.532,2.4,1.464a19.864,19.864,0,0,1,1.331,6.789c0,.266-.266.666-.532.666-.266.133-.666-.133-.8-.266a13.536,13.536,0,0,1-1.731-3.727c-.4-1.065-.8-1.2-2-.8a6.49,6.49,0,0,1-.932.4c-.533.133-.8,0-.932-.533-.133-.8-.266-1.464-1.2-1.6-1.731.532-.932,1.731-.666,2.662a44.572,44.572,0,0,0,2.529,7.055l.666.932a6.978,6.978,0,0,0,1.464,1.331v.8l.666,1.065,17.04,52.85,10.117,12.78a7.78,7.78,0,0,0,4.526,1.6c5.059.133,10.117,1.6,15.176,1.6a5.983,5.983,0,0,0,3.062-.532c.8-.133,1.731,0,2.4-.666,5.857-.932,10.117,2.929,14.777,5.458,1.2.666,2.4,1.331,3.594,1.864.532.532,1.065.266,1.731.4,3.195,1.2,6.124.8,8.52-1.864a19.662,19.662,0,0,1,3.861-3.594h0c1.464-.932,3.328-.666,4.792-1.6,3.328.133,6.523.8,9.984.666,2-.133,3.727-.4,5.059-1.731.266,0,.4.133.666.133a4.237,4.237,0,0,0,2-1.731,16.747,16.747,0,0,1,4.393-6.124,3.615,3.615,0,0,0,1.065-2.263c0-.266.133-.532.133-.8v.666c-.133,1.6-.533,3.2.133,4.659,1.065,2.529-.133,3.861-1.864,5.192-3.861,2-5.059,5.99-7.055,9.452-1.065,1.731-.266,2.662,1.864,1.731.4-.266.666-.4,1.065-.666,4.659-1.864,9.319-3.727,13.978-5.458a3.969,3.969,0,0,0,2.263-1.6.892.892,0,0,1,1.065-.4,1.857,1.857,0,0,0,1.464,0l7.588-3.195c1.464-.666,1.464-.666.533-2.13a1.358,1.358,0,0,1-.266-1.2,1.329,1.329,0,0,1,.666-.533.8.8,0,0,1,.533.133c.133.133.133.4.266.533.8,1.731,1.065,1.864,2.529,1.2l6.789-2.8c1.864-.8,2.263-1.864,1.864-3.861a9.329,9.329,0,0,1-.4-1.864c0-.532.133-1.2.8-1.2,1.6,0,2.263-.932,2.662-2.263a.838.838,0,0,1,1.065-.4c.266.133.532.4.8.533.4.266.8.666,1.331.266.4-.4.266-.932.133-1.464l-.4-.8c-.666-.8,0-.932.666-1.2.932-.4.932-.666.266-1.2-.133-.133-.4-.266-.532-.4-1.2-.533-1.2-1.331-.666-2.4.266-.532.4-1.065.8-1.331,1.065-.932,1.331-1.864.4-3.062-.133-.133-.133-.666-.133-.932.8-1.6,0-2.8-.932-3.994a19.05,19.05,0,0,1-1.464-2c-.666-1.065-1.331-2.263-.8-3.594a5.233,5.233,0,0,0-.4-4.659,11.155,11.155,0,0,1-1.065-6.523,13.271,13.271,0,0,0-.666-5.059c-.8-2.263-1.464-4.659-2.13-7.056-.932-3.195-.8-6.257,1.331-9.052a14.15,14.15,0,0,1,1.2-1.464c2.13-1.864,3.461-4.26,5.724-5.99a3.659,3.659,0,0,0,1.331-2.13c.4-1.731,1.731-2.929,2.263-4.526a2.278,2.278,0,0,1,2.13-1.6c.932-.133,1.2.666,1.6,1.331a2.125,2.125,0,0,0,1.864,1.065.489.489,0,0,0,.4-.133,1.04,1.04,0,0,0,.532-.532h0a4.112,4.112,0,0,1,.932-1.864h0a1.6,1.6,0,0,1,.666-.666h0a1.6,1.6,0,0,1,.666-.666h0c1.065-2.13,1.464-4.26-.133-6.257-1.065-1.331-3.461-2.263-2-4.659a1.79,1.79,0,0,1,1.2-.266c.133-.266.4-.533.4-.8v-.266c-.532-2,.8-2.4,2.13-3.062a2,2,0,0,0,1.464-.532c.133-.266.4-.266.8-.266a10.2,10.2,0,0,0,5.991-.4c.4-.4.666-.932,1.065-1.331h0a1.6,1.6,0,0,1,.666-.666h0a4.062,4.062,0,0,0,2.4-2.929c-.133-.266-.133-.666-.4-.932-.133-.532-.4-1.2,0-1.464,1.331-1.065,1.864-3.062,3.994-3.328a7.135,7.135,0,0,0,1.464-.666,1.6,1.6,0,0,0,1.2-1.6c0-1.065.932-1.464,1.731-1.6a35.171,35.171,0,0,1,3.861-.266,8.014,8.014,0,0,0,3.461-.666c1.6-.666,2.529-2,2-3.594a2.61,2.61,0,0,1,.8-3.062,2.656,2.656,0,0,0,.932-3.062,2.652,2.652,0,0,1,1.065-3.062c1.331-1.2,1.331-1.731.532-3.328-.4-.8-.666-2-1.731-2.263s-2.13-.932-3.461-.666c-.4.133-.932.533-1.464,0-.266-.4.532-.8,1.464-.8a8.187,8.187,0,0,0,1.864-.133.6.6,0,0,0,.4-.4c0-.133,0-.532-.133-.532-2.263-1.2-4.393-2.662-7.189-1.6a3,3,0,0,1-1.864.133,9.466,9.466,0,0,0-6.789,2.13,11.1,11.1,0,0,1-1.6,1.065c-4.792,2.263-7.854,6.39-11.582,9.984a6.3,6.3,0,0,0-.932,1.6A58.567,58.567,0,0,1,229.4,200.3c-2,2.662-3.727,5.458-5.458,8.254a5.85,5.85,0,0,0-.932,2.929,2.422,2.422,0,0,1-1.065,2.529,1.622,1.622,0,0,0-.8,1.6v2.529a4.57,4.57,0,0,1-1.6,3.994,4.592,4.592,0,0,0-1.065,1.2,45.966,45.966,0,0,1-8.12,10.117,16.608,16.608,0,0,0-2.13,2.263,11.548,11.548,0,0,0-2.263,6.789c0,1.331,1.2,2.8-.4,3.994-.133.133,0,.4,0,.533a4.1,4.1,0,0,1,0,2.529c-.266,2.263-.666,4.393.133,6.656a4.1,4.1,0,0,1,0,2.529,21.267,21.267,0,0,0-.666,2.8c-.266,2.263-1.331,4.526-.4,6.922.266.666-.133,1.2-.533,1.864-.932.532-1.2,1.731-1.864,2.529l1.2-2.4c-1.464-.266-1.864.8-2.13,1.864-.133.532.4.666.8.666l-.133.133a19.484,19.484,0,0,1-2.8,3.727,12.49,12.49,0,0,0,.8-2,40.345,40.345,0,0,1,2.13-5.591,8.932,8.932,0,0,0,.8-3.727c.133-2.529-.266-5.059.4-7.588a4.432,4.432,0,0,0-.133-1.864c-.932-2.4-1.065-4.925-1.864-7.455a2.636,2.636,0,0,1,.932-3.328,3.092,3.092,0,0,0,1.2-2.529c-.266-2.662,1.2-4.926,2.263-7.189a59.6,59.6,0,0,1,3.727-6.257c1.864-2.662,3.328-5.724,5.857-7.987a4.284,4.284,0,0,0,1.6-2.4c.133-1.065-.666-1.731-1.2-2.529-.932-1.331-.932-2,.133-3.328.666-.8.932-1.464.266-2.263-1.331-1.731-.932-2.929.666-4.26a3.557,3.557,0,0,0,1.331-3.727c-.8-1.731-.266-2.8,1.331-3.594.4-.133.532-.666.932-.932.666-.532.666-1.065.133-1.731-.666-.8.666-1.2.666-1.864,0-1.731,1.2-2.4,2.4-3.195a23.7,23.7,0,0,0,4.127-3.062,2.464,2.464,0,0,0,.532-2.929c-.532-1.2-1.065-2.529-1.731-3.727-.666-1.065-1.864-1.864-.266-3.195.133-.133,0-.532,0-.932a12.464,12.464,0,0,0-.532-2.13c-.4-1.065-.266-1.864.932-2.263.533-.266,1.065-.532.932-1.065-.532-1.2.532-2.4,0-3.727-.4-.8.532-1.464,1.331-.932,1.6,1.2,2.8.533,3.994-.666l2.662-2.662c1.464-1.464,2.929-3.062,4.526-4.526a11.683,11.683,0,0,1,2-1.6c1.864-.932,3.594-1.864,4.659-3.727a1.527,1.527,0,0,1,1.6-.666,2.541,2.541,0,0,0,3.062-1.065,7.3,7.3,0,0,1,5.325-3.195,13.086,13.086,0,0,0,2.13-.666,3.89,3.89,0,0,0,2.529-2.263,9.648,9.648,0,0,1,4.526-4.393,30.777,30.777,0,0,0,5.591-3.594c1.2-.932,2.529-1.6,4.127-.932.666.266,1.2-.133,1.331-.932.133-.4,0-.932.266-1.2a.949.949,0,0,1,.8-.4,1.01,1.01,0,0,1,.533.266c.133.266.4.533.4.8a2.266,2.266,0,0,1,.133.932c.133.266.266.666.533.666a.949.949,0,0,0,.8-.4c1.331-2.529,2.929-4.926,3.727-7.588.266-.8.532-1.065,1.331-.666,1.464.666,1.464.666,2.263-.4s1.464-2.4,2.662-3.062,2-1.464,1.464-2.929c0-.133.266-.266.4-.4.133,0,.133,0,.266-.133s0-.266-.266-.4c-.4-.266-.932-.533-.932-1.2a1.421,1.421,0,0,1,.932-1.2.465.465,0,0,0,.266-.133c1.464-.133,1.731-1.065,1.6-2.13-.266-2.662.4-5.325-.4-7.854a1.169,1.169,0,0,1,.133-.932,1.448,1.448,0,0,0,0-2c-.533-.666-.666-1.331.266-1.864.533-.266.266-.666,0-1.065-.133-.266-.4-.532-.266-.8,1.065-1.065.266-1.6-.4-2.4-.8-.932-.8-1.065.266-2.263.4-.533.666-1.065,1.065-1.6.666-.532,0-1.331.4-1.731.533-.666,1.2.266,1.731,0a3.641,3.641,0,0,0,1.731-1.731A12.308,12.308,0,0,0,298.1,89.013ZM184.941,294.155a49.491,49.491,0,0,0-2.529,4.526A29.45,29.45,0,0,1,187.6,289.9C186.8,291.36,185.74,292.691,184.941,294.155Zm5.724-9.452a15.2,15.2,0,0,1,3.861-3.861A21.192,21.192,0,0,0,190.665,284.7Z" transform="translate(-2.311 -10.187)"/></g><g transform="translate(286.559 195.593)"><path class="b" d="M224.266,160.061c.932-.8,1.731-1.6,3.062-1.065.8.266.8-.4,1.2-.666.932-.8,1.065-.932,2.13.133a1.916,1.916,0,0,0,2,.532,17.163,17.163,0,0,0,7.455-4.792c1.065-1.065,2.13-2.13,3.062-3.195a1.342,1.342,0,0,1,1.2-.4c.532.266.4.932.266,1.464l-1.6,3.195a7.055,7.055,0,0,0,.666,5.857c.533.8.533,1.331-.133,1.864-.133.133-.4.266-.532.4-1.065.533-2,1.331-3.195,1.2s-1.331-1.464-2-2.263a2.783,2.783,0,0,0-.8-.533c-.133.133-.266.133-.266.266,0,.666.133,1.331-.133,1.731a2.543,2.543,0,0,1-1.864.932c-2.13.533-4.127.932-6.257.133a4.341,4.341,0,0,0-2.263,0c-1.864.266-3.594.666-4.792-1.464a1.427,1.427,0,0,0-.8-.266c-.666.133-1.2.266-1.864.4-.8.133-1.331-.4-1.2-1.065.133-.8.133-1.464.266-2.263a4.044,4.044,0,0,0-.133-3.062c-.4-.8,0-1.464.133-2.13a.906.906,0,0,1,1.464-.4A6.287,6.287,0,0,1,221.2,158.2a4.832,4.832,0,0,0,1.731,2.529C223.734,160.992,224.532,161.658,224.266,160.061Z" transform="translate(-217.57 -150.573)"/></g><g transform="translate(286.712 177.307)"><path class="b" d="M268.425,159.683c-.666-.666-1.2.266-1.731.8l-.666.666a2.237,2.237,0,0,1-2.929.4c.666-.666,1.464-1.2,2.13-2,.666-.666.266-1.464-.533-1.731-1.065-.266-2.13-.4-3.062-.666-1.331-.4-1.2-.4-1.864,1.331-.4,1.065-.666,2-2.4,1.864-1.464-.133-1.464.266-2-.8-.266-.533-.4-.932-.666-1.464a1.186,1.186,0,0,0-1.065-.666c-.533,0-.8.4-1.065.666a5.052,5.052,0,0,0-.8,3.062,4.517,4.517,0,0,1-2,4.127,11.5,11.5,0,0,0-1.731,1.864c-.133.133-.4,0-.533,0s-.133-.133-.133-.266v-.666c.133-1.731-.4-2.13-1.864-1.6-2.263.8-4.26,2-4.526,4.792a.869.869,0,0,1-1.2.666,1.024,1.024,0,0,0-1.331.133c-.266.4-.4.8-.932.8s-.533-.532-.533-.932a4.784,4.784,0,0,1,.266-1.464c0-.266.266-.533-.133-.8a1,1,0,0,0-1.2,0,4.049,4.049,0,0,0-.666.932.972.972,0,0,1-1.464.666c-1.331-.8-2.529-.4-3.727.4-.266.266-.8.266-1.2.4h0a3.136,3.136,0,0,1,.4,2.662,4.5,4.5,0,0,1-.932,1.464h0a31.124,31.124,0,0,0-.932,5.991c-.8,1.6-.666,3.461-1.731,5.059a1.247,1.247,0,0,0,.266,1.464,1.452,1.452,0,0,0,1.731.4,2.47,2.47,0,0,0,1.6-2.13c.133-.8-.533-1.731.4-2.4.8-.533,1.6-.133,2.4-.266h.266c3.328-2,5.591-5.325,9.452-6.39,1.065-.532,1.464.533,2.13.932l.4.4c.133.133.266.266.266.4l-.133.133c-.133-.133-.266-.266-.266-.4a1.957,1.957,0,0,0-.8-.666,2.6,2.6,0,0,0-1.731.133,32.267,32.267,0,0,0-4.127,3.328,3.2,3.2,0,0,0-.666,4.526,9.678,9.678,0,0,0,1.2,1.065,7.128,7.128,0,0,0-1.464-.666c-.666-.266-1.731,0-1.731-1.2,0-1.464-.8-1.731-2-.932-.266.4-.666.666-.666,1.065a4.714,4.714,0,0,1-1.331,3.461,50.691,50.691,0,0,0-3.861,5.458c-1.331,2.4-2.929,4.659-4.393,7.055-.932,1.464-2,2.8-2.8,4.26-1.864,3.461-2.929,7.055-1.464,11.049a13.131,13.131,0,0,1,.4,3.2,7.45,7.45,0,0,0,3.328,5.857c.532.4.932,0,.8-.666,0-.532.266-.8.8-.666,1.2.266,2.263.533,2.929,1.731a7.129,7.129,0,0,0,2,2c1.331.8,2,.666,2.929-.666s1.864-2.662.266-4.26c-.533-.532-.266-1.464.133-2.13.532-.8,1.2-.266,1.731-.266s.932-.266.932-.666c-.266-2.13.666-3.994,1.2-5.857a17.118,17.118,0,0,1,.533-2.529,33.168,33.168,0,0,0,1.464-3.594c.532-1.6.8-2.529.4-3.861a7.134,7.134,0,0,0-.666-1.464,3.328,3.328,0,0,1,0-2.529,1.851,1.851,0,0,1,1.6-1.331c.8-.133.666-.932.8-1.464.133-.932,1.065-1.331,1.6-.532.932,1.6,2.13,1.464,3.594.932.666-.266,1.065-.532.932-1.331a4.986,4.986,0,0,1,1.331-5.325c1.464-1.2,1.864-3.461,3.994-3.994a.465.465,0,0,0,.266-.133,17.978,17.978,0,0,0,3.861-2.13,4.181,4.181,0,0,0,2.4-3.461,5.466,5.466,0,0,1,1.464-3.727c.8-.666,1.065-1.2.533-2.13-.266-.4.133-.8.532-.932.533-.133.932-.4,1.464-.533s1.065-.666.8-1.2c-.532-1.331.4-1.864,1.2-2.662.666-.532,1.331-1.2.133-2-.266-.133-.266-.4.133-.4a1.547,1.547,0,0,0,1.731-1.731c1.731,0,1.464-1.864,2.263-2.662A1.711,1.711,0,0,0,268.425,159.683Z" transform="translate(-217.685 -130.179)"/><path class="b" d="M264.235,149.434c1.464-1.331.4-2.263-.532-3.062a15.948,15.948,0,0,0-1.6-1.464,1.477,1.477,0,0,0-2-.266,8.086,8.086,0,0,0-1.331.932c-.8.4-2,.4-2.13,1.464h-.4c-.133-.266-.133-.532-.266-.8-.533.4-1.065.4-1.331-.133a9.87,9.87,0,0,1-1.065-3.994c-.266-1.331-.533-2.8-2-3.328a13.042,13.042,0,0,1-2.929-1.731c-.533-.532-1.6,0-1.731.666a6.48,6.48,0,0,0-.133,1.6,6.3,6.3,0,0,1-.133,2.263,7.792,7.792,0,0,0,.4,4.926,12.091,12.091,0,0,1,.666,7.189c-.666,2,0,3.727.8,5.591a5.05,5.05,0,0,0,2.929,2.8l3.994,1.2c.533.133,1.2,0,1.331-.4.666-1.6,2-2,3.594-2.13a.88.88,0,0,0,.932-.8c0-1.6.932-2.662,1.864-3.861,1.065-1.331,2-2.8.932-4.659C263.7,150.633,263.7,149.834,264.235,149.434Z" transform="translate(-208.17 -136.837)"/></g><g transform="translate(128.92)"><path class="b" d="M331.492,104.029a9.437,9.437,0,0,0-2-3.994c-1.731-2.263-3.195-4.659-3.328-7.455a4.317,4.317,0,0,0-3.2-4.26c-.8-.266-1.6-1.065-2.263-.266-.666.666,0,1.331.266,2a6.249,6.249,0,0,1-.133,4.393c-.4.8-1.331,1.065-1.864.4-1.2-1.464-3.062-2.662-2.263-5.059a1.447,1.447,0,0,0-.133-.666,37.831,37.831,0,0,1-1.331-6.523c0-.266-.4-.4-.666-.666-.133.266-.4.4-.533.666a20.469,20.469,0,0,0-1.2,6.922c0,2.4-.266,4.792.932,7.056a7.847,7.847,0,0,1-1.065.532c-1.065.666-2,.266-2.929-.4a2.1,2.1,0,0,1-.666-2.263,2.644,2.644,0,0,0-2-3.195c-1.864-.532-2-1.864-1.73-3.195a10.567,10.567,0,0,1,1.464-5.192,6.835,6.835,0,0,0,.8-4.26c0-.532-.266-.932-.8-.666-.932.4-1.065-.133-1.065-.8-.133-.533-.666-.8-.932-.4-1.331,1.464-2.929,2.8-1.864,5.192a2.27,2.27,0,0,1-.532,2.662c-.533.4-1.464.4-1.6-.266a1.61,1.61,0,0,0-2-1.464,1.2,1.2,0,0,0-.666.133c-1.864.4-3.062-.8-3.594-2.4a7.753,7.753,0,0,1-.4-2.529V74.875c-.133-2.662-1.6-3.594-4.127-2.929a13.153,13.153,0,0,0-4.526,2.263,8.946,8.946,0,0,1-3.994,1.731c-1.331.266-1.331.266-1.2,1.6a6.677,6.677,0,0,1,.266,1.6c.133.932-.133,1.464-1.065,1.464a.89.89,0,0,0-.8.932c.133.932-.4,1.065-1.2,1.464-.932.4.932,1.464-.133,2-.533.532-.4,1.065-.266,1.731,0,.133.133.133.266.133.4-.133-.133.4-.133.4a4.279,4.279,0,0,0-1.331-2.8c-.666-.4-.533-1.065-.8-1.6a2.9,2.9,0,0,0-.666-1.065c-.533-.666-1.2-.133-1.731.133-.666.4-.532.8,0,1.2.266.8,0,.932-.666.666-1.464.932-2.529,2.263-4.393,2.529-1.6.8-1.6-.4-1.864-1.464l-.8-.4c-1.331-.532-1.464-.8-1.065-1.731a19.656,19.656,0,0,0,1.331-3.594.892.892,0,0,0-.4-1.065,1.014,1.014,0,0,0-1.2.133c-.266.266-.533.666-.8.932-.666.932-1.331,1.6-2.662,1.2-.8-.266-1.331.4-1.864,1.065-.133.266-.4.666-.666.266-.666-.8-1.065-.266-1.331.4a8.418,8.418,0,0,1-1.6,3.062,5.8,5.8,0,0,0-1.2,3.861c0,2.263-.133,4.526-.266,6.656a1.519,1.519,0,0,1-.4.8c-.266.266-.533,0-.666-.4-2.529-4.926-4.526-10.117-4.393-15.842a8.934,8.934,0,0,0-.8-3.727,31.877,31.877,0,0,0-1.731-3.727,8.8,8.8,0,0,1-.932-3.328c0-1.331-.4-2.662,0-3.994a1.993,1.993,0,0,0-.666-2c-.4-.4-.932-.266-1.464-.266-.532.133-.666-.266-1.065-.533-1.065-.8-1.731-.666-2.263.4a6.492,6.492,0,0,0-.533,1.464,54,54,0,0,1-2.529,7.854,5.13,5.13,0,0,0-.266,3.461c.533,2.4.8,4.792,2.263,6.922a2,2,0,0,1,0,2.4c-.8,1.331-1.464,2.662,0,3.994a1,1,0,0,1,.133.666c-.133,1.6.666,2.929,1.065,4.26a71.87,71.87,0,0,1,3.195,10.384,2.855,2.855,0,0,0,1.331,2.13c.533.4.533.8,0,1.065-.932.932-.4,2.13-.532,3.328-.266,1.731.532,2.4,2.4,2.4a1.544,1.544,0,0,1,1.331.533c.533.8.133,1.6-.8,2-.532.266-1.331,0-1.731.666-.532.666,0,1.464.133,2.13.266,1.2.666,2.263.932,3.328l.8,2.4c.266.666-.133,1.065-1.065.8a1.441,1.441,0,0,0-1.6.666,4.2,4.2,0,0,0-.666,3.062,1.2,1.2,0,0,0,1.864.932,8.811,8.811,0,0,0,3.062-3.195.84.84,0,0,1,1.2-.266.892.892,0,0,1,.4,1.065,16.663,16.663,0,0,0-.532,6.257,12.833,12.833,0,0,1,0,3.195c-.133,1.331-.266,2.529,1.331,3.195a1.408,1.408,0,0,1,.8.932c1.065,2.13,1.864,1.731,3.461.8a4.953,4.953,0,0,0,2.662-2.529c1.065-2.662,3.195-4.393,5.059-6.523a3.952,3.952,0,0,1,2.529-1.331c1.864,0,2.929-1.065,4.127-2.13a13.813,13.813,0,0,1,3.328-2,7.051,7.051,0,0,0,3.861-3.195,4.23,4.23,0,0,1,1.331-1.331,30,30,0,0,1,8.387-5.059c1.464-.532,2.929-1.464,4.393-.133a.465.465,0,0,1,.266.133c1.331-.8,2.929-.133,4.26-.532.8-.133,1.2-.8.932-1.731l-.8-2.4c-.4-1.464-.133-2.13,1.331-2.662a19.968,19.968,0,0,1,5.591-1.2,1.009,1.009,0,0,1,.532.266.4.4,0,0,1,0,.532c-.8.8-1.6,1.731-2.4,2.529a2.761,2.761,0,0,0-.8,3.727c.266.532.666,1.065.932,1.6.932,1.464.932,2,0,3.328a4.635,4.635,0,0,1-1.731,1.464,2.207,2.207,0,0,0-1.2,2.929c.4,1.464.8,2,2.13,1.864a3.217,3.217,0,0,0,2.529-1.731c1.065-1.331,2-2.8,2.929-4.127a2.641,2.641,0,0,0,.4-2.4c-1.065-2.263-.932-5.059-2.263-7.056.4-.8,1.065-.932,1.6-1.2a8.548,8.548,0,0,0,2.662-2.13c.8-.932.8-1.731-.266-2.4a14.461,14.461,0,0,1-3.461-2.929c.266-.266.533-.666.8-.932a1.667,1.667,0,0,0,.666-2.4c-.133-.133-.133-.4-.266-.532-.133-.532.133-.8.666-.8,1.2,0,2.263.8,3.461.133.4-.266.8.133,1.065.4a11.1,11.1,0,0,1,1.065,1.6,1.745,1.745,0,0,0,2.13,1.065c.8-.133,1.331.266,1.065,1.065a4.62,4.62,0,0,0,1.065,4.127,4,4,0,0,1,.266,5.059.786.786,0,0,0,.8,1.2,3.966,3.966,0,0,0,3.461-3.594,13.117,13.117,0,0,0-.266-2.263c-.133-1.065-.533-2.13-.133-3.195a34.042,34.042,0,0,0,3.2,1.464c2,.666,2.929,2,2.529,4.127a1.01,1.01,0,0,0,.266.533h.932a4.769,4.769,0,0,0,1.464-.533C331.226,108.688,332.024,106.958,331.492,104.029Z" transform="translate(-54.002 15.72)"/><path class="b" d="M143.9,97.7Z" transform="translate(-84.332 27.507)"/><path class="b" d="M144.8,101Z" transform="translate(-84.034 28.6)"/><path class="b" d="M112.7,18.9Z" transform="translate(-94.666 1.406)"/><path class="b" d="M117.9,22.3Z" transform="translate(-92.944 2.532)"/><path class="b" d="M143.333,25.31h.932c.4.4.666,1.464,1.6.932.666-.532-.133-1.065-.266-1.6a2.9,2.9,0,0,0-.533-.666h0c-.266-.666-.932-.8-1.464-1.065a.817.817,0,0,0-.8.133,1.634,1.634,0,0,0-.266,1.731C142.534,25.31,142.934,25.31,143.333,25.31Z" transform="translate(-84.83 2.718)"/><path class="b" d="M158.336,36.644a.732.732,0,0,0,.666-.4c.133-.133.133-.4.266-.533A.835.835,0,0,0,159,34.647a.88.88,0,0,0-.8-.133c-.532.133-.4.532-.4,1.065a.8.8,0,0,0,.133.532C157.8,36.244,157.8,36.644,158.336,36.644Z" transform="translate(-79.731 6.56)"/><path class="b" d="M156.3,33.87c.4.133.666-.133.8-.532h0a1.886,1.886,0,0,0-.133-1.464.692.692,0,0,0-.532-.266c-.4-.133-.533.266-.533.532v1.2C156.033,33.6,156.166,33.87,156.3,33.87Z" transform="translate(-80.357 5.606)"/><path class="b" d="M251.162,67.125c.4,0,.532-.4.532-.666a4.707,4.707,0,0,0,.133-.8,4.264,4.264,0,0,0-2.263-3.727c-.4-.133-.8-.266-1.2.133a1.892,1.892,0,0,0-.266.8,8.286,8.286,0,0,0,2.4,3.994A.861.861,0,0,0,251.162,67.125Z" transform="translate(-49.818 15.616)"/><path class="b" d="M104.674,5.315a1.037,1.037,0,0,0-.8-1.2,11.987,11.987,0,0,0-2.13-.4,2.732,2.732,0,0,0-2.263.666.958.958,0,0,0,.266,1.6,2.152,2.152,0,0,0,2,.133h2A1.407,1.407,0,0,0,104.674,5.315Z" transform="translate(-99.153 -3.646)"/><path class="b" d="M266.554,75.027c.4.266.932.8,1.331.4,1.065-.932,1.2-2.4,1.6-3.461-.266-.532-.4-.932-.932-1.065a.887.887,0,0,0-.932.666,2.265,2.265,0,0,0-.133.932c0,.8-.4,1.065-1.065,1.331C265.755,74.228,265.755,74.494,266.554,75.027Z" transform="translate(-43.91 18.63)"/><path class="b" d="M270.772,70.961a.593.593,0,0,0,.8-.4,3.687,3.687,0,0,0,.133-1.2,4.106,4.106,0,0,0-.133-1.331.885.885,0,0,0-.666-.532,1.268,1.268,0,0,0-.932.266C268.775,68.831,269.174,70.429,270.772,70.961Z" transform="translate(-42.804 17.504)"/><path class="b" d="M274.241,65.535c0-.133,0-.133-.133-.266a.657.657,0,0,0,.133-.4c-.133-.266-.4-.133-.666-.133-.666.666-1.731.266-2.4.8a4.315,4.315,0,0,1-3.594.4c-.4,0-.932.133-.8-.532,0-.266.4-.532.666-.666,2-.133,3.461-1.331,4.926-2.529.266-.266.532-.4.4-.666a1.329,1.329,0,0,0-.666-.533,1.853,1.853,0,0,0-1.864.133c-1.2,1.065-3.195,1.331-3.994,2.929-.266.4-.932.4-1.464.133a1.352,1.352,0,0,1-.666-1.331c0-.8.532-1.331.8-2.13a.627.627,0,0,0-.8-.133c-1.2-.4-1.2-.4-.666-1.331.266-.4.666-.532.4-1.065-.4-.666-.133-1.2.533-1.6.266-.133.266-.266,0-.533-.4-.666-1.731-1.065-2.13-.532-.4.4-.666.8-1.065,1.2-.532.532-1.065.532-1.331.133A1.193,1.193,0,0,1,260,55.417c.133-.266.533-.4.666-.532,1.065-.8.8-1.864.932-2.929,0-.8-.932-.666-1.331-1.065-.533-.4-1.065-.932-1.731-1.464a1,1,0,0,0-1.2,0c-.266.133-.4.4-.666.666-1.065.8-1.065.8-2.263-.4a3.988,3.988,0,0,0-2.4-.8,15.071,15.071,0,0,1-1.331,1.731c-.266.266-.533,0-.666-.266a2.594,2.594,0,0,1-.133-1.065,15.063,15.063,0,0,1-1.731,1.331c-.532.4-.932,0-1.331-.4-.133-.266-.4-.4-.666,0-.533.532-.932,1.2-1.731,1.331s-.8.8-.8,1.464a7.738,7.738,0,0,0,1.2,3.328,3.988,3.988,0,0,1,.8,2.4c0,.266-.266.666-.4.666a1.169,1.169,0,0,1-.932-.133,4.325,4.325,0,0,1-1.331-1.731c-.4-.666-.8-.932-1.331,0a.64.64,0,0,1-.8.266,1.427,1.427,0,0,1-.266-.8,2.284,2.284,0,0,1,1.065-2.13,1.167,1.167,0,0,0,.666-1.331c-.266-.932-.8-1.864-1.864-1.864a11.319,11.319,0,0,1-5.724-2.263c-.4-.266-.932-.133-.8.4a1.148,1.148,0,0,1-.8,1.464c-.8.133-1.6.4-2.529.532-1.464.266-2.4.932-2.529,2.4-.133.532-.133,1.065-.666,1.331s-.532.666-.4,1.2c1.731,1.065,2.4-.532,3.195-1.464a7.854,7.854,0,0,1-2.929,3.328,6.513,6.513,0,0,0-2.4,8.12,2.676,2.676,0,0,1-.266,2.662c-1.864,3.727-4.393,7.189-3.328,11.848.4,1.6-1.2,2.662-2.663,3.594v-.266c.133-.133.133-.4.266-.532a1.713,1.713,0,0,0-.133-1.6c-.533-1.331,1.065-2.4.666-3.727-3.861-1.731-7.322.532-11.049,1.065,2.4-.4,4.393-1.6,6.656-2.263,1.331-.266,1.6-1.2,1.464-2.4a13.3,13.3,0,0,1,3.861-5.991,8.541,8.541,0,0,0,2.662-5.192v-.4a2.035,2.035,0,0,1,.932-2.662,7.13,7.13,0,0,0,2-2c-.133-.532.266-1.2-.532-1.864a21.15,21.15,0,0,0-3.727,4.792h-.266c-1.864.532-2.13,2.529-3.994,3.994a30.192,30.192,0,0,1,3.062-4.127c1.6-1.864,3.594-3.594,4.526-6.124a11.523,11.523,0,0,0,.932-1.331c.266-.4.4-.532-.266-.932-.8-.4-.932-.932-.4-1.331,1.065-.8,2.263-1.731,3.328-2.4a2.845,2.845,0,0,0,1.6-2.263.627.627,0,0,0-.8-.133c-.666,0-1.065-.266-.8-.932a1.408,1.408,0,0,1,.932-.8c.533-.266,1.331-.4,1.065-1.2a1.474,1.474,0,0,0-1.2-.932c-1.331-.532-1.731-.4-2.4,1.065-.133.266-.133.666-.266.932a.838.838,0,0,1-1.065.4c-.932-.266-1.464-1.331-2.529-1.2v1.2a2,2,0,0,1-1.2,1.331,1.127,1.127,0,0,1-1.331-1.065,5.319,5.319,0,0,1,.932-2.4.509.509,0,0,0-.4-.666,2.266,2.266,0,0,0-.932.133.949.949,0,0,0-.4.8c.266,1.464-.932,2.263-1.065,3.594-.266,2-2,1.065-2.929,1.6-.266.133-.533.4-.8.532-1.6.932-2.4.8-3.594-.532-.666-.8-1.065-1.864-2-2.4-.133.133-.4.266-.532.4a3.871,3.871,0,0,0-.666,2.929c0,.532-.4.932-1.065.4-2,1.065-.4,2.929-.932,4.393,0,.666.133,1.331-.4,1.864-.133.133-.266-.4-.533-.533a5.925,5.925,0,0,1-.532-3.994,9.326,9.326,0,0,1,.4-1.864c0-.4-.266-.532-.533-.8s-.532,0-.8.133c-.932.532-.8,1.864-1.731,2.529-.532.532-1.464,0-1.864.666-.266,1.065-.666,2.263.666,3.062a.817.817,0,0,1,.133.8c-.133.4-.532.532-.932.666-.532,0-1.065-.133-1.2-.666a6.87,6.87,0,0,1-.266-1.464c0-.4-.133-.8-.666-.8s-.666.4-.666.8a2.468,2.468,0,0,1-.266.932h0a1.09,1.09,0,0,0-.533,1.331h0a.8.8,0,0,1-.133.532h-1.2a.6.6,0,0,1,0-.666.646.646,0,0,0,.4-.8h0v-.4l.4-.8a.593.593,0,0,0-.4-.8c-.4-.133-.533.133-.533.532v.932h0c-.8,0-1.065-.666-1.2-1.331a6.37,6.37,0,0,1,.532-4.393,1.832,1.832,0,0,0-.133-1.464,1.009,1.009,0,0,0-.532-.266c-.133,0-.4.266-.266.4l.4,1.2c-.133,0-.266.133-.266,0-1.331-.133-1.864-1.6-3.195-1.731-.133,0-.266-.533-.266-.8-.133-.4-.133-.8-.266-1.2-.4-.8-.932-.8-1.464-.266l-.8.8a.25.25,0,0,1,0-.4h0a1.9,1.9,0,0,1-.266-.532c-1.2.133-2.4-.133-3.461.932-.266.666-.4,1.331-.666,1.864-.666,0-1.464.133-1.864-.666h0c-.133-.4-.4-.532-.666-.4a4.286,4.286,0,0,0-2.662,1.6c-.4.666-1.065.666-1.731.666h0a1.709,1.709,0,0,1,.666-1.864c.4,0,.532-.266.666-.532h0c.133,0,.266-.133.4-.133.4,0,.666-.133.532-.532-.266-.666-.666-.532-1.2-.133h0c-.4.133-.8.133-1.2.266h0c-.266,0-.4-.133-.666-.133v-.8c-.133-1.2-.666-2.529-1.731-2.8-1.464-.532-1.065-2.13-2.263-2.662a3.833,3.833,0,0,0-1.731-.133h0c.266-.932-.532-1.464-.666-2.263s-.666-.932-1.331-.8h-.266a1.938,1.938,0,0,1-.8-1.2,2.388,2.388,0,0,0-.666-.932h-3.727a.8.8,0,0,1,.133-.532h0c.4,0,1.065-.266.932-.532-.666-.8-1.065-1.864-2.263-2a13.8,13.8,0,0,1-1.331.532h-.666a2.676,2.676,0,0,1-1.065-.532,1.912,1.912,0,0,0-2-.666c-.533-.133-1.065-.666-1.731-.4a.956.956,0,0,1-1.464-.8c0-.666.4-.532.8-.4.133,0,.133.133.266.133.4.133.932.266,1.065-.266a.782.782,0,0,0-.666-.932c-1.331-.133-2.662-.133-3.461,1.331-1.2,2.13-2.13,0-3.195-.133a2.349,2.349,0,0,0-1.2-1.065v-.532c-.266-.266-.4-.266-.666,0-.4.8-1.2.932-1.864,1.331-1.731.8-1.331,2.529-1.6,3.861a.353.353,0,0,1-.4.4c-.4-1.731,1.065-3.062.932-4.659,0-.133-.133-.266-.133-.4-.266-.133-.4-.4-.666-.532,0-.266-.133-.666,0-.932a2.232,2.232,0,0,0-.266-3.328c-.266-.266-.266-.932-.4-1.464-2.13-.4-2.662,1.2-3.195,2.662-.266.8-.266.8-.533.8-1.864.532-1.864.532-1.731,2.662h0a.489.489,0,0,0-.133-.4,1.653,1.653,0,0,0-1.065-.8.465.465,0,0,1-.266-.133c0-.133,0-.266.133-.266,2.13-1.065,3.062-2.662,2.263-5.059-.533-1.2-.533-1.2-1.464-.8-.8,0-.932-.133-.532-1.2-.133-.532-.4-1.065-.932-1.065a1.88,1.88,0,0,0-1.2.133c-.133,0-.133.532-.133.8s.133.666-.4.666c-.4,0-.666-.4-1.2-.133-.666.266-.666-.266-.533-.666.533-1.065.4-1.6-.932-1.464-.133,0-.4-.4-.4-.666a1.13,1.13,0,0,0-1.065-.932c-.532,0-.932.4-1.065,1.065s-.4,1.2-1.065,1.331a3.143,3.143,0,0,0-1.2,1.065c-.4.133-.266,1.2-1.065.4a5.289,5.289,0,0,0,2.13-2.4,1.367,1.367,0,0,0-.666-1.731c-.533-.4-1.331-.133-1.864-.666a.489.489,0,0,1-.133-.4c-.532-.8-1.065-.532-1.331.133-.666,1.331-1.464-1.2-2.13,0-.266-.532.4-.932.133-1.331a1.142,1.142,0,0,0-.932-.8c-.4,0-.8-.133-1.2-.133l-.8-.4h-.4c-1.2.932-1.731-.4-2.662-.8,0-.532.533-1.331-.666-1.2-.532-.266-1.331.532-1.864-.133-.266-1.331-1.2-1.464-2.4-1.331-.133.666-.133,1.331-.266,2.13a.884.884,0,0,1-.666-.532c-.4-.932.133-2.662-2-2.13-.133,0-.266-.266-.4-.4-.133-.532,0-1.065-.133-1.6,0-.266-.266-.532-.532-.266a1.009,1.009,0,0,0-.266.532c-2.13,3.062-1.864,3.994,1.331,5.059.266.133.4.4.666.532a.286.286,0,0,1-.266.266,3.377,3.377,0,0,0,.266,1.6c.266.4.532.666.666.932.932,1.731.8,4.526,4.127,3.594,2.929-3.062,2.4,1.464,3.727,2.13l1.2,1.2c.266.133.4.4.666.532s.4.266.666.4c.532.266,1.2.4,1.6.666.266.133.4.266.266.666a1.209,1.209,0,0,1-.4.932.13.13,0,0,0-.133.133h-.133a3.987,3.987,0,0,1-1.331.532c-.932.266-2.13.266-1.464,1.731,1.331.4,2.263-.532,3.328-.8.266-.133.4-.266.666-.4l.8-.4a2.226,2.226,0,0,1,1.6.133c.266.133.532.133.666.266h.4c1.731-.532,1.731-2.263,2.4-3.594a1.329,1.329,0,0,1,.666-.532,2.394,2.394,0,0,1,2.8.932h0a.84.84,0,0,1,.133.932c-.133.666-.8,1.2-1.331,1.731a5.788,5.788,0,0,1-.8.932,1.912,1.912,0,0,0-.666,2,1.347,1.347,0,0,0,1.864.532c.133,0,.266,0,.266-.133a1.2,1.2,0,0,1,.666-.133c.133.133.266.266.4.266h.133a.13.13,0,0,0,.133.133c.133.266.266.4.266.666v.4a6.08,6.08,0,0,0-.932,3.594c0,.266.133.666,0,.932a12.862,12.862,0,0,1-.133,3.195,1.363,1.363,0,0,0,.666.8c1.6,0,3.195.532,4.792.133.266,0,.532-.133.8-.133.133,0,.133.133.266.133a.692.692,0,0,1,.532.266h0c2.8,1.2,5.991.4,7.455,5.857a2.338,2.338,0,0,1,.532.666V46.9a2.6,2.6,0,0,1-.133.932c.133,2,2.929,2.263,3.195,5.325l.4.8c.932,2.13.8,4.526,2.13,6.523a19.058,19.058,0,0,0,2.8,1.6,2.337,2.337,0,0,1,.666.532,2.249,2.249,0,0,1,.266.666c.266.4,0,.666-.266.8-.133.266-.4.533-.533.8a1,1,0,0,0,.133,1.065c.133.133.4.266.533.532.666.532,1.464.266,2.263.532.133,0,.133,0,.266.133h.133a.13.13,0,0,1,.133.133V67.4c.266.266.266.666.4,1.065.133.266.133.532.4.8h.266a1.017,1.017,0,0,0,.666-.266c1.864-.532,6.124-1.731,3.461,2-.932,1.2,1.464,1.6,2.4,2.13.133,0,.133.133.266.133s.133.133.266.133l.8.8c.133.266.4.4.533.666a5.212,5.212,0,0,1,1.065,1.331c0,.133,0,.266.133.266,0,.133.133.266.133.4.8,1.2,3.062-.133,5.192,0-2.662,4.526.133,2.8,1.065,3.994.266.532.133,2.263.4,2.8a2.909,2.909,0,0,0,.4.666,5.073,5.073,0,0,1,.4,1.331c-.133,1.065-2,1.464-.8,2.8.266,1.331,1.331,1.731,2.4,2.13a1.329,1.329,0,0,1,.533.666,2.977,2.977,0,0,1-3.861,2.4,4.041,4.041,0,0,0-4.526,1.464,3.6,3.6,0,0,1-2.529.8c-1.464-.133-2.929-1.065-4.526-.266-.666.4-.666,1.2-.8,1.864a1.893,1.893,0,0,1-.266.8,2.339,2.339,0,0,1-.533.666c-.133.266-.4.4-.532.666a6.675,6.675,0,0,1-1.2,2.4c-.4.666-1.065.8-2.13.4-.4-.133-.932-.4-1.6-.666-1.864-.932-3.328.133-4.926.266-2,.266-3.727-1.065-5.591-1.464-1.065.266-2.263-1.065-3.062.532.133.133.266.4.532.533a20.479,20.479,0,0,1,1.065,2.529c.266.266.4.666.8.932a17.17,17.17,0,0,0,2.13,1.2,1.329,1.329,0,0,1,.666.532,7.391,7.391,0,0,0,.8,1.065q.4.4,0,1.2c-.266.532-.532.532-.932.4h-.133c-2.13,0-1.731.532-3.861,0-.532,0-1.065-.666-1.6-.133-.266.266-.266.532,0,.666a5.945,5.945,0,0,0,2.263,1.2l.8.4a2.988,2.988,0,0,1,1.864,2.929c-.266,3.461,1.331,1.864,2.662.932l.8-.4c1.864-.133,2.4,1.464,3.461,2.4.8.666,1.731,1.065,2.529,1.731a1.5,1.5,0,0,0,1.065.133,1.04,1.04,0,0,0,.533-.533c.666-.532,1.464-.932,2.13-.4h.266a.13.13,0,0,0,.133.133l.133.133v.133a1.879,1.879,0,0,1-.133,1.2c-.532,2.4-2,4.659-1.065,7.189.133.266.133.532.266.8a17.879,17.879,0,0,1,.932,3.594c.133.266.133.532.266.666a3.588,3.588,0,0,0,.932,1.065c.533.266,1.065.4,1.6.666a1.039,1.039,0,0,1,.533.532c.4.533.666,1.065,1.065,1.6a5.91,5.91,0,0,0,1.065,1.464c.133.133.4.266.532.4a1.169,1.169,0,0,0,.932-.133,3.528,3.528,0,0,0,.666-.8c.133-.266.4-.4.532-.532.266-.133.4-.266.666-.266a1.2,1.2,0,0,1,1.331.133,3.529,3.529,0,0,1,.8.666c.8,1.2.932,2.929,2.529,3.594a4.429,4.429,0,0,0,2.8,1.464,11.92,11.92,0,0,1,3.062.266c2.529.666,4.926-1.2,7.455-.532a5.342,5.342,0,0,1,2,.4,1.892,1.892,0,0,0,.8.266c.666.266,1.331.266,2,.532a2.338,2.338,0,0,1,.666.532c.666,1.464,1.731,2.529,3.461,2.4.4,0,.932.266,1.2-.133v-.133a.13.13,0,0,1,.133-.133c.133-.533-.4-.932-.666-1.331a15.5,15.5,0,0,1-3.195-4.526,12.964,12.964,0,0,1-.266-3.195,3.3,3.3,0,0,1,.133-1.2v-.666a1.41,1.41,0,0,1,1.464-.8,1.761,1.761,0,0,1,1.6.266h.133v.133h.133a.627.627,0,0,1,.133.8,8.942,8.942,0,0,1-.8,1.6c-.133.4-.4.932-.266,1.331.133.133.266.4.4.532.533.266,1.2.266,1.731.533.266.133.4.4.532.532.266.533.4,1.2,1.065,1.331.266,0,.4-.133.666-.266l1.2-.8c.266-.133.4-.266.666-.4.133,0,.133-.133.266-.133l49.788-38.606.4-.4c.266-.133.4-.4.666-.532a.286.286,0,0,0,.266-.266l1.2-.932a20.477,20.477,0,0,1,1.731-1.6,1.329,1.329,0,0,1,.666-.532c.266-.133.4-.4.666-.532a30.132,30.132,0,0,0,3.727-3.328,1.329,1.329,0,0,1,.666-.532c.266-.133.4-.4.666-.532,1.065-.4,1.731-1.6,2.8-2a20.977,20.977,0,0,1,2-1.6,2.338,2.338,0,0,0,.666-.532c.133-.133.266-.133.266-.266a2.338,2.338,0,0,0,.666-.533l.266-.266.532-.532c1.331-.8,2,1.331,3.328.666.266-.666.133-1.6.932-2,1.065-.532,1.065-1.2.533-2-.266-.4-.533-.932-.8-1.331a1.059,1.059,0,0,1,.266-1.2c.4-.266.932-.532,1.331-.8.266-.133.533-.666.4-.8-1.065-1.331-.133-2.263.532-3.328a1,1,0,0,0,.133-.666c-.666-1.464.932-3.195-.4-4.792-.266-.266.133-.532.4-.666.932-.666.666-1.731.8-2.529C275.838,65.668,274.64,66.067,274.241,65.535ZM135.261,29.458c-.266.133-.266,0,0,0-.133-.133-.133-.133-.133-.266C135.261,29.192,135.394,29.325,135.261,29.458Z" transform="translate(-97.791 -2.629)"/></g><g transform="translate(229.827 194.447)"><path class="b" d="M243.307,170.863a11.494,11.494,0,0,0,2.13-1.331.867.867,0,0,0,.266-1.2c-.133-.133-.532-.4-.8-.266a20.662,20.662,0,0,0-2.8.533c-.532.133-.532.532-.666.932a3.388,3.388,0,0,1-.266.932c-.8-.266-1.464-.533-2.13-.8-1.065-.266-1.2-.266-1.464,1.2-.133.532-.266.8-.8.666a1.864,1.864,0,0,0-1.464,0c-1.065.4-.533-.4-.533-.8-.266-.932-.666-.4-1.065-.133-.932.532-.932-.4-1.331-.8-.932-.932-1.464,1.065-2.4.4-.4-1.065-.666-2.13-1.065-3.195a1.528,1.528,0,0,0-1.731-1.065c-.133.266-.4.4-.532.666v.532a3.962,3.962,0,0,1-.666,2,1.8,1.8,0,0,0,0-2.13c-.266-.133-.4-.532-.666-.532-.533-.133-1.464-.133-1.731-.666a2.925,2.925,0,0,1-.133-1.864,4.232,4.232,0,0,1,.4-1.2c0-.266,0-.666-.266-.8-1.065-1.2-3.195-1.065-3.594.4-.4,1.331-1.2,1.331-2.13,1.2-.666.932-1.731,1.2-2.13,2a9.435,9.435,0,0,0,.532-2.263c.4-.8.8-1.464,1.2-2.263,1.065-2.13.932-4.26.666-6.523-.133-1.065-.666-1.331-2-1.464-.266,0-.666,0-.8-.4s.266-.532.532-.666c.932-.666.932-.666,0-1.2-.133-.133-.4-.133-.532-.266-1.464-1.065-1.464-1.065-2.663.133-.266.266-.533.533-.666.133a1.458,1.458,0,0,0-2.13-.533c-.8.4-.932,1.331-.932,2.263v2.929c0,.932-.133,2-1.331,2.263-1.065.266-1.464-.666-1.864-1.331-1.464-1.864-2.529-2-4.659-1.331-2,.666-3.861,1.864-6.124,1.065-.533-.266-1.065.266-1.2.8a4.781,4.781,0,0,1-2,2.8c-.4,1.6-.8,3.195-2.662,3.861h0a1.6,1.6,0,0,0-.666.666h0c-.4.4-.532.932-1.065,1.331a10.274,10.274,0,0,1-5.991.4c-.266-.133-.532,0-.8.266a1.33,1.33,0,0,1-1.464.532c-1.331.666-2.662,1.065-2.13,3.062.4,1.464-1.065.8-1.6,1.331-1.464,2.4.932,3.328,2,4.659,1.6,2,1.065,4.127.133,6.257h0a1.6,1.6,0,0,0-.666.666h0a1.6,1.6,0,0,0-.666.666h0a2.831,2.831,0,0,0-.932,2c.133.532.266.8.932.532.932-.666,1.464-1.864,2.662-2.263a1.675,1.675,0,0,0,1.2-2,1.8,1.8,0,0,1,1.2-2,3.882,3.882,0,0,1,3.594-.4c.533.266,1.2.532,1.731.8a3.027,3.027,0,0,0,2.4.4c.532-.266.932.266,1.2.666s.4,1.2.8,1.331a4.671,4.671,0,0,1,2.263,2.529,1.6,1.6,0,0,0,.666.666c1.331.533,1.731,1.864,2.263,2.929.8,1.731,1.331,3.594,2.929,4.792a1.009,1.009,0,0,1,.266.533c-.133,2,1.2,3.062,2.529,4.127a7.423,7.423,0,0,1,.666,1.065c.4.8.8,1.731,1.2,2.529.666,1.331,1.331,1.6,2.8,1.065a4.105,4.105,0,0,1,3.062-.266c.4.133.8.532.532.932-.666,1.2,0,1.731.932,2.13.666.266,1.331.532,1.331,1.2,0,1.331.8,1.6,1.864,1.464h5.059a2.92,2.92,0,0,0,2.263-.932c.533-.666,1.065-1.6,2.263-1.464a1.142,1.142,0,0,0,.932-.8c.533-1.065,2.263-1.2,2.529-2.4.133-.932-.932-1.464-1.464-2.263h0c.133-.133.133-.4.266-.4,1.331-.133,2.929.266,3.994-.4,1.065-.533,1.464-2.263,2.529-3.195a4.248,4.248,0,0,0,1.2-2.13c.4-1.331.932-2.529,1.331-3.861a9.585,9.585,0,0,1,2-3.594c-.666-1.731,1.2-2.263,1.731-3.328.266-.666.666-1.331.932-2-.4-.8.133-1.731-.4-2.529a.13.13,0,0,0-.133-.133c.266.4.533.932,1.2.8.666-.4.666-1.065.932-1.731a1.892,1.892,0,0,0,.266-.8,2.91,2.91,0,0,1,.4-.666,14.028,14.028,0,0,0,.932-1.464,3.136,3.136,0,0,0-.4-2.663C242.775,171.794,242.642,171.262,243.307,170.863ZM224.936,195.89c1.065,1.331.532,3.062,1.065,4.526C224.8,199.085,225.2,197.354,224.936,195.89Zm13.312-18.5c.266.266.8.532,1.065,1.065C239.047,178.051,238.515,177.785,238.249,177.386Z" transform="translate(-174.953 -149.712)"/></g><path d="M214.413,192.762a2.572,2.572,0,0,0-.587,1.957,3.986,3.986,0,0,0,1.37,1.175c.391,0,.783-.391,1.174-.587l.587-.587c.391-.391,1.762-.979,1.957-1.566a2.233,2.233,0,0,0-.587-1.175c-.392-.392-.783-.979-1.174-.979A6,6,0,0,0,214.413,192.762Z" transform="translate(67.732 58.411)"/><circle class="c" cx="2.447" cy="2.447" r="2.447" transform="translate(313.091 109.632)"/><circle class="c" cx="2.447" cy="2.447" r="2.447" transform="translate(388.971 104.307)"/><circle class="c" cx="2.447" cy="2.447" r="2.447" transform="translate(394.296 105.638)"/><circle class="c" cx="2.447" cy="2.447" r="2.447" transform="translate(313.091 238.761)"/><circle class="c" cx="2.447" cy="2.447" r="2.447" transform="translate(287.797 249.411)"/><circle class="c" cx="2.447" cy="2.447" r="2.447" transform="translate(282.472 248.079)"/><circle class="c" cx="2.447" cy="2.447" r="2.447" transform="translate(281.141 250.742)"/><circle class="c" cx="2.447" cy="2.447" r="2.447" transform="translate(290.46 228.111)"/><circle class="c" cx="2.447" cy="2.447" r="2.447" transform="translate(283.804 240.092)"/><circle class="c" cx="2.447" cy="2.447" r="2.447" transform="translate(276.482 240.758)"/><circle class="c" cx="2.447" cy="2.447" r="2.447" transform="translate(294.453 269.379)"/><circle class="c" cx="2.447" cy="2.447" r="2.447" transform="translate(329.065 176.193)"/><circle class="c" cx="2.447" cy="2.447" r="2.447" transform="translate(311.759 210.805)"/><circle class="c" cx="2.447" cy="2.447" r="2.447" transform="translate(286.466 198.824)"/><circle class="c" cx="2.447" cy="2.447" r="2.447" transform="translate(289.128 202.818)"/><circle class="c" cx="2.447" cy="2.447" r="2.447" transform="translate(333.059 184.18)"/><circle class="c" cx="2.447" cy="2.447" r="2.447" transform="translate(341.047 189.505)"/><circle class="c" cx="2.447" cy="2.447" r="2.447" transform="translate(333.059 201.486)"/><circle class="c" cx="2.447" cy="2.447" r="2.447" transform="translate(337.053 198.824)"/><g transform="translate(135.771 9.257)"><path class="b" d="M187.641,154l7.056,7.455s2.529,6.124,2.263,6.39-15.043,3.994-15.442,4.127-9.052,4.792-9.052,4.659-1.065-10.25-1.065-10.25l9.585-8.919Z" transform="translate(-82.075 36.898)"/><path class="b" d="M247.9,79.458l5.059.8-4.127,21.3s-57.11,41.4-57.376,41.4-19.835,1.6-19.835,1.6l-19.436-6.789-19.7-19.037-7.854-11.449L121.3,96.231l4.792-10.783,14.244-6.124,1.2-13.845-12.38-14.51-3.461-10.384L131.95,31.8H145L159.24,47.775l9.984,23.163,9.718,17.972L198.777,94.9l20.1-.266,13.445-7.987,5.857-10.384Z" transform="translate(-98.669 -3.578)"/><path class="b" d="M105.9,10.6l-1.6,1.464,2,2.929,7.055,5.458-.266,5.857L122.4,36.426l12.647,6.39,1.464-5.591L132.389,29.5l3.328-.4s.266-.8.133-.8c-.133-.133-1.6-.932-1.6-.932l-2.529-1.331-1.2-2.929-1.731-1.464-4.526,1.864a17.961,17.961,0,0,1-3.195-1.065c-.133-.266-3.727-4.127-3.727-4.127l-8.254-4.393Z" transform="translate(-104.3 -10.6)"/></g></g><g transform="translate(0 1014)"><text class="d" transform="translate(429 6375)"><tspan x="0" y="0">FIND A STORE</tspan><tspan x="0" y="86">NEAR YOU</tspan></text><g transform="translate(0 -7)"><rect class="b" width="200" height="50" transform="translate(434 6523)"/><text class="e" transform="translate(478 6554)"><tspan x="0" y="0">LOCATE STORE</tspan></text></g></g></g></svg>