<svg xmlns="http://www.w3.org/2000/svg" width="1920" height="471" viewBox="0 0 1920 471"><defs><style>.a{fill:#f5f5f5;}.b,.d{fill:#212529;font-family:Roboto-Bold, Roboto;font-weight:700;}.b{font-size:32px;}.c{fill:#999;font-size:14px;font-family:Roboto-Italic, Roboto;font-style:italic;}.d{font-size:16px;}.e{fill:#4a535d;}.f{fill:#ccc;}.g{fill:#d1271a;}</style></defs><g transform="translate(0 -5123)"><rect class="a" width="1920" height="471" transform="translate(0 5123)"/><g transform="translate(0 2365)"><text class="b" transform="translate(960 2888)"><tspan x="-364.438" y="0">People love our services. What they said about us?</tspan></text><text class="c" transform="translate(678 2973)"><tspan x="5.623" y="13">Excellent experience and a very warm welcome. We have spent a lot of time on researching </tspan><tspan x="65.113" y="39">car rentals, and glad that we will not need to do it again on our next trip.</tspan></text><text class="d" transform="translate(1156 3064)"><tspan x="-85.773" y="0">Boris Ablamunits, Izrael</tspan></text><g transform="translate(-26 -230.5)"><path class="e" d="M902.363,2825.5l2.367,6.139,6.57.354-5.107,4.149,1.693,6.358-5.524-3.575-5.524,3.575,1.693-6.358-5.107-4.149,6.57-.354Z" transform="translate(41.574 331)"/><path class="e" d="M902.363,2825.5l2.367,6.139,6.57.354-5.107,4.149,1.693,6.358-5.524-3.575-5.524,3.575,1.693-6.358-5.107-4.149,6.57-.354Z" transform="translate(62.574 331)"/><path class="e" d="M902.363,2825.5l2.367,6.139,6.57.354-5.107,4.149,1.693,6.358-5.524-3.575-5.524,3.575,1.693-6.358-5.107-4.149,6.57-.354Z" transform="translate(83.574 331)"/><path class="e" d="M902.363,2825.5l2.367,6.139,6.57.354-5.107,4.149,1.693,6.358-5.524-3.575-5.524,3.575,1.693-6.358-5.107-4.149,6.57-.354Z" transform="translate(125.574 331)"/><path class="e" d="M902.363,2825.5l2.367,6.139,6.57.354-5.107,4.149,1.693,6.358-5.524-3.575-5.524,3.575,1.693-6.358-5.107-4.149,6.57-.354Z" transform="translate(104.574 331)"/></g><g transform="translate(0 -42)"><circle class="f" cx="5" cy="5" r="5" transform="translate(955 3161)"/><circle class="g" cx="5" cy="5" r="5" transform="translate(935 3161)"/><circle class="f" cx="5" cy="5" r="5" transform="translate(975 3161)"/></g></g></g></svg>