<svg xmlns="http://www.w3.org/2000/svg" width="243.2" height="54.3" viewBox="0 0 243.2 54.3"><defs><style>.a{fill:#fff;}</style></defs><g transform="translate(-140 -69)"><rect class="a" width="40" height="6" transform="translate(343.2 106)"/><path class="a" d="M77.1,10V42h-11V38.6a9.744,9.744,0,0,1-4.1,3,13.366,13.366,0,0,1-5.2,1c-4.2,0-7.5-1.2-10-3.7s-3.7-6.2-3.7-11.2V10h11V25.9a7.794,7.794,0,0,0,1.6,5.3,5.06,5.06,0,0,0,4.1,1.7A5.684,5.684,0,0,0,64.3,31a8.728,8.728,0,0,0,1.8-5.8V10Z" transform="translate(132.1 69)"/><path class="a" d="M112.5,12.7c2.5,2.4,3.6,6,3.6,10.9V42h-11V25.4c0-4.4-1.9-6.7-5.4-6.7a6.184,6.184,0,0,0-4.8,1.9c-1.2,1.3-1.8,3.2-1.8,5.8V42h-11V10h10v3.1c2-1.3,3-2.3,4.8-3A15.754,15.754,0,0,1,102.7,9,14.12,14.12,0,0,1,112.5,12.7Z" transform="translate(132.1 69)"/><path class="a" d="M156.1,10V36.2c0,6-1.7,10.6-5,13.6s-8,4.5-14.2,4.5a36.979,36.979,0,0,1-9-1.1,21.6,21.6,0,0,1-7.2-3.2l4.1-8a15.694,15.694,0,0,0,5,2.6,20.788,20.788,0,0,0,6,.9c3,0,5-.7,6.4-2s1.9-3.3,1.9-5.9V36.5c-2,2.6-5.2,3.8-9.5,3.8a16.465,16.465,0,0,1-7.9-1.9,15.289,15.289,0,0,1-5.8-5.5,16,16,0,0,1-2.1-8.3,15.035,15.035,0,0,1,2.2-8.2,14.607,14.607,0,0,1,5.8-5.5,16.651,16.651,0,0,1,8-2c4.6,0,8.2,1.5,10.2,4.5V10ZM142.6,29.5a6.254,6.254,0,0,0,2-4.8,6.408,6.408,0,0,0-2-4.8,8.125,8.125,0,0,0-10.2,0,6.254,6.254,0,0,0-2,4.8,6.254,6.254,0,0,0,2,4.8,7.649,7.649,0,0,0,5.1,1.9A6.864,6.864,0,0,0,142.6,29.5Z" transform="translate(132.1 69)"/><path class="a" d="M167.1,40.5a15.962,15.962,0,0,1-6.6-6,16.269,16.269,0,0,1-2.4-8.7,15.685,15.685,0,0,1,2.4-8.6,17.071,17.071,0,0,1,6.5-6,20.755,20.755,0,0,1,9.5-2.1,21.052,21.052,0,0,1,9.5,2.1,15.526,15.526,0,0,1,6.5,5.9,15.728,15.728,0,0,1,2.3,8.7,17.13,17.13,0,0,1-2.3,8.7,15.7,15.7,0,0,1-6.5,6,21.4,21.4,0,0,1-18.9,0Zm14.4-9a8.024,8.024,0,0,0,1.9-5.7,7.611,7.611,0,0,0-1.9-5.6,6.273,6.273,0,0,0-4.9-2,6.632,6.632,0,0,0-4.9,2,7.769,7.769,0,0,0-1.9,5.6,8.024,8.024,0,0,0,1.9,5.7,6.355,6.355,0,0,0,4.9,2.1A6.505,6.505,0,0,0,181.5,31.5Z" transform="translate(132.1 69)"/><path class="a" d="M27.1,0V27.4A7.017,7.017,0,0,1,25.7,32a5.258,5.258,0,0,1-4,1.6c-2.6,0-5-1.5-7.3-4.4L7.9,36.9a16.01,16.01,0,0,0,6.2,4.6,20.634,20.634,0,0,0,8.4,1.6c5.3,0,9.6-1.4,12.3-4.1s4.3-6.8,4.3-12.2V0Z" transform="translate(132.1 69)"/></g></svg>