<svg xmlns="http://www.w3.org/2000/svg" width="250" height="55.818" viewBox="0 0 250 55.818"><defs><style>.a{fill:#55efc4;}</style></defs><g transform="translate(-140 -69)"><rect class="a" width="41.118" height="6.168" transform="translate(348.882 107.035)"/><path class="a" d="M78.051,10V42.895H66.743V39.4a10.017,10.017,0,0,1-4.215,3.084,13.739,13.739,0,0,1-5.345,1.028c-4.317,0-7.71-1.234-10.28-3.8s-3.8-6.373-3.8-11.513V10H54.408V26.345a8.012,8.012,0,0,0,1.645,5.448,5.2,5.2,0,0,0,4.215,1.748,5.843,5.843,0,0,0,4.626-1.953,8.972,8.972,0,0,0,1.85-5.962V10Z" transform="translate(133.084 69.28)"/><path class="a" d="M113.35,12.8c2.57,2.467,3.7,6.168,3.7,11.2V42.923H105.743V25.859c0-4.523-1.953-6.887-5.551-6.887a6.356,6.356,0,0,0-4.934,1.953c-1.234,1.336-1.85,3.289-1.85,5.962V42.923H82.1V10.028H92.38v3.187c2.056-1.336,3.084-2.364,4.934-3.084A16.2,16.2,0,0,1,103.276,9,14.515,14.515,0,0,1,113.35,12.8Z" transform="translate(134.175 69.252)"/><path class="a" d="M157.143,10.031V36.963c0,6.168-1.748,10.9-5.14,13.98s-8.224,4.626-14.6,4.626a38.013,38.013,0,0,1-9.252-1.131,22.2,22.2,0,0,1-7.4-3.289l4.215-8.224a16.132,16.132,0,0,0,5.14,2.673,21.369,21.369,0,0,0,6.168.925c3.084,0,5.14-.72,6.579-2.056s1.953-3.392,1.953-6.065V37.272c-2.056,2.673-5.345,3.906-9.766,3.906a16.925,16.925,0,0,1-8.121-1.953,15.716,15.716,0,0,1-5.962-5.654,16.445,16.445,0,0,1-2.159-8.532,15.456,15.456,0,0,1,2.262-8.429,15.016,15.016,0,0,1,5.962-5.654A17.117,17.117,0,0,1,135.247,8.9c4.729,0,8.429,1.542,10.485,4.626v-3.5ZM143.265,30.076a6.429,6.429,0,0,0,2.056-4.934,6.587,6.587,0,0,0-2.056-4.934,8.352,8.352,0,0,0-10.485,0,6.429,6.429,0,0,0-2.056,4.934,6.429,6.429,0,0,0,2.056,4.934,7.863,7.863,0,0,0,5.243,1.953A7.056,7.056,0,0,0,143.265,30.076Z" transform="translate(135.201 69.249)"/><path class="a" d="M167.352,41.378a16.409,16.409,0,0,1-6.785-6.168,16.724,16.724,0,0,1-2.467-8.943,16.124,16.124,0,0,1,2.467-8.84,17.549,17.549,0,0,1,6.682-6.168A21.335,21.335,0,0,1,177.014,9.1a21.641,21.641,0,0,1,9.766,2.159,15.96,15.96,0,0,1,6.682,6.065,16.168,16.168,0,0,1,2.364,8.943,17.609,17.609,0,0,1-2.364,8.943,16.139,16.139,0,0,1-6.682,6.168,21.994,21.994,0,0,1-19.428,0Zm14.8-9.252a8.248,8.248,0,0,0,1.953-5.859,7.824,7.824,0,0,0-1.953-5.757,6.449,6.449,0,0,0-5.037-2.056,6.817,6.817,0,0,0-5.037,2.056,7.986,7.986,0,0,0-1.953,5.757,8.248,8.248,0,0,0,1.953,5.859,6.532,6.532,0,0,0,5.037,2.159A6.687,6.687,0,0,0,182.154,32.126Z" transform="translate(136.3 69.254)"/><path class="a" d="M27.637,0V28.166A7.213,7.213,0,0,1,26.2,32.895a5.405,5.405,0,0,1-4.112,1.645c-2.673,0-5.14-1.542-7.5-4.523L7.9,37.932a16.458,16.458,0,0,0,6.373,4.729,21.211,21.211,0,0,0,8.635,1.645c5.448,0,9.868-1.439,12.644-4.215s4.42-6.99,4.42-12.541V0Z" transform="translate(132.1 69)"/></g></svg>