<svg xmlns="http://www.w3.org/2000/svg" width="93.367" height="57.859" viewBox="0 0 93.367 57.859"><defs><style>.a{fill:#707070;}</style></defs><g transform="translate(-553 -3935)"><g transform="translate(553 3935)"><path class="a" d="M16.01,13.791A12.564,12.564,0,0,0,12.959.4l-.4-.4H38.084L59.127,57.82h-17L38,46.525H22.866a2.466,2.466,0,0,0-2.3,1.664L17,57.859H0ZM33.844,35.35c-1.664-4.478-2.655-7.53-4.28-11.968-1.664,4.478-2.734,7.53-4.28,11.968Z"/></g><path class="a" d="M111.1,0l3.25,9h46.089V0Z" transform="translate(485.929 3935)"/><path class="a" d="M155.9,123.2l3.289,9h28.3v-9Z" transform="translate(458.883 3860.624)"/><path class="a" d="M140.6,81.2l3.289,9h34.359v-9Z" transform="translate(468.119 3885.979)"/><path class="a" d="M88.5,60.149h.832c-.119-.4-.238-.753-.4-1.149C88.777,59.4,88.659,59.753,88.5,60.149Z" transform="translate(499.572 3899.381)"/><path class="a" d="M125.3,39.2l3.289,9h40.422v-9Z" transform="translate(477.356 3911.335)"/></g></svg>