<svg xmlns="http://www.w3.org/2000/svg" xmlns:xlink="http://www.w3.org/1999/xlink" width="115.093" height="115.093" viewBox="0 0 115.093 115.093"><defs><style>.a{fill:#707070;}.b{clip-path:url(#a);}.c{fill:#f5f5f5;}</style><clipPath id="a"><rect width="115.093" height="115.093"/></clipPath></defs><g transform="translate(-195.5 -3670.5)"><rect class="a" width="115.093" height="115.093" transform="translate(195.5 3670.5)"/><g transform="translate(195.5 3670.5)"><g class="b"><path class="c" d="M68.89,204.914a2.552,2.552,0,0,0-2.624,2.486v10.22a2.552,2.552,0,0,0,2.624,2.486h1.8a2.5,2.5,0,0,0,2.578-2.486v-1.611a.322.322,0,0,0-.368-.345h-3.43c-.253,0-.368-.115-.368-.345v-2.923c0-.23.115-.345.368-.345h7.6c.253,0,.368.115.368.345v5.248c0,3.66-2.693,6.123-6.767,6.123h-1.8c-4.12,0-6.767-2.463-6.767-6.123v-10.22c0-3.66,2.693-6.1,6.767-6.1h1.8c4.074,0,6.767,2.44,6.767,6.1l-.023,1.772c0,.276-.115.368-.391.368H73.632c-.276,0-.391-.115-.391-.368v-1.772a2.483,2.483,0,0,0-2.578-2.486H68.89Zm75.133,2.831a2.582,2.582,0,0,0-2.624-2.486h-4.005c-.253,0-.368.115-.368.345v4.6c0,.253.115.345.368.345H141.4a2.567,2.567,0,0,0,2.624-2.486Zm4.558,15.353c0,.161-.115.276-.368.276H144.46c-.115,0-.23-.069-.322-.253l-3.2-8.77-.3-.207h-3.246c-.253,0-.368.115-.368.345v8.517c0,.253-.115.345-.368.345H133.2c-.253,0-.368-.115-.368-.345V201.945c0-.23.115-.345.368-.345H141.4c4.143,0,6.767,2.486,6.767,6.422v.345a5.354,5.354,0,0,1-1.611,3.683c-.645.6-1.5,1.013-1.5,1.312v.023l3.453,9.484a.5.5,0,0,1,.069.23m-18.369.276h-3.453c-.253,0-.368-.115-.368-.345V201.968c0-.23.115-.345.368-.345h3.453c.23,0,.368.092.368.345V223.03c0,.253-.115.345-.368.345M114.789,207.4c0,1.611,1.68,2.095,4.212,3.2,3.89,1.68,5.709,3.591,5.709,7,0,3.66-2.647,6.123-6.767,6.123h-1.45a6.384,6.384,0,0,1-4.719-1.634,5.178,5.178,0,0,1-1.68-2.509.342.342,0,0,1,.207-.253l3.177-1.5a.507.507,0,0,1,.184-.023c.253,0,.322.345.691,1.036a2.6,2.6,0,0,0,2.141,1.243h1.45a2.567,2.567,0,0,0,2.624-2.486c0-1.726-1.519-2.348-3.89-3.407-4.005-1.818-6.031-3.384-6.031-6.79,0-3.66,2.693-6.1,6.767-6.1h.552a7.023,7.023,0,0,1,4.143,1.128,5.783,5.783,0,0,1,2.325,2.946c0,.138-.069.207-.207.276l-3.177,1.473a.572.572,0,0,1-.184.023c-.184,0-.253-.207-.483-.506-.691-1.1-1.312-1.726-2.44-1.726h-.552a2.546,2.546,0,0,0-2.6,2.486m-10.013,6.077v9.553c0,.253-.115.345-.368.345h-3.453c-.253,0-.368-.115-.368-.345v-9.553l-6.353-11.325a.61.61,0,0,1-.069-.23c0-.184.138-.276.391-.276h4.028l.322.207,3.453,6.767a.373.373,0,0,0,.322.253.35.35,0,0,0,.322-.253l3.453-6.767.322-.207h4.005c.253,0,.391.092.391.276a1.241,1.241,0,0,1-.069.23Zm-11.9,9.9H80.031c-.253,0-.368-.115-.368-.345V201.968c0-.23.115-.345.368-.345H92.876c.207,0,.368.092.368.345v2.946c0,.253-.115.345-.368.345H84.221c-.253,0-.368.115-.368.345v4.6c0,.253.115.345.368.345h7.09c.253,0,.368.115.368.345v2.923c0,.253-.115.345-.368.345h-7.09c-.253,0-.368.115-.368.345v4.9c0,.253.115.345.368.345h8.655a.332.332,0,0,1,.368.345v2.923c-.023.253-.115.345-.368.345" transform="translate(-47.805 -154.964)"/></g></g></g></svg>