<svg xmlns="http://www.w3.org/2000/svg" width="166.205" height="44.4" viewBox="0 0 166.205 44.4"><defs><style>.a{fill:#707070;}.b{fill:#f5f5f5;}</style></defs><g transform="translate(-1543 -3941)"><rect class="a" width="166.205" height="33.146" transform="translate(1543 3941)"/><path class="b" d="M20.954,29.7l7.076-18.9H39.379L36.15,20.25h7.788l3.941-9.45H59.133l-9.5,25.168H37.859l3.609-9.07H33.49l-3.467,9.07H19.007A2.705,2.705,0,0,1,16.3,33.261V29.7h4.654Z" transform="translate(1534.44 3935.329)"/><path class="b" d="M183.942,10.268a34.1,34.1,0,0,1,11.872,1.045,1.057,1.057,0,0,1,.712,1.282l-1.662,5.888a.34.34,0,0,1-.57.142,8.77,8.77,0,0,0-7.36-2.707,1.684,1.684,0,0,0-1.187.665c-.57.76-.522,2.232,5.319,3.941,3.846,1.14,5.271,3.419,5.7,5.6a7.624,7.624,0,0,1-3.941,7.93,16.056,16.056,0,0,1-6.221,1.9,25.065,25.065,0,0,1-9.212-.617,10,10,0,0,1-2.422-.9.965.965,0,0,1-.475-.95l.475-6.933a.339.339,0,0,1,.57-.237c1.33,1.14,4.986,3.846,7.74,2.754a1.116,1.116,0,0,0,.57-1.662c-.427-.712-1.615-1.567-4.321-2.564a4.927,4.927,0,0,1-.475-.19A7.038,7.038,0,0,1,177.959,12.4a12.32,12.32,0,0,1,1.567-.9A11.194,11.194,0,0,1,183.942,10.268Z" transform="translate(1451.373 3935.671)"/><path class="b" d="M234.942,10.268a34.1,34.1,0,0,1,11.872,1.045,1.057,1.057,0,0,1,.712,1.282l-1.662,5.888a.34.34,0,0,1-.57.142,8.77,8.77,0,0,0-7.361-2.707,1.684,1.684,0,0,0-1.187.665c-.57.76-.522,2.232,5.319,3.941,3.846,1.14,5.271,3.419,5.7,5.6a7.624,7.624,0,0,1-3.941,7.93,16.056,16.056,0,0,1-6.221,1.9,25.065,25.065,0,0,1-9.212-.617,10,10,0,0,1-2.422-.9.965.965,0,0,1-.475-.95l.475-6.933a.339.339,0,0,1,.57-.237c1.33,1.14,4.986,3.846,7.74,2.754a1.116,1.116,0,0,0,.57-1.662c-.427-.712-1.615-1.567-4.321-2.564a4.922,4.922,0,0,1-.475-.19A7.038,7.038,0,0,1,228.959,12.4a12.319,12.319,0,0,1,1.567-.9A10.767,10.767,0,0,1,234.942,10.268Z" transform="translate(1424.591 3935.671)"/><path class="b" d="M122.313,10.8H106.69L99.282,29.652H96.1v3.609a2.705,2.705,0,0,0,2.707,2.707h9.687l2.374-5.461h7.266l2.564,5.461h11.207Zm-9.925,14.294,2.184-4.891,2.184,4.891Z" transform="translate(1492.535 3935.329)"/><path class="b" d="M299.768,10.8h-16.81a1.507,1.507,0,0,0-1.33.9l-6.411,17.9a10.3,10.3,0,0,0-.617,3.609,2.533,2.533,0,0,0,2.517,2.517h21.132a2.635,2.635,0,0,0,2.612-2.612V11.845A1.13,1.13,0,0,0,299.768,10.8Zm-7.123,18.33a1.156,1.156,0,0,1-1.14,1.14h-3.751a1.24,1.24,0,0,1-1.187-1.615l3.609-11.872a1.332,1.332,0,0,1,1.045-.95,1.3,1.3,0,0,1,1.472,1.282V29.13Z" transform="translate(1398.799 3935.329)"/><rect class="a" width="166.205" height="10.305" transform="translate(1543 3975.096)"/><g transform="translate(1576.858 3976.71)"><path class="b" d="M72.725,75.847c.095,0,.57,0,1.33-.047v.047a.174.174,0,0,1-.047.142.166.166,0,0,1-.047.095,1.468,1.468,0,0,0-.38.095c-.142.047-.237.142-.237.237a.286.286,0,0,0,.047.19l.712,1.757c.047-.047.142-.19.38-.427a5.716,5.716,0,0,1,.475-.522,3.072,3.072,0,0,1,.38-.427c.142-.19.285-.332.332-.427l.095-.19c0-.047-.047-.142-.19-.142a1.315,1.315,0,0,0-.427-.047v-.095a.363.363,0,0,1,.095-.237c.665.047,1,.047,1.045.047.095,0,.475,0,1.187-.047v.095c0,.142-.047.19-.095.19a2.409,2.409,0,0,0-.427.095.918.918,0,0,0-.427.237c-.142.142-.57.617-1.282,1.377-.712.807-1.045,1.235-1.092,1.282L73.817,80.5a6.062,6.062,0,0,0-.095.807c0,.047.095.095.237.142a1.868,1.868,0,0,0,.285.095.066.066,0,0,1,0,.095c0,.095-.047.142-.047.19a3.2,3.2,0,0,1-.475-.047,4.384,4.384,0,0,0-.712-.047,4.1,4.1,0,0,0-.712.047,3.974,3.974,0,0,0-.57.047v-.095c0-.142.047-.19.095-.19a.718.718,0,0,0,.38-.095q.285-.071.285-.142a1.769,1.769,0,0,0,.237-.76l.332-1.377a3,3,0,0,0-.19-.617c-.142-.38-.285-.712-.427-1.092l-.19-.522a1.059,1.059,0,0,0-.38-.617.4.4,0,0,0-.285-.095.6.6,0,0,0-.285-.047v-.047a.363.363,0,0,1,.095-.237,3.956,3.956,0,0,1,.57.047A2.51,2.51,0,0,1,72.725,75.847Z" transform="translate(-71.3 -75.515)"/><path class="b" d="M84.122,79.9a1.4,1.4,0,0,1,1.045.38,1.457,1.457,0,0,1,.332,1.045,2.3,2.3,0,0,1-.332,1.235,3.591,3.591,0,0,1-.9,1,2.173,2.173,0,0,1-1.14.38,1.519,1.519,0,0,1-1.092-.38,1.385,1.385,0,0,1-.332-1.045,2.417,2.417,0,0,1,.332-1.235,2.628,2.628,0,0,1,.9-1A2.328,2.328,0,0,1,84.122,79.9Zm-.142.427a.809.809,0,0,0-.617.38,4.025,4.025,0,0,0-.475.9,4.431,4.431,0,0,0-.19,1.045,1.188,1.188,0,0,0,.142.617.484.484,0,0,0,.38.237.809.809,0,0,0,.617-.38,2.9,2.9,0,0,0,.427-.95,3.884,3.884,0,0,0,.142-1,1.078,1.078,0,0,0-.142-.617C84.264,80.422,84.169,80.327,83.979,80.327Z" transform="translate(-76.761 -77.668)"/><path class="b" d="M91.972,79.9a.487.487,0,0,1,.475.475,2.384,2.384,0,0,1-.095.57l-.285,1.282a4.234,4.234,0,0,0-.095.522c0,.237.095.38.237.38.095,0,.285-.142.522-.38a7.422,7.422,0,0,0,.665-.9,6.071,6.071,0,0,0,.427-1.045l.19-.807a1.323,1.323,0,0,1,.475-.047,1.464,1.464,0,0,1,.475.047l-.617,2.849v.237c0,.142.047.237.095.237a.734.734,0,0,0,.285-.142c.095-.095.237-.142.285-.237q.142-.071.142-.142l.095.095c.047.047.095.095.095.142a2.151,2.151,0,0,1-.665.57,1.929,1.929,0,0,1-.9.38.431.431,0,0,1-.332-.142.467.467,0,0,1-.142-.38,4.233,4.233,0,0,1,.095-.522v-.095a.359.359,0,0,1,.047-.19c0-.095.047-.19.047-.285q-.142.214-.427.57a8.776,8.776,0,0,1-.665.665,1.247,1.247,0,0,1-.665.332c-.475,0-.712-.237-.712-.76a4.572,4.572,0,0,1,.142-.95l.237-1.092a.6.6,0,0,0,.047-.285c0-.142-.047-.237-.095-.237-.095,0-.19.047-.332.19a2.065,2.065,0,0,0-.332.285l-.095-.095c-.047-.047-.095-.095-.095-.142a2.479,2.479,0,0,1,.617-.57A1.634,1.634,0,0,1,91.972,79.9Z" transform="translate(-81.382 -77.668)"/><path class="b" d="M102.52,79.9a.487.487,0,0,1,.475.475,1.616,1.616,0,0,1-.047.475l-.142.57a3.91,3.91,0,0,1,.76-1.045,1.3,1.3,0,0,1,.9-.475.692.692,0,0,1,.617.332c0,.475-.19.76-.522.76a.41.41,0,0,1-.285-.142.41.41,0,0,0-.285-.142c-.095,0-.285.142-.522.38a3.649,3.649,0,0,0-.617.95,6.071,6.071,0,0,0-.427,1.045l-.19.855a1.616,1.616,0,0,1-.475.047,1.464,1.464,0,0,1-.475-.047l.617-2.8a1.679,1.679,0,0,1,.047-.285c0-.142-.047-.237-.095-.237-.095,0-.19.047-.332.19a2.065,2.065,0,0,0-.332.285l-.095-.095c-.048-.047-.095-.095-.095-.142a2.48,2.48,0,0,1,.617-.57A1.928,1.928,0,0,1,102.52,79.9Z" transform="translate(-86.896 -77.668)"/><path class="b" d="M116.841,75.7a8.42,8.42,0,0,1,2.184.332c0,.047-.047.237-.095.617s-.095.57-.095.617c0,.095-.095.142-.237.142a.174.174,0,0,1-.142-.047c0-.095-.047-.237-.047-.332a2.8,2.8,0,0,0-.19-.38,1.15,1.15,0,0,0-.522-.38,2.394,2.394,0,0,0-.9-.142,2.3,2.3,0,0,0-1.852,1,3.611,3.611,0,0,0-.807,2.279,1.949,1.949,0,0,0,.475,1.377,1.787,1.787,0,0,0,1.33.522,3.172,3.172,0,0,0,1.425-.285,1.28,1.28,0,0,0,.38-.332c.095-.142.19-.237.237-.332a.588.588,0,0,1,.095-.142.174.174,0,0,1,.142.047l.095.095a2,2,0,0,0-.095.237c-.047.142-.142.285-.19.427a.508.508,0,0,1-.142.237,1.478,1.478,0,0,1-.855.285,5.835,5.835,0,0,1-1.282.095,3.014,3.014,0,0,1-2.089-.712,2.207,2.207,0,0,1-.76-1.71,2.951,2.951,0,0,1,.57-1.71,4.557,4.557,0,0,1,1.472-1.377A4.435,4.435,0,0,1,116.841,75.7Z" transform="translate(-93.145 -75.463)"/><path class="b" d="M128.882,79.9a2.3,2.3,0,0,1,.855.142l-.617,2.754a2.057,2.057,0,0,0-.047.237c0,.142.047.237.095.237a.734.734,0,0,0,.285-.142c.095-.095.237-.142.285-.237q.142-.071.142-.142l.095.095c.047.047.095.095.095.142a2.151,2.151,0,0,1-.665.57,1.928,1.928,0,0,1-.9.38.487.487,0,0,1-.475-.475.835.835,0,0,1,.047-.285c0-.095.047-.142.047-.19a1.259,1.259,0,0,1-.237.285l-.285.285a2.634,2.634,0,0,1-.38.285,1.387,1.387,0,0,1-.427.095,1.014,1.014,0,0,1-.807-.38,1.369,1.369,0,0,1-.285-.9,2.3,2.3,0,0,1,.427-1.282,3.2,3.2,0,0,1,1.187-1.045A3.391,3.391,0,0,1,128.882,79.9Zm-.522.522a1.356,1.356,0,0,0-1.092.76,2.686,2.686,0,0,0-.475,1.472q0,.712.427.712c.237,0,.475-.237.76-.665a3.644,3.644,0,0,0,.57-1.33l.19-.855C128.692,80.422,128.549,80.422,128.359,80.422Z" transform="translate(-99.867 -77.668)"/><path class="b" d="M137.12,79.9a.487.487,0,0,1,.475.475,1.616,1.616,0,0,1-.047.475l-.142.57a3.91,3.91,0,0,1,.76-1.045,1.3,1.3,0,0,1,.9-.475.692.692,0,0,1,.617.332c0,.475-.19.76-.522.76a.41.41,0,0,1-.285-.142.41.41,0,0,0-.285-.142c-.095,0-.285.142-.522.38a3.65,3.65,0,0,0-.617.95,6.07,6.07,0,0,0-.427,1.045l-.19.855a1.616,1.616,0,0,1-.475.047,1.464,1.464,0,0,1-.475-.047l.617-2.8a1.679,1.679,0,0,1,.047-.285c0-.142-.047-.237-.095-.237-.095,0-.19.047-.332.19a2.065,2.065,0,0,0-.332.285l-.095-.095c-.047-.047-.095-.095-.095-.142a2.479,2.479,0,0,1,.617-.57A1.929,1.929,0,0,1,137.12,79.9Z" transform="translate(-105.066 -77.668)"/><path class="b" d="M149.212,75.795h1.33a4.679,4.679,0,0,1,.807.095,1.788,1.788,0,0,1,.712.427.945.945,0,0,1,.332.76,1.517,1.517,0,0,1-.475,1.092,2.445,2.445,0,0,1-1,.665c-.047,0-.047.047-.047.095a5.725,5.725,0,0,0,1.282,2.042,1.706,1.706,0,0,0,.475.332,1.062,1.062,0,0,0,.475.142.675.675,0,0,1-.095.285h-.475a1.77,1.77,0,0,1-1.187-.332,4.18,4.18,0,0,1-.9-1.045l-.665-1.235c-.047-.095-.237-.142-.522-.142h-.19c-.048,0-.048,0-.095.047-.048,0-.048.047-.048.095l-.285,1.33a6.5,6.5,0,0,0-.095.76c0,.047.095.142.237.19a1.208,1.208,0,0,0,.332.095v.047c0,.095-.047.142-.095.237a2.088,2.088,0,0,1-.427-.047,2.921,2.921,0,0,0-.617-.047H146.6v-.095c0-.047,0-.047.047-.095a.047.047,0,0,1,.047-.047,1.18,1.18,0,0,0,.38-.047.773.773,0,0,0,.285-.142,4.473,4.473,0,0,0,.237-.807l.807-3.609a2.383,2.383,0,0,0,.095-.57c0-.095-.048-.142-.19-.19a1.208,1.208,0,0,0-.332-.095v-.047a.363.363,0,0,1,.095-.237C148.737,75.747,149.117,75.795,149.212,75.795Zm1.092.38a1.638,1.638,0,0,0-.57.047.371.371,0,0,0-.19.19l-.427,1.9h0c0,.142.237.237.76.237a1.148,1.148,0,0,0,.9-.475,1.469,1.469,0,0,0,.38-1.092.82.82,0,0,0-.237-.617C150.826,76.222,150.589,76.175,150.3,76.175Z" transform="translate(-110.842 -75.463)"/><path class="b" d="M163.374,79.9a1.358,1.358,0,0,1,.807.237.656.656,0,0,1,.285.522.991.991,0,0,1-.475.807,3.22,3.22,0,0,1-1.045.57,2.548,2.548,0,0,1-.9.19c-.047,0-.047.047-.047.19,0,.57.237.855.665.855a.916.916,0,0,0,.475-.142,1.315,1.315,0,0,0,.38-.237.656.656,0,0,0,.19-.142l.095.095c.047.047.095.095.095.142a2.48,2.48,0,0,1-.617.57,1.645,1.645,0,0,1-.95.332,1.36,1.36,0,0,1-1-.38A1.457,1.457,0,0,1,161,82.464a2.256,2.256,0,0,1,.332-1.187,3.033,3.033,0,0,1,.9-1A2.173,2.173,0,0,1,163.374,79.9Zm-.095.427a1.064,1.064,0,0,0-.76.522,1.535,1.535,0,0,0-.38.95c0,.047,0,.047.047.047a1.425,1.425,0,0,0,.9-.427,1.058,1.058,0,0,0,.475-.807.428.428,0,0,0-.047-.237A2.057,2.057,0,0,1,163.279,80.327Z" transform="translate(-118.404 -77.668)"/><path class="b" d="M170.472,79.9a.487.487,0,0,1,.475.475,4.234,4.234,0,0,1-.095.522v.095a.359.359,0,0,1-.047.19c0,.095-.047.19-.047.285a4.28,4.28,0,0,1,.807-.95,1.563,1.563,0,0,1,1-.57c.475,0,.712.285.712.807a4.573,4.573,0,0,1-.142.95l-.285,1.14a2.057,2.057,0,0,0-.047.237c0,.142.047.237.095.237a.734.734,0,0,0,.285-.142c.095-.095.237-.142.285-.237q.142-.071.142-.142l.095.095a.174.174,0,0,1,.048.142,2.151,2.151,0,0,1-.665.57,1.758,1.758,0,0,1-.9.38.431.431,0,0,1-.332-.142.467.467,0,0,1-.142-.38,4.579,4.579,0,0,1,.095-.57l.285-1.282a4.234,4.234,0,0,0,.095-.522c0-.237-.095-.38-.237-.38s-.285.142-.522.38a7.424,7.424,0,0,0-.665.9,2.7,2.7,0,0,0-.427,1.045l-.19.807a1.054,1.054,0,0,1-.427.047,1.464,1.464,0,0,1-.475-.047l.617-2.8a.836.836,0,0,0,.047-.285c0-.142-.047-.237-.095-.237-.095,0-.19.047-.332.19a2.065,2.065,0,0,0-.332.285l-.095-.095a.174.174,0,0,1-.047-.142,2.48,2.48,0,0,1,.617-.57A2.562,2.562,0,0,1,170.472,79.9Z" transform="translate(-122.605 -77.668)"/><path class="b" d="M180.945,78.095c0-.095.237-.095.712-.095h.237l-.237,1.092h.95c.047,0,.095.047.095.142a.881.881,0,0,1-.095.332h-1l-.522,2.327a2.056,2.056,0,0,0-.048.237c0,.142.048.237.095.237a.734.734,0,0,0,.285-.142c.095-.095.19-.142.285-.237q.142-.071.142-.142l.095.095c.048.047.095.095.095.142a2.151,2.151,0,0,1-.665.57,1.929,1.929,0,0,1-.9.38.431.431,0,0,1-.332-.142.467.467,0,0,1-.142-.38,3.506,3.506,0,0,1,.095-.57l.522-2.374h-.665a.166.166,0,0,1-.047-.095.285.285,0,0,1,.047-.19c.047-.095.047-.142.095-.142h.665Z" transform="translate(-128.329 -76.67)"/><path class="b" d="M188.382,79.9a2.3,2.3,0,0,1,.855.142l-.617,2.754a2.057,2.057,0,0,0-.047.237c0,.142.047.237.095.237a.734.734,0,0,0,.285-.142c.095-.095.19-.142.285-.237q.142-.071.142-.142l.095.095c.047.047.095.095.095.142a2.151,2.151,0,0,1-.665.57,1.929,1.929,0,0,1-.9.38.487.487,0,0,1-.475-.475.835.835,0,0,1,.048-.285c0-.095.047-.142.047-.19a1.259,1.259,0,0,1-.237.285l-.285.285a2.633,2.633,0,0,1-.38.285,1.387,1.387,0,0,1-.427.095,1.014,1.014,0,0,1-.807-.38,1.369,1.369,0,0,1-.285-.9,2.3,2.3,0,0,1,.427-1.282,3.2,3.2,0,0,1,1.187-1.045A3.247,3.247,0,0,1,188.382,79.9Zm-.522.522a1.356,1.356,0,0,0-1.092.76,2.686,2.686,0,0,0-.475,1.472q0,.712.427.712c.237,0,.475-.237.76-.665a3.644,3.644,0,0,0,.57-1.33l.19-.855C188.144,80.422,188.049,80.422,187.859,80.422Z" transform="translate(-131.112 -77.668)"/><path class="b" d="M195.395,80.424l.9-4.084a1.528,1.528,0,0,0,.047-.38c0-.142-.19-.19-.57-.19a.047.047,0,0,1-.047-.047.247.247,0,0,1,.095-.19,2.893,2.893,0,0,0,.807-.142,3.582,3.582,0,0,0,.712-.19.247.247,0,0,1,.095.19q0,.071-.142.712l-.95,4.226v.237c0,.142.047.237.095.237a.734.734,0,0,0,.285-.142c.142-.095.237-.142.285-.237q.142-.071.142-.142l.095.095c.047.047.095.095.095.142a2.151,2.151,0,0,1-.665.57,1.929,1.929,0,0,1-.9.38.431.431,0,0,1-.332-.142.467.467,0,0,1-.142-.38A1.329,1.329,0,0,1,195.395,80.424Z" transform="translate(-136.416 -75.2)"/><path class="b" d="M206.439,75.7a7.09,7.09,0,0,1,.807.095,3.717,3.717,0,0,1,.665.142c0,.095-.047.237-.047.427a1.315,1.315,0,0,0-.047.427c0,.095-.047.237-.047.332a2.056,2.056,0,0,1-.048.237.166.166,0,0,1-.047.095.285.285,0,0,1-.19-.047.126.126,0,0,1-.142-.142,1.263,1.263,0,0,0-.285-.76.854.854,0,0,0-.712-.332,1.016,1.016,0,0,0-.855.332.938.938,0,0,0-.285.665c0,.332.285.665.807,1,.048.047.237.142.522.332a5.623,5.623,0,0,1,.57.38,3.1,3.1,0,0,1,.332.38,1.35,1.35,0,0,1,.19.57,1.661,1.661,0,0,1-.76,1.377,2.882,2.882,0,0,1-1.757.57,10.864,10.864,0,0,1-1.71-.237c.047-.475.047-.712.047-.76v-.712c0-.047.095-.095.237-.095.095,0,.142.047.237.095a1.532,1.532,0,0,0,.285.855,1.049,1.049,0,0,0,.95.38,1.326,1.326,0,0,0,.95-.38,1.163,1.163,0,0,0,.38-.76.428.428,0,0,0-.048-.237.656.656,0,0,0-.142-.19,1.036,1.036,0,0,0-.237-.19c-.095-.095-.19-.142-.237-.19a2.814,2.814,0,0,0-.285-.19,2.471,2.471,0,0,0-.237-.142,3.221,3.221,0,0,0-.427-.285,2.066,2.066,0,0,0-.332-.285,1,1,0,0,1-.285-.38,1.386,1.386,0,0,1-.095-.427,1.6,1.6,0,0,1,.76-1.377A1.9,1.9,0,0,1,206.439,75.7Z" transform="translate(-140.67 -75.463)"/><path class="b" d="M214.972,77.694a.487.487,0,0,1,.475.475,3.507,3.507,0,0,1-.095.57l-.427,1.852v.237c0,.142.047.237.095.237a.734.734,0,0,0,.285-.142c.095-.095.19-.142.285-.237q.142-.071.142-.142l.095.095c.047.047.095.095.095.142a2.151,2.151,0,0,1-.665.57,1.929,1.929,0,0,1-.9.38.431.431,0,0,1-.332-.142.467.467,0,0,1-.142-.38,3.507,3.507,0,0,1,.095-.57l.427-1.8a.836.836,0,0,0,.047-.285c0-.142-.047-.237-.095-.237-.095,0-.19.047-.332.19a2.065,2.065,0,0,0-.332.285l-.1-.095c-.047-.047-.095-.095-.095-.142a2.48,2.48,0,0,1,.617-.57A2.562,2.562,0,0,1,214.972,77.694ZM215.3,75.7a.487.487,0,0,1,.475.475.649.649,0,0,1-.665.665.487.487,0,0,1-.475-.475.463.463,0,0,1,.19-.427A.526.526,0,0,1,215.3,75.7Z" transform="translate(-145.973 -75.463)"/><path class="b" d="M220.672,79.9a.487.487,0,0,1,.475.475,4.235,4.235,0,0,1-.1.522v.095a.359.359,0,0,1-.047.19c0,.095-.048.19-.048.285a4.281,4.281,0,0,1,.807-.95,1.563,1.563,0,0,1,1-.57c.475,0,.712.285.712.807a4.573,4.573,0,0,1-.142.95l-.285,1.14a2.056,2.056,0,0,0-.048.237c0,.142.048.237.1.237a.734.734,0,0,0,.285-.142c.095-.095.237-.142.285-.237q.143-.071.142-.142l.095.095a.174.174,0,0,1,.047.142,2.151,2.151,0,0,1-.665.57,1.758,1.758,0,0,1-.9.38.431.431,0,0,1-.332-.142.467.467,0,0,1-.142-.38,4.579,4.579,0,0,1,.095-.57l.285-1.282a4.234,4.234,0,0,0,.095-.522c0-.237-.095-.38-.237-.38s-.285.142-.522.38a7.422,7.422,0,0,0-.665.9,2.7,2.7,0,0,0-.427,1.045l-.19.807a1.054,1.054,0,0,1-.427.047,1.464,1.464,0,0,1-.475-.047l.617-2.8a.836.836,0,0,0,.047-.285c0-.142-.047-.237-.095-.237-.095,0-.19.047-.332.19a2.064,2.064,0,0,0-.332.285l-.095-.095a.174.174,0,0,1-.047-.142,2.479,2.479,0,0,1,.617-.57A2.562,2.562,0,0,1,220.672,79.9Z" transform="translate(-148.967 -77.668)"/><path class="b" d="M232.479,79.9a1.565,1.565,0,0,1,1.045.38.516.516,0,0,1,.048.237.686.686,0,0,1-.095.332.41.41,0,0,1-.285.142.363.363,0,0,1-.237-.095.4.4,0,0,1-.142-.237c-.047-.095-.095-.142-.142-.237a.363.363,0,0,0-.237-.095.821.821,0,0,0-.57.285,2.068,2.068,0,0,0-.475.76,2.48,2.48,0,0,0-.19,1c0,.617.237.95.665.95a.916.916,0,0,0,.475-.142,1.315,1.315,0,0,0,.38-.237.655.655,0,0,0,.19-.142l.095.095c.048.047.095.095.095.142a2.479,2.479,0,0,1-.617.57,1.645,1.645,0,0,1-.95.332,1.36,1.36,0,0,1-1-.38,1.457,1.457,0,0,1-.332-1.045,2.417,2.417,0,0,1,.332-1.235,2.629,2.629,0,0,1,.9-1A1.66,1.66,0,0,1,232.479,79.9Z" transform="translate(-154.743 -77.668)"/><path class="b" d="M239.874,79.9a1.358,1.358,0,0,1,.807.237.656.656,0,0,1,.285.522.991.991,0,0,1-.475.807,3.22,3.22,0,0,1-1.045.57,2.548,2.548,0,0,1-.9.19c-.047,0-.047.047-.047.19,0,.57.237.855.665.855a.916.916,0,0,0,.475-.142,1.315,1.315,0,0,0,.38-.237.656.656,0,0,0,.19-.142l.095.095c.047.047.095.095.095.142a2.479,2.479,0,0,1-.617.57,1.645,1.645,0,0,1-.95.332,1.36,1.36,0,0,1-1-.38,1.457,1.457,0,0,1-.332-1.045,2.256,2.256,0,0,1,.332-1.187,3.034,3.034,0,0,1,.9-1A2.173,2.173,0,0,1,239.874,79.9Zm-.095.427a1.064,1.064,0,0,0-.76.522,1.535,1.535,0,0,0-.38.95c0,.047,0,.047.047.047a1.425,1.425,0,0,0,.9-.427,1.058,1.058,0,0,0,.475-.807.428.428,0,0,0-.047-.237C239.922,80.375,239.874,80.327,239.779,80.327Z" transform="translate(-158.577 -77.668)"/><path class="b" d="M250.644,76.2c.047,0,.095.047.095.19a4.416,4.416,0,0,0-.285.855l-.807,3.514a4.982,4.982,0,0,0-.095.617.242.242,0,0,0,.19.237,1.867,1.867,0,0,0,.285.095v.047a.428.428,0,0,1-.047.237H247.7v-.047c0-.142.048-.19.1-.19a.585.585,0,0,0,.332-.095.773.773,0,0,0,.285-.142,2.965,2.965,0,0,0,.237-.665l.665-2.9a1.635,1.635,0,0,0,.048-.427c0-.095-.048-.142-.095-.142a3.166,3.166,0,0,0-.76.285c-.047,0-.095-.095-.095-.19,0-.047,0-.047.047-.095C249.884,76.58,250.6,76.2,250.644,76.2Z" transform="translate(-163.933 -75.725)"/><path class="b" d="M256.554,79.187c0,.095-.095.142-.285.19a2.019,2.019,0,0,1-.522.095,1.533,1.533,0,0,1-1-.38,1.3,1.3,0,0,1-.38-.9,1.892,1.892,0,0,1,.712-1.425,2.322,2.322,0,0,1,1.567-.665,1.54,1.54,0,0,1,1.14.427,1.5,1.5,0,0,1,.427,1.092,2.362,2.362,0,0,1-.142.76,5.065,5.065,0,0,1-.427.9,4.767,4.767,0,0,1-.76.95,6.938,6.938,0,0,1-1.235.9,8.081,8.081,0,0,1-1.71.76.219.219,0,0,1-.142-.237,4.85,4.85,0,0,0,2.9-2.422,4.083,4.083,0,0,0,.427-1.852c0-.57-.237-.855-.665-.855a.991.991,0,0,0-.807.475,1.893,1.893,0,0,0-.332,1.14c0,.522.19.76.617.807a1.636,1.636,0,0,0,.427.047C256.554,79.044,256.554,79.092,256.554,79.187Z" transform="translate(-167.136 -75.673)"/><path class="b" d="M265.854,79.187c0,.095-.1.142-.285.19a2.02,2.02,0,0,1-.522.095,1.533,1.533,0,0,1-1-.38,1.3,1.3,0,0,1-.38-.9,1.892,1.892,0,0,1,.712-1.425,2.322,2.322,0,0,1,1.567-.665,1.54,1.54,0,0,1,1.14.427,1.5,1.5,0,0,1,.427,1.092,2.362,2.362,0,0,1-.142.76,5.065,5.065,0,0,1-.427.9,4.769,4.769,0,0,1-.76.95,6.938,6.938,0,0,1-1.235.9,8.082,8.082,0,0,1-1.71.76.219.219,0,0,1-.142-.237,4.85,4.85,0,0,0,2.9-2.422,4.083,4.083,0,0,0,.427-1.852c0-.57-.237-.855-.665-.855a.991.991,0,0,0-.807.475,1.893,1.893,0,0,0-.332,1.14c0,.522.19.76.617.807a1.636,1.636,0,0,0,.427.047C265.807,79.044,265.854,79.092,265.854,79.187Z" transform="translate(-172.02 -75.673)"/><path class="b" d="M274.357,78.954c0-.095.095-.142.285-.237a2.09,2.09,0,0,1,.475-.095,1.326,1.326,0,0,1,.95.38,1.3,1.3,0,0,1,.38.9,1.892,1.892,0,0,1-.712,1.425,2.322,2.322,0,0,1-1.567.665,1.54,1.54,0,0,1-1.14-.427,1.431,1.431,0,0,1-.427-1.092,2.362,2.362,0,0,1,.142-.76,5.065,5.065,0,0,1,.427-.9,4.768,4.768,0,0,1,.76-.95,6.938,6.938,0,0,1,1.235-.9,8.081,8.081,0,0,1,1.71-.76c.095,0,.142.095.142.237a4.85,4.85,0,0,0-2.9,2.422,4.083,4.083,0,0,0-.427,1.852.876.876,0,0,0,.19.617.613.613,0,0,0,.522.237.991.991,0,0,0,.807-.475,1.893,1.893,0,0,0,.332-1.14c0-.522-.19-.76-.617-.807a1.636,1.636,0,0,0-.427-.047A.126.126,0,0,1,274.357,78.954Z" transform="translate(-177.009 -75.725)"/></g></g></svg>