<svg xmlns="http://www.w3.org/2000/svg" width="144.99" height="43.705" viewBox="0 0 144.99 43.705"><defs><style>.a{fill:#707070;}</style></defs><g transform="translate(-501 -3711)"><path class="a" d="M0,1.4H11.562V44.026H0Z" transform="translate(501 3710.14)"/><path class="a" d="M44.7,21.853C44.7,8.749,53.564,0,66.9,0,78.577,0,86.863,6.745,87.634,16.919H76.419c-.424-4.74-4.2-7.9-9.52-7.9-6.128,0-10.252,5.126-10.252,12.834S60.733,34.687,66.9,34.687c5.319,0,9.057-3.083,9.52-7.747H87.634C86.863,37,78.577,43.705,66.9,43.705,53.564,43.705,44.7,34.956,44.7,21.853Z" transform="translate(473.528 3711)"/><path class="a" d="M278.8,28.751h11.408c.347,3.546,3.43,5.935,7.785,5.935,3.97,0,6.629-1.7,6.629-4.278,0-3.276-4.047-3.854-8.787-4.548-7.014-.925-15.8-2.659-15.8-12.179C280.033,5.473,287.086,0,297.723,0c9.635,0,16.611,5.7,17.42,14.26H303.736c-.116-3.16-2.775-5.242-6.706-5.242-3.2,0-5.319,1.5-5.319,3.7,0,2.7,3.777,3.43,8.363,4.047,7.207,1,16.264,2.891,16.264,12.333,0,8.749-7.477,14.607-18.654,14.607C287.2,43.705,279.648,37.731,278.8,28.751Z" transform="translate(329.651 3711)"/><g transform="translate(590.568 3728.073)"><path class="a" d="M249.242,45.842a10.708,10.708,0,0,1-.617-1.542A61.489,61.489,0,0,0,232.4,70.392h5.2A64.305,64.305,0,0,1,249.242,45.842Z" transform="translate(-232.4 -44.3)"/><path class="a" d="M252.5,76.538h5.4a56.677,56.677,0,0,1,6.282-20.581,15.347,15.347,0,0,1-1.233-1.657A60.938,60.938,0,0,0,252.5,76.538Z" transform="translate(-244.753 -50.446)"/></g><path class="a" d="M197.745,28.494l-1.387-2.621c4.74-2.39,7.631-6.513,7.631-11.793,0-7.592-7.091-12.68-17.652-12.68H168.3V44.026h11.562V27.916h5.473l5.9,12.449A104.12,104.12,0,0,1,197.745,28.494Zm-17.883-8.826V10.226h6.976c3.083,0,5.2,1.888,5.2,4.7,0,2.891-2.12,4.74-5.2,4.74Z" transform="translate(397.564 3710.14)"/></g></svg>