<svg xmlns="http://www.w3.org/2000/svg" width="139.103" height="143.708" viewBox="0 0 139.103 143.708"><defs><style>.a{fill:#707070;}</style></defs><g transform="translate(-1251 -3673)"><path class="a" d="M237.006,181.2c.4,2.244,2.952,3.559,5.8,3.559h1.274v.566H226.754V184.8h1.233c1.719,0,3.256-1.193,3.114-2.426l-3.62-28.633-16.743,26.59a23.568,23.568,0,0,0-2.73,5.8h-.748l-20.382-31.585-3.5,27.824c-.162,1.233,1.4,2.426,3.114,2.426h1.233v.546H172.3v-.566h1.274c2.851,0,5.4-1.314,5.8-3.559l6.006-36.519h.748l22.243,34.335,21.737-34.315h.728Z" transform="translate(1113.541 3557.559)"/><path class="a" d="M230.9,408.432h-.728l-21.737-34.315-22.243,34.335h-.728l-5.985-36.5c-.4-2.245-2.952-3.559-5.8-3.559H172.4v-.586h15.428v.546h-1.233c-1.719,0-3.256,1.193-3.114,2.426l3.5,27.8L207.362,367h.748a23.173,23.173,0,0,0,2.73,5.8l16.743,26.59,3.619-28.633c.162-1.233-1.4-2.426-3.114-2.426h-1.233v-.546h17.329v.566h-1.294c-2.851,0-5.4,1.314-5.8,3.559Z" transform="translate(1113.461 3380.21)"/><path class="a" d="M606.818,447.909a1.14,1.14,0,0,0-1.375.708l-.1.243-.142-.061,1.86-4.469.142.061-.1.243a.676.676,0,0,0,.384.849l5.642,1.638-3.66-4.792a4.56,4.56,0,0,0-1.415-1.254l.061-.142,8.028-1.173-5.116-2.831a.651.651,0,0,0-.87.324l-.1.222-.141-.061,1.294-3.114.142.061-.1.243a1.143,1.143,0,0,0,.485,1.476l9.039,5.2-.061.142-9.5,1.476,5.743,7.583-.061.142Z" transform="translate(768.176 3326.519)"/><path class="a" d="M561.81,529.166l4.064,1.294-2-3.781Zm-4.61,1.294a1.621,1.621,0,0,0-1.6.465l-.081.1-.121-.1,3.256-3.963.121.1-.1.1a.7.7,0,0,0,.384,1.132l2.042.647,2.406-2.912-1.011-1.9a.679.679,0,0,0-1.173-.162l-.1.1-.121-.1,2.2-2.669.121.1-.1.1a1.58,1.58,0,0,0-.162,1.618l4.145,8.23a12.007,12.007,0,0,0,1.132,1.961l-.1.121Z" transform="translate(807.906 3257.111)"/><path class="a" d="M503.249,595.2c-1.577,1.132-3.579,1.6-4.893-.222a2.931,2.931,0,0,1,.344-4.024,3.3,3.3,0,0,1-2.164-.2c-.081-.04-1.759-.708-2.71-.971a2.41,2.41,0,0,0-2.325.162l-.1-.121,1.274-.91c1.436-1.031,2.689-1.476,4.044-.849.708.323,2.245,1.193,2.71,1.456a1.634,1.634,0,0,0,1.517.243l.081.121-.4.283a2.025,2.025,0,0,0-.566,2.71,3.242,3.242,0,0,0,.4.667c.95,1.213,1.982,1.314,2.851.728.364-.243.829-.587.991-.708l-5.5-7.623a1.05,1.05,0,0,0-1.436-.222l-.162.121-.02-.162,3.984-2.871.1.121-.162.121a1.027,1.027,0,0,0-.243,1.416l5.217,7.259a1.05,1.05,0,0,0,1.436.222l.162-.121.1.121Z" transform="translate(858.965 3208.046)"/><path class="a" d="M407.826,648.291a2.834,2.834,0,0,1-2.083-2.2c-.445-2.063.768-3.66,3.256-4.327a5.067,5.067,0,0,1,3.518.081,3.959,3.959,0,0,1,.344,2.75l-.142.04A2.81,2.81,0,0,0,409,642.467c-1.355.384-1.941,1.355-1.678,2.325.162.627.688.95,1.678,1.274l3.195,1.072a3,3,0,0,1,2.224,2.406c.3,1.658-.586,3.073-2.548,3.6a19.952,19.952,0,0,1-2.164.4l-.971.263-.4-2.346.142-.04c.283,1.072,1.355,1.557,2.669,1.213,1.233-.323,1.82-1.193,1.638-2.042-.121-.627-.708-.91-1.476-1.153Z" transform="translate(927.373 3161.219)"/><path class="a" d="M322.3,664.816v-.162h.263a.825.825,0,0,0,.829-.789l-.142-6.268c-.061-2.649,1.638-4.347,4.529-4.408,3.458-.081,5.278,1.537,5.359,4.166l.141,6.268a.805.805,0,0,0,.87.768h.263v.162l-4.63.1v-.162h.263a.826.826,0,0,0,.829-.789l-.142-6.147c-.061-2.285-1.294-3.68-3.215-3.64-1.961.04-3.154,1.415-3.114,3.579l.142,6.349a.815.815,0,0,0,.87.748h.263v.162Z" transform="translate(993.872 3151.893)"/><path class="a" d="M246.409,656.979c-2.689-.627-3.539-2.184-3.195-3.923a3.282,3.282,0,0,1,5.682-1.577l-.04.141A2.426,2.426,0,0,0,246,652.833a3.622,3.622,0,0,0-.324.93,2.061,2.061,0,0,0,1.5,2.689l1.051.243,2.143-9.18a1.018,1.018,0,0,0-.768-1.213l-.2-.04.04-.162,4.772,1.112-.04.162-.2-.04a1.036,1.036,0,0,0-1.233.748l-2.042,8.776a.976.976,0,0,0,.789,1.132l.2.04-.04.162Z" transform="translate(1057.023 3157.546)"/><path class="a" d="M175.026,633.588c-2.487-1.213-2.972-2.932-2.245-4.529a3.273,3.273,0,0,1,5.884-.263l-.061.142a2.406,2.406,0,0,0-3.053.566,3.143,3.143,0,0,0-.506.829,2.057,2.057,0,0,0,.869,2.952l.971.465,4.125-8.473a1.019,1.019,0,0,0-.485-1.355l-.182-.081.061-.142,4.408,2.143-.081.142-.182-.081a1.04,1.04,0,0,0-1.375.465l-3.943,8.109a.993.993,0,0,0,.526,1.294l.182.081-.061.142Z" transform="translate(1113.403 3175.417)"/><path class="a" d="M125.327,577l6.531,5.2-.1.121-.162-.121a1.043,1.043,0,0,0-1.436.141l-5.561,7a1.027,1.027,0,0,0,.182,1.436l.162.121-.1.121L121,587.96l.1-.121.162.121a1.043,1.043,0,0,0,1.436-.142l5.864-7.36-1.658-1.314a3.23,3.23,0,0,0-4.085.061l-.121-.1Z" transform="translate(1154.467 3212.674)"/><path class="a" d="M75.174,540.6l3.175,3.721-.121.1-.121-.162a1.023,1.023,0,0,0-1.436-.121l-6.794,5.8a1.021,1.021,0,0,0-.1,1.436l.121.162-.121.1L66.6,547.92l.121-.1.121.162a1.023,1.023,0,0,0,1.436.121l6.794-5.824a1.021,1.021,0,0,0,.1-1.436l-.121-.162Z" transform="translate(1197.867 3241.713)"/><path class="a" d="M34.849,485.3l4.1,7.259-.142.081-.1-.182a1.047,1.047,0,0,0-1.4-.4l-7.825,4.428a1.027,1.027,0,0,0-.324,1.375l.1.182-.142.081-3.033-5.379A7.374,7.374,0,0,0,24.9,491.2l2.447-1.4.081.142-.162.1a1.534,1.534,0,0,0-.647,2.184l1.335,2.366,4.085-2.305-1.051-1.86a1.348,1.348,0,0,0-1.881-.505l-.121.061-.081-.141,3.235-1.84.081.142-.121.061a1.345,1.345,0,0,0-.546,1.86l1.072,1.88,3.943-2.224-1.031-1.84a3.261,3.261,0,0,0-3.822-1.476l-.081-.141Z" transform="translate(1231.135 3285.831)"/><path class="a" d="M5.48,430.071a2.857,2.857,0,0,1,2.143-2.164c2.042-.526,3.68.627,4.428,3.094a4.971,4.971,0,0,1,.04,3.518,3.9,3.9,0,0,1-2.73.425l-.04-.141a2.8,2.8,0,0,0,2.022-3.781c-.425-1.335-1.415-1.9-2.386-1.6-.627.182-.91.728-1.213,1.719l-.971,3.235A3.039,3.039,0,0,1,4.449,436.7c-1.638.364-3.094-.485-3.68-2.426a21.835,21.835,0,0,1-.485-2.143L0,431.183l2.325-.485.04.142c-1.072.324-1.517,1.415-1.112,2.71.364,1.213,1.254,1.779,2.1,1.557.607-.142.89-.728,1.112-1.517Z" transform="translate(1251 3331.719)"/><path class="a" d="M4.113,341.089a.9.9,0,0,1,0,.566c-.425,1.193-.526,1.294-1.739,1.678a.783.783,0,0,1-.566-.02c-1.193-.425-1.294-.526-1.678-1.739a.783.783,0,0,1,.02-.566c.425-1.193.526-1.294,1.739-1.678a.9.9,0,0,1,.607.02C3.628,339.774,3.729,339.9,4.113,341.089Z" transform="translate(1250.931 3402.32)"/><path class="a" d="M18.151,202.688a1.17,1.17,0,0,0,1.375-.708l.1-.243.142.061-1.8,4.489-.142-.061.1-.243a.639.639,0,0,0-.4-.829l-5.662-1.577,3.721,4.732A4.6,4.6,0,0,0,17,209.543l-.061.142-8.007,1.274,5.156,2.73a.651.651,0,0,0,.869-.324l.1-.222.142.061-1.254,3.134-.142-.061.1-.243a1.145,1.145,0,0,0-.506-1.476l-9.1-5.075.061-.142,9.484-1.6L8,200.242l.061-.142Z" transform="translate(1247.57 3513.362)"/><path class="a" d="M71.793,137.286l-4.085-1.254,2.063,3.761Zm4.61-1.335a1.626,1.626,0,0,0,1.6-.485l.081-.1.121.1-3.215,4-.121-.1.081-.1a.677.677,0,0,0-.4-1.112l-2.042-.627-2.366,2.932,1.031,1.881a.68.68,0,0,0,1.173.162l.081-.121.121.1-2.164,2.689-.121-.1.1-.121a1.582,1.582,0,0,0,.142-1.618l-4.246-8.169a11.316,11.316,0,0,0-1.153-1.941l.1-.121Z" transform="translate(1199.064 3566.814)"/><path class="a" d="M116.649,65.41c1.577-1.173,3.559-1.638,4.893.162a2.905,2.905,0,0,1-.3,4.024,3.573,3.573,0,0,1,2.164.162c.081.04,1.779.688,2.71.93a2.338,2.338,0,0,0,2.325-.2l.1.121-1.254.93c-1.415,1.051-2.669,1.5-4.044.91-.728-.324-2.265-1.173-2.73-1.415a1.564,1.564,0,0,0-1.517-.222l-.1-.121.4-.283a2.027,2.027,0,0,0,.526-2.71,2.708,2.708,0,0,0-.425-.667c-.971-1.193-2-1.294-2.871-.688-.364.243-.829.607-.991.728l5.581,7.563a1.028,1.028,0,0,0,1.436.2l.162-.121.1.121-3.943,2.912-.04-.1.162-.121a1.028,1.028,0,0,0,.222-1.415l-5.318-7.2a1.047,1.047,0,0,0-1.436-.2l-.162.121-.1-.121Z" transform="translate(1161.488 3621.644)"/><path class="a" d="M241.152,15.18a2.858,2.858,0,0,1,2.123,2.184c.465,2.042-.728,3.66-3.195,4.368a5.135,5.135,0,0,1-3.518-.02,3.8,3.8,0,0,1-.364-2.73l.142-.04a2.794,2.794,0,0,0,3.741,2.1c1.335-.4,1.921-1.375,1.658-2.346-.182-.627-.708-.93-1.7-1.254L236.8,16.373a2.979,2.979,0,0,1-2.265-2.366c-.324-1.638.546-3.074,2.507-3.62a18.655,18.655,0,0,1,2.164-.425l.971-.263.445,2.346-.142.04c-.3-1.072-1.375-1.537-2.689-1.173-1.213.344-1.82,1.213-1.618,2.063.142.627.708.91,1.476,1.132Z" transform="translate(1063.939 3665.261)"/><path class="a" d="M313.392,0V.162h-.263A.839.839,0,0,0,312.3.95l.222,6.268c.1,2.649-1.577,4.368-4.469,4.469-3.458.121-5.318-1.456-5.4-4.085l-.222-6.268a.805.805,0,0,0-.87-.768H301.3V.4l4.631-.162V.4h-.263a.829.829,0,0,0-.829.809l.222,6.147c.081,2.285,1.335,3.68,3.256,3.6,1.961-.061,3.134-1.456,3.074-3.62l-.222-6.329a.827.827,0,0,0-.87-.748h-.263V.1Z" transform="translate(1010.625 3673)"/><path class="a" d="M393.984,5.373c2.689.586,3.579,2.143,3.256,3.882a3.276,3.276,0,0,1-5.662,1.638l.04-.142A2.411,2.411,0,0,0,394.449,9.5a2.956,2.956,0,0,0,.3-.93A2.068,2.068,0,0,0,393.215,5.9l-1.051-.222-2.022,9.2a1.047,1.047,0,0,0,.789,1.213l.2.04-.04.162L386.3,15.241l.04-.162.2.04a1.049,1.049,0,0,0,1.233-.768l1.941-8.816a.99.99,0,0,0-.809-1.132l-.2-.04.04-.162Z" transform="translate(942.813 3669.649)"/><path class="a" d="M460.665,27.285c2.487,1.173,3.013,2.892,2.305,4.509a3.275,3.275,0,0,1-5.884.344l.061-.142a2.414,2.414,0,0,0,3.053-.607,3.784,3.784,0,0,0,.505-.829,2.042,2.042,0,0,0-.91-2.932l-.971-.465L454.8,35.7a1.046,1.046,0,0,0,.505,1.355l.182.081-.061.142L451,35.191l.081-.142.182.081a1.019,1.019,0,0,0,1.355-.485L456.46,26.5a.98.98,0,0,0-.526-1.274l-.182-.081.061-.142Z" transform="translate(891.196 3653.055)"/><path class="a" d="M516.692,76.113,510.1,71l.1-.121.162.121a1.043,1.043,0,0,0,1.436-.162l5.48-7.057a1.03,1.03,0,0,0-.2-1.436l-.162-.121.1-.121,3.862,2.993-.1.121-.162-.121a1.043,1.043,0,0,0-1.436.162L513.416,72.7l1.678,1.294a3.209,3.209,0,0,0,4.085-.121l.121.1Z" transform="translate(844.046 3623.457)"/><path class="a" d="M563.735,123.521l-3.235-3.68.121-.1.142.162a1.021,1.021,0,0,0,1.436.1l6.713-5.9a1.04,1.04,0,0,0,.081-1.436l-.142-.162.121-.1,3.235,3.68-.121.1-.142-.162a1.042,1.042,0,0,0-1.436-.121l-6.713,5.925a1.022,1.022,0,0,0-.081,1.436l.142.162Z" transform="translate(803.837 3583.328)"/><path class="a" d="M595.606,171.381l-4.206-7.219.142-.081.1.182a1.046,1.046,0,0,0,1.4.384l7.765-4.509a1.026,1.026,0,0,0,.3-1.375l-.1-.182.141-.081,3.114,5.338a7.684,7.684,0,0,0,1.213,1.517l-2.426,1.415-.081-.142.162-.1a1.532,1.532,0,0,0,.627-2.184L602.4,162l-4.044,2.366,1.072,1.84a1.342,1.342,0,0,0,1.881.485l.121-.061.081.142-3.215,1.881-.081-.142.121-.061a1.36,1.36,0,0,0,.526-1.86l-1.092-1.86-3.923,2.285,1.072,1.82a3.245,3.245,0,0,0,3.842,1.415l.081.142Z" transform="translate(779.185 3546.55)"/><path class="a" d="M632.437,241.27a2.831,2.831,0,0,1-2.1,2.184c-2.022.546-3.68-.586-4.469-3.053a5.151,5.151,0,0,1-.1-3.518,3.889,3.889,0,0,1,2.73-.465l.04.142a2.8,2.8,0,0,0-1.961,3.822c.445,1.335,1.436,1.881,2.406,1.577.627-.2.91-.728,1.193-1.739l.93-3.235a3.019,3.019,0,0,1,2.285-2.346c1.638-.384,3.094.445,3.721,2.366a21.331,21.331,0,0,1,.506,2.143l.3.971-2.325.526-.04-.142c1.072-.344,1.5-1.436,1.072-2.73-.384-1.213-1.274-1.759-2.123-1.537-.607.162-.869.748-1.092,1.517Z" transform="translate(751.98 3485.881)"/><path class="a" d="M667.821,349.419c.4-1.193.526-1.294,1.719-1.7a.9.9,0,0,1,.566,0c1.193.4,1.294.526,1.7,1.719a.9.9,0,0,1,0,.566c-.4,1.193-.526,1.294-1.719,1.7a.9.9,0,0,1-.607-.02c-1.152-.4-1.274-.526-1.658-1.7a.9.9,0,0,1,0-.566" transform="translate(718.254 3395.627)"/></g></svg>