<svg xmlns="http://www.w3.org/2000/svg" width="140.417" height="134.618" viewBox="0 0 140.417 134.618"><defs><style>.a{fill:#707070;}</style></defs><g transform="translate(-892 -3678)"><g transform="translate(921.268 3678)"><path class="a" d="M217.86,42.932c.475,2.642,3.488,4.19,6.832,4.19h1.486v.661H205.827v-.64h1.465c2.023,0,3.839-1.424,3.653-2.869L206.673,10.63,186.982,41.9s-2.621,4.066-3.22,6.832h-.888L158.932,11.6l-4.107,32.715c-.186,1.445,1.631,2.848,3.653,2.869h1.465v.64H141.8v-.66h1.486c3.344,0,6.357-1.548,6.832-4.19L157.157,0h.867l26.152,40.394L209.728.021h.846Z" transform="translate(-141.8)"/></g><g transform="translate(921.247 3763.885)"><path class="a" d="M210.516,464.812h-.846L184.1,424.439l-26.152,40.394h-.867L150.018,421.9c-.475-2.642-3.488-4.19-6.832-4.19H141.7v-.681h18.143v.64h-1.465c-2.023,0-3.839,1.424-3.653,2.869l4.128,32.695L182.816,416.1h.888c.6,2.766,3.22,6.832,3.22,6.832l19.691,31.27,4.252-33.685c.186-1.445-1.631-2.848-3.653-2.869h-1.466v-.64H226.12v.681h-1.486c-3.344,0-6.357,1.548-6.832,4.19Z" transform="translate(-141.7 -416.1)"/></g><g transform="translate(895.715 3736.144)"><g transform="translate(0 0.083)"><path class="a" d="M37.959,297.969a1.733,1.733,0,0,0,1.8,1.527h.392v.248H34.8v-.227h.392a.984.984,0,0,0,.949-1.053L35.028,286.1l-5.16,11.476a12.54,12.54,0,0,0-.846,2.518H28.8L22.52,286.473l-1.094,11.992a1.011,1.011,0,0,0,.949,1.053h.372v.227H18V299.5h.392a1.746,1.746,0,0,0,1.8-1.527L22.046,282.2h.227l6.853,14.82,6.708-14.82h.227Z" transform="translate(-18 -282.179)"/><path class="a" d="M141.446,297.89a2.426,2.426,0,0,0,2.147,1.548h.206v.248h-5.532v-.268h.227a1.035,1.035,0,0,0,.929-1.527l-1.569-4.19h-6.6l-1.651,4.211a1.041,1.041,0,0,0,.929,1.527h.227v.248H125.8v-.268h.227a2.426,2.426,0,0,0,2.147-1.548l5.573-13.231a12.67,12.67,0,0,0,.908-2.539h.227Zm-3.86-4.913-2.952-7.885-3.1,7.885Z" transform="translate(-103.549 -282.1)"/><path class="a" d="M225.605,283.9c2.972,0,4.809,1.754,4.809,4.623,0,2.374-1.816,4.685-4.169,4.685A6.035,6.035,0,0,1,228,294.943s2.126,3.014,3.075,4.066c.991,1.073,1.9,1.858,3.344,1.858v.248h-1.342a5.346,5.346,0,0,1-4.293-2.147c-.289-.33-3.034-4.355-3.241-4.6-.64-.8-1.362-1.672-2.25-1.672v-.227s.557.021,1.3,0a3.679,3.679,0,0,0,3.839-2.559,5.1,5.1,0,0,0,.145-1.465c-.062-2.229-1.218-3.653-3.034-3.757-1.259-.062-2.745,0-3.055-.021v14.655a1.591,1.591,0,0,0,1.569,1.548h.31v.248H219v-.248h.31a1.573,1.573,0,0,0,1.569-1.527V285.716a1.564,1.564,0,0,0-1.569-1.548H219v-.248Z" transform="translate(-177.513 -283.528)"/></g><g transform="translate(60.064)"><path class="a" d="M333.624,282.472v.248H333.4a2.283,2.283,0,0,0-2.147,1.527l-4.066,13a12.442,12.442,0,0,0-.537,2.725h-.227L321.4,285.939,317.69,297.25a12.661,12.661,0,0,0-.516,2.725h-.227l-5.573-15.749a2.307,2.307,0,0,0-2.147-1.486H309v-.248h5.449v.248h-.206a1.064,1.064,0,0,0-.97,1.507l3.715,11.951,4.562-14.1h.227l4.85,13.582,3.282-11.5c.248-.949-.289-1.465-.95-1.465h-.227v-.248Z" transform="translate(-309 -282.017)"/><path class="a" d="M444.376,299.348H434.2V299.1h.31a1.563,1.563,0,0,0,1.569-1.548V283.785a1.57,1.57,0,0,0-1.569-1.4h-.31v-.248h7.183a10.615,10.615,0,0,0,2.931-.433v3.117h-.248v-.433a1.455,1.455,0,0,0-1.383-1.465h-5.016v7.6h4.149a1.2,1.2,0,0,0,1.2-1.2v-.372h.248v3.9h-.248v-.372a1.2,1.2,0,0,0-1.156-1.2h-4.19v7.369h3.53c2.6,0,3.612-1.342,4.355-3.22h.248Z" transform="translate(-408.358 -281.7)"/><path class="a" d="M510.225,297.89a2.43,2.43,0,0,0,2.167,1.548h.206v.248h-5.532v-.268h.227a1.029,1.029,0,0,0,.929-1.527l-1.569-4.19h-6.605l-1.651,4.211a1.041,1.041,0,0,0,.929,1.527h.227v.248H494.6v-.268h.227a2.426,2.426,0,0,0,2.147-1.548l5.573-13.231a12.67,12.67,0,0,0,.908-2.539h.227Zm-3.86-4.913-2.951-7.885-3.1,7.885Z" transform="translate(-456.291 -282.017)"/><path class="a" d="M594.2,283.9c2.972,0,4.809,1.754,4.809,4.623,0,2.374-1.817,4.685-4.169,4.685a5.8,5.8,0,0,1,1.754,1.734s2.105,3.014,3.075,4.066c.991,1.073,1.9,1.858,3.344,1.858v.248h-1.341a5.346,5.346,0,0,1-4.293-2.147c-.289-.33-3.055-4.355-3.241-4.6-.64-.8-1.362-1.672-2.25-1.672v-.227s.557.021,1.3,0a3.679,3.679,0,0,0,3.839-2.559,5.858,5.858,0,0,0,.165-1.465c-.062-2.229-1.218-3.653-3.055-3.757-1.259-.062-2.745,0-3.055-.021v14.655a1.577,1.577,0,0,0,1.569,1.548h.31v.248H587.6v-.248h.309a1.56,1.56,0,0,0,1.569-1.527V285.716a1.591,1.591,0,0,0-1.569-1.548H587.6v-.248Z" transform="translate(-530.095 -283.446)"/></g></g><rect class="a" width="140.418" height="0.805" transform="translate(892 3730.881)"/><rect class="a" width="140.418" height="0.805" transform="translate(892 3759.551)"/></g></svg>