<svg xmlns="http://www.w3.org/2000/svg" width="198.707" height="82.664" viewBox="0 0 198.707 82.664"><defs><style>.a{fill:#707070;}</style></defs><g transform="translate(-829 -3918)"><g transform="translate(829 3918)"><g transform="translate(0 26.77)"><path class="a" d="M31.946,56.872a8.466,8.466,0,0,0-5.12-2.215,30.273,30.273,0,0,0-5.169-.2,22.559,22.559,0,0,0-5.71.837,16.113,16.113,0,0,0-5.218,2.56C7.185,60.515,4.871,64.8,3.2,68.835c-.345.837-.689,1.723-.985,2.609-.394,1.132-.738,2.215-1.034,3.347-.985,3.347-2.314,8.418.542,11.224A8.467,8.467,0,0,0,6.84,88.23a30.274,30.274,0,0,0,5.169.2,22.558,22.558,0,0,0,5.71-.837,16.112,16.112,0,0,0,5.218-2.56C26.482,82.323,28.8,78.089,30.47,74c.345-.837.689-1.723.985-2.609.394-1.132.738-2.215,1.034-3.347C33.472,64.749,34.8,59.728,31.946,56.872Zm-13.193,18.9a7.29,7.29,0,0,1-2.708,3.446,4.264,4.264,0,0,1-2.9.443A1.56,1.56,0,0,1,11.714,77.6a41.363,41.363,0,0,1,3.249-10.239,10.219,10.219,0,0,1,1.969-3.2,4.32,4.32,0,0,1,3.5-1.034A1.706,1.706,0,0,1,22,64.256a2.672,2.672,0,0,1,0,1.083,43.019,43.019,0,0,1-2.215,7.827C19.443,73.954,19.147,74.84,18.753,75.776Z" transform="translate(0.005 -54.422)"/><path class="a" d="M132.446,55.3,113.1,87.889h11.273l2.609-5.07h6.744l-1.132,5.07h11.273L147.855,55.3Zm2.609,20.085h-4.037l6.1-11.224Z" transform="translate(-57.421 -54.868)"/><path class="a" d="M177.5,87.839,189.118,55.3h10.289l2.954,14.818L207.283,55.3h10.535L206.249,87.839H195.96l-2.9-14.67-4.874,14.67Z" transform="translate(-90.119 -54.868)"/><path class="a" d="M283.323,55.294h-16.2s-9.255-.64-15.211,11.618c-5.957,12.307-3.249,16.639-3.249,16.639s1.329,5.415,11.372,4.972,12.9-2.412,12.9-2.412l6.6-18.51H265.01l-3,7.827H265.7L264.026,80.4s-7.433.738-3.249-9.107l1.181-2.609a8.427,8.427,0,0,1,7.729-5.07h10.289Z" transform="translate(-125.94 -54.862)"/><path class="a" d="M314.118,55.3h24.958l-3.151,8.615H321.994l-1.181,3.1h12.553l-3.052,8.516h-12.6l-1.28,3.791h13.981l-3,8.516H302.5Z" transform="translate(-153.584 -54.868)"/><path class="a" d="M84.312,55.3h-16.2L56.4,87.889H67.082L71.07,76.616h2.166V87.889H85.444L84.312,74.942a12.24,12.24,0,0,0,4.037-3s4.037-4.775,4.037-10.535C92.435,55.3,84.312,55.3,84.312,55.3ZM78.651,68.788H73.777l1.871-5.021h4.529c.837,0,1.772.3,1.821,1.231A3.488,3.488,0,0,1,78.651,68.788Z" transform="translate(-28.633 -54.868)"/></g><path class="a" d="M213.782,13.51a13.662,13.662,0,0,1-1.132-1.526,24.585,24.585,0,0,0-3.889-3.594c-5.317-4.037-11.864-6.3-18.411-7.384-11.273-1.92-23.186-.689-34.361,1.231C146.34,3.861,136.4,6.421,127.88,11.492a29.444,29.444,0,0,0-4.037,2.806c-5.513,4.578-.788,6.744-.788,6.744s4.824,2.9,27.371,3.5a266.544,266.544,0,0,0,39.136-1.871c11.519-1.378,29.192-3.2,43.468-3.643,23.383-.689,19.937,10.584,15.8,16.836,0,0,9.747-.246,11.273-8.467s-11.913-10.978-11.913-10.978-8.566-2.806-29.537-.837-34.115,4.48-59.467,3.692c0,0-13.095-.1-13.144-5.957-.049-3.987,7.04-5.76,9.846-6.6a88.729,88.729,0,0,1,27.42-3.249c9.206.345,18.313,3.1,25.451,9.107.246.2,1.477,1.329,1.477,1.329Z" transform="translate(-61.519 -0.042)"/><g transform="translate(81.967 68.081)"><path class="a" d="M175.51,149.692s-5.809,1.575-5.464-1.674,2.068-8.369,8.319-6.449l1.28-2.806s-7.876-2.412-11.224,4.283-2.9,10.781,6.1,9.6Z" transform="translate(-166.502 -138.341)"/><path class="a" d="M212.6,148.294l-3.5,9.3h3.1l2.412-6.6s.985-.886,3.446-.542l.837-2.363s-3.84-.1-4.43.886l.246-.738Z" transform="translate(-188.13 -143.293)"/><path class="a" d="M235.9,148.294l-3.5,9.3h3.1l2.412-6.6s.985-.886,3.446-.542l.837-2.363s-3.84-.1-4.43.886l.246-.738Z" transform="translate(-199.96 -143.293)"/><path class="a" d="M259.63,149.7s-.3-2.363-5.464-1.428c-5.12.935-5.07,6.99-5.07,6.99s-.443,4.184,7.532,1.92l.788-2.215s-4.135.935-5.021.3a.915.915,0,0,1-.2-1.378,12.025,12.025,0,0,0,5.513-.837A3.219,3.219,0,0,0,259.63,149.7Zm-4.726,2.314h-1.821c.3-1.969,3.347-2.658,3.3-1.28A1.334,1.334,0,0,1,254.9,152.015Z" transform="translate(-208.435 -143.273)"/><path class="a" d="M271.949,148.1l-3.249,9.156h3.1l2.412-6.547s2.511-1.28,2.855-.049c.345,1.28-2.215,6.695-2.215,6.695H278.1l2.511-6.99s1.526-4.529-6.449-1.526V148.1Z" transform="translate(-218.391 -143.149)"/><path class="a" d="M296.123,148.224l-1.871,4.578s-1.034,2.461,2.461,2.461h2.117l.985-2.264h-1.477a.651.651,0,0,1-.591-.886l1.428-3.791h2.412l1.034-2.412h-2.609L301.1,143.4l-3.5.64-.788,1.969H295.04l-.837,2.264Z" transform="translate(-231.292 -140.909)"/><path class="a" d="M335.734,139.2,331.6,150.818a1.737,1.737,0,0,0,1.625,2.314h1.526l.935-2.511h-.394a.462.462,0,0,1-.443-.591l4.086-10.83Z" transform="translate(-250.276 -138.777)"/><path class="a" d="M197.7,148.3l-.492.689s-1.92-1.723-5.366-.345-3.643,6.695-3.643,6.695.3,4.43,6.252,1.428l-.1.837h2.56l3.3-9.3Zm-3.544,6.793s-3.692,1.329-2.609-1.821,2.314-3.052,4.283-2.56Z" transform="translate(-177.519 -143.303)"/><path class="a" d="M318.7,148.3l-.492.689s-1.92-1.723-5.366-.345-3.643,6.695-3.643,6.695.3,4.43,6.252,1.428l-.1.837h2.56l3.3-9.3Zm-3.544,6.793s-3.692,1.329-2.609-1.821,2.314-3.052,4.283-2.56Z" transform="translate(-238.953 -143.303)"/></g></g></g></svg>