<svg xmlns="http://www.w3.org/2000/svg" width="182.126" height="30.502" viewBox="0 0 182.126 30.502"><defs><style>.a{fill:#707070;}</style></defs><g transform="translate(-140 -3951)"><path class="a" d="M36.779,4.02C34.657,2.34,31.651,1.5,27.849,1.5H14.72l-2.7,13.527H0v8.134H10.388l-1.5,7.6h9.858L20.2,23.382h2.431l4.111,7.338H36.956l-4.863-8.487A12,12,0,0,0,37.928,17.9a11.462,11.462,0,0,0,2.078-6.763A8.731,8.731,0,0,0,36.779,4.02ZM28.866,14.938a4.66,4.66,0,0,1-3.183,1.017H21.661L23.031,9.1h3.315c2.431,0,3.669.973,3.669,2.962A3.889,3.889,0,0,1,28.866,14.938Z" transform="translate(140 3950.163)"/><path class="a" d="M120.314,1.636A17.563,17.563,0,0,0,112.489,0a20.355,20.355,0,0,0-9.5,2.21A16.061,16.061,0,0,0,96.443,8.4,17.314,17.314,0,0,0,94.1,17.461a12.949,12.949,0,0,0,1.812,6.808,11.939,11.939,0,0,0,5.172,4.6,17.563,17.563,0,0,0,7.824,1.636,20.355,20.355,0,0,0,9.5-2.21,16.061,16.061,0,0,0,6.542-6.189,17.2,17.2,0,0,0,2.343-9.062,12.949,12.949,0,0,0-1.812-6.808A12.765,12.765,0,0,0,120.314,1.636Zm-3.846,16.489a8.062,8.062,0,0,1-2.652,3.271,7,7,0,0,1-4.067,1.194,5.71,5.71,0,0,1-4.2-1.547,5.542,5.542,0,0,1-1.5-4.111,10.769,10.769,0,0,1,.928-4.465,8.062,8.062,0,0,1,2.652-3.271A7,7,0,0,1,111.694,8a5.71,5.71,0,0,1,4.2,1.547,5.542,5.542,0,0,1,1.5,4.111A12.385,12.385,0,0,1,116.468,18.124Z" transform="translate(87.497 3951)"/><path class="a" d="M192.241,17.414a10.479,10.479,0,0,1-1.857,4.642,4.211,4.211,0,0,1-3.36,1.37,3.947,3.947,0,0,1-2.918-.973,3.825,3.825,0,0,1-1.017-2.918,9.588,9.588,0,0,1,.265-2.122L186.538,1.5h-9.858l-3.227,16.047a17.018,17.018,0,0,0-.354,3.094,10.307,10.307,0,0,0,1.5,5.658,9.8,9.8,0,0,0,4.376,3.713,15.914,15.914,0,0,0,6.763,1.326c4.465,0,8-1.105,10.7-3.36,2.652-2.254,4.465-5.57,5.349-9.99L205.1,1.5h-9.681Z" transform="translate(43.419 3950.163)"/><path class="a" d="M276.668,1.5H249.747L248.2,9.148h8.532L252.444,30.72H262.3l4.288-21.572h8.532Z" transform="translate(1.518 3950.163)"/><path class="a" d="M305.2,30.72h24.269l1.5-7.427H316.34l.751-3.846h12.378l1.415-7.117H318.55l.663-3.4H333.27l1.5-7.427H311.035Z" transform="translate(-30.285 3950.163)"/><path class="a" d="M378.4,1.5V8.927h5V30.72h9.858V1.5Z" transform="translate(-71.127 3950.163)"/></g></svg>