<svg xmlns="http://www.w3.org/2000/svg" width="174.771" height="84.342" viewBox="0 0 174.771 84.342"><defs><style>.a,.b{fill:#707070;}.a{fill-rule:evenodd;}</style></defs><g transform="translate(-1550 -3691)"><path class="a" d="M153.817,0c.553,2.546-.443,4.538-2.324,6.309-5.645,5.2-12.4,7.969-19.813,9.519C120.5,18.042,109.543,16.935,98.7,13.836c-6.862-1.882-13.836-4.1-20.809-5.645-13.5-3.1-26.232-.443-38.518,5.534.221,2.878-.111,5.756-2.767,7.859a26.168,26.168,0,0,0-1.771-5.2A23.942,23.942,0,0,0,31.4,11.954c.221-.111.885-.664,1.55-1.107C43.575,4.981,54.644,1,66.93.885c7.859-.111,15.385,1.55,22.912,3.763,6.641,1.882,13.393,4.1,20.145,5.313C122.051,12.286,134,11.29,145.073,5.534c2.878-1.439,5.424-3.653,8.08-5.424h.664Z" transform="translate(1553.355 3691)"/><path class="a" d="M47.089,12.6a3.238,3.238,0,0,1,3.321,3.21A3.386,3.386,0,0,1,47.2,19.13a3.191,3.191,0,0,1-3.1-3.21A3.122,3.122,0,0,1,47.089,12.6" transform="translate(1554.711 3692.346)"/><path class="a" d="M16.134,22.8c.664.443,1.107.664,1.55,1,10.626,8.412,22.912,10.626,35.972,9.74,8.08-.553,15.717-3.1,23.465-5.424,8.3-2.546,16.713-4.649,25.457-4.538,10.4.111,20.145,2.988,29.442,7.527,2.324,1.107,4.538,2.435,7.416,3.874-3.874,2.435-6.088,5.091-5.645,9.519a6.509,6.509,0,0,1-3.21-6.42,2.042,2.042,0,0,0-1.328-2.324c-9.187-4.1-18.706-6.752-28.889-6.2-7.305.443-14.389,2.435-21.473,4.538-8.3,2.546-16.6,4.87-25.347,5.313-10.515.553-20.587-1-29.774-6.42a39.461,39.461,0,0,1-5.977-4.649c-1.66-1.107-2.546-2.878-1.66-5.534" transform="translate(1551.686 3693.436)"/><path class="a" d="M111.889,37.7a3.171,3.171,0,0,1,3.321,3.21A3.309,3.309,0,0,1,112,44.23a3.191,3.191,0,0,1-3.1-3.21,3.059,3.059,0,0,1,2.988-3.321" transform="translate(1561.635 3695.028)"/><path class="b" d="M4.427,56.5l5.866,16.381L16.049,56.5h4.427L12.065,78.194H8.523L0,56.5Z" transform="translate(1550 3697.037)"/><path class="b" d="M29.015,78.326a11.14,11.14,0,0,1-4.317-.885,10.762,10.762,0,0,1-3.321-2.435A11.939,11.939,0,0,1,18.5,67.368a10.91,10.91,0,0,1,.775-4.206,14.653,14.653,0,0,1,2.214-3.542,10.77,10.77,0,0,1,3.431-2.435,11.018,11.018,0,0,1,4.206-.885,10.158,10.158,0,0,1,7.637,3.542,10.382,10.382,0,0,1,2.1,3.542,10.209,10.209,0,0,1,.775,3.985,10.005,10.005,0,0,1-.775,4.1,10.171,10.171,0,0,1-2.214,3.431,12.262,12.262,0,0,1-3.321,2.435,10.225,10.225,0,0,1-4.317,1M22.706,67.368a7.642,7.642,0,0,0,.443,2.767,7.731,7.731,0,0,0,1.218,2.324,7.249,7.249,0,0,0,1.992,1.66,5.645,5.645,0,0,0,5.313,0,7.249,7.249,0,0,0,1.992-1.66,5.857,5.857,0,0,0,1.218-2.324,11.111,11.111,0,0,0,.443-2.656,8.043,8.043,0,0,0-.443-2.767,7.731,7.731,0,0,0-1.218-2.324,5.41,5.41,0,0,0-1.992-1.55,5.212,5.212,0,0,0-2.656-.553,6,6,0,0,0-2.767.664,7.249,7.249,0,0,0-1.992,1.66,7.731,7.731,0,0,0-1.218,2.324,8.1,8.1,0,0,0-.332,2.435" transform="translate(1551.977 3697.015)"/><path class="b" d="M49.715,78.326a11.14,11.14,0,0,1-4.317-.885,10.762,10.762,0,0,1-3.321-2.435A11.939,11.939,0,0,1,39.2,67.368a10.91,10.91,0,0,1,.775-4.206,14.652,14.652,0,0,1,2.214-3.542,11.672,11.672,0,0,1,3.321-2.435,11.018,11.018,0,0,1,4.206-.885,10.158,10.158,0,0,1,7.637,3.542,10.382,10.382,0,0,1,2.1,3.542,10.209,10.209,0,0,1,.775,3.985,10.005,10.005,0,0,1-.775,4.1,10.171,10.171,0,0,1-2.214,3.431,12.262,12.262,0,0,1-3.321,2.435,8.745,8.745,0,0,1-4.206,1M43.406,67.368a7.642,7.642,0,0,0,.443,2.767,7.731,7.731,0,0,0,1.218,2.324,7.249,7.249,0,0,0,1.992,1.66,5.645,5.645,0,0,0,5.313,0,7.249,7.249,0,0,0,1.992-1.66,5.857,5.857,0,0,0,1.218-2.324,7.441,7.441,0,0,0,.443-2.656,8.043,8.043,0,0,0-.443-2.767,7.731,7.731,0,0,0-1.218-2.324,5.41,5.41,0,0,0-1.992-1.55,5.212,5.212,0,0,0-2.656-.553,6,6,0,0,0-2.767.664,7.249,7.249,0,0,0-1.992,1.66,7.731,7.731,0,0,0-1.218,2.324,14.394,14.394,0,0,0-.332,2.435" transform="translate(1554.188 3697.015)"/><path class="b" d="M76.742,60.153H69.768V78.194h-4.1V60.153H58.7V56.5H76.742Z" transform="translate(1556.272 3697.037)"/><path class="b" d="M101.488,72.549a5.635,5.635,0,0,1-.553,2.435,4.738,4.738,0,0,1-1.55,1.771,10.328,10.328,0,0,1-2.214,1.107,10.916,10.916,0,0,1-2.656.332H84V56.5H95.622a3.79,3.79,0,0,1,1.992.443,5.817,5.817,0,0,1,1.55,1.218,5.613,5.613,0,0,1,1,1.771,6.268,6.268,0,0,1,.332,1.992,5.482,5.482,0,0,1-.775,2.988,5.354,5.354,0,0,1-2.324,2.1,5.537,5.537,0,0,1,2.988,1.992,5.227,5.227,0,0,1,1.107,3.542M88.317,60.042v5.424h5.645a2.2,2.2,0,0,0,1.771-.775,2.368,2.368,0,0,0,.775-1.992,2.706,2.706,0,0,0-.664-1.992,2.354,2.354,0,0,0-1.66-.775H88.317Zm8.965,11.733a3.932,3.932,0,0,0-.221-1.107,2.41,2.41,0,0,0-.553-.885,4.813,4.813,0,0,0-.775-.664,3.232,3.232,0,0,0-1-.221h-6.42v5.756h6.309a3.275,3.275,0,0,0,1.107-.221,2.322,2.322,0,0,0,1.439-1.439c0-.443.111-.885.111-1.218" transform="translate(1558.975 3697.037)"/><path class="b" d="M117.953,74.431v3.763H102.9V56.5h14.721v3.653H107.106v5.2h9.076v3.431h-9.076v5.645Z" transform="translate(1560.994 3697.037)"/><rect class="b" width="4.206" height="21.694" transform="translate(1682.378 3753.537)"/><path class="b" d="M143.442,60.153h-6.973V78.194h-4.206V60.153H125.4V56.5h18.042Z" transform="translate(1563.398 3697.037)"/><path class="b" d="M147.891,56.5h3.763l8.191,21.694h-4.317l-1.992-5.424h-7.527l-1.992,5.424H139.7Zm4.87,13.282-2.988-8.523-3.1,8.523Z" transform="translate(1564.926 3697.037)"/></g></svg>